<svg width="300" height="300" viewBox="0 0 228 178" fill="none" xmlns="http://www.w3.org/2000/svg"
    style="">
    <path
        d="M1.00022 177C3.03871 177.029 5.31705 176.394 7.50022 175.5C24.6459 168.546 46.7091 134.48 86.0002 89L67 67C90.9355 78.425 101.095 70.2651 135 27C144.441 14.9532 150.545 5.16074 166.5 2C179.235 -0.522911 198.873 1.43559 227 0.999985C215.732 4.84847 210.536 8.54166 203 17.5L143 89L161.5 111C135 97.5 119.768 119.853 107 135.5C98.7804 145.639 89.0475 160.612 78 169.5C72.0129 174.317 65.5 176.5 59.0002 177C52.5004 177.5 43.3414 177.5 35 177.5C17.4764 177.5 0.928671 176.897 1.00022 177Z"
        stroke="#110F0D" class="SnVetlDe_0"></path>
    <path
        d="M147.5 164C162.5 181.5 188.5 182 204 163C204 163 178 130.5 168 121C158 111.5 135 107 118.5 129C118.5 129 132.5 146.5 147.5 164Z"
        stroke="#DAA628" class="SnVetlDe_1"></path>
    <path
        d="M81.5035 14.1644C66.3209 -3.28866 40.2555 -3.57241 24.8791 15.6437C24.8791 15.6437 51.214 48.0722 61.3175 57.5311C71.421 66.99 94.513 71.3171 110.867 49.0789C110.867 49.0789 96.6862 31.6174 81.5035 14.1644Z"
        stroke="#DAA628" class="SnVetlDe_2"></path>
    <style data-made-with="vivus-instant">
        .SnVetlDe_0{stroke-dasharray:685
        687;stroke-dashoffset:686;animation:SnVetlDe_draw 1500ms linear 0ms
        forwards;}.SnVetlDe_1{stroke-dasharray:223 225;stroke-dashoffset:224;animation:SnVetlDe_draw
        1500ms linear 250ms forwards;}.SnVetlDe_2{stroke-dasharray:224
        226;stroke-dashoffset:225;animation:SnVetlDe_draw 1500ms linear 500ms forwards;}@keyframes
        SnVetlDe_draw{100%{stroke-dashoffset:0;}}@keyframes
        SnVetlDe_fade{0%{stroke-opacity:1;}93.54838709677419%{stroke-opacity:1;}100%{stroke-opacity:0;}}</style>
</svg>