<svg xmlns="http://www.w3.org/2000/svg" viewBox="0 0 225.07 176.29">
  <defs>
    <style>
      .cls-1{
      fill:#110F0D;
      }
      .cls-2{
      fill:#daa628;
      }
</style>
    <filter id="shadow">
      <feOffset dx="3" dy="0" />
      <feGaussianBlur stdDeviation="2" />
    </filter>
  </defs>
  <g id="Layer_2" data-name="Layer 2">
    <g id="Layer_1-2" data-name="Layer 1">
      <path class="cls-1"
        d="M213.58,5.09a35.63,35.63,0,0,0-8.78,7c-1.91,2.09-64,75.93-64,76.06.39.48,7.64,9,10.88,12.8l7.78,9.08,0,0-.49-.29-.24-.14-.95-.52-.17-.09-.13-.06-.37-.18-1.13-.51a27.23,27.23,0,0,0-4.49-1.47c-.8-.19-1.26-.26-1.26-.26a29.58,29.58,0,0,0-3.42-.48c-.94-.08-1.77-.12-2.5-.13a30.83,30.83,0,0,0-4.68.27,24.83,24.83,0,0,0-2.64.48,27.3,27.3,0,0,0-6.82,2.74,37.25,37.25,0,0,0-5.92,4.09c-.88.71-1.81,1.52-2.92,2.54-.73.67-1.54,1.42-2.44,2.33-.21.21-.41.45-.64.68-1,1-1.9,2-2.72,2.87-2.43,2.68-4,4.72-4.38,5.17,0,0-12.12,15.1-28.37,35a38.56,38.56,0,0,1-11.77,9.69,33.23,33.23,0,0,1-7.36,2.73,54.47,54.47,0,0,1-8.21,1.44c-1.28.13-2.55.22-3.83.29-1,.06-2,.08-2.95.08H0s7.94-3.08,11.49-5.09a35.63,35.63,0,0,0,8.78-7c1.91-2.09,63.94-75.93,64-76-.38-.49-7.63-9-10.87-12.81l-7.79-9.07,0,0,.49.29.25.14c.31.18.63.35,1,.52l.17.09.13.06.37.18c.38.19.76.36,1.12.51a27.28,27.28,0,0,0,4.5,1.47c.8.19,1.25.26,1.25.26a27.94,27.94,0,0,0,3.43.48c.94.08,1.77.12,2.5.13a32,32,0,0,0,4.68-.26c.82-.12,1.7-.26,2.63-.49A27.19,27.19,0,0,0,95,66.93a37.25,37.25,0,0,0,5.92-4.09c.87-.71,1.81-1.51,2.92-2.54.73-.66,1.54-1.41,2.44-2.32.21-.22.41-.46.63-.69,1-1,1.91-2,2.73-2.87,2.43-2.68,4-4.71,4.38-5.17,0,0,12.12-15.1,28.37-35a38.44,38.44,0,0,1,11.77-9.69,33.15,33.15,0,0,1,7.35-2.73A54.6,54.6,0,0,1,169.7.37c1.27-.13,2.55-.22,3.83-.29,1-.06,2-.08,2.95-.08h48.59S217.13,3.08,213.58,5.09Z" />
      <path class="cls-2"
        d="M22.86,14.48a46.26,46.26,0,0,1,6.22-6.14,39,39,0,0,1,7.83-5.07A32.93,32.93,0,0,1,44.21.85,39.68,39.68,0,0,1,49.31.1a35.55,35.55,0,0,1,5.16,0A33.42,33.42,0,0,1,63.64,2a34.57,34.57,0,0,1,9.53,5.31A47.71,47.71,0,0,1,80.92,15c2.5,3.07,5,6.1,7.57,9.15l4.37,5.28.06.09,1.44,1.73,12,14.47c.68.83,1.37,1.65,2.06,2.46-1,1.15-2.07,2.26-3.13,3.36s-2.5,2.46-3.49,3.35S99.93,56.54,99,57.31c-.78.61-1.56,1.21-2.37,1.78a33.22,33.22,0,0,1-6.86,3.78,25.23,25.23,0,0,1-6,1.47,31.13,31.13,0,0,1-5.79.18,29.59,29.59,0,0,1-12-3.09,29.4,29.4,0,0,1-5-3.31,10.15,10.15,0,0,1-.87-.75,22.22,22.22,0,0,1-1.91-1.85c-1.76-1.89-3.39-3.9-5.08-5.86-2.4-2.78-4.78-5.58-7.17-8.37Q40.45,35,35.07,28.71q-5.26-6.13-10.52-12.28C24,15.78,23.44,15.12,22.86,14.48Z" />
      <path class="cls-2"
        d="M202.2,161.81A46.34,46.34,0,0,1,196,168a39.54,39.54,0,0,1-7.82,5.07,32.9,32.9,0,0,1-7.3,2.41,38.48,38.48,0,0,1-5.1.75,35.68,35.68,0,0,1-5.17,0,33.93,33.93,0,0,1-9.17-1.93A35,35,0,0,1,151.9,169a47.71,47.71,0,0,1-7.75-7.68c-2.5-3.07-5.05-6.1-7.57-9.15l-4.37-5.28a.47.47,0,0,1-.06-.09L130.7,145l-12-14.47c-.69-.82-1.37-1.65-2.07-2.46,1-1.15,2.07-2.26,3.14-3.36.93-.95,2.5-2.46,3.49-3.35s1.86-1.64,2.83-2.4c.78-.61,1.56-1.22,2.38-1.78a32.73,32.73,0,0,1,6.85-3.79A25.42,25.42,0,0,1,141.4,112a31,31,0,0,1,5.78-.17,29.34,29.34,0,0,1,12,3.09,28,28,0,0,1,5,3.3,9,9,0,0,1,.88.76,19.51,19.51,0,0,1,1.9,1.85c1.77,1.88,3.4,3.89,5.08,5.85q3.6,4.19,7.18,8.38L190,147.58l10.52,12.28C201.08,160.51,201.63,161.17,202.2,161.81Z" />
    </g>
  </g>
</svg>