<svg width="570" height="143" viewBox="0 0 570 143" fill="none" xmlns="http://www.w3.org/2000/svg" style="">
<g filter="url(#filter0_bi_23_28)">
<path d="M29.2537 32.4294V31.9294H29.7537H62.7965C75.2394 31.9294 84.7588 34.3049 91.181 38.798C97.6296 43.3095 100.905 49.9218 100.905 58.2434C100.905 66.5636 97.6302 73.2215 91.183 77.7796C84.7609 82.3199 75.2411 84.7428 62.7965 84.7428H29.7537H29.2537V84.2428V32.4294ZM130.436 141.5L96.1056 99.6019L95.6451 99.0399L96.3345 98.8106C106.589 95.399 114.597 90.1082 120.041 83.2582C125.482 76.4119 128.384 67.981 128.384 58.2434C128.384 44.0139 122.268 32.6042 111.203 24.7345C100.119 16.8515 84.0369 12.5 64.1009 12.5H1.99243V141.5H29.2537V104.114V103.614H29.7537H64.1009C66.062 103.614 67.9942 103.614 69.924 103.431L70.1897 103.406L70.3585 103.613L101.296 141.5H130.436Z" stroke="black" class="GHeNkgAz_0"></path>
</g>
<g filter="url(#filter1_bi_23_28)">
<path d="M175.219 61.2502H174.457L174.761 60.5507C177.98 53.1493 182.952 47.2183 189.669 42.7629L189.91 43.1252L189.669 42.7629C196.589 38.1732 204.2 35.8751 212.492 35.8751C220.782 35.8751 228.394 38.1732 235.315 42.7629L235.316 42.763C242.031 47.2183 247.003 53.1493 250.224 60.5507L250.528 61.2502H249.766H175.219ZM172.189 85.2233L172.068 84.6239H172.679H276.542C276.842 82.0833 276.992 79.5419 276.992 77.0007C276.992 71.4894 276.321 66.1149 274.978 60.8747C273.163 53.9551 270.306 47.5392 266.412 41.6274C262.513 35.7136 257.809 30.5745 252.3 26.2046C246.723 21.8392 240.61 18.4797 233.96 16.1289C227.039 13.7092 219.884 12.5 212.492 12.5C203.756 12.5 195.392 14.1806 187.397 17.538C179.67 20.8323 172.818 25.4342 166.838 31.3455C160.924 37.3278 156.322 44.1801 153.03 51.9064C149.672 59.902 147.992 68.2659 147.992 77.0007C147.992 85.7356 149.672 94.0996 153.03 102.094C156.322 109.821 160.924 116.674 166.838 122.653C172.818 128.567 179.67 133.169 187.397 136.461C195.392 139.819 203.756 141.5 212.492 141.5C225.259 141.5 236.946 138.039 247.564 131.119L247.565 131.119C257.772 124.492 265.493 115.707 270.732 104.762L249.597 94.8279C246.243 101.744 241.346 107.318 234.908 111.543L234.905 111.545C228.12 115.931 220.644 118.125 212.492 118.125C202.625 118.125 193.881 114.97 186.275 108.665C178.806 102.5 174.107 94.6789 172.189 85.2233Z" stroke="black" class="GHeNkgAz_1"></path>
</g>
<g filter="url(#filter2_bi_23_28)">
<path d="M373.524 115.828L373.524 115.828L373.516 115.831C368.38 117.809 363.038 118.797 357.492 118.797C351.88 118.797 346.536 117.809 341.467 115.83L341.463 115.829C336.533 113.852 332.178 111.108 328.409 107.595L328.406 107.592C324.638 104.02 321.688 99.9652 319.562 95.4286L319.562 95.4286L319.558 95.4192C317.431 90.6259 316.366 85.6377 316.366 80.4587C316.366 75.2797 317.431 70.2927 319.558 65.4994L319.558 65.4993L319.562 65.49C321.688 60.9546 324.638 56.8997 328.406 53.3266L328.409 53.3236C332.178 49.8117 336.533 47.0677 341.463 45.09L341.467 45.0883C346.536 43.1107 351.88 42.1214 357.492 42.1214C363.038 42.1214 368.38 43.111 373.516 45.0875L373.516 45.0874L373.524 45.0909C378.387 47.0686 382.735 49.8116 386.572 53.3204L386.573 53.3204L386.579 53.3267C390.346 56.9006 393.264 60.957 395.322 65.4948C397.519 70.2889 398.618 75.2775 398.618 80.4587C398.618 85.6396 397.519 90.6293 395.322 95.4232C393.264 99.9625 390.346 104.019 386.579 107.592L386.579 107.592L386.573 107.598C382.735 111.108 378.387 113.851 373.524 115.828ZM421.992 80.4587V1.5H398.618V33.1621V34.1562L397.82 33.5636C392.175 29.3712 385.993 26.1473 379.273 23.8927C372.281 21.5777 365.023 20.4186 357.492 20.4186C348.752 20.4186 340.384 21.9847 332.387 25.1126C324.656 28.182 317.804 32.469 311.825 37.974C305.913 43.5441 301.314 49.9224 298.025 57.1119C294.67 64.5523 292.992 72.3339 292.992 80.4587C292.992 88.5858 294.67 96.3672 298.025 103.806C301.314 110.997 305.913 117.376 311.825 122.944C317.804 128.451 324.656 132.738 332.386 135.804C340.383 138.934 348.751 140.5 357.492 140.5C366.232 140.5 374.599 138.934 382.599 135.805C390.327 132.738 397.18 128.451 403.16 122.943C409.071 117.376 413.67 110.997 416.96 103.806C420.315 96.367 421.992 88.5857 421.992 80.4587Z" stroke="black" class="GHeNkgAz_2"></path>
</g>
<g filter="url(#filter3_bi_23_28)">
<path d="M463.012 11.2823H437.492V78.7823C439.492 110.282 460.492 125.782 460.492 125.782C479.992 140.782 494.992 141.782 494.992 141.782C536.492 144.782 554.992 115.782 554.992 115.782C566.992 101.282 568.695 83.7828 568.492 75.7823V11.6304H542.992V76.2823C540.492 115.782 502.992 115.782 502.992 115.782C474.492 116.282 464.992 88.7823 464.992 88.7823C463.492 83.2823 462.992 77.2823 462.992 77.2823L463.012 11.2823Z" stroke="black" class="GHeNkgAz_3"></path>
</g>
<defs>
<filter id="filter0_bi_23_28" x="-3.50757" y="8" width="140" height="138" filterUnits="userSpaceOnUse" color-interpolation-filters="sRGB">
<feFlood flood-opacity="0" result="BackgroundImageFix"></feFlood>
<feGaussianBlur in="BackgroundImageFix" stdDeviation="2"></feGaussianBlur>
<feComposite in2="SourceAlpha" operator="in" result="effect1_backgroundBlur_23_28"></feComposite>
<feBlend mode="normal" in="SourceGraphic" in2="effect1_backgroundBlur_23_28" result="shape"></feBlend>
<feColorMatrix in="SourceAlpha" type="matrix" values="0 0 0 0 0 0 0 0 0 0 0 0 0 0 0 0 0 0 127 0" result="hardAlpha"></feColorMatrix>
<feOffset dy="4"></feOffset>
<feGaussianBlur stdDeviation="2"></feGaussianBlur>
<feComposite in2="hardAlpha" operator="arithmetic" k2="-1" k3="1"></feComposite>
<feColorMatrix type="matrix" values="0 0 0 0 0 0 0 0 0 0 0 0 0 0 0 0 0 0 0.25 0"></feColorMatrix>
<feBlend mode="normal" in2="shape" result="effect2_innerShadow_23_28"></feBlend>
</filter>
<filter id="filter1_bi_23_28" x="143.492" y="8" width="138" height="138" filterUnits="userSpaceOnUse" color-interpolation-filters="sRGB">
<feFlood flood-opacity="0" result="BackgroundImageFix"></feFlood>
<feGaussianBlur in="BackgroundImageFix" stdDeviation="2"></feGaussianBlur>
<feComposite in2="SourceAlpha" operator="in" result="effect1_backgroundBlur_23_28"></feComposite>
<feBlend mode="normal" in="SourceGraphic" in2="effect1_backgroundBlur_23_28" result="shape"></feBlend>
<feColorMatrix in="SourceAlpha" type="matrix" values="0 0 0 0 0 0 0 0 0 0 0 0 0 0 0 0 0 0 127 0" result="hardAlpha"></feColorMatrix>
<feOffset dy="4"></feOffset>
<feGaussianBlur stdDeviation="2"></feGaussianBlur>
<feComposite in2="hardAlpha" operator="arithmetic" k2="-1" k3="1"></feComposite>
<feColorMatrix type="matrix" values="0 0 0 0 0 0 0 0 0 0 0 0 0 0 0 0 0 0 0.25 0"></feColorMatrix>
<feBlend mode="normal" in2="shape" result="effect2_innerShadow_23_28"></feBlend>
</filter>
<filter id="filter2_bi_23_28" x="288.492" y="-4" width="138" height="150" filterUnits="userSpaceOnUse" color-interpolation-filters="sRGB">
<feFlood flood-opacity="0" result="BackgroundImageFix"></feFlood>
<feGaussianBlur in="BackgroundImageFix" stdDeviation="2"></feGaussianBlur>
<feComposite in2="SourceAlpha" operator="in" result="effect1_backgroundBlur_23_28"></feComposite>
<feBlend mode="normal" in="SourceGraphic" in2="effect1_backgroundBlur_23_28" result="shape"></feBlend>
<feColorMatrix in="SourceAlpha" type="matrix" values="0 0 0 0 0 0 0 0 0 0 0 0 0 0 0 0 0 0 127 0" result="hardAlpha"></feColorMatrix>
<feOffset dy="4"></feOffset>
<feGaussianBlur stdDeviation="2"></feGaussianBlur>
<feComposite in2="hardAlpha" operator="arithmetic" k2="-1" k3="1"></feComposite>
<feColorMatrix type="matrix" values="0 0 0 0 0 0 0 0 0 0 0 0 0 0 0 0 0 0 0.25 0"></feColorMatrix>
<feBlend mode="normal" in2="shape" result="effect2_innerShadow_23_28"></feBlend>
</filter>
<filter id="filter3_bi_23_28" x="432.992" y="6.78235" width="140.015" height="139.718" filterUnits="userSpaceOnUse" color-interpolation-filters="sRGB">
<feFlood flood-opacity="0" result="BackgroundImageFix"></feFlood>
<feGaussianBlur in="BackgroundImageFix" stdDeviation="2"></feGaussianBlur>
<feComposite in2="SourceAlpha" operator="in" result="effect1_backgroundBlur_23_28"></feComposite>
<feBlend mode="normal" in="SourceGraphic" in2="effect1_backgroundBlur_23_28" result="shape"></feBlend>
<feColorMatrix in="SourceAlpha" type="matrix" values="0 0 0 0 0 0 0 0 0 0 0 0 0 0 0 0 0 0 127 0" result="hardAlpha"></feColorMatrix>
<feOffset dy="4"></feOffset>
<feGaussianBlur stdDeviation="2"></feGaussianBlur>
<feComposite in2="hardAlpha" operator="arithmetic" k2="-1" k3="1"></feComposite>
<feColorMatrix type="matrix" values="0 0 0 0 0 0 0 0 0 0 0 0 0 0 0 0 0 0 0.25 0"></feColorMatrix>
<feBlend mode="normal" in2="shape" result="effect2_innerShadow_23_28"></feBlend>
</filter>
</defs>
<style data-made-with="vivus-instant">.GHeNkgAz_0{stroke-dasharray:801 803;stroke-dashoffset:802;animation:GHeNkgAz_draw 2000ms ease-in-out 0ms forwards;}.GHeNkgAz_1{stroke-dasharray:790 792;stroke-dashoffset:791;animation:GHeNkgAz_draw 2000ms ease-in-out 0ms forwards;}.GHeNkgAz_2{stroke-dasharray:723 725;stroke-dashoffset:724;animation:GHeNkgAz_draw 2000ms ease-in-out 0ms forwards;}.GHeNkgAz_3{stroke-dasharray:641 643;stroke-dashoffset:642;animation:GHeNkgAz_draw 2000ms ease-in-out 0ms forwards;}@keyframes GHeNkgAz_draw{100%{stroke-dashoffset:0;}}@keyframes GHeNkgAz_fade{0%{stroke-opacity:1;}93.54838709677419%{stroke-opacity:1;}100%{stroke-opacity:0;}}</style></svg>
