<svg width="1647" height="287" viewBox="0 0 1647 287" fill="none" xmlns="http://www.w3.org/2000/svg" style="">
<path d="M284.897 277.83C284.645 277.83 284.52 277.83 284.401 277.8C284.323 277.781 284.248 277.752 284.177 277.715C284.069 277.658 283.975 277.574 283.788 277.407L196.408 199.6C196.204 199.419 196.103 199.328 195.985 199.269C195.908 199.23 195.827 199.202 195.743 199.184C195.614 199.157 195.477 199.164 195.204 199.179C189.881 199.462 184.539 199.574 179.197 199.514H83.0992C82.4729 199.514 82.1598 199.514 81.9269 199.649C81.7767 199.736 81.6517 199.861 81.5645 200.012C81.4292 200.245 81.4292 200.558 81.4292 201.184V276.159C81.4292 276.786 81.4292 277.099 81.2939 277.332C81.2066 277.482 81.0817 277.607 80.9314 277.694C80.6985 277.829 80.3854 277.829 79.7592 277.829H2.67C2.04376 277.829 1.73065 277.829 1.49773 277.694C1.34748 277.607 1.22256 277.482 1.13529 277.332C1 277.099 1 276.786 1 276.159V10.7607C1 10.1345 1 9.82136 1.13529 9.58845C1.22256 9.43819 1.34748 9.31327 1.49773 9.226C1.73065 9.09071 2.04376 9.09071 2.67 9.09071H179.197C293.06 9.09071 363.747 45.1995 363.747 104.688C363.578 144.653 331.362 174.265 274.5 188.831C273.408 189.111 272.862 189.251 272.649 189.565C272.514 189.766 272.456 190.005 272.485 190.245C272.53 190.622 272.946 190.99 273.777 191.727L367.702 274.986C368.798 275.957 369.346 276.443 369.361 276.871C369.371 277.14 369.271 277.402 369.085 277.597C368.789 277.907 368.057 277.907 366.592 277.905L284.897 277.83ZM175.464 51.3241H83.0992C82.4729 51.3241 82.1598 51.3241 81.9269 51.4594C81.7767 51.5467 81.6517 51.6716 81.5645 51.8219C81.4292 52.0548 81.4292 52.3679 81.4292 52.9941V156.782C81.4292 157.408 81.4292 157.721 81.5645 157.954C81.6517 158.105 81.7767 158.23 81.9269 158.317C82.1598 158.452 82.4729 158.452 83.0992 158.452H175.464C246.021 158.452 282.545 138.48 282.545 104.688C282.545 70.8964 246.021 51.3241 175.464 51.3241Z" stroke="black" stroke-width="2" class="HTlIIrlb_0"></path>
<path d="M473.253 160.749C479.063 180.136 494.423 197.555 516.745 210.071C539.067 222.588 566.988 229.437 595.803 229.466C619.996 229.595 643.706 224.814 663.959 215.722C683.631 206.934 699.294 194.511 709.15 179.882L777.265 201.781C761.498 225.172 736.343 244.987 704.754 258.9C672.476 273.501 634.614 281.192 595.967 280.996C569.162 281.072 542.611 277.425 517.91 270.273C469.885 256.368 431.723 230.072 411.629 197.04C401.313 180.122 396 161.962 396 143.619C396 125.276 401.313 107.116 411.629 90.1975C431.751 57.1067 469.972 30.7608 518.074 16.8242C550.975 7.28014 586.996 3.96097 622.396 7.21147C657.796 10.462 691.283 20.1636 719.379 35.3087C736.431 44.5778 751.204 55.6687 763.132 68.1573C784.704 90.4957 796.142 116.728 795.999 143.534C795.992 149.27 795.47 155 794.437 160.692L473.253 160.749ZM595.803 57.6875C571.457 57.6749 547.635 62.5441 527.259 71.6978C506.884 80.8515 490.841 93.8915 481.1 109.218H710.547C700.789 93.8937 684.737 80.8566 664.357 71.7039C643.976 62.5512 620.152 57.6802 595.803 57.6875Z" stroke="black" stroke-width="2" class="HTlIIrlb_1"></path>
<path d="M1221 1V162.701C1221.07 179.158 1215.75 195.455 1205.36 210.615C1185.26 240.314 1146.99 263.942 1098.84 276.388C1074.21 282.733 1047.78 286 1021.08 286C994.383 286 967.951 282.733 943.318 276.388C895.151 263.978 856.824 240.403 836.596 210.741C826.301 195.56 821 179.269 821 162.815C821 146.361 826.301 130.071 836.596 114.889C856.854 85.24 895.171 61.6701 943.318 49.2422C976.494 40.5835 1012.85 37.6224 1048.54 40.6734C1084.23 43.7244 1117.91 52.6736 1146.01 66.571V1H1221ZM1020.94 239.681C1037.71 239.728 1054.33 237.706 1069.82 233.736C1084.58 229.773 1098.02 224.164 1109.48 217.192C1120.71 210.144 1129.67 201.842 1135.87 192.729C1142.45 183.238 1145.84 173.023 1145.84 162.701C1145.84 152.38 1142.45 142.165 1135.87 132.673C1129.63 123.55 1120.61 115.247 1109.31 108.211C1097.86 101.238 1084.42 95.6294 1069.66 91.666C1054.22 87.7123 1037.66 85.6831 1020.94 85.6958C1004.51 85.6238 988.222 87.5787 973.037 91.4454C957.853 95.3121 944.078 101.012 932.523 108.211C921.317 115.29 912.328 123.583 906.006 132.673C899.604 142.193 896.309 152.396 896.309 162.701C896.309 173.006 899.604 183.21 906.006 192.729C912.437 201.824 921.538 210.109 932.851 217.167C944.192 224.193 957.609 229.817 972.379 233.736C987.754 237.706 1004.27 239.728 1020.94 239.681Z" stroke="black" stroke-width="2" class="HTlIIrlb_2"></path>
<path d="M1321.9 7.41026H1246V152.667C1246 214.718 1336.26 281 1443.92 281C1547.54 281 1643.95 224.59 1646 152.635V6H1569.05V152.635C1569.05 195.885 1506.31 231.84 1443.92 230.199C1382.21 228.577 1321.9 189.833 1321.9 152.667V7.41026Z" stroke="black" stroke-width="2" class="HTlIIrlb_3"></path>
<style data-made-with="vivus-instant">.HTlIIrlb_0{stroke-dasharray:1977 1979;stroke-dashoffset:1978;animation:HTlIIrlb_draw 2000ms ease-in-out 0ms forwards;}.HTlIIrlb_1{stroke-dasharray:2187 2189;stroke-dashoffset:2188;animation:HTlIIrlb_draw 2000ms ease-in-out 0ms forwards;}.HTlIIrlb_2{stroke-dasharray:1848 1850;stroke-dashoffset:1849;animation:HTlIIrlb_draw 2000ms ease-in-out 0ms forwards;}.HTlIIrlb_3{stroke-dasharray:1572 1574;stroke-dashoffset:1573;animation:HTlIIrlb_draw 2000ms ease-in-out 0ms forwards;}@keyframes HTlIIrlb_draw{100%{stroke-dashoffset:0;}}@keyframes HTlIIrlb_fade{0%{stroke-opacity:1;}93.54838709677419%{stroke-opacity:1;}100%{stroke-opacity:0;}}</style></svg>
