<svg width="431" height="113" viewBox="0 0 431 113" fill="none" xmlns="http://www.w3.org/2000/svg"
    style="" class="">
    <g id="Group 1">
        <g id="R" filter="url(#filter0_b_16_37)">
            <path
                d="M-7.70111e-06 9.21631V110H17.5V80.5H44.5L65 110.5H85.5L61.5 77C85.5 67 88.6609 41.4364 77.5 25.5C70.4849 15.4832 58.2891 9.21631 41.5 9.21631H-7.70111e-06Z"
                stroke="110F0D" stroke-linejoin="round" class="QXLyKBOY_0"></path>
        </g>
        <g id="E" filter="url(#filter1_b_16_37)">
            <path
                d="M195 84.5001L178.5 77.0001C174.544 83.641 169.33 88.7704 163 91.5C146.929 98.4294 126.381 91.8809 121 70.0001H199.5C200.724 40.1074 182.206 15.062 149.5 15.0001C125 14.9537 104.409 37.0001 102.5 58.0001C97.3637 114.5 169.919 134.17 195 84.5001Z"
                stroke="#110F0D" stroke-linejoin="round" class="QXLyKBOY_1"></path>
        </g>
        <g id="D" filter="url(#filter2_b_16_37)">
            <path
                d="M312 0H293.5V26C271.5 9.5 249.5 16.3734 239.5 21.5C227.5 27.6519 214.5 41.5 214.5 66.5C214.5 78.5832 219.389 87.2223 225 94.5C243.978 119.116 286.116 117.716 303.5 91.5C307.986 84.7345 312 75.8828 312 66V0Z"
                stroke="#110F0D" stroke-linejoin="round" class="QXLyKBOY_2"></path>
        </g>
        <g id="U" filter="url(#filter3_b_16_37)">
            <path
                d="M351 15.5H332.5V67C332.5 89 354.5 112.5 380.743 112.5C406 112.5 429.5 92.5 430 66.9889V15H411.243V66.9889C411.243 82.3229 395.951 95.0705 380.743 94.4889C365.702 93.9136 351 80.177 351 67V15.5Z"
                stroke="#110F0D" stroke-linejoin="round" class="QXLyKBOY_3"></path>
        </g>
        <g id="Ee" filter="url(#filter4_b_16_37)">
            <path d="M179 52H123C128.5 39 137 34 151 33.5C163.198 33.4632 170.5 37 179 52Z"
                stroke="#110F0D" stroke-linejoin="round" class="QXLyKBOY_4"></path>
        </g>
        <g id="Dd" filter="url(#filter5_b_16_37)">
            <path
                d="M293 62.5C292.51 48.0624 282.206 34.0165 263 34C221.652 33.2761 222.938 94.5 263 94.5C281.5 94.5 293.535 78.2477 293 62.5Z"
                stroke="#110F0D" stroke-linejoin="round" class="QXLyKBOY_5"></path>
        </g>
        <g id="Rr" filter="url(#filter6_b_16_37)">
            <path d="M17.5 65V25L41.9999 25C71.5 25 73.5 65 41.4999 65H17.5Z" stroke="#110F0D"
                stroke-linejoin="round" class="QXLyKBOY_6"></path>
        </g>
    </g>
    <defs>
        <filter id="filter0_b_16_37" x="-4.5" y="4.71631" width="94.5" height="110.284"
            filterUnits="userSpaceOnUse" color-interpolation-filters="sRGB">
            <feFlood flood-opacity="0" result="BackgroundImageFix"></feFlood>
            <feGaussianBlur in="BackgroundImageFix" stdDeviation="2"></feGaussianBlur>
            <feComposite in2="SourceAlpha" operator="in" result="effect1_backgroundBlur_16_37"></feComposite>
            <feBlend mode="normal" in="SourceGraphic" in2="effect1_backgroundBlur_16_37"
                result="shape"></feBlend>
        </filter>
        <filter id="filter1_b_16_37" x="97.7401" y="10.5" width="106.317" height="106.905"
            filterUnits="userSpaceOnUse" color-interpolation-filters="sRGB">
            <feFlood flood-opacity="0" result="BackgroundImageFix"></feFlood>
            <feGaussianBlur in="BackgroundImageFix" stdDeviation="2"></feGaussianBlur>
            <feComposite in2="SourceAlpha" operator="in" result="effect1_backgroundBlur_16_37"></feComposite>
            <feBlend mode="normal" in="SourceGraphic" in2="effect1_backgroundBlur_16_37"
                result="shape"></feBlend>
        </filter>
        <filter id="filter2_b_16_37" x="210" y="-4.5" width="106.5" height="121.097"
            filterUnits="userSpaceOnUse" color-interpolation-filters="sRGB">
            <feFlood flood-opacity="0" result="BackgroundImageFix"></feFlood>
            <feGaussianBlur in="BackgroundImageFix" stdDeviation="2"></feGaussianBlur>
            <feComposite in2="SourceAlpha" operator="in" result="effect1_backgroundBlur_16_37"></feComposite>
            <feBlend mode="normal" in="SourceGraphic" in2="effect1_backgroundBlur_16_37"
                result="shape"></feBlend>
        </filter>
        <filter id="filter3_b_16_37" x="328" y="10.5" width="106.5" height="106.5"
            filterUnits="userSpaceOnUse" color-interpolation-filters="sRGB">
            <feFlood flood-opacity="0" result="BackgroundImageFix"></feFlood>
            <feGaussianBlur in="BackgroundImageFix" stdDeviation="2"></feGaussianBlur>
            <feComposite in2="SourceAlpha" operator="in" result="effect1_backgroundBlur_16_37"></feComposite>
            <feBlend mode="normal" in="SourceGraphic" in2="effect1_backgroundBlur_16_37"
                result="shape"></feBlend>
        </filter>
        <filter id="filter4_b_16_37" x="118.5" y="28.9997" width="65" height="27.5003"
            filterUnits="userSpaceOnUse" color-interpolation-filters="sRGB">
            <feFlood flood-opacity="0" result="BackgroundImageFix"></feFlood>
            <feGaussianBlur in="BackgroundImageFix" stdDeviation="2"></feGaussianBlur>
            <feComposite in2="SourceAlpha" operator="in" result="effect1_backgroundBlur_16_37"></feComposite>
            <feBlend mode="normal" in="SourceGraphic" in2="effect1_backgroundBlur_16_37"
                result="shape"></feBlend>
        </filter>
        <filter id="filter5_b_16_37" x="227.969" y="29.4937" width="69.548" height="69.5064"
            filterUnits="userSpaceOnUse" color-interpolation-filters="sRGB">
            <feFlood flood-opacity="0" result="BackgroundImageFix"></feFlood>
            <feGaussianBlur in="BackgroundImageFix" stdDeviation="2"></feGaussianBlur>
            <feComposite in2="SourceAlpha" operator="in" result="effect1_backgroundBlur_16_37"></feComposite>
            <feBlend mode="normal" in="SourceGraphic" in2="effect1_backgroundBlur_16_37"
                result="shape"></feBlend>
        </filter>
        <filter id="filter6_b_16_37" x="13" y="20.5" width="56.3159" height="49"
            filterUnits="userSpaceOnUse" color-interpolation-filters="sRGB">
            <feFlood flood-opacity="0" result="BackgroundImageFix"></feFlood>
            <feGaussianBlur in="BackgroundImageFix" stdDeviation="2"></feGaussianBlur>
            <feComposite in2="SourceAlpha" operator="in" result="effect1_backgroundBlur_16_37"></feComposite>
            <feBlend mode="normal" in="SourceGraphic" in2="effect1_backgroundBlur_16_37"
                result="shape"></feBlend>
        </filter>
    </defs>
    <style>
        .QXLyKBOY_0{
        stroke-dasharray:418 420;
        stroke-dashoffset:419;
        animation:QXLyKBOY_draw 2000ms ease 0ms forwards;
        }
        .QXLyKBOY_1{
        stroke-dasharray:464 466;
        stroke-dashoffset:465;
        animation:QXLyKBOY_draw 2000ms ease 0ms forwards;
        }
        .QXLyKBOY_2{
        stroke-dasharray:371 373;
        stroke-dashoffset:372;
        animation:QXLyKBOY_draw 2000ms ease 0ms forwards;
        }
        .QXLyKBOY_3{
        stroke-dasharray:481 483;
        stroke-dashoffset:482;
        animation:QXLyKBOY_draw 2000ms ease 0ms forwards;
        }
        .QXLyKBOY_4{
        stroke-dasharray:128 130;
        stroke-dashoffset:129;
        animation:QXLyKBOY_draw 2000ms ease 0ms forwards;
        }
        .QXLyKBOY_5{
        stroke-dasharray:192 194;
        stroke-dashoffset:193;
        animation:QXLyKBOY_draw 2000ms ease 0ms forwards;
        }
        .QXLyKBOY_6{
        stroke-dasharray:157 159;
        stroke-dashoffset:158;
        animation:QXLyKBOY_draw 2000ms ease 0ms forwards;
        }
        @keyframes QXLyKBOY_draw{
        100%{
        stroke-dashoffset:0;
        }
        }
        @keyframes QXLyKBOY_fade{
        0%{
        stroke-opacity:1;
        }
        93.54838709677419%{
        stroke-opacity:1;
        }
        100%{
        stroke-opacity:0;
        }
        }
</style>
</svg>