<svg width="1645" height="285" viewBox="0 0 1645 285" fill="none" xmlns="http://www.w3.org/2000/svg">
<path d="M283.897 276.83C283.645 276.83 283.52 276.83 283.401 276.8C283.323 276.781 283.248 276.752 283.177 276.715C283.069 276.658 282.975 276.574 282.788 276.407L195.408 198.6C195.204 198.419 195.103 198.328 194.985 198.269C194.908 198.23 194.827 198.202 194.743 198.184C194.614 198.157 194.477 198.164 194.204 198.179C188.881 198.462 183.539 198.574 178.197 198.514H82.0992C81.4729 198.514 81.1598 198.514 80.9269 198.649C80.7767 198.736 80.6517 198.861 80.5645 199.012C80.4292 199.245 80.4292 199.558 80.4292 200.184V275.159C80.4292 275.786 80.4292 276.099 80.2939 276.332C80.2066 276.482 80.0817 276.607 79.9314 276.694C79.6985 276.829 79.3854 276.829 78.7592 276.829H1.67C1.04376 276.829 0.730647 276.829 0.497734 276.694C0.347481 276.607 0.222561 276.482 0.135287 276.332C0 276.099 0 275.786 0 275.159V9.76073C0 9.13448 0 8.82136 0.135287 8.58845C0.222561 8.43819 0.347481 8.31327 0.497734 8.226C0.730647 8.09071 1.04376 8.09071 1.67 8.09071H178.197C292.06 8.09071 362.747 44.1995 362.747 103.688C362.578 143.653 330.362 173.265 273.5 187.831C272.408 188.111 271.862 188.251 271.649 188.565C271.514 188.766 271.456 189.005 271.485 189.245C271.53 189.622 271.946 189.99 272.777 190.727L366.702 273.986C367.798 274.957 368.346 275.443 368.361 275.871C368.371 276.14 368.271 276.402 368.085 276.597C367.789 276.907 367.057 276.907 365.592 276.905L283.897 276.83ZM174.464 50.3241H82.0992C81.4729 50.3241 81.1598 50.3241 80.9269 50.4594C80.7767 50.5467 80.6517 50.6716 80.5645 50.8219C80.4292 51.0548 80.4292 51.3679 80.4292 51.9941V155.782C80.4292 156.408 80.4292 156.721 80.5645 156.954C80.6517 157.105 80.7767 157.23 80.9269 157.317C81.1598 157.452 81.4729 157.452 82.0992 157.452H174.464C245.021 157.452 281.545 137.48 281.545 103.688C281.545 69.8964 245.021 50.3241 174.464 50.3241Z" fill="#110F0D"/>
<path d="M472.253 159.749C478.063 179.136 493.423 196.555 515.745 209.071C538.067 221.588 565.988 228.437 594.803 228.466C618.996 228.595 642.706 223.814 662.959 214.722C682.631 205.934 698.294 193.511 708.15 178.882L776.265 200.781C760.498 224.172 735.343 243.987 703.754 257.9C671.476 272.501 633.614 280.192 594.967 279.996C568.162 280.072 541.611 276.425 516.91 269.273C468.885 255.368 430.723 229.072 410.629 196.04C400.313 179.122 395 160.962 395 142.619C395 124.276 400.313 106.116 410.629 89.1975C430.751 56.1067 468.972 29.7608 517.074 15.8242C549.975 6.28014 585.996 2.96097 621.396 6.21147C656.796 9.46196 690.283 19.1636 718.379 34.3087C735.431 43.5778 750.204 54.6687 762.132 67.1573C783.704 89.4957 795.142 115.728 794.999 142.534C794.992 148.27 794.47 154 793.437 159.692L472.253 159.749ZM594.803 56.6875C570.457 56.6749 546.635 61.5441 526.259 70.6978C505.884 79.8515 489.841 92.8915 480.1 108.218H709.547C699.789 92.8937 683.737 79.8566 663.357 70.7039C642.976 61.5512 619.152 56.6802 594.803 56.6875Z" fill="#110F0D"/>
<path d="M1220 0V161.701C1220.07 178.158 1214.75 194.455 1204.36 209.615C1184.26 239.314 1145.99 262.942 1097.84 275.388C1073.21 281.733 1046.78 285 1020.08 285C993.383 285 966.951 281.733 942.318 275.388C894.151 262.978 855.824 239.403 835.596 209.741C825.301 194.56 820 178.269 820 161.815C820 145.361 825.301 129.071 835.596 113.889C855.854 84.24 894.171 60.6701 942.318 48.2422C975.494 39.5835 1011.85 36.6224 1047.54 39.6734C1083.23 42.7244 1116.91 51.6736 1145.01 65.571V0H1220ZM1019.94 238.681C1036.71 238.728 1053.33 236.706 1068.82 232.736C1083.58 228.773 1097.02 223.164 1108.48 216.192C1119.71 209.144 1128.67 200.842 1134.87 191.729C1141.45 182.238 1144.84 172.023 1144.84 161.701C1144.84 151.38 1141.45 141.165 1134.87 131.673C1128.63 122.55 1119.61 114.247 1108.31 107.211C1096.86 100.238 1083.42 94.6294 1068.66 90.666C1053.22 86.7123 1036.66 84.6831 1019.94 84.6958C1003.51 84.6238 987.222 86.5787 972.037 90.4454C956.853 94.3121 943.078 100.012 931.523 107.211C920.317 114.29 911.328 122.583 905.006 131.673C898.604 141.193 895.309 151.396 895.309 161.701C895.309 172.006 898.604 182.21 905.006 191.729C911.437 200.824 920.538 209.109 931.851 216.167C943.192 223.193 956.609 228.817 971.379 232.736C986.754 236.706 1003.27 238.728 1019.94 238.681Z" fill="#110F0D"/>
<path d="M1320.9 6.41026H1245V151.667C1245 213.718 1335.26 280 1442.92 280C1546.54 280 1642.95 223.59 1645 151.635V5H1568.05V151.635C1568.05 194.885 1505.31 230.84 1442.92 229.199C1381.21 227.577 1320.9 188.833 1320.9 151.667V6.41026Z" fill="#110F0D"/>
</svg>
