<svg width="600" height="450" viewBox="0 0 600 450" fill="none" xmlns="http://www.w3.org/2000/svg">
<path d="M568.472 22.413C559.761 26.9357 551.888 32.6976 545.144 39.4838C540.069 44.5807 375.099 224.654 375.099 224.971C376.135 226.142 395.398 246.919 404.006 256.186L424.677 278.33L423.376 277.622L422.738 277.281L420.214 276.013L419.762 275.793L419.417 275.647L418.434 275.208L415.431 273.964C411.575 272.454 407.584 271.255 403.502 270.379C401.376 269.916 400.154 269.745 400.154 269.745C397.152 269.193 394.118 268.802 391.067 268.575C388.569 268.38 386.364 268.282 384.425 268.258C380.268 268.187 376.111 268.407 371.99 268.916C369.631 269.19 367.289 269.581 364.976 270.087C358.635 271.554 352.54 273.802 346.855 276.769C341.274 279.62 336.006 282.96 331.126 286.743C328.788 288.475 326.317 290.45 323.368 292.937C321.428 294.571 319.276 296.4 316.885 298.62C316.327 299.132 315.796 299.717 315.184 300.278C312.528 302.717 310.136 305.155 307.958 307.277C301.501 313.813 297.33 318.788 296.32 319.885C296.32 319.885 264.118 356.709 220.942 405.239C212.336 414.948 201.704 422.982 189.67 428.87C183.461 431.791 176.897 434.026 170.115 435.528C162.952 437.208 155.66 438.382 148.301 439.04C144.9 439.357 141.526 439.576 138.125 439.747C135.468 439.893 132.811 439.942 130.287 439.942H1C1 439.942 22.0962 432.431 31.5284 427.529C40.2385 423.006 48.1123 417.244 54.8564 410.458C59.9312 405.361 224.742 225.288 224.901 225.117C223.892 223.922 204.629 203.169 196.02 193.878L175.323 171.759L176.624 172.466L177.289 172.807C178.112 173.246 178.963 173.661 179.946 174.075L180.397 174.295L180.743 174.441L181.726 174.88C182.735 175.344 183.745 175.758 184.702 176.124C188.566 177.635 192.567 178.834 196.658 179.709C198.783 180.172 199.979 180.343 199.979 180.343C202.988 180.906 206.031 181.297 209.092 181.513C211.59 181.709 213.795 181.806 215.735 181.83C219.891 181.898 224.047 181.686 228.169 181.196C230.348 180.904 232.686 180.562 235.157 180.001C241.55 178.517 247.692 176.236 253.41 173.222C258.992 170.371 264.259 167.03 269.14 163.248C271.451 161.516 273.949 159.565 276.898 157.053C278.837 155.444 280.99 153.615 283.381 151.396C283.939 150.859 284.47 150.274 285.055 149.713C287.712 147.274 290.129 144.835 292.308 142.714C298.765 136.178 302.936 131.228 303.946 130.106C303.946 130.106 336.148 93.2814 379.323 44.7514C387.924 35.0371 398.557 27.0021 410.596 21.1204C416.795 18.2 423.351 15.9651 430.124 14.4628C437.268 12.7698 444.543 11.5795 451.885 10.9023C455.259 10.5853 458.66 10.3658 462.061 10.1951C464.718 10.0488 467.375 10 469.899 10H599C599 10 577.904 17.5112 568.472 22.413Z" fill="#110F0D"/>
<path d="M61.7379 45.3123C66.7195 39.8536 72.2529 34.84 78.2642 30.3387C84.6349 25.4682 91.6195 21.3171 99.0681 17.9745C105.26 15.3187 111.77 13.338 118.464 12.0729C122.933 11.1943 127.459 10.5833 132.014 10.2439C136.578 9.93904 141.16 9.93904 145.724 10.2439C154.042 10.7311 162.244 12.291 170.088 14.8774C179.222 17.9366 187.769 22.3075 195.409 27.8269C203.032 33.3342 209.941 39.6266 216.001 46.5804C222.643 54.0672 229.285 61.4565 236.114 68.8945L247.725 81.7708L247.884 81.9903L251.71 86.2092L283.593 121.497C285.4 123.521 287.233 125.521 289.067 127.496C286.41 130.301 283.567 133.008 280.75 135.69C277.934 138.373 274.108 141.69 271.478 143.86C268.847 146.03 266.509 147.884 264.038 149.762C261.966 151.249 259.893 152.712 257.741 154.103C252.083 157.824 245.965 160.919 239.515 163.321C234.381 165.111 229.027 166.315 223.573 166.906C218.471 167.491 213.321 167.638 208.189 167.345C197.101 166.926 186.235 164.358 176.306 159.809C171.589 157.541 167.138 154.836 163.021 151.737C162.213 151.168 161.442 150.557 160.709 149.908C158.921 148.498 157.227 146.992 155.635 145.396C150.958 140.787 146.628 135.885 142.137 131.106C135.761 124.326 129.437 117.498 123.087 110.694C113.345 100.467 103.709 90.2412 94.1793 80.015C84.8622 70.0488 75.5452 60.0664 66.2282 50.0678C64.7668 48.4826 63.2789 46.8731 61.7379 45.3123Z" fill="#DAA628"/>
<path d="M538.236 404.605C533.276 410.103 527.761 415.158 521.762 419.701C515.392 424.56 508.418 428.71 500.985 432.065C494.792 434.713 488.283 436.686 481.589 437.942C477.122 438.829 472.595 439.44 468.039 439.771C463.466 440.076 458.875 440.076 454.302 439.771C445.983 439.244 437.783 437.66 429.938 435.065C420.805 431.999 412.252 427.638 404.591 422.14C396.969 416.64 390.06 410.356 384 403.41C377.357 395.924 370.582 388.534 363.886 381.096L352.276 368.22C352.213 368.153 352.16 368.079 352.116 368.001L348.264 363.611L316.38 328.323C314.547 326.323 312.74 324.299 310.88 322.324C313.537 319.519 316.38 316.812 319.223 314.13C321.694 311.813 325.865 308.131 328.496 305.96C331.126 303.79 333.438 301.961 336.015 300.107C338.087 298.62 340.16 297.132 342.339 295.766C347.981 292.028 354.091 288.925 360.539 286.524C365.751 284.789 371.177 283.651 376.693 283.134C381.787 282.557 386.928 282.418 392.05 282.719C403.141 283.119 414.011 285.688 423.933 290.255C428.663 292.494 433.116 295.192 437.218 298.303C438.04 298.874 438.821 299.493 439.556 300.156C441.349 301.553 443.035 303.06 444.605 304.668C449.307 309.252 453.638 314.154 458.102 318.934C464.479 325.746 470.838 332.558 477.179 339.37L505.821 369.903L533.772 399.85C535.26 401.435 536.721 403.045 538.236 404.605Z" fill="#DAA628"/>
</svg>
