<?xml version="1.0" standalone="no"?>
<!DOCTYPE svg PUBLIC "-//W3C//DTD SVG 20010904//EN"
 "http://www.w3.org/TR/2001/REC-SVG-20010904/DTD/svg10.dtd">
<svg version="1.0" xmlns="http://www.w3.org/2000/svg"
 width="512.000000pt" height="512.000000pt" viewBox="0 0 512.000000 512.000000"
 preserveAspectRatio="xMidYMid meet">

<g transform="translate(0.000000,512.000000) scale(0.100000,-0.100000)"
fill="#000000" stroke="none">
<path d="M1037 4152 c179 -328 579 -1041 583 -1042 3 0 125 190 272 423 147
232 307 486 357 565 l90 142 -675 0 -675 0 48 -88z"/>
<path d="M2804 4213 c35 -65 692 -1095 699 -1096 6 -2 415 719 628 1106 9 16
-25 17 -666 17 l-676 0 15 -27z"/>
<path d="M2488 3914 c-417 -659 -598 -947 -595 -951 2 -2 305 -2 674 -1 l670
3 -304 480 c-167 264 -319 504 -337 534 l-33 53 -75 -118z"/>
<path d="M378 3490 l-377 -530 674 0 c371 0 675 3 675 7 0 11 -583 1053 -589
1053 -3 -1 -176 -239 -383 -530z"/>
<path d="M4324 3953 c-21 -37 -154 -275 -296 -528 l-257 -460 334 -3 c183 -1
486 -1 672 0 l339 3 -353 495 c-194 272 -364 510 -377 528 l-24 34 -38 -69z"/>
<path d="M1140 1515 c629 -629 1145 -1143 1147 -1141 1 1 -168 499 -376 1107
-208 607 -384 1121 -390 1142 l-13 37 -756 0 -757 0 1145 -1145z"/>
<path d="M1834 2638 c37 -146 783 -2625 787 -2620 5 6 117 436 624 2400 l63
242 -740 0 -740 0 6 -22z"/>
<path d="M3486 2203 c-75 -252 -228 -766 -340 -1143 -113 -377 -203 -686 -202
-688 2 -1 365 379 807 845 442 466 931 982 1087 1145 l283 298 -749 0 -749 0
-137 -457z"/>
</g>
</svg>
