<?xml version="1.0" standalone="no"?>
<!DOCTYPE svg PUBLIC "-//W3C//DTD SVG 20010904//EN"
 "http://www.w3.org/TR/2001/REC-SVG-20010904/DTD/svg10.dtd">
<svg version="1.0" xmlns="http://www.w3.org/2000/svg"
 width="512.000000pt" height="512.000000pt" viewBox="0 0 512.000000 512.000000"
 preserveAspectRatio="xMidYMid meet">

<g transform="translate(0.000000,512.000000) scale(0.100000,-0.100000)"
fill="#000000" stroke="none">
<path d="M2325 5109 c-884 -90 -1646 -607 -2041 -1381 -291 -573 -359 -1187
-199 -1814 46 -179 91 -300 185 -490 251 -509 644 -902 1155 -1154 196 -97
315 -141 510 -190 428 -107 835 -106 1271 5 177 45 298 91 489 185 500 245
892 634 1146 1135 359 712 371 1526 32 2245 l-54 114 -190 -190 -191 -191 37
-98 c45 -120 88 -285 111 -420 22 -126 24 -440 5 -575 -97 -689 -524 -1277
-1146 -1577 -474 -228 -1021 -263 -1525 -97 -532 175 -965 555 -1206 1059
-230 479 -264 1018 -98 1525 208 634 717 1130 1353 1319 440 131 889 116 1317
-45 l97 -36 191 191 190 190 -114 55 c-401 192 -892 280 -1325 235z"/>
<path d="M2480 3584 c-369 -42 -662 -239 -823 -552 -205 -399 -132 -875 184
-1191 408 -408 1074 -397 1468 24 180 194 273 431 273 700 0 123 -12 201 -49
318 l-25 79 -361 -359 c-427 -425 -418 -418 -587 -418 -96 0 -110 3 -165 29
-76 38 -143 105 -181 181 -26 55 -29 69 -29 165 0 169 -7 160 418 587 l359
361 -79 25 c-126 40 -303 62 -403 51z"/>
</g>
</svg>
