<?xml version="1.0" standalone="no"?>
<!DOCTYPE svg PUBLIC "-//W3C//DTD SVG 20010904//EN"
 "http://www.w3.org/TR/2001/REC-SVG-20010904/DTD/svg10.dtd">
<svg version="1.0" xmlns="http://www.w3.org/2000/svg"
 width="512.000000pt" height="512.000000pt" viewBox="0 0 512.000000 512.000000"
 preserveAspectRatio="xMidYMid meet">

<g transform="translate(0.000000,512.000000) scale(0.100000,-0.100000)"
fill="#000000" stroke="none">
<path d="M2350 3905 c-188 -35 -378 -114 -525 -219 -426 -306 -617 -843 -480
-1354 52 -194 148 -367 302 -539 45 -52 101 -121 124 -155 89 -130 159 -302
190 -466 14 -76 53 -133 111 -164 43 -23 44 -23 488 -23 442 0 445 0 487 22
58 32 90 78 109 159 64 278 134 417 314 624 106 121 168 211 221 320 77 157
118 317 126 498 17 353 -113 689 -367 942 -161 162 -358 275 -578 332 -103 27
-137 31 -282 34 -112 2 -189 -1 -240 -11z m270 -353 c101 -50 107 -197 10
-247 -18 -9 -71 -21 -120 -26 -150 -15 -280 -73 -379 -168 -112 -108 -174
-235 -192 -398 -6 -53 -17 -110 -25 -125 -21 -40 -71 -68 -122 -68 -56 0 -94
23 -122 73 -20 36 -22 49 -17 126 29 401 322 742 708 825 137 29 213 32 259 8z"/>
<path d="M2053 774 c-61 -30 -73 -65 -73 -208 0 -85 5 -138 14 -160 22 -54 73
-103 131 -127 l54 -22 20 -75 c23 -84 58 -142 99 -163 19 -10 83 -15 227 -17
242 -4 275 0 321 40 42 37 55 62 78 149 17 66 17 66 72 88 64 27 116 83 134
145 7 26 10 89 8 164 -3 112 -5 122 -28 147 -52 56 -40 55 -552 55 -413 0
-477 -2 -505 -16z"/>
</g>
</svg>
