<svg width="837" height="213" viewBox="0 0 837 213" fill="none" xmlns="http://www.w3.org/2000/svg">
<g id="REDUX">
<g id="X">
<g id="g242" filter="url(#filter0_bi_5_140)">
<path id="path244" d="M820.26 6.79055C815.733 9.03932 811.71 11.8638 808.207 15.2207C805.584 17.7345 720.405 106.681 720.297 106.829C720.828 107.417 730.779 117.703 735.231 122.252C738.79 125.893 742.354 129.545 745.916 133.183C745.893 133.17 745.893 133.17 745.861 133.153C745.843 133.142 745.475 132.951 745.188 132.802C745.017 132.714 744.866 132.641 744.856 132.635C744.42 132.419 743.98 132.21 743.55 132.011C743.473 131.977 743.392 131.94 743.313 131.904C743.252 131.876 743.193 131.85 743.133 131.824C742.961 131.751 742.791 131.683 742.625 131.614C742.103 131.388 741.581 131.184 741.083 130.996C738.537 130.047 736.333 129.517 734.912 129.225C733.816 129 733.189 128.912 733.189 128.912C731.353 128.584 729.872 128.446 728.487 128.339C727.197 128.236 726.056 128.193 725.055 128.182C723.474 128.166 721.291 128.176 718.623 128.496C717.501 128.631 716.293 128.803 715.008 129.082C710.629 130.026 707.552 131.468 705.636 132.382C702.246 133.995 699.979 135.575 697.513 137.312C696.309 138.16 695.024 139.132 693.495 140.362C692.496 141.169 691.384 142.072 690.149 143.168C689.861 143.425 689.582 143.72 689.279 143.993C687.927 145.216 686.659 146.362 685.538 147.445C682.2 150.675 680.018 153.129 679.524 153.675C679.524 153.675 662.879 171.864 640.565 195.853C636.085 200.669 630.691 204.596 624.408 207.529C621.213 209.021 617.802 210.022 614.307 210.812C610.6 211.651 606.833 212.225 603.023 212.555C601.275 212.707 599.52 212.819 597.767 212.905C596.417 212.973 595.067 212.996 593.716 212.996C571.718 213.002 549.721 212.999 527.722 212.999H527C526.99 212.97 537.902 209.291 542.778 206.868C547.308 204.617 551.329 201.794 554.831 198.438C557.454 195.922 642.633 106.976 642.741 106.829C642.211 106.24 632.259 95.956 627.81 91.4043C624.249 87.7656 620.685 84.1111 617.122 80.4748C617.145 80.4893 617.145 80.4893 617.177 80.5049C617.196 80.5146 617.563 80.7061 617.85 80.8542C618.023 80.9446 618.173 81.018 618.182 81.0217C618.619 81.2385 619.058 81.448 619.488 81.6456C619.565 81.6817 619.646 81.7178 619.726 81.7528C619.786 81.7817 619.845 81.807 619.905 81.8347C620.078 81.9082 620.247 81.9732 620.413 82.0443C620.935 82.2695 621.457 82.4743 621.955 82.661C624.503 83.6113 626.705 84.1413 628.126 84.4315C629.222 84.6568 629.849 84.7447 629.849 84.7447C631.685 85.0747 633.17 85.2108 634.551 85.3205C635.844 85.4204 636.983 85.4638 637.985 85.4746C639.564 85.4915 641.749 85.4807 644.415 85.1603C645.537 85.0254 646.745 84.8543 648.031 84.5761C652.411 83.6306 655.487 82.1888 657.402 81.277C660.794 79.6618 663.061 78.0815 665.527 76.3446C666.731 75.4967 668.015 74.5259 669.543 73.2949C670.543 72.4891 671.655 71.5857 672.889 70.4884C673.178 70.2331 673.456 69.9368 673.76 69.6634C675.111 68.4408 676.382 67.2942 677.5 66.2113C680.838 62.9833 683.02 60.5274 683.514 59.9817C683.514 59.9817 700.159 41.7952 722.476 17.8031C726.954 12.9888 732.347 9.0622 738.631 6.12808C741.826 4.63573 745.237 3.63601 748.731 2.84467C752.438 2.00514 756.205 1.43182 760.015 1.10179C761.763 0.952433 763.518 0.838007 765.273 0.751284C766.621 0.685037 767.972 0.662146 769.322 0.662146C791.321 0.657328 813.319 0.658525 835.316 0.658525H836.04C836.048 0.687433 825.136 4.36593 820.26 6.79055Z" fill="#110F0D"/>
</g>
<g id="g246" filter="url(#filter1_bi_5_140)">
<path id="path248" d="M558.395 18.0975C560.968 15.3886 563.832 12.9363 566.933 10.6995C570.252 8.30624 573.805 6.23332 577.682 4.59402C580.881 3.24259 584.245 2.34525 587.704 1.68761C590.016 1.24917 592.352 0.942031 594.708 0.784244C597.07 0.627661 599.432 0.615612 601.796 0.758945C606.119 1.02273 610.315 1.7924 614.387 3.08601C619.144 4.59643 623.472 6.7633 627.47 9.48543C631.451 12.1955 634.933 15.3211 638.106 18.7395C641.539 22.4372 645.034 26.0892 648.501 29.7629C650.503 31.8816 652.505 34.0015 654.504 36.1214C654.537 36.1539 654.56 36.1948 654.588 36.2322C655.248 36.926 655.911 37.6197 656.569 38.3147C662.056 44.1228 667.541 49.9332 673.027 55.7412C673.968 56.7349 674.907 57.7286 675.862 58.7078C674.463 60.087 673.02 61.4264 671.555 62.7501C670.282 63.9004 668.121 65.7119 666.763 66.7851C665.498 67.7848 664.214 68.7653 662.873 69.6843C661.803 70.4166 660.731 71.1502 659.616 71.8283C656.654 73.629 653.573 75.2382 650.201 76.386C647.518 77.299 644.731 77.8459 641.882 78.1615C639.243 78.4517 636.596 78.5059 633.943 78.3674C628.184 78.0651 622.652 76.9859 617.491 74.6444C615.03 73.5266 612.72 72.2053 610.573 70.6684C610.162 70.3745 609.742 70.0914 609.374 69.7566C608.434 69.0748 607.584 68.3088 606.752 67.5283C604.328 65.2542 602.095 62.8332 599.779 60.4748C596.485 57.1203 593.21 53.7514 589.928 50.3885C585 45.3405 580.075 40.2925 575.148 35.2433C570.336 30.3134 565.519 25.381 560.705 20.4498C559.937 19.6633 559.179 18.8696 558.395 18.0975Z" fill="#D5A115"/>
</g>
<g id="g250" filter="url(#filter2_bi_5_140)">
<path id="path252" d="M804.644 195.561C802.071 198.27 799.206 200.722 796.106 202.959C792.787 205.351 789.233 207.425 785.357 209.065C782.158 210.416 778.794 211.313 775.335 211.971C773.023 212.41 770.688 212.717 768.331 212.874C765.969 213.031 763.607 213.043 761.243 212.9C756.92 212.636 752.724 211.866 748.651 210.573C743.895 209.062 739.567 206.895 735.568 204.173C731.588 201.463 728.106 198.338 724.932 194.919C721.5 191.221 718.005 187.569 714.538 183.896C712.536 181.777 710.534 179.657 708.535 177.537C708.502 177.505 708.479 177.464 708.451 177.427C707.791 176.733 707.127 176.039 706.47 175.344C700.983 169.536 695.497 163.726 690.012 157.917C689.071 156.924 688.132 155.93 687.176 154.951C688.575 153.573 690.019 152.232 691.484 150.91C692.757 149.76 694.918 147.947 696.276 146.874C697.54 145.875 698.824 144.893 700.166 143.974C701.235 143.242 702.308 142.509 703.423 141.83C706.385 140.03 709.466 138.421 712.838 137.273C715.521 136.36 718.307 135.813 721.156 135.497C723.797 135.207 726.443 135.153 729.096 135.291C734.854 135.594 740.387 136.673 745.548 139.014C748.009 140.132 750.318 141.453 752.466 142.99C752.876 143.284 753.297 143.567 753.665 143.902C754.605 144.584 755.455 145.35 756.287 146.13C758.711 148.404 760.945 150.825 763.26 153.184C766.554 156.538 769.829 159.907 773.11 163.27C778.038 168.318 782.964 173.366 787.89 178.415C792.703 183.345 797.52 188.278 802.334 193.209C803.102 193.995 803.86 194.789 804.644 195.561Z" fill="#D5A115"/>
</g>
</g>
<g id="Letras">
<g id="D" filter="url(#filter3_bi_5_140)">
<path id="path236" d="M355.437 154.297C360.921 154.297 366.203 153.32 371.28 151.365C376.088 149.41 380.386 146.699 384.179 143.229C387.902 139.699 390.781 135.694 392.811 131.216C394.979 126.486 396.063 121.567 396.063 116.459C396.063 111.35 394.979 106.432 392.811 101.702C390.781 97.2255 387.902 93.2213 384.179 89.6894C380.386 86.221 376.088 83.5096 371.28 81.5541C366.203 79.5998 360.921 78.6214 355.437 78.6214C349.884 78.6214 344.602 79.5998 339.593 81.5541C334.718 83.5096 330.417 86.221 326.694 89.6894C322.97 93.2213 320.057 97.2255 317.959 101.702C315.86 106.432 314.811 111.35 314.811 116.459C314.811 121.567 315.86 126.486 317.959 131.216C320.057 135.694 322.97 139.699 326.694 143.229C330.417 146.699 334.718 149.41 339.593 151.365C344.602 153.32 349.884 154.297 355.437 154.297ZM420.437 37V116.459C420.437 124.657 418.744 132.509 415.359 140.013C412.041 147.266 407.403 153.698 401.444 159.31C395.418 164.86 388.512 169.18 380.726 172.27C372.667 175.422 364.238 177 355.437 177C346.634 177 338.203 175.422 330.147 172.27C322.36 169.18 315.454 164.86 309.429 159.31C303.469 153.698 298.831 147.266 295.514 140.013C292.129 132.509 290.437 124.657 290.437 116.459C290.437 108.262 292.129 100.411 295.514 92.9055C298.831 85.6541 303.469 79.2219 309.429 73.6077C315.454 68.0594 322.36 63.7394 330.147 60.6476C338.203 57.4962 346.634 55.9186 355.437 55.9186C363.019 55.9186 370.331 57.0859 377.375 59.4181C384.144 61.6894 390.374 64.9378 396.063 69.1621V37H420.437Z" fill="#100F0D"/>
</g>
<g id="E" filter="url(#filter4_bi_5_140)">
<path id="path240" d="M210.437 71.3751C202.242 71.3751 194.728 73.6441 187.89 78.1796C181.253 82.5816 176.344 88.4371 173.163 95.7502H247.71C244.528 88.4371 239.618 82.5816 232.983 78.1796C226.144 73.6441 218.628 71.3751 210.437 71.3751ZM170.623 120.124C172.519 129.467 177.157 137.187 184.538 143.28C192.054 149.511 200.686 152.625 210.437 152.625C218.493 152.625 225.874 150.459 232.577 146.125C239.078 141.859 243.986 136.206 247.304 129.164L269.343 139.523C264.062 150.763 256.207 159.77 245.781 166.538C235.081 173.511 223.3 177 210.437 177C201.634 177 193.203 175.306 185.147 171.921C177.36 168.604 170.454 163.966 164.429 158.007C158.469 151.982 153.831 145.076 150.514 137.289C147.129 129.232 145.437 120.802 145.437 112.001C145.437 103.199 147.129 94.7691 150.514 86.7113C153.831 78.9257 158.469 72.0198 164.429 65.9921C170.454 60.0351 177.36 55.3969 185.147 52.0774C193.203 48.6938 201.634 47 210.437 47C217.884 47 225.095 48.2186 232.07 50.6572C238.772 53.0264 244.933 56.4126 250.554 60.8119C256.105 65.2152 260.845 70.394 264.773 76.3523C268.699 82.3106 271.578 88.7775 273.406 95.7502C274.76 101.032 275.437 106.448 275.437 112.001C275.437 114.709 275.267 117.417 274.929 120.124H170.623Z" fill="#100F0D"/>
</g>
<g id="R" filter="url(#filter5_bi_5_140)">
<path id="path256" d="M61.7406 67.4294H28.6978V119.243H61.7406C86.5231 119.243 99.3494 109.585 99.3494 93.2434C99.3494 76.9001 86.5231 67.4294 61.7406 67.4294ZM100.002 177L68.9153 138.929C66.958 139.114 65.0022 139.114 63.045 139.114H28.6978V177H0.436523V47H63.045C103.045 47 127.828 64.4575 127.828 93.2434C127.828 112.928 116.089 127.414 95.4364 134.285L130.437 177H100.002Z" fill="#100F0D"/>
</g>
<g id="U" filter="url(#filter6_bi_5_140)">
<g id="Vector">
<path d="M454.507 157.227C455.966 158.661 457.477 160.019 459.039 161.298C456.031 156.322 453.778 150.695 452.281 144.418C448.981 143.23 445.693 141.977 442.477 140.662C445.591 146.777 449.602 152.299 454.507 157.227Z" fill="#100F0D"/>
<path d="M459.039 161.298C463.232 164.731 467.796 167.611 472.731 169.935C470.857 168.801 469.363 166.865 468.249 164.128C462.617 158.254 457.301 151.203 452.281 144.418C453.778 150.695 456.031 156.322 459.039 161.298Z" fill="#100F0D"/>
<path d="M472.731 169.935C473.548 170.319 474.375 170.689 475.211 171.043C473.593 170.552 472.293 169.235 471.311 167.089C470.202 166.13 469.181 165.143 468.249 164.128C469.363 166.865 470.857 168.801 472.731 169.935Z" fill="#100F0D"/>
<path d="M475.211 171.043C475.648 171.225 476.085 171.402 476.523 171.575C475.102 171.409 473.966 170.403 473.117 168.558C472.492 168.076 471.89 167.587 471.311 167.089C472.293 169.235 473.593 170.552 475.211 171.043Z" fill="#100F0D"/>
<path d="M476.523 171.575C477.755 172.059 478.995 172.504 480.244 172.91C479.593 173.552 479.137 173.318 478.875 172.205C476.804 171.111 474.884 169.896 473.117 168.558C473.966 170.403 475.102 171.409 476.523 171.575Z" fill="#100F0D"/>
<path d="M480.244 172.91C481.49 173.314 482.744 173.68 484.006 174.007C484.369 175.22 484.836 175.518 485.406 174.902C483.132 174.185 480.955 173.285 478.875 172.205C479.137 173.318 479.593 173.552 480.244 172.91Z" fill="#100F0D"/>
<path d="M484.006 174.007C485.323 174.349 486.65 174.649 487.987 174.907C489.547 176.389 491.115 176.918 492.694 176.495C490.221 176.191 487.791 175.66 485.406 174.902C484.836 175.518 484.369 175.22 484.006 174.007Z" fill="#100F0D"/>
<path d="M487.987 174.907C489.324 175.164 490.67 175.379 492.025 175.553C494.778 176.935 497.445 177.327 500.028 176.729C497.611 176.877 495.166 176.799 492.694 176.495C491.115 176.918 489.547 176.389 487.987 174.907Z" fill="#100F0D"/>
<path d="M492.025 175.553C493.325 175.718 494.632 175.845 495.949 175.935C499.707 176.91 503.288 176.86 506.693 175.781C504.567 176.279 502.345 176.595 500.028 176.729C497.445 177.327 494.778 176.935 492.025 175.553Z" fill="#100F0D"/>
<path d="M495.949 175.935C497.269 176.023 498.596 176.072 499.932 176.083C504.446 176.416 508.691 175.684 512.669 173.889C510.814 174.642 508.822 175.272 506.693 175.781C503.288 176.86 499.707 176.91 495.949 175.935Z" fill="#100F0D"/>
<path d="M499.932 176.083C500.116 176.085 500.298 176.085 500.482 176.085C505.074 176.315 509.384 175.478 513.415 173.569C513.169 173.676 512.92 173.782 512.669 173.889C508.691 175.684 504.446 176.416 499.932 176.083Z" fill="#100F0D"/>
<path d="M500.482 176.085C501.69 176.085 502.889 176.054 504.082 175.99C509.027 175.524 513.609 173.956 517.83 171.285C516.505 172.099 515.033 172.861 513.415 173.569C509.384 175.478 505.074 176.315 500.482 176.085Z" fill="#100F0D"/>
<path d="M504.082 175.99C509.544 175.7 514.857 174.748 520.025 173.131C525.976 169.519 531.186 164.653 535.66 158.531C529.836 163.087 523.893 167.819 517.83 171.285C513.609 173.956 509.027 175.524 504.082 175.99Z" fill="#100F0D"/>
<path d="M520.025 173.131C521.956 172.527 523.866 171.832 525.754 171.043C533.534 167.749 540.435 163.145 546.458 157.228C542.87 157.739 539.282 158.172 535.66 158.531C531.186 164.653 525.976 169.519 520.025 173.131Z" fill="#100F0D"/>
<path d="M442.477 140.662C445.693 141.977 448.981 143.23 452.281 144.418C451.96 143.075 451.672 141.703 451.416 140.304C447.784 139.148 444.156 137.933 440.603 136.657C441.186 138.02 441.811 139.354 442.477 140.662Z" fill="#100F0D"/>
<path d="M452.281 144.418C457.301 151.203 462.617 158.254 468.249 164.128C468.007 163.538 467.775 162.918 467.556 162.266C461.88 155.672 456.509 147.767 451.416 140.304C451.672 141.703 451.96 143.075 452.281 144.418Z" fill="#100F0D"/>
<path d="M468.249 164.128C469.181 165.143 470.202 166.13 471.311 167.089C471.096 166.626 470.891 166.13 470.691 165.605C469.54 164.523 468.495 163.41 467.556 162.266C467.775 162.918 468.007 163.538 468.249 164.128Z" fill="#100F0D"/>
<path d="M471.311 167.089C471.89 167.587 472.492 168.076 473.117 168.558C472.929 168.158 472.748 167.727 472.574 167.264C471.918 166.72 471.292 166.166 470.691 165.605C470.891 166.13 471.096 166.626 471.311 167.089Z" fill="#100F0D"/>
<path d="M473.117 168.558C474.884 169.896 476.804 171.111 478.875 172.205C478.814 171.961 478.753 171.686 478.693 171.378C476.471 170.146 474.431 168.775 472.574 167.264C472.748 167.727 472.929 168.158 473.117 168.558Z" fill="#100F0D"/>
<path d="M478.875 172.205C480.955 173.285 483.132 174.185 485.406 174.902C485.522 174.765 485.633 174.594 485.74 174.389C483.274 173.599 480.926 172.594 478.693 171.378C478.753 171.686 478.814 171.961 478.875 172.205Z" fill="#100F0D"/>
<path d="M485.406 174.902C487.791 175.66 490.221 176.191 492.694 176.495C493.024 176.398 493.344 176.266 493.655 176.102C490.966 175.797 488.327 175.227 485.74 174.389C485.633 174.594 485.522 174.765 485.406 174.902Z" fill="#100F0D"/>
<path d="M492.694 176.495C495.166 176.799 497.611 176.877 500.028 176.729C500.571 176.593 501.1 176.422 501.613 176.218C498.997 176.446 496.344 176.407 493.655 176.102C493.344 176.266 493.024 176.398 492.694 176.495Z" fill="#100F0D"/>
<path d="M500.028 176.729C502.345 176.595 504.567 176.279 506.693 175.781C507.412 175.542 508.111 175.268 508.79 174.959C506.515 175.592 504.123 176.011 501.613 176.218C501.1 176.422 500.571 176.593 500.028 176.729Z" fill="#100F0D"/>
<path d="M506.693 175.781C508.822 175.272 510.814 174.642 512.669 173.889C513.509 173.495 514.324 173.065 515.115 172.601C513.175 173.527 511.066 174.313 508.79 174.959C508.111 175.268 507.412 175.542 506.693 175.781Z" fill="#100F0D"/>
<path d="M512.669 173.889C512.92 173.782 513.169 173.676 513.415 173.569C514.267 173.151 515.093 172.698 515.892 172.21C515.637 172.341 515.378 172.471 515.115 172.601C514.324 173.065 513.509 173.495 512.669 173.889Z" fill="#100F0D"/>
<path d="M513.415 173.569C515.033 172.861 516.505 172.099 517.83 171.285C518.722 170.704 519.583 170.086 520.412 169.433C519.082 170.416 517.575 171.342 515.892 172.21C515.093 172.698 514.267 173.151 513.415 173.569Z" fill="#100F0D"/>
<path d="M517.83 171.285C523.893 167.819 529.836 163.087 535.66 158.531C536.603 157.209 537.493 155.848 538.332 154.448C532.473 159.671 526.499 165.25 520.412 169.433C519.583 170.086 518.722 170.704 517.83 171.285Z" fill="#100F0D"/>
<path d="M535.66 158.531C539.282 158.172 542.87 157.739 546.458 157.228C547.732 155.949 548.945 154.629 550.096 153.27C546.185 153.735 542.276 154.128 538.332 154.448C537.493 155.848 536.603 157.209 535.66 158.531Z" fill="#100F0D"/>
<path d="M440.603 136.657C444.156 137.933 447.784 139.148 451.416 140.304C450.505 135.16 450.14 129.838 450.321 124.342C445.612 123.345 440.88 122.3 436.239 121.205C437.031 126.5 438.485 131.651 440.603 136.657Z" fill="#100F0D"/>
<path d="M451.416 140.304C456.509 147.767 461.88 155.672 467.556 162.266C466.769 159.873 466.217 157.218 465.898 154.305C460.457 145.156 455.281 134.206 450.321 124.342C450.14 129.838 450.505 135.16 451.416 140.304Z" fill="#100F0D"/>
<path d="M467.556 162.266C468.495 163.41 469.54 164.523 470.691 165.605C469.98 163.671 469.45 161.465 469.102 158.984C467.866 157.466 466.798 155.906 465.898 154.305C466.217 157.218 466.769 159.873 467.556 162.266Z" fill="#100F0D"/>
<path d="M470.691 165.605C471.292 166.166 471.918 166.72 472.574 167.264C471.951 165.563 471.483 163.582 471.169 161.32C470.435 160.552 469.746 159.775 469.102 158.984C469.45 161.465 469.98 163.671 470.691 165.605Z" fill="#100F0D"/>
<path d="M472.574 167.264C474.431 168.775 476.471 170.146 478.693 171.378C478.49 170.247 478.366 168.815 478.32 167.081C475.641 165.367 473.257 163.446 471.169 161.32C471.483 163.582 471.951 165.563 472.574 167.264Z" fill="#100F0D"/>
<path d="M478.693 171.378C480.926 172.594 483.274 173.599 485.74 174.389C486.15 173.641 486.562 172.571 486.977 171.18C483.904 170.138 481.019 168.773 478.32 167.081C478.366 168.815 478.49 170.247 478.693 171.378Z" fill="#100F0D"/>
<path d="M485.74 174.389C488.327 175.227 490.966 175.797 493.655 176.102C494.812 175.497 495.893 174.55 496.897 173.26C493.512 172.977 490.206 172.284 486.977 171.18C486.562 172.571 486.15 173.641 485.74 174.389Z" fill="#100F0D"/>
<path d="M493.655 176.102C496.344 176.407 498.997 176.446 501.613 176.218C503.514 175.467 505.261 174.353 506.854 172.875C503.602 173.415 500.283 173.543 496.897 173.26C495.893 174.55 494.812 175.497 493.655 176.102Z" fill="#100F0D"/>
<path d="M501.613 176.218C504.123 176.011 506.515 175.592 508.79 174.959C511.296 173.824 513.572 172.304 515.617 170.401C512.896 171.55 509.974 172.376 506.854 172.875C505.261 174.353 503.514 175.467 501.613 176.218Z" fill="#100F0D"/>
<path d="M508.79 174.959C511.066 174.313 513.175 173.527 515.115 172.601C518.029 170.894 520.637 168.783 522.938 166.267C520.781 167.85 518.341 169.228 515.617 170.401C513.572 172.304 511.296 173.824 508.79 174.959Z" fill="#100F0D"/>
<path d="M515.115 172.601C515.378 172.471 515.637 172.341 515.892 172.21C518.843 170.412 521.477 168.21 523.794 165.599C523.515 165.823 523.23 166.046 522.938 166.267C520.637 168.783 518.029 170.894 515.115 172.601Z" fill="#100F0D"/>
<path d="M515.892 172.21C517.575 171.342 519.082 170.416 520.412 169.433C523.473 167.029 526.149 164.202 528.439 160.948C527.177 162.572 525.628 164.123 523.794 165.599C521.477 168.21 518.843 170.412 515.892 172.21Z" fill="#100F0D"/>
<path d="M520.412 169.433C526.499 165.25 532.473 159.671 538.332 154.448C541.416 149.302 543.802 143.647 545.49 137.481C539.901 145.249 534.217 154.034 528.439 160.948C526.149 164.202 523.473 167.029 520.412 169.433Z" fill="#100F0D"/>
<path d="M538.332 154.448C542.276 154.128 546.185 153.735 550.096 153.27C554.334 148.273 557.757 142.736 560.363 136.657C555.407 136.992 550.473 137.266 545.49 137.481C543.802 143.647 541.416 149.302 538.332 154.448Z" fill="#100F0D"/>
<path d="M436.239 121.205C440.88 122.3 445.612 123.345 450.321 124.342C450.426 121.055 450.723 117.715 451.21 114.32C445.977 113.44 440.704 112.516 435.528 111.549C435.528 114.82 435.765 118.038 436.239 121.205Z" fill="#100F0D"/>
<path d="M450.321 124.342C455.281 134.206 460.457 145.156 465.898 154.305C465.7 152.563 465.568 150.763 465.503 148.904C460.521 138.28 455.776 125.564 451.21 114.32C450.723 117.715 450.426 121.055 450.321 124.342Z" fill="#100F0D"/>
<path d="M465.898 154.305C466.798 155.906 467.866 157.466 469.102 158.984C468.886 157.501 468.717 155.958 468.593 154.356C467.358 152.585 466.328 150.767 465.503 148.904C465.568 150.763 465.7 152.563 465.898 154.305Z" fill="#100F0D"/>
<path d="M469.102 158.984C469.746 159.775 470.435 160.552 471.169 161.32C470.973 159.967 470.813 158.554 470.689 157.081C469.935 156.186 469.237 155.277 468.593 154.356C468.717 155.958 468.886 157.501 469.102 158.984Z" fill="#100F0D"/>
<path d="M471.169 161.32C473.257 163.446 475.641 165.367 478.32 167.081C478.284 166.045 478.254 164.947 478.228 163.788C475.352 161.797 472.838 159.561 470.689 157.081C470.813 158.554 470.973 159.967 471.169 161.32Z" fill="#100F0D"/>
<path d="M478.32 167.081C481.019 168.773 483.904 170.138 486.977 171.18C487.215 170.349 487.429 169.455 487.618 168.497C484.259 167.319 481.129 165.75 478.228 163.788C478.254 164.947 478.284 166.045 478.32 167.081Z" fill="#100F0D"/>
<path d="M486.977 171.18C490.206 172.284 493.512 172.977 496.897 173.26C497.487 172.489 498.02 171.654 498.498 170.755C494.777 170.499 491.151 169.747 487.618 168.497C487.429 169.455 487.215 170.349 486.977 171.18Z" fill="#100F0D"/>
<path d="M496.897 173.26C500.283 173.543 503.602 173.415 506.854 172.875C507.793 171.991 508.645 171.043 509.41 170.029C505.856 170.768 502.22 171.01 498.498 170.755C498.02 171.654 497.487 172.489 496.897 173.26Z" fill="#100F0D"/>
<path d="M506.854 172.875C509.974 172.376 512.896 171.55 515.617 170.401C516.827 169.263 517.918 168.058 518.892 166.787C515.98 168.26 512.819 169.341 509.41 170.029C508.645 171.043 507.793 171.991 506.854 172.875Z" fill="#100F0D"/>
<path d="M515.617 170.401C518.341 169.228 520.781 167.85 522.938 166.267C524.299 164.764 525.513 163.192 526.58 161.553C524.37 163.542 521.808 165.286 518.892 166.787C517.918 168.058 516.827 169.263 515.617 170.401Z" fill="#100F0D"/>
<path d="M522.938 166.267C523.23 166.046 523.515 165.823 523.794 165.599C525.163 164.039 526.382 162.411 527.449 160.714C527.167 160.995 526.877 161.274 526.58 161.553C525.513 163.192 524.299 164.764 522.938 166.267Z" fill="#100F0D"/>
<path d="M523.794 165.599C525.628 164.123 527.177 162.572 528.439 160.948C529.792 159.003 530.967 156.989 531.964 154.906C530.811 156.926 529.306 158.862 527.449 160.714C526.382 162.411 525.163 164.039 523.794 165.599Z" fill="#100F0D"/>
<path d="M528.439 160.948C534.217 154.034 539.901 145.249 545.49 137.481C546.479 133.797 547.164 130.036 547.548 126.203C542.436 135.547 537.239 146.304 531.964 154.906C530.967 156.989 529.792 159.003 528.439 160.948Z" fill="#100F0D"/>
<path d="M545.49 137.481C550.473 137.266 555.407 136.992 560.363 136.657C561.899 133.024 563.087 129.314 563.926 125.529C558.464 125.804 553.032 126.029 547.548 126.203C547.164 130.036 546.479 133.797 545.49 137.481Z" fill="#100F0D"/>
<path d="M435.528 111.549C440.704 112.516 445.977 113.44 451.21 114.32C451.796 110.504 452.34 106.558 452.841 102.525C447.072 101.808 441.242 101.055 435.52 100.267C435.525 104.127 435.528 107.904 435.528 111.549Z" fill="#100F0D"/>
<path d="M451.21 114.32C455.776 125.564 460.521 138.28 465.503 148.904C465.426 146.869 465.2 144.712 464.826 142.461C460.649 130.133 456.677 115.362 452.841 102.525C452.34 106.558 451.796 110.504 451.21 114.32Z" fill="#100F0D"/>
<path d="M465.503 148.904C466.328 150.767 467.358 152.585 468.593 154.356C468.445 152.622 468.129 150.763 467.649 148.812C466.458 146.749 465.518 144.633 464.826 142.461C465.2 144.712 465.426 146.869 465.503 148.904Z" fill="#100F0D"/>
<path d="M468.593 154.356C469.237 155.277 469.935 156.186 470.689 157.081C470.538 155.497 470.213 153.789 469.713 151.989C468.958 150.944 468.27 149.886 467.649 148.812C468.129 150.763 468.445 152.622 468.593 154.356Z" fill="#100F0D"/>
<path d="M470.689 157.081C472.838 159.561 475.352 161.797 478.228 163.788C478.197 162.567 477.965 161.223 477.534 159.784C474.483 157.477 471.875 154.879 469.713 151.989C470.213 153.789 470.538 155.497 470.689 157.081Z" fill="#100F0D"/>
<path d="M478.228 163.788C481.129 165.75 484.259 167.319 487.618 168.497C487.845 167.504 487.845 166.389 487.619 165.179C483.979 163.854 480.617 162.055 477.534 159.784C477.965 161.223 478.197 162.567 478.228 163.788Z" fill="#100F0D"/>
<path d="M487.618 168.497C491.151 169.747 494.777 170.499 498.498 170.755C499.071 169.817 499.393 168.757 499.461 167.601C495.4 167.396 491.453 166.588 487.619 165.179C487.845 166.389 487.845 167.504 487.618 168.497Z" fill="#100F0D"/>
<path d="M498.498 170.755C502.22 171.01 505.856 170.768 509.41 170.029C510.328 168.937 510.968 167.726 511.327 166.416C507.477 167.413 503.522 167.807 499.461 167.601C499.393 168.757 499.071 169.817 498.498 170.755Z" fill="#100F0D"/>
<path d="M509.41 170.029C512.819 169.341 515.98 168.26 518.892 166.787C520.063 165.373 520.93 163.839 521.49 162.206C518.409 164.083 515.021 165.486 511.327 166.416C510.968 167.726 510.328 168.937 509.41 170.029Z" fill="#100F0D"/>
<path d="M518.892 166.787C521.808 165.286 524.37 163.542 526.58 161.553C527.86 159.68 528.811 157.69 529.43 155.599C527.218 158.093 524.572 160.295 521.49 162.206C520.93 163.839 520.063 165.373 518.892 166.787Z" fill="#100F0D"/>
<path d="M526.58 161.553C526.877 161.274 527.167 160.995 527.449 160.714C528.732 158.772 529.68 156.711 530.292 154.55C530.015 154.902 529.728 155.251 529.43 155.599C528.811 157.69 527.86 159.68 526.58 161.553Z" fill="#100F0D"/>
<path d="M527.449 160.714C529.306 158.862 530.811 156.926 531.964 154.906C533.161 152.486 533.999 149.948 534.481 147.309C533.516 149.818 532.12 152.232 530.292 154.55C529.68 156.711 528.732 158.772 527.449 160.714Z" fill="#100F0D"/>
<path d="M531.964 154.906C537.239 146.304 542.436 135.547 547.548 126.203C548.008 121.618 548.006 116.921 547.538 112.117C543.254 123.422 538.899 136.613 534.481 147.309C533.999 149.948 533.161 152.486 531.964 154.906Z" fill="#100F0D"/>
<path d="M547.548 126.203C553.032 126.029 558.464 125.804 563.926 125.529C564.933 120.978 565.437 116.319 565.437 111.549C559.463 111.781 553.531 111.97 547.538 112.117C548.006 116.921 548.008 121.618 547.548 126.203Z" fill="#100F0D"/>
<path d="M435.52 100.267C441.242 101.055 447.072 101.808 452.841 102.525C455.114 84.3745 457.344 64.3216 459.637 47.0343C451.622 47.0237 443.45 47.0117 435.437 47C435.437 63.5542 435.498 82.7717 435.52 100.267Z" fill="#100F0D"/>
<path d="M452.841 102.525C456.677 115.362 460.649 130.133 464.826 142.461C463.13 132.719 461.382 120.593 459.702 111.505C459.658 91.3616 459.68 67.1804 459.637 47.0343C457.344 64.3216 455.114 84.3745 452.841 102.525Z" fill="#100F0D"/>
<path d="M464.826 142.461C465.518 144.633 466.458 146.749 467.649 148.812C465.473 140.479 463.242 129.68 461.08 121.968C460.168 118.567 459.708 115.08 459.702 111.505C461.382 120.593 463.13 132.719 464.826 142.461Z" fill="#100F0D"/>
<path d="M467.649 148.812C468.27 149.886 468.958 150.944 469.713 151.989C467.448 144.366 465.126 134.236 462.873 127.215C462.153 125.49 461.555 123.74 461.08 121.968C463.242 129.68 465.473 140.479 467.649 148.812Z" fill="#100F0D"/>
<path d="M469.713 151.989C471.875 154.879 474.483 157.477 477.534 159.784C475.576 153.882 473.558 145.358 471.612 140.008C467.888 136.247 464.976 131.984 462.873 127.215C465.126 134.236 467.448 144.366 469.713 151.989Z" fill="#100F0D"/>
<path d="M477.534 159.784C480.617 162.055 483.979 163.854 487.619 165.179C486.597 160.39 485.512 152.862 484.501 148.575C479.697 146.557 475.402 143.702 471.612 140.008C473.558 145.358 475.576 153.882 477.534 159.784Z" fill="#100F0D"/>
<path d="M487.619 165.179C491.453 166.588 495.4 167.396 499.461 167.601C499.767 163.143 500.009 155.822 500.327 151.813C494.85 151.806 489.575 150.727 484.501 148.575C485.512 152.862 486.597 160.39 487.619 165.179Z" fill="#100F0D"/>
<path d="M499.461 167.601C503.522 167.807 507.477 167.413 511.327 166.416C512.955 161.343 514.516 153.287 516.153 148.611C511.08 150.752 505.806 151.818 500.327 151.813C500.009 155.822 499.767 163.143 499.461 167.601Z" fill="#100F0D"/>
<path d="M511.327 166.416C515.021 165.486 518.409 164.083 521.49 162.206C524.028 155.748 526.497 146.191 529.043 140.079C525.319 143.762 521.023 146.605 516.153 148.611C514.516 153.287 512.955 161.343 511.327 166.416Z" fill="#100F0D"/>
<path d="M521.49 162.206C524.572 160.295 527.218 158.093 529.43 155.599C532.237 147.147 534.97 135.478 537.782 127.321C535.678 132.078 532.765 136.33 529.043 140.079C526.497 146.191 524.028 155.748 521.49 162.206Z" fill="#100F0D"/>
<path d="M529.43 155.599C529.728 155.251 530.015 154.902 530.292 154.55C533.071 145.79 535.776 133.796 538.56 125.323C538.319 125.993 538.059 126.658 537.782 127.321C534.97 135.478 532.237 147.147 529.43 155.599Z" fill="#100F0D"/>
<path d="M530.292 154.55C532.12 152.232 533.516 149.818 534.481 147.309C536.662 136.454 538.768 122.261 540.955 111.647C540.944 116.357 540.146 120.916 538.56 125.323C535.776 133.796 533.071 145.79 530.292 154.55Z" fill="#100F0D"/>
<path d="M534.481 147.309C538.899 136.613 543.254 123.422 547.538 112.117C545.419 91.7809 543.215 67.6236 541.097 47.3209C541.051 67.4191 541 91.5531 540.955 111.647C538.768 122.261 536.662 136.454 534.481 147.309Z" fill="#100F0D"/>
<path d="M547.538 112.117C553.531 111.97 559.463 111.781 565.437 111.549C565.437 91.495 565.347 67.4385 565.347 47.339C557.231 47.3337 549.212 47.3272 541.097 47.3209C543.215 67.6236 545.419 91.7809 547.538 112.117Z" fill="#100F0D"/>
<path d="M435.437 47C443.45 47.0117 451.622 47.0237 459.637 47.0343C459.742 47.0225 459.853 47.0109 459.952 47C451.932 47 443.756 47 435.736 47C435.642 47 435.536 47 435.437 47Z" fill="#100F0D"/>
<path d="M459.637 47.0343C459.68 67.1804 459.658 91.3616 459.702 111.505C459.763 111.519 459.828 111.535 459.885 111.549C459.885 91.3823 459.952 67.1674 459.952 47C459.853 47.0109 459.742 47.0225 459.637 47.0343Z" fill="#100F0D"/>
<path d="M459.702 111.505C459.708 115.08 460.168 118.567 461.08 121.968C461.135 121.987 461.195 122.006 461.245 122.027C460.339 118.62 459.885 115.129 459.885 111.549C459.828 111.535 459.763 111.519 459.702 111.505Z" fill="#100F0D"/>
<path d="M461.08 121.968C461.555 123.74 462.153 125.49 462.873 127.215C462.927 127.237 462.984 127.259 463.032 127.279C462.313 125.552 461.718 123.801 461.245 122.027C461.195 122.006 461.135 121.987 461.08 121.968Z" fill="#100F0D"/>
<path d="M462.873 127.215C464.976 131.984 467.888 136.247 471.612 140.008C471.662 140.033 471.715 140.059 471.761 140.085C468.038 136.322 465.128 132.054 463.032 127.279C462.984 127.259 462.927 127.237 462.873 127.215Z" fill="#100F0D"/>
<path d="M471.612 140.008C475.402 143.702 479.697 146.557 484.501 148.575C484.551 148.602 484.604 148.629 484.65 148.656C479.845 146.64 475.549 143.784 471.761 140.085C471.715 140.059 471.662 140.033 471.612 140.008Z" fill="#100F0D"/>
<path d="M484.501 148.575C489.575 150.727 494.85 151.806 500.327 151.813C500.379 151.836 500.434 151.861 500.482 151.884C495.002 151.884 489.725 150.809 484.65 148.656C484.604 148.629 484.551 148.602 484.501 148.575Z" fill="#100F0D"/>
<path d="M500.327 151.813C505.806 151.818 511.08 150.752 516.153 148.611C516.208 148.627 516.264 148.641 516.315 148.656C511.24 150.809 505.963 151.884 500.482 151.884C500.434 151.861 500.379 151.836 500.327 151.813Z" fill="#100F0D"/>
<path d="M516.153 148.611C521.023 146.605 525.319 143.762 529.043 140.079C529.098 140.08 529.154 140.083 529.205 140.085C525.482 143.784 521.186 146.64 516.315 148.656C516.264 148.641 516.208 148.627 516.153 148.611Z" fill="#100F0D"/>
<path d="M529.043 140.079C532.765 136.33 535.678 132.078 537.782 127.321C537.833 127.308 537.885 127.294 537.933 127.28C535.835 132.054 532.925 136.322 529.205 140.085C529.154 140.083 529.098 140.08 529.043 140.079Z" fill="#100F0D"/>
<path d="M537.782 127.321C538.059 126.658 538.319 125.993 538.56 125.323C538.609 125.306 538.661 125.291 538.708 125.274C538.468 125.947 538.211 126.614 537.933 127.28C537.885 127.294 537.833 127.308 537.782 127.321Z" fill="#100F0D"/>
<path d="M538.56 125.323C540.146 120.916 540.944 116.357 540.955 111.647C540.997 111.615 541.04 111.583 541.079 111.549C541.079 116.275 540.288 120.852 538.708 125.274C538.661 125.291 538.609 125.306 538.56 125.323Z" fill="#100F0D"/>
<path d="M540.955 111.647C541 91.5531 541.051 67.4191 541.097 47.3209C541.093 47.2134 541.089 47.1068 541.084 47C541.084 67.1674 541.079 91.3824 541.079 111.549C541.04 111.583 540.997 111.615 540.955 111.647Z" fill="#100F0D"/>
<path d="M541.097 67.321C549.212 67.3276 557.23 67.3329 565.347 67.3391C565.347 67.2258 565.347 67.1127 565.347 67.0001C557.226 67.0001 549.204 67.0001 541.084 67.0001C541.089 67.1069 541.093 67.2135 541.097 67.321Z" fill="#100F0D"/>
<path d="M459.039 161.298C457.477 160.019 455.966 158.661 454.507 157.227C449.602 152.299 445.591 146.777 442.477 140.662M459.039 161.298C456.031 156.322 453.778 150.695 452.281 144.418M459.039 161.298C463.232 164.731 467.796 167.611 472.731 169.935M452.281 144.418C448.981 143.23 445.693 141.977 442.477 140.662M452.281 144.418C457.301 151.203 462.617 158.254 468.249 164.128M452.281 144.418C451.96 143.075 451.672 141.703 451.416 140.304M442.477 140.662C441.811 139.354 441.186 138.02 440.603 136.657M472.731 169.935C470.857 168.801 469.363 166.865 468.249 164.128M472.731 169.935C473.548 170.319 474.375 170.689 475.211 171.043M468.249 164.128C469.181 165.143 470.202 166.13 471.311 167.089M468.249 164.128C468.007 163.538 467.775 162.918 467.556 162.266M475.211 171.043C473.593 170.552 472.293 169.235 471.311 167.089M475.211 171.043C475.648 171.225 476.085 171.402 476.523 171.575M471.311 167.089C471.89 167.587 472.492 168.076 473.117 168.558M471.311 167.089C471.096 166.626 470.891 166.13 470.691 165.605M476.523 171.575C475.102 171.409 473.966 170.403 473.117 168.558M476.523 171.575C477.755 172.059 478.995 172.504 480.244 172.91M473.117 168.558C474.884 169.896 476.804 171.111 478.875 172.205M473.117 168.558C472.929 168.158 472.748 167.727 472.574 167.264M480.244 172.91C479.593 173.552 479.137 173.318 478.875 172.205M480.244 172.91C481.49 173.314 482.744 173.68 484.006 174.007M478.875 172.205C480.955 173.285 483.132 174.185 485.406 174.902M478.875 172.205C478.814 171.961 478.753 171.686 478.693 171.378M484.006 174.007C484.369 175.22 484.836 175.518 485.406 174.902M484.006 174.007C485.323 174.349 486.65 174.649 487.987 174.907M485.406 174.902C487.791 175.66 490.221 176.191 492.694 176.495M485.406 174.902C485.522 174.765 485.633 174.594 485.74 174.389M487.987 174.907C489.547 176.389 491.115 176.918 492.694 176.495M487.987 174.907C489.324 175.164 490.67 175.379 492.025 175.553M492.694 176.495C495.166 176.799 497.611 176.877 500.028 176.729M492.694 176.495C493.024 176.398 493.344 176.266 493.655 176.102M492.025 175.553C494.778 176.935 497.445 177.327 500.028 176.729M492.025 175.553C493.325 175.718 494.632 175.845 495.949 175.935M500.028 176.729C502.345 176.595 504.567 176.279 506.693 175.781M500.028 176.729C500.571 176.593 501.1 176.422 501.613 176.218M495.949 175.935C499.707 176.91 503.288 176.86 506.693 175.781M495.949 175.935C497.269 176.023 498.596 176.072 499.932 176.083M506.693 175.781C508.822 175.272 510.814 174.642 512.669 173.889M506.693 175.781C507.412 175.542 508.111 175.268 508.79 174.959M499.932 176.083C504.446 176.416 508.691 175.684 512.669 173.889M499.932 176.083C500.116 176.085 500.298 176.085 500.482 176.085M512.669 173.889C512.92 173.782 513.169 173.676 513.415 173.569M512.669 173.889C513.509 173.495 514.324 173.065 515.115 172.601M500.482 176.085C505.074 176.315 509.384 175.478 513.415 173.569M500.482 176.085C501.69 176.085 502.889 176.054 504.082 175.99M513.415 173.569C515.033 172.861 516.505 172.099 517.83 171.285M513.415 173.569C514.267 173.151 515.093 172.698 515.892 172.21M504.082 175.99C509.027 175.524 513.609 173.956 517.83 171.285M504.082 175.99C509.544 175.7 514.857 174.748 520.025 173.131M517.83 171.285C523.893 167.819 529.836 163.087 535.66 158.531M517.83 171.285C518.722 170.704 519.583 170.086 520.412 169.433M520.025 173.131C525.976 169.519 531.186 164.653 535.66 158.531M520.025 173.131C521.956 172.527 523.866 171.832 525.754 171.043C533.534 167.749 540.435 163.145 546.458 157.228M535.66 158.531C539.282 158.172 542.87 157.739 546.458 157.228M535.66 158.531C536.603 157.209 537.493 155.848 538.332 154.448M546.458 157.228C547.732 155.949 548.945 154.629 550.096 153.27M451.416 140.304C447.784 139.148 444.156 137.933 440.603 136.657M451.416 140.304C456.509 147.767 461.88 155.672 467.556 162.266M451.416 140.304C450.505 135.16 450.14 129.838 450.321 124.342M440.603 136.657C438.485 131.651 437.031 126.5 436.239 121.205M467.556 162.266C468.495 163.41 469.54 164.523 470.691 165.605M467.556 162.266C466.769 159.873 466.217 157.218 465.898 154.305M470.691 165.605C471.292 166.166 471.918 166.72 472.574 167.264M470.691 165.605C469.98 163.671 469.45 161.465 469.102 158.984M472.574 167.264C474.431 168.775 476.471 170.146 478.693 171.378M472.574 167.264C471.951 165.563 471.483 163.582 471.169 161.32M478.693 171.378C480.926 172.594 483.274 173.599 485.74 174.389M478.693 171.378C478.49 170.247 478.366 168.815 478.32 167.081M485.74 174.389C488.327 175.227 490.966 175.797 493.655 176.102M485.74 174.389C486.15 173.641 486.562 172.571 486.977 171.18M493.655 176.102C496.344 176.407 498.997 176.446 501.613 176.218M493.655 176.102C494.812 175.497 495.893 174.55 496.897 173.26M501.613 176.218C504.123 176.011 506.515 175.592 508.79 174.959M501.613 176.218C503.514 175.467 505.261 174.353 506.854 172.875M508.79 174.959C511.066 174.313 513.175 173.527 515.115 172.601M508.79 174.959C511.296 173.824 513.572 172.304 515.617 170.401M515.115 172.601C515.378 172.471 515.637 172.341 515.892 172.21M515.115 172.601C518.029 170.894 520.637 168.783 522.938 166.267M515.892 172.21C517.575 171.342 519.082 170.416 520.412 169.433M515.892 172.21C518.843 170.412 521.477 168.21 523.794 165.599M520.412 169.433C526.499 165.25 532.473 159.671 538.332 154.448M520.412 169.433C523.473 167.029 526.149 164.202 528.439 160.948M538.332 154.448C542.276 154.128 546.185 153.735 550.096 153.27M538.332 154.448C541.416 149.302 543.802 143.647 545.49 137.481M550.096 153.27C554.334 148.273 557.757 142.736 560.363 136.657M450.321 124.342C445.612 123.345 440.88 122.3 436.239 121.205M450.321 124.342C455.281 134.206 460.457 145.156 465.898 154.305M450.321 124.342C450.426 121.055 450.723 117.715 451.21 114.32M436.239 121.205C435.765 118.038 435.528 114.82 435.528 111.549M465.898 154.305C466.798 155.906 467.866 157.466 469.102 158.984M465.898 154.305C465.7 152.563 465.568 150.763 465.503 148.904M469.102 158.984C469.746 159.775 470.435 160.552 471.169 161.32M469.102 158.984C468.886 157.501 468.717 155.958 468.593 154.356M471.169 161.32C473.257 163.446 475.641 165.367 478.32 167.081M471.169 161.32C470.973 159.967 470.813 158.554 470.689 157.081M478.32 167.081C481.019 168.773 483.904 170.138 486.977 171.18M478.32 167.081C478.284 166.045 478.254 164.947 478.228 163.788M486.977 171.18C490.206 172.284 493.512 172.977 496.897 173.26M486.977 171.18C487.215 170.349 487.429 169.455 487.618 168.497M496.897 173.26C500.283 173.543 503.602 173.415 506.854 172.875M496.897 173.26C497.487 172.489 498.02 171.654 498.498 170.755M506.854 172.875C509.974 172.376 512.896 171.55 515.617 170.401M506.854 172.875C507.793 171.991 508.645 171.043 509.41 170.029M515.617 170.401C518.341 169.228 520.781 167.85 522.938 166.267M515.617 170.401C516.827 169.263 517.918 168.058 518.892 166.787M522.938 166.267C523.23 166.046 523.515 165.823 523.794 165.599M522.938 166.267C524.299 164.764 525.513 163.192 526.58 161.553M523.794 165.599C525.628 164.123 527.177 162.572 528.439 160.948M523.794 165.599C525.163 164.039 526.382 162.411 527.449 160.714M528.439 160.948C534.217 154.034 539.901 145.249 545.49 137.481M528.439 160.948C529.792 159.003 530.967 156.989 531.964 154.906M545.49 137.481C550.473 137.266 555.407 136.992 560.363 136.657M545.49 137.481C546.479 133.797 547.164 130.036 547.548 126.203M560.363 136.657C561.899 133.024 563.087 129.314 563.926 125.529M451.21 114.32C445.977 113.44 440.704 112.516 435.528 111.549M451.21 114.32C455.776 125.564 460.521 138.28 465.503 148.904M451.21 114.32C451.796 110.504 452.34 106.558 452.841 102.525M435.528 111.549C435.528 107.904 435.525 104.127 435.52 100.267M465.503 148.904C466.328 150.767 467.358 152.585 468.593 154.356M465.503 148.904C465.426 146.869 465.2 144.712 464.826 142.461M468.593 154.356C469.237 155.277 469.935 156.186 470.689 157.081M468.593 154.356C468.445 152.622 468.129 150.763 467.649 148.812M470.689 157.081C472.838 159.561 475.352 161.797 478.228 163.788M470.689 157.081C470.538 155.497 470.213 153.789 469.713 151.989M478.228 163.788C481.129 165.75 484.259 167.319 487.618 168.497M478.228 163.788C478.197 162.567 477.965 161.223 477.534 159.784M487.618 168.497C491.151 169.747 494.777 170.499 498.498 170.755M487.618 168.497C487.845 167.504 487.845 166.389 487.619 165.179M498.498 170.755C502.22 171.01 505.856 170.768 509.41 170.029M498.498 170.755C499.071 169.817 499.393 168.757 499.461 167.601M509.41 170.029C512.819 169.341 515.98 168.26 518.892 166.787M509.41 170.029C510.328 168.937 510.968 167.726 511.327 166.416M518.892 166.787C521.808 165.286 524.37 163.542 526.58 161.553M518.892 166.787C520.063 165.373 520.93 163.839 521.49 162.206M526.58 161.553C526.877 161.274 527.167 160.995 527.449 160.714M526.58 161.553C527.86 159.68 528.811 157.69 529.43 155.599M527.449 160.714C529.306 158.862 530.811 156.926 531.964 154.906M527.449 160.714C528.732 158.772 529.68 156.711 530.292 154.55M531.964 154.906C537.239 146.304 542.436 135.547 547.548 126.203M531.964 154.906C533.161 152.486 533.999 149.948 534.481 147.309M547.548 126.203C553.032 126.029 558.464 125.804 563.926 125.529M547.548 126.203C548.008 121.618 548.006 116.921 547.538 112.117M563.926 125.529C564.933 120.978 565.437 116.319 565.437 111.549M452.841 102.525C447.072 101.808 441.242 101.055 435.52 100.267M452.841 102.525C456.677 115.362 460.649 130.133 464.826 142.461M452.841 102.525C455.114 84.3745 457.344 64.3216 459.637 47.0343M435.52 100.267C435.498 82.7717 435.437 63.5542 435.437 47M464.826 142.461C465.518 144.633 466.458 146.749 467.649 148.812M464.826 142.461C463.13 132.719 461.382 120.593 459.702 111.505M467.649 148.812C468.27 149.886 468.958 150.944 469.713 151.989M467.649 148.812C465.473 140.479 463.242 129.68 461.08 121.968M469.713 151.989C471.875 154.879 474.483 157.477 477.534 159.784M469.713 151.989C467.448 144.366 465.126 134.236 462.873 127.215M477.534 159.784C480.617 162.055 483.979 163.854 487.619 165.179M477.534 159.784C475.576 153.882 473.558 145.358 471.612 140.008M487.619 165.179C491.453 166.588 495.4 167.396 499.461 167.601M487.619 165.179C486.597 160.39 485.512 152.862 484.501 148.575M499.461 167.601C503.522 167.807 507.477 167.413 511.327 166.416M499.461 167.601C499.767 163.143 500.009 155.822 500.327 151.813M511.327 166.416C515.021 165.486 518.409 164.083 521.49 162.206M511.327 166.416C512.955 161.343 514.516 153.287 516.153 148.611M521.49 162.206C524.572 160.295 527.218 158.093 529.43 155.599M521.49 162.206C524.028 155.748 526.497 146.191 529.043 140.079M529.43 155.599C529.728 155.251 530.015 154.902 530.292 154.55M529.43 155.599C532.237 147.147 534.97 135.478 537.782 127.321M530.292 154.55C532.12 152.232 533.516 149.818 534.481 147.309M530.292 154.55C533.071 145.79 535.776 133.796 538.56 125.323M534.481 147.309C538.899 136.613 543.254 123.422 547.538 112.117M534.481 147.309C536.662 136.454 538.768 122.261 540.955 111.647M547.538 112.117C553.531 111.97 559.463 111.781 565.437 111.549M547.538 112.117C545.419 91.7809 543.215 67.6236 541.097 47.3209M565.437 111.549C565.437 91.495 565.347 67.4385 565.347 47.339C557.231 47.3337 549.212 47.3272 541.097 47.3209M459.637 47.0343C451.622 47.0237 443.45 47.0117 435.437 47M459.637 47.0343C459.68 67.1804 459.658 91.3616 459.702 111.505M459.637 47.0343C459.742 47.0225 459.853 47.0109 459.952 47M435.437 47C435.536 47 435.642 47 435.736 47C443.756 47 451.932 47 459.952 47M459.702 111.505C459.708 115.08 460.168 118.567 461.08 121.968M459.702 111.505C459.763 111.519 459.828 111.535 459.885 111.549M461.08 121.968C461.555 123.74 462.153 125.49 462.873 127.215M461.08 121.968C461.135 121.987 461.195 122.006 461.245 122.027M462.873 127.215C464.976 131.984 467.888 136.247 471.612 140.008M462.873 127.215C462.927 127.237 462.984 127.259 463.032 127.279M471.612 140.008C475.402 143.702 479.697 146.557 484.501 148.575M471.612 140.008C471.662 140.033 471.715 140.059 471.761 140.085M484.501 148.575C489.575 150.727 494.85 151.806 500.327 151.813M484.501 148.575C484.551 148.602 484.604 148.629 484.65 148.656M500.327 151.813C505.806 151.818 511.08 150.752 516.153 148.611M500.327 151.813C500.379 151.836 500.434 151.861 500.482 151.884M516.153 148.611C521.023 146.605 525.319 143.762 529.043 140.079M516.153 148.611C516.208 148.627 516.264 148.641 516.315 148.656M529.043 140.079C532.765 136.33 535.678 132.078 537.782 127.321M529.043 140.079C529.098 140.08 529.154 140.083 529.205 140.085M537.782 127.321C538.059 126.658 538.319 125.993 538.56 125.323M537.782 127.321C537.833 127.308 537.885 127.294 537.933 127.28M538.56 125.323C540.146 120.916 540.944 116.357 540.955 111.647M538.56 125.323C538.609 125.306 538.661 125.291 538.708 125.274M540.955 111.647C541 91.5531 541.051 67.4191 541.097 47.3209M540.955 111.647C540.997 111.615 541.04 111.583 541.079 111.549M541.097 47.3209C541.093 47.2134 541.089 47.1068 541.084 47C541.084 67.1674 541.079 91.3824 541.079 111.549M459.952 47C459.952 67.1674 459.885 91.3823 459.885 111.549M459.885 111.549C459.885 115.129 460.339 118.62 461.245 122.027M461.245 122.027C461.718 123.801 462.313 125.552 463.032 127.279M463.032 127.279C465.128 132.054 468.038 136.322 471.761 140.085M471.761 140.085C475.549 143.784 479.845 146.64 484.65 148.656M484.65 148.656C489.725 150.809 495.002 151.884 500.482 151.884M500.482 151.884C505.963 151.884 511.24 150.809 516.315 148.656M516.315 148.656C521.186 146.64 525.482 143.784 529.205 140.085M529.205 140.085C532.925 136.322 535.835 132.054 537.933 127.28M537.933 127.28C538.211 126.614 538.468 125.947 538.708 125.274M538.708 125.274C540.288 120.852 541.079 116.275 541.079 111.549M541.097 67.321C549.212 67.3276 557.23 67.3329 565.347 67.3391C565.347 67.2258 565.347 67.1127 565.347 67.0001C557.226 67.0001 549.204 67.0001 541.084 67.0001C541.089 67.1069 541.093 67.2135 541.097 67.321Z" stroke="#100F0D" stroke-width="2"/>
</g>
</g>
</g>
</g>
<defs>
<filter id="filter0_bi_5_140" x="523" y="-3.34161" width="317.04" height="220.341" filterUnits="userSpaceOnUse" color-interpolation-filters="sRGB">
<feFlood flood-opacity="0" result="BackgroundImageFix"/>
<feGaussianBlur in="BackgroundImageFix" stdDeviation="2"/>
<feComposite in2="SourceAlpha" operator="in" result="effect1_backgroundBlur_5_140"/>
<feBlend mode="normal" in="SourceGraphic" in2="effect1_backgroundBlur_5_140" result="shape"/>
<feColorMatrix in="SourceAlpha" type="matrix" values="0 0 0 0 0 0 0 0 0 0 0 0 0 0 0 0 0 0 127 0" result="hardAlpha"/>
<feOffset dy="4"/>
<feGaussianBlur stdDeviation="2"/>
<feComposite in2="hardAlpha" operator="arithmetic" k2="-1" k3="1"/>
<feColorMatrix type="matrix" values="0 0 0 0 0 0 0 0 0 0 0 0 0 0 0 0 0 0 0.25 0"/>
<feBlend mode="normal" in2="shape" result="effect2_innerShadow_5_140"/>
</filter>
<filter id="filter1_bi_5_140" x="554.395" y="-3.34131" width="125.468" height="85.7815" filterUnits="userSpaceOnUse" color-interpolation-filters="sRGB">
<feFlood flood-opacity="0" result="BackgroundImageFix"/>
<feGaussianBlur in="BackgroundImageFix" stdDeviation="2"/>
<feComposite in2="SourceAlpha" operator="in" result="effect1_backgroundBlur_5_140"/>
<feBlend mode="normal" in="SourceGraphic" in2="effect1_backgroundBlur_5_140" result="shape"/>
<feColorMatrix in="SourceAlpha" type="matrix" values="0 0 0 0 0 0 0 0 0 0 0 0 0 0 0 0 0 0 127 0" result="hardAlpha"/>
<feOffset dy="4"/>
<feGaussianBlur stdDeviation="2"/>
<feComposite in2="hardAlpha" operator="arithmetic" k2="-1" k3="1"/>
<feColorMatrix type="matrix" values="0 0 0 0 0 0 0 0 0 0 0 0 0 0 0 0 0 0 0.25 0"/>
<feBlend mode="normal" in2="shape" result="effect2_innerShadow_5_140"/>
</filter>
<filter id="filter2_bi_5_140" x="683.176" y="131.219" width="125.468" height="85.7815" filterUnits="userSpaceOnUse" color-interpolation-filters="sRGB">
<feFlood flood-opacity="0" result="BackgroundImageFix"/>
<feGaussianBlur in="BackgroundImageFix" stdDeviation="2"/>
<feComposite in2="SourceAlpha" operator="in" result="effect1_backgroundBlur_5_140"/>
<feBlend mode="normal" in="SourceGraphic" in2="effect1_backgroundBlur_5_140" result="shape"/>
<feColorMatrix in="SourceAlpha" type="matrix" values="0 0 0 0 0 0 0 0 0 0 0 0 0 0 0 0 0 0 127 0" result="hardAlpha"/>
<feOffset dy="4"/>
<feGaussianBlur stdDeviation="2"/>
<feComposite in2="hardAlpha" operator="arithmetic" k2="-1" k3="1"/>
<feColorMatrix type="matrix" values="0 0 0 0 0 0 0 0 0 0 0 0 0 0 0 0 0 0 0.25 0"/>
<feBlend mode="normal" in2="shape" result="effect2_innerShadow_5_140"/>
</filter>
<filter id="filter3_bi_5_140" x="286.437" y="33" width="138" height="148" filterUnits="userSpaceOnUse" color-interpolation-filters="sRGB">
<feFlood flood-opacity="0" result="BackgroundImageFix"/>
<feGaussianBlur in="BackgroundImageFix" stdDeviation="2"/>
<feComposite in2="SourceAlpha" operator="in" result="effect1_backgroundBlur_5_140"/>
<feBlend mode="normal" in="SourceGraphic" in2="effect1_backgroundBlur_5_140" result="shape"/>
<feColorMatrix in="SourceAlpha" type="matrix" values="0 0 0 0 0 0 0 0 0 0 0 0 0 0 0 0 0 0 127 0" result="hardAlpha"/>
<feOffset dy="4"/>
<feGaussianBlur stdDeviation="2"/>
<feComposite in2="hardAlpha" operator="arithmetic" k2="-1" k3="1"/>
<feColorMatrix type="matrix" values="0 0 0 0 0 0 0 0 0 0 0 0 0 0 0 0 0 0 0.25 0"/>
<feBlend mode="normal" in2="shape" result="effect2_innerShadow_5_140"/>
</filter>
<filter id="filter4_bi_5_140" x="141.437" y="43" width="138" height="138" filterUnits="userSpaceOnUse" color-interpolation-filters="sRGB">
<feFlood flood-opacity="0" result="BackgroundImageFix"/>
<feGaussianBlur in="BackgroundImageFix" stdDeviation="2"/>
<feComposite in2="SourceAlpha" operator="in" result="effect1_backgroundBlur_5_140"/>
<feBlend mode="normal" in="SourceGraphic" in2="effect1_backgroundBlur_5_140" result="shape"/>
<feColorMatrix in="SourceAlpha" type="matrix" values="0 0 0 0 0 0 0 0 0 0 0 0 0 0 0 0 0 0 127 0" result="hardAlpha"/>
<feOffset dy="4"/>
<feGaussianBlur stdDeviation="2"/>
<feComposite in2="hardAlpha" operator="arithmetic" k2="-1" k3="1"/>
<feColorMatrix type="matrix" values="0 0 0 0 0 0 0 0 0 0 0 0 0 0 0 0 0 0 0.25 0"/>
<feBlend mode="normal" in2="shape" result="effect2_innerShadow_5_140"/>
</filter>
<filter id="filter5_bi_5_140" x="-3.56348" y="43" width="138" height="138" filterUnits="userSpaceOnUse" color-interpolation-filters="sRGB">
<feFlood flood-opacity="0" result="BackgroundImageFix"/>
<feGaussianBlur in="BackgroundImageFix" stdDeviation="2"/>
<feComposite in2="SourceAlpha" operator="in" result="effect1_backgroundBlur_5_140"/>
<feBlend mode="normal" in="SourceGraphic" in2="effect1_backgroundBlur_5_140" result="shape"/>
<feColorMatrix in="SourceAlpha" type="matrix" values="0 0 0 0 0 0 0 0 0 0 0 0 0 0 0 0 0 0 127 0" result="hardAlpha"/>
<feOffset dy="4"/>
<feGaussianBlur stdDeviation="2"/>
<feComposite in2="hardAlpha" operator="arithmetic" k2="-1" k3="1"/>
<feColorMatrix type="matrix" values="0 0 0 0 0 0 0 0 0 0 0 0 0 0 0 0 0 0 0.25 0"/>
<feBlend mode="normal" in2="shape" result="effect2_innerShadow_5_140"/>
</filter>
<filter id="filter6_bi_5_140" x="430.437" y="42" width="140" height="140" filterUnits="userSpaceOnUse" color-interpolation-filters="sRGB">
<feFlood flood-opacity="0" result="BackgroundImageFix"/>
<feGaussianBlur in="BackgroundImageFix" stdDeviation="2"/>
<feComposite in2="SourceAlpha" operator="in" result="effect1_backgroundBlur_5_140"/>
<feBlend mode="normal" in="SourceGraphic" in2="effect1_backgroundBlur_5_140" result="shape"/>
<feColorMatrix in="SourceAlpha" type="matrix" values="0 0 0 0 0 0 0 0 0 0 0 0 0 0 0 0 0 0 127 0" result="hardAlpha"/>
<feOffset dy="4"/>
<feGaussianBlur stdDeviation="2"/>
<feComposite in2="hardAlpha" operator="arithmetic" k2="-1" k3="1"/>
<feColorMatrix type="matrix" values="0 0 0 0 0 0 0 0 0 0 0 0 0 0 0 0 0 0 0.25 0"/>
<feBlend mode="normal" in2="shape" result="effect2_innerShadow_5_140"/>
</filter>
</defs>
</svg>
