<?xml version="1.0" encoding="UTF-8"?>
<svg id="uuid-98c149c5-5a85-42e5-82e0-71781e30a8e7" data-name="Camada 2" xmlns="http://www.w3.org/2000/svg" viewBox="0 0 86.75 119.62">
  <defs>
    <style>
      .uuid-b3c8da9d-111b-4b7c-9137-23f597aeefdc {
        fill: #202020;
        stroke-width: 0px;
      }
    </style>
  </defs>
  <g id="uuid-6edb2d31-bc16-414d-be5d-08ea1ce03b06" data-name="Object">
    <path class="uuid-b3c8da9d-111b-4b7c-9137-23f597aeefdc" d="m76.37,19.68c-1.27-1.34-2.64-2.59-4.11-3.71-1.49-1.1-3.05-2.1-4.71-2.93-.41-.22-.84-.39-1.26-.59-.42-.19-.84-.39-1.28-.54l-1.3-.49-1.25-.43c-1.68-.58-3.39-1.13-5.17-1.57-1.55-.36-3.12-.7-4.87-.71-.1-.13-.2-.27-.31-.41.03-.15.05-.31.08-.47.16-.85.3-1.81.39-2.79.05-.49.07-.98.08-1.46,0-.12,0-.24,0-.36v-.09s0-.15,0-.15l-.02-.3c-.04-.4-.08-.79-.11-1.16-.02-.19-.04-.38-.07-.57l-.03-.28-.02-.14s-.08-.02-.12-.03c-.35-.04-.68-.07-.99-.11-.32-.03-.63-.06-.91-.09-.15-.01-.29-.02-.42-.03-.08,0-.16-.02-.23-.02-.51-.06-.82-.09-.82-.09l-2.98-.09c-1.44-.04-2.87-.06-4.31-.06h-2.16s-2.58.05-2.58.05l-2.07.06h-.13s-.05,0-.06,0v.07s0,.26,0,.26v.52s0,1.04,0,1.04l-.04,2.66c-.01.77-.03,1.53-.04,2.3-.06.08-.12.17-.15.26-.03.06-.03.08-.02.12.02.12.05.23.08.34-1.73-.08-3.36.16-4.93.49-3.67.82-7.06,2.2-10.34,3.78-.82.4-1.63.82-2.43,1.25-.82.43-1.62.94-2.41,1.46-1.54,1.05-3,2.24-4.34,3.56-2.68,2.63-4.87,5.82-6.23,9.38-.68,1.77-1.17,3.63-1.43,5.51l-.16,1.43-.05,1.41c-.02.47,0,.94,0,1.41.02.47,0,.94.06,1.4.26,3.73,1.16,7.47,2.82,10.86.82,1.7,1.81,3.31,2.93,4.82,1.13,1.5,2.41,2.88,3.78,4.15,2.75,2.54,5.93,4.55,9.29,6.1l1.27.56.72.29.75.29c.5.19,1.01.35,1.51.53,0,0,.14.04.39.1.25.06.6.14,1.02.24.42.11.91.2,1.44.3.53.11,1.09.2,1.65.28,2.24.35,4.45.42,4.26.37.73,0,1.4-.02,1.97-.08-.26.21-.45.47-.58.69-.07.1-.07.13-.07.21.08,1.73.11,3.49.12,5.25v1.7s.02,2.56.02,2.56c0,0,.14,2.26.38,4.49.23,2.23.63,4.4.64,4.21.07.33.15.65.23.95-.21-.2-.41-.39-.58-.58-.22-.24-.42-.43-.55-.58-.13-.15-.21-.24-.21-.24,0,0-.14-.11-.38-.31-.24-.2-.56-.51-.94-.89-.75-.77-1.64-1.93-2.32-3.22-.69-1.28-1.15-2.68-1.36-3.76-.12-.54-.16-.99-.21-1.32-.02-.32-.03-.52-.04-.54-.01-.03-.11-.08-.14-.09-.71-.29-1.35-.36-1.87-.28-.09.01-.16.03-.24.05,0,0,0,0,0,0,.24-.37-.68-.52-3.58-.34-3.43.14-8.27.49-8.27.49l-2.92.4-4.66.57-.54.06c-.11-.07-.21-.13-.33-.13-.18-.01-.37.09-.51.22l-1.72.2-.14.02-1.96.3c-.06.02-.19.14-.22.17-.18.2-.33.4-.45.58-.09.19-.16.41-.22.57-.19-.2-.38-.34-.61-.4-.25-.07-.53-.04-.8.08-.14.06-.27.13-.39.22-.11.09-.21.19-.3.29-.11.11-.13.15-.16.26-.29,1.2-.2,2.31-.02,3.32.19,1.01.49,1.95.85,2.85.48,1.21,1.06,2.34,1.67,3.44.32.55.6,1.07.94,1.6l1,1.59c1.43,2.07,3,4.07,4.87,5.79,1.85,1.72,3.87,3.27,6.04,4.54,2.18,1.26,4.46,2.31,6.8,3.17l2.5.81s.57.12,1.41.3c.84.2,1.97.36,3.08.54,1.11.15,2.22.27,3.01.35.26.02.49.03.68.04.24.39.41.48.41.02.1,0,.15,0,.12-.01.5.02.97.03,1.41.02-.01.03-.03.06-.05.08-.06.11-.06.13-.05.21.25,1.65.35,3.36.37,5.08v1.33s-.02.67-.02.67l-.03,1.02-.06,1.37-.03.68-.02.34v.08s.05,0,.08,0h.17c.92.02,1.9.01,2.76.11,1.34.13,2.8.49,4.48.57l.61.02.47.02,1.08.08c.74.06,1.48.11,2.25.15.88.04,1.76.07,2.76,0,0,0,.04,0,.12-.02.08-.02.21-.04.36-.07.13-.02.38-.08.72-.2.15-.07.31-.14.48-.22.15-.1.28-.26.43-.39.13-.14.33-.28.42-.44.1-.16.19-.31.29-.47.2-.32.27-.64.4-.99.16-.65.25-1.32.25-1.93.02-2.47-.54-4.57-.52-4.39-.2-.85-.43-1.59-.64-2.18.01,0,.03.02.05.03.12.06.14.06.23.05,1.84-.23,3.61-.57,5.38-.97,3.71-.84,7.4-2.09,10.83-3.81,3.43-1.73,6.71-3.84,9.55-6.54,1.41-1.35,2.74-2.84,3.84-4.52,1.09-1.67,1.97-3.44,2.68-5.27,1.4-3.67,2.12-7.57,2.13-11.5,0-1.97-.21-3.94-.64-5.88-.42-1.96-1.16-3.81-1.97-5.6-1.7-3.57-4.21-6.72-7.15-9.28-2.94-2.57-6.29-4.59-9.79-6.17l-1.32-.58-.33-.14-.22-.08-.19-.07-.74-.28-1.49-.55s-.56-.14-1.4-.35c-.83-.23-1.95-.45-3.06-.66-1.1-.22-2.21-.34-3.01-.46-.8-.09-1.3-.11-1.21-.08-.46-.03-.9-.05-1.3-.06-.35,0-.67.02-.96.04.02-3,.11-13.42.11-13.42,0,0-.08-.66-.18-1.45.12.08.23.15.35.23.1.07.2.14.3.21.04.02.14.12.24.2.19.16.38.34.57.52.75.74,1.39,1.57,1.78,2.23.4.66.58,1.12.58,1.12,0,0,.38.49.66,1.03.29.53.49,1.1.51,1.05.02.04.04.08.06.12-.42,1.13.49,1.81,1.12,2.07.11.06.14.05.22.04l5.23-.97,4.85-.9,2.49-.46s2.17-.52,4.31-1.04c2.13-.51,4.22-.99,4.03-.99,3.47-.91,5.69-1.94-.16-1.77-1.96.02-4.38.2-6.1.36,0-.01,0-.02-.01-.03-.65-1.52-1.79-3.58-1.79-3.58l-2.16-3.33-2.61-4.07c-1.72-2.72-3.37-5.48-4.76-8.34-.05-.12-.11-.24-.16-.35l1.23.43,1.17.44c.39.14.77.31,1.15.49.37.18.76.33,1.13.53.84.42,1.64.89,2.43,1.39.03.09.06.19.09.28,1.35,3.71,3.34,7.04,5.47,10.25.22.34.46.68.69,1.01,0,0,.67.85,1.34,1.67.68.81,1.36,1.59,1.32,1.51,1.2,1.26,2.14,1.92.71-.47-.4-.72-.91-1.57-1.31-2.25-.41-.69-.7-1.17-.7-1.17l-.79-1.16c-1.7-2.57-3.31-5.24-4.53-8.03,1.13.9,2.2,1.88,3.2,2.93.53.61,1.09,1.19,1.57,1.84,0,0,1.46,1.57,2.67,3.33,1.23,1.74,2.27,3.57,2.22,3.39.93,1.5,1.69,2.77,2.1,2.94.2.09.3-.1.25-.67-.05-.57-.24-1.52-.71-2.93-.53-1.67-1.38-3.66-2.21-5.16-.4-.76-.81-1.39-1.08-1.85-.29-.45-.48-.71-.48-.71-.62-.83-1.32-1.6-2-2.37ZM49.82,3.3s.08-.06.16-.07c.02.01.04.03.06.06.02.05.03-.02.08.32.11.78.17,1.58.22,2.27-.23-.31-.46-.62-.68-.94-.36-.53-.71-1.07-1.04-1.61.23,0,.65-.02,1.19-.03Zm-14.86,7.64c.06-.01.19-.07.22-.09.02-.01.02-.02.04-.03.43.33.82.41,1.15.36.95,1.18,1.96,2.19,2.73,3.37,1.16,1.56,2.21,3.13,3.24,4.75,1.02,1.62,2,3.27,2.94,4.95l1.39,2.53.81,1.51s.56.91,1.1,1.81c.17.27.33.54.48.79-.11.61-.18,1.04-.18,1.04,0,0-.01,1.4-.03,3.32l-.48-.79-2.02-3.38c-1.34-2.26-2.67-4.53-4.05-6.79-1.37-2.25-2.79-4.49-4.29-6.67-1.48-2.19-3.13-4.3-4.65-6.39l-.22-.29c.61-.03,1.22-.04,1.79.03Zm-4.73.38c.39-.08.78-.16,1.18-.22l.74,1c1.54,2.13,3.11,4.14,4.56,6.26,1.45,2.12,2.83,4.29,4.18,6.49,1.34,2.2,2.65,4.43,3.97,6.65l1.99,3.34.98,1.62s.49.69,1.02,1.44c-.01,1.66-.03,3.41-.04,4.88l-2.32-3.37c-.91-1.4-1.93-2.71-2.92-4.01-.99-1.3-1.97-2.6-2.89-3.92-.86-1.26-1.67-2.55-2.28-3.9-.01-.23-.02-.47-.03-.7l-.08-1.73-.04-.87v-.22c-.05,0-.13.07-.19.1l-.38.23-.58.35c-.16-.06-.3-.08-.43-.04-.17.04-.31.17-.4.32-.12-.23-.19-.37-.19-.37l-.76-1.2c-2.09-3.31-4.21-6.6-5.89-10.07-.27-.55-.52-1.11-.75-1.67.52-.14,1.04-.28,1.57-.4Zm23.81,75.21c-.95.62-1.84,1.13-2.39,1.53.01-1.51.04-3.02.07-4.53.06-2.88.13-5.77.13-8.68v-1.57s0,0,0,0c.6.28,1.17.58,1.69.92,1.74,1.12,2.86,2.72,3.6,4.79.14.35.21.69.32,1.03.05.33.14.68.15,1-.02,0,.1.43.04,1.03-.05.6-.27,1.37-.81,2.08-.53.71-1.28,1.35-1.88,1.76-.59.42-1.01.66-.91.64Zm1.25-15c-.68-.45-1.39-.82-2.09-1.15-1.22-.56-2.44-1-3.67-1.46-.13-.36-.26-.71-.38-1.02-.3-.74-.52-1.28-.52-1.28l-.73-1.42c-.5-.96-1.02-1.92-1.53-2.87l-3.15-5.67c-2.1-3.77-4.18-7.54-5.93-11.44-.32-.69-.61-1.39-.9-2.08.75.49,1.31.42,1.72.18.27-.16.47-.4.63-.64,1.12,2.03,2.41,3.93,3.69,5.8.76,1.12,1.53,2.25,2.24,3.38.7,1.12,1.35,2.35,2.02,3.52l8.01,14.22c.47.84.94,1.68,1.42,2.52-.27-.21-.54-.4-.81-.59Zm-20.04-41.53c0,2.32-.07,4.69.01,7.11.05,1.49.17,3,.44,4.53-.5-.26-1.22-.6-2.11-1.11-.7-.42-1.41-.94-1.96-1.51-.56-.57-.9-1.2-1.05-1.77-.33-1.12.05-2.09,0-2.09.11-.77.35-1.46.78-2.14.67-1.09,1.74-2.02,2.98-2.85l.7-.45.2-.13h0s0,0,0,0h0s0,0,0,0v.39Zm-3.67,11.67c.8.37,1.3.5,1.22.45,1.28.4,2.4.52,3.09.49,0,.03,0,.05.01.08,0,0,.01.01.01.02-.71-.24-.99.31-1.05.67-.02.06-.01.07,0,.11.33.79.66,1.58,1.02,2.36,1.76,3.91,3.82,7.65,5.89,11.37l3.09,5.56c.5.93,1.01,1.86,1.5,2.8l.81,1.56s.53.92,1.06,1.83c.12.21.23.41.34.6v.36s.05,2.16.05,2.16l.02,1.68v1.07c0,.41,0,.82-.01,1.23-.08-.2-.18-.43-.31-.7-.67-1.51-1.73-3.58-1.73-3.58l-.95-1.6c-1.43-2.45-2.83-4.93-4.19-7.42-2.73-4.99-5.33-10.05-7.94-15.12l-3.62-7.02c.6.47,1.2.82,1.68,1.05Zm-4.38-29.51c.27.64.55,1.27.85,1.9,1.74,3.59,3.89,6.91,5.98,10.22l.65,1.03s.19.26.45.63l-.48.29-1.3.79-.16.1c-.56-1.56-1.58-3.55-1.58-3.55l-.74-1.22c-1.77-2.88-3.64-5.67-5.23-8.58-.16-.3-.32-.6-.48-.9.68-.26,1.36-.5,2.05-.72Zm-3.46,1.28c.18.36.35.72.55,1.07,1.64,3,3.52,5.8,5.28,8.65l.63,1.03s.61.88,1.18,1.75c.57.87,1.11,1.74,1.08,1.65,0,0,0,0,0,0-1.24.85-2.51,1.89-3.49,3.27-.43-1.27-.9-2.48-.9-2.48l-.61-1.28c-1.79-3.71-3.71-7.36-5.76-10.93l-.32-.55-.09-.15c-.05-.1-.12-.16-.15-.21-.08-.1-.16-.19-.25-.29-.05-.06-.11-.11-.17-.17.99-.48,2-.93,3.02-1.36Zm-5.62,2.69c.37-.2.75-.39,1.13-.59.2.16.36.3.53.47.06.06.12.13.17.19.03.04.04.05.04.05l.07.12.32.55c2.04,3.54,3.94,7.15,5.71,10.83l.52,1.09s.51.94,1.02,1.86c.25.46.5.92.68,1.25-.13.24-.24.49-.35.75-.09.25-.19.5-.27.75l-.17.76s-.03.17-.07.47c0,.31-.05.73-.01,1.26,0,.13.01.27.03.42-.75-1.25-1.5-2.48-2.26-3.72-2.95-4.86-5.9-9.73-8-14.95-.11-.28-.21-.56-.32-.83.4-.26.81-.51,1.24-.73Zm-2.54,1.61c.07.17.13.35.2.52,2.13,5.29,5.07,10.14,7.97,14.93,1.45,2.39,2.93,4.78,4.29,7.19,1.31,2.44,2.57,4.96,3.86,7.44,2.56,4.99,5.12,9.98,7.81,14.91,1.34,2.47,2.71,4.92,4.12,7.35l1.36,2.31s.6.89,1.21,1.76c.6.87,1.21,1.7,1.18,1.62.42.53.81.97,1.05,1.16-.02,2.17-.07,4.34-.11,6.53,0,.43-.01.85-.02,1.28l-3.86-7.17-1.13-2.1-.57-1.05c-.21-.36-.44-.71-.65-1.05-.87-1.35-1.77-2.64-2.47-3.99-.37-.72-.69-1.45-.89-2.19-.02-.03-.07-.08-.08-.09-.4-.28-.72-.32-.95-.21-.05.02-.09.05-.13.09-.03-.06-.09-.13-.21-.19-.06-.27-.2-.69-.46-1.31-.59-1.54-1.56-3.66-1.56-3.66l-.82-1.54-2.94-5.57-5.77-11.22c-1.92-3.74-3.84-7.49-5.81-11.21-.98-1.86-1.98-3.72-2.99-5.57l-1.53-2.77-.87-1.36c-.27-.44-.54-.88-.79-1.32-.3-.54-.59-1.1-.8-1.64.74-.67,1.53-1.29,2.35-1.87Zm21.96,49.52s-.03.05-.04.08c-.03-.01-.05-.03-.08-.04.04-.01.08-.03.12-.04Zm-14.05-5c-3.19-1.35-6.19-3.12-8.8-5.35-1.14-.98-2.2-2.05-3.17-3.19-.56-1.43-1.26-3.02-1.26-3.02l-.65-1.26c-1.25-2.45-2.48-4.93-3.74-7.39-.18-.93-.32-1.87-.4-2.82-.16-1.7-.17-3.45,0-5.11.02-.16.05-.33.07-.49.05.13.1.26.15.4,1.48,3.86,3.32,7.56,5.23,11.18l5.17,9.64s.55.92,1.09,1.82c.53.9,1.06,1.79,1.03,1.7.91,1.46,1.7,2.32.78-.33-.51-1.58-1.46-3.73-1.46-3.73l-5.17-9.64c-1.93-3.66-3.78-7.37-5.25-11.2-.31-.78-.58-1.57-.85-2.36-.02-.03-.08-.08-.1-.09-.04-.02-.07-.03-.1-.05.16-.59.33-1.18.53-1.75.11-.29.22-.58.34-.87l.06.11c3.07,5.29,5.92,10.7,8.64,16.18,1.36,2.74,2.69,5.5,3.99,8.27l2.78,5.99s2.01,3.8,1.97,3.62c.02.04.04.07.07.11l-.97-.38Zm5.78,2.12c-.76-.26-1.41-.49-1.87-.68-.46-.18-.73-.28-.73-.28l-1.26-.43c-.06-.22-.13-.47-.23-.77-.46-1.59-1.29-3.78-1.29-3.78l-2.67-5.76c-1.33-2.83-2.68-5.64-4.07-8.44-2.78-5.6-5.69-11.14-8.83-16.55l-.6-1.03c.37-.72.78-1.43,1.23-2.11.45.45.88,1.02,1.28,1.6,2.05,3.03,3.61,6.51,5.43,9.81l5.2,10.03c1.73,3.35,3.49,6.69,5.32,10,.91,1.66,1.85,3.3,2.81,4.93l1.13,1.89s.61.89,1.23,1.75c.15.21.29.41.43.6-.89-.26-1.76-.53-2.52-.79Zm6.85,1.93c-.47-.13-1.05-.27-1.75-.42-.37-.1-.77-.21-1.16-.31-.69-1.47-1.69-3.38-1.69-3.38l-.88-1.47c-.97-1.64-1.92-3.3-2.85-4.97-1.86-3.34-3.64-6.73-5.4-10.13l-5.29-10.22c-.88-1.71-1.82-3.36-2.67-5.09-.9-1.71-1.83-3.41-2.94-5.05-.48-.68-.97-1.36-1.65-1.99.67-.9,1.4-1.75,2.19-2.55,0,0,0,0,.01-.01.2.44.42.85.65,1.26.26.47.53.92.81,1.37l.82,1.27,1.5,2.71c.99,1.81,1.97,3.63,2.93,5.45,1.93,3.65,3.82,7.32,5.71,11l5.67,11.04,2.89,5.5,1.08,2.02s2.28,3.65,2.23,3.48c.17.25.34.47.49.67-.2-.06-.43-.12-.7-.19Zm-9.12,10.12c0,.1.02.31.04.61.06.4.12.96.26,1.62.03.18.09.37.13.56-.14-.3-.29-.6-.42-.9-.23-.54-.44-1.09-.63-1.64.23-.09.43-.17.62-.25Zm-19.71,13.98l-.92-1.46c-.31-.48-.61-1.02-.89-1.51-.56-1.01-1.08-2.03-1.48-3.06-.3-.76-.54-1.52-.67-2.25-.09-.49-.13-.97-.1-1.39.03.02.06.04.1.05.11.06.15.06.23.05l.54-.08c.14.27.26.52.38.82,1.57,3.91,3.41,7.7,5.33,11.42l.56,1.08s.14.23.35.58c-1.26-1.31-2.37-2.75-3.41-4.25Zm5.88,6.53c-.56-1.52-1.37-3.38-1.37-3.38l-.65-1.26c-1.9-3.71-3.72-7.45-5.26-11.29-.06-.15-.13-.32-.21-.49l.24-.04-.14.02,2.08-.24c1.48,2.83,2.89,5.74,4.2,8.69l3.64,8.19s.51.95,1.01,1.88c.13.24.26.47.38.68-1.38-.82-2.69-1.76-3.92-2.78Zm5.34,3.56s-.01-.03-.02-.05c-.5-1.57-1.32-3.75-1.32-3.75l-3.65-8.22c-1.26-2.83-2.6-5.63-4.04-8.41l2.71-.34c.1.3.21.59.31.89,1.11,3.03,2.4,5.98,3.72,8.89l2,4.35,1.65,3.66s.49.95.96,1.89c.47.94.92,1.86.9,1.77.23.44.46.83.64,1.1-1.33-.53-2.63-1.11-3.89-1.78Zm8.38,3.31c-.47-.17-.75-.26-.75-.26-.92-.25-1.82-.58-2.72-.87-.19-.07-.38-.15-.57-.22,0-.24-.07-.72-.29-1.54-.4-1.61-1.2-3.82-1.2-3.82l-.63-1.42-1.01-2.22-2.03-4.42c-1.35-2.95-2.64-5.9-3.74-8.92-.07-.19-.13-.37-.2-.56l2.38-.32s.3-.06.78-.16c.12.29.23.57.36.85.43.95.9,1.86,1.34,2.77.44.9.85,1.83,1.28,2.76.84,1.85,1.65,3.71,2.44,5.58.79,1.87,1.56,3.76,2.32,5.64l1.76,4.46s.87,1.9,1.39,2.99c-.35-.12-.65-.23-.9-.32Zm4.42,1.43c-.83-.23-1.64-.49-2.37-.73-.38-1.6-1.05-3.74-1.05-3.74l-1.72-4.37c-.77-1.93-1.56-3.85-2.36-5.77-.81-1.92-1.64-3.82-2.5-5.72-.44-.94-.85-1.89-1.31-2.84-.46-.94-.93-1.86-1.34-2.78-.08-.18-.15-.36-.23-.54.64-.14,1.36-.29,2.07-.45.29-.07.58-.13.86-.2.24.72.51,1.39.83,2.08.12.26.24.51.41.79.02.03.03.04.03.05,0,0,0,.01.02.04l.08.18.16.37.64,1.47,1.24,2.95c.81,1.98,1.59,3.96,2.34,5.96.75,2,1.48,4.01,2.18,6.03l1.04,3.03.56,1.68s.4,1,.79,1.97c.1.26.2.51.3.74-.22-.06-.44-.13-.65-.19Zm4.91,1.43c-.54-.19-1.29-.4-2.3-.66-.25-.07-.51-.15-.77-.22-.29-1.55-.76-3.35-.76-3.35l-1.56-4.61c-.72-2.06-1.46-4.12-2.22-6.17-.77-2.05-1.56-4.09-2.39-6.11l-1.27-3.03-.65-1.51-.16-.38-.08-.19-.06-.14-.08-.14c-.11-.18-.23-.42-.34-.65-.27-.57-.51-1.18-.72-1.78,1.08-.27,1.82-.47,1.71-.47.12-.04.24-.07.36-.11.21.6.43,1.19.68,1.77.61,1.39,1.3,2.72,1.97,4.04.33.66.66,1.31.96,1.97l.89,2.03c1.17,2.71,2.26,5.46,3.32,8.22l3.13,8.32,1.24,3.28c-.34-.15-.64-.18-.9-.13Zm8.76,9.55l-1.13-.08c-.2-.01-.4-.02-.63-.03h-.49c-1.27-.06-2.7-.4-4.29-.57-.04,0-.01,0-.02,0h0s.01-.34.01-.34v-.7s.02-1.4.02-1.4c-.01-1.07-.06-2.15-.14-3.23.17.36.46.99.75,1.61.45.95.9,1.88.88,1.79.82,1.53,1.55,2.42.8-.27-.4-1.6-1.09-3.83-1.09-3.83l-2.18-5.77-3.18-8.48c-1.08-2.82-2.2-5.64-3.4-8.42l-.32-.74c.39.51.78.96,1.14,1.34.44.49.86.84,1.14,1.11.3.24.47.38.47.38,0,0,.23.14.57.35.1.05.23.12.34.18.16.45.32.91.49,1.36,1.56,4.21,3.31,8.33,5.09,12.44l2.67,6.14,2.02,4.72s.47.96.94,1.9c.1.2.2.4.29.59-.25-.02-.5-.03-.75-.05Zm5.43-.67c-.19.59-.55.94-.51.82-.02,0-.03-.02-.02-.04-.04,0-.11,0-.11,0-.32.05-.78.07-1.22.07-.45,0-.92-.02-1.4-.04-.07,0-.15-.01-.23-.02-.4-1.44-.93-2.98-.93-2.98l-1.97-4.61-2.72-6.25c-1.8-4.16-3.57-8.33-5.15-12.57.55.18.96.27.91.22.84.16,1.57.06,1.77-.19.17-.22,0-.53-.55-1.03.02-.4.03-.92.03-1.56l4.84,10.92,2.79,6.38,1.36,3.2.7,1.68s.46.96.92,1.91c.45.95.9,1.88.88,1.79.33.64.65,1.17.85,1.37-.06.34-.14.65-.24.92Zm.64-8.32s.02.03.02.04c-.03.09-.05.19-.07.32-.09.56-.09,1.53-.07,2.97,0,1.01-.04,2.17-.16,3.2-.04-.21-.1-.46-.18-.76-.38-1.61-1.12-3.84-1.12-3.84l-2-4.76-2.84-6.5-5.73-12.95c-.17-.41-.33-.83-.49-1.25.04-.88.08-1.74.13-2.51.04-.74.08-1.37.11-1.86.9,1.71,1.89,3.32,2.73,4.97,1.02,2.11,2.01,4.34,3.02,6.51l5.29,11.49s1.28,2.4,1.78,3.29c-.49.64-.58,1.19-.43,1.63Zm5.96-3c-1.56.35-3.14.65-4.7.86-.48-1.5-1.14-3.23-1.14-3.23l-5.27-11.45c-1.03-2.23-2.02-4.43-3.09-6.68-1.13-2.23-2.46-4.28-3.47-6.43-.24-.51-.44-1.02-.63-1.53v-.37s0-1.71,0-1.71c0-1.08-.02-2.17-.05-3.26.72,1.31,1.54,2.5,2.31,3.69l.6.96.56,1.03,1.11,2.06,4.44,8.24.78,1.45c0,.31-.01.62-.01.93.01.07.1.22.13.25.33.41.65.66.95.79l5.77,10.71s2.26,3.66,2.2,3.48c.02.02.03.04.05.07-.18.04-.36.1-.54.14Zm1.34-.34c-.03-.07-.05-.14-.08-.21-.57-1.55-1.54-3.68-1.54-3.68l-5.63-10.45c.19-.17.35-.36.46-.53.07-.09.07-.12.08-.18.05,0,.08,0,.14,0,.38-.02.93-.1,1.68-.3-.01.03-.03.06-.03.09-.03.07-.02.08-.01.13.25.93.59,1.74.97,2.52,1.24,2.57,2.69,4.95,4.11,7.35l.63,1.04s.6.88,1.2,1.75c.49.71.95,1.41,1.08,1.59-1,.33-2.02.62-3.05.88Zm17.82-9.45c-2.57,2.48-5.63,4.51-8.87,6.16-.1.05-.19.09-.29.13-.48-1.46-1.12-3.07-1.12-3.07l-.62-1.28c-1.36-2.74-2.83-5.45-4.58-8.01-.48-.71-.99-1.41-1.52-2.09-.03-.02-.1-.05-.12-.06-1.02-.24-1.14.51-1.11.9,0,.06,0,.07.03.1.51.65,1,1.33,1.47,2.02,1.69,2.47,3.13,5.11,4.47,7.82l.53,1.09s.52.93,1.03,1.85c.23.42.46.84.64,1.16-1.27.59-2.55,1.13-3.87,1.59,0-.02-.01-.04-.02-.06-.6-1.55-1.68-3.63-1.68-3.63l-.73-1.22c-1.42-2.38-2.86-4.77-4.03-7.22-.36-.74-.67-1.51-.86-2.21-.01-.03-.06-.07-.08-.08-.08-.05-.15-.09-.22-.13.04-.01.08-.03.12-.04.84-.3,1.78-.67,2.67-1.24.88-.57,1.72-1.31,2.3-2.17.55-.87.89-1.77.98-2.41.14-.65.12-1.03.12-1.03,0-.19-.02-.37-.03-.55l1.67,3.17c1.27,2.41,2.56,4.82,3.93,7.19l.96,1.64.38.64s.61.89,1.23,1.75c.63.86,1.25,1.68,1.21,1.6,1.12,1.34,2,2.05.74-.42-.7-1.49-1.77-3.55-1.77-3.55l-.94-1.59c-1.39-2.38-2.7-4.8-4-7.25-2.57-4.89-5.13-9.84-7.9-14.64l-8.16-14.49c-.69-1.21-1.33-2.42-2.07-3.62-.75-1.2-1.53-2.35-2.31-3.49-1.55-2.29-3.12-4.55-4.32-6.96-.33-.67-.63-1.35-.88-2.04-.05-.57-.08-1.15-.1-1.73-.02-.59-.03-1.19-.04-1.79,1.36,2.5,3.13,4.64,4.63,6.86l4.83,7.4c3.21,4.94,6.37,9.91,9.39,14.96,3.09,5,5.64,10.28,8.4,15.52,1.38,2.62,2.81,5.22,4.39,7.75.19.32.39.63.6.94l.3.46.2.31c.14.21.27.42.41.62,0,0,.66.86,1.34,1.68.69.81,1.37,1.59,1.34,1.51,1.24,1.24,2.18,1.86.7-.48-.84-1.42-2.01-3.4-2.01-3.4-.14-.2-.28-.4-.41-.61l-.62-.95c-1.61-2.5-3.07-5.1-4.47-7.73-2.8-5.27-5.4-10.73-8.55-15.88-3.08-5.16-6.3-10.24-9.57-15.27l-4.92-7.55c-1.7-2.54-3.64-4.82-4.93-7.4-.35-.72-.64-1.46-.8-2.2-.01-.03-.07-.08-.08-.09-.05-.04-.1-.07-.15-.1,0-.22,0-.45,0-.67.3.48.61.95.92,1.42.92,1.35,1.9,2.64,2.88,3.92.97,1.28,1.96,2.54,2.82,3.85l2.73,3.97.97,1.41c0,.54,0,.88,0,.9.01.04.1.1.13.12.28.17.56.27.82.33l9.07,13.12c3.72,5.25,6.84,10.84,10.12,16.39,1.63,2.78,3.29,5.55,5.05,8.27l1.19,1.81.42.61s.17.21.41.53c.25.32.58.74.92,1.15.67.82,1.34,1.61,1.31,1.52.32.34.62.63.86.84-.83,1.23-1.81,2.36-2.9,3.42Zm4.68-29.58l.62,1.18.48,1.24.49,1.24.37,1.26c.14.54.25,1.08.35,1.63l-.61-1.17-2.63-4.92c-1.2-2.22-2.42-4.42-3.66-6.62,1.83,1.83,3.4,3.89,4.59,6.17Zm-8.04-9.13l.35.6c1.83,3.15,3.6,6.34,5.33,9.55l2.58,4.83,2.06,3.92s.17.28.41.68c.04,2.05-.15,4.12-.56,6.14-.05-.13-.11-.27-.18-.43-.61-1.53-1.58-3.64-1.58-3.64l-.77-1.42-1.81-3.42c-1.2-2.29-2.39-4.58-3.64-6.86-1.25-2.27-2.54-4.53-3.93-6.73l-.26-.41-.13-.21-.1-.17c-.16-.3-.34-.58-.51-.86-.35-.56-.72-1.1-1.09-1.64-.74-1.07-1.47-2.11-2.12-3.18-.07-.12-.14-.24-.21-.36,2.16,1.03,4.23,2.24,6.14,3.64Zm-13.91-6.74c.76.26,1.4.55,1.86.73.46.18.74.29.74.29.49.14.95.34,1.42.51l.71.26.35.13.18.07s.16.05.25.1l.05.02c.32.76.7,1.47,1.1,2.15.68,1.12,1.42,2.17,2.14,3.21.36.52.71,1.04,1.04,1.56.16.26.33.52.47.79l.11.2.09.15.06.1.25.4c1.35,2.13,2.61,4.31,3.83,6.53,1.22,2.22,2.39,4.46,3.57,6.71l1.78,3.37.89,1.66s.57.91,1.14,1.81c.57.89,1.15,1.75,1.12,1.66.27.37.53.7.74.93-.26,1.1-.58,2.19-.96,3.25-.12.33-.25.65-.38.98-.11-.25-.29-.58-.55-1.02-.81-1.46-1.92-3.46-1.92-3.46l-.9-1.42c-.92-1.5-1.81-3.02-2.67-4.56-1.72-3.08-3.34-6.24-5.04-9.36-1.71-3.12-3.45-6.25-5.53-9.19-2.03-2.91-4.21-5.67-6.09-8.6.05.02.1.04.14.05Zm-5.06-1.72c.81.24,1.7.54,2.57.84.03,0,.05.02.07.03.3.53.62,1.05.94,1.56,1.91,2.99,4.08,5.73,6.06,8.57,1.99,2.81,3.69,5.83,5.37,8.87,1.67,3.05,3.26,6.16,4.96,9.22.85,1.53,1.72,3.05,2.64,4.56l1.14,1.81s.66.86,1.3,1.71c.67.83,1.33,1.63,1.29,1.54.42.45.81.82,1.07,1.01-.5,1.17-1.08,2.3-1.74,3.36-.04.07-.09.13-.13.19-.11-.22-.26-.5-.46-.84-.4-.71-.89-1.58-1.29-2.25-.39-.68-.68-1.18-.68-1.18l-.42-.61-.65-.98c-1.79-2.71-3.48-5.5-5.15-8.32-3.32-5.62-6.53-11.38-10.29-16.77l-8.95-12.94s.09-.04.13-.06c.53.18,1.26.39,2.22.68Zm-1.09-19.91c-.78-.49-1.32-.83-1.34-.85-.03,0-.12.05-.14.07-.06.04-.11.09-.16.14-.38-.73-.86-.69-1.36,1.23-.1.32-.19.67-.28,1.02-.3-.72-.54-1.25-.54-1.25l-.74-1.39-1.42-2.59c-.96-1.72-1.96-3.43-3.02-5.11-1.05-1.67-2.17-3.33-3.33-4.91-.83-1.26-1.88-2.35-2.78-3.44.03-.04.07-.09.09-.13.07-.1.07-.13.07-.2-.05-1.57-.01-3.22.02-4.87,1.94,3.59,4.14,7.01,6.43,10.35,1.2,1.74,2.42,3.47,3.65,5.18l2.89,3.99s2.72,3.33,2.63,3.16c.03.03.06.07.09.1-.27-.18-.53-.34-.76-.49Zm6.14,8.73c.03-.35.03-.7,0-1.01-.05-.62-.16-1.08-.16-1.08,0,0-.25-.65-.78-1.53-.52-.89-1.33-1.96-2.28-2.91-.25-.23-.48-.47-.74-.69-.05-.04-.09-.08-.13-.11-.03-.22-.23-.68-.66-1.46-.76-1.47-2-3.45-2-3.45l-2.81-3.89c-1.25-1.73-2.48-3.48-3.7-5.23-2.41-3.52-4.73-7.1-6.72-10.84-.12-.23-.24-.46-.36-.69l1-.02h2.12c.08,0,.17,0,.25,0,.17.37.36.72.55,1.06.8,1.37,1.73,2.6,2.6,3.83.43.61.86,1.22,1.22,1.84l.13.23.09.16.09.13.31.47.62.95c1.64,2.54,3.19,5.14,4.74,7.76,1.55,2.61,3.09,5.24,4.69,7.84.8,1.3,1.62,2.59,2.46,3.86l1.13,1.68s.66.86,1.34,1.67c.22.27.44.52.63.76l-3.64.67Zm4.75-.88c-.34-.59-.71-1.23-1.02-1.75-.4-.68-.69-1.18-.69-1.18l-.42-.61-.5-.75c-.85-1.28-1.68-2.58-2.49-3.88-1.62-2.61-3.18-5.28-4.76-7.94-1.58-2.66-3.16-5.32-4.84-7.94l-.64-.98-.32-.49c-.13-.19-.16-.24-.28-.45-.41-.71-.86-1.36-1.31-2-.9-1.27-1.83-2.49-2.57-3.77-.05-.09-.1-.18-.15-.27.75,0,1.51.01,2.26.03l1.11.03c-.02.07-.03.15-.03.21,0,.06,0,.07.02.11.43.76.91,1.49,1.4,2.2.69,1,1.41,1.95,2.14,2.9.03.34.07.65.11.94-.23.48-.14.89.02,1.2.13.24.3.44.47.61.17.16.34.29.49.4.09.07.11.07.17.06.35-.02.71-.02,1.08,0,.06.09.12.17.18.26,1.42,2.19,2.79,4.45,4.15,6.7l4.08,6.79c.69,1.13,1.38,2.26,2.09,3.38l1.03,1.61s.64.87,1.28,1.71c.64.84,1.28,1.65,1.25,1.57.19.22.38.43.55.6l-3.87.71Zm1.38-11.85c.85,1.35,1.71,2.69,2.58,4.02l2.18,3.36s.63.86,1.25,1.71c.37.51.74,1.02.96,1.32-.77.08-1.25.13-1.25.13l-2.6.47c-.1-.24-.25-.54-.46-.92-.73-1.48-1.86-3.51-1.86-3.51l-.87-1.37c-.71-1.13-1.42-2.26-2.11-3.41l-4.14-6.89c-1.24-2.06-2.49-4.1-3.78-6.14.55.1,1.11.22,1.66.35.98.24,1.96.53,2.94.84.24.56.49,1.12.75,1.67,1.42,2.9,3.06,5.65,4.76,8.35Z"/>
  </g>
</svg>