<?xml version="1.0" encoding="UTF-8"?>
<svg id="uuid-1916ecc4-7da8-4e18-abf8-d73e9535158b" data-name="Camada 2" xmlns="http://www.w3.org/2000/svg" viewBox="0 0 121.67 122.7">
  <defs>
    <style>
      .uuid-06103670-99c2-4aa4-883f-3c1c349d6140 {
        fill: #202020;
        stroke-width: 0px;
      }
    </style>
  </defs>
  <g id="uuid-bfbe18e7-ae2b-4046-aa6e-d84b830e13aa" data-name="Object">
    <path class="uuid-06103670-99c2-4aa4-883f-3c1c349d6140" d="m78.28,2.76c-.63-.18-1.26-.36-1.9-.52-.63-.16-1.26-.34-1.96-.46-1.35-.24-2.65-.31-3.91-.47-.92-.12-1.84-.27-2.63-.56-.04,0-.12.02-.14.03-.28.11-.48.24-.61.38-.46-.1-.8.24-.96.52-.04.06-.04.07-.04.11l.1,2.89.85,25.4s0,.09,0,.13c0,.05,0,.07.01.1l.54,15.98s.45,4.88.49,4.67c.22,1.6.55,2.73.81,1.32.19.04.38.03.53,0,.07,0,.08-.02.11-.05l2.04-2.06c4.91-4.98,9.76-10.01,14.59-15.07l6.87-7.25c.19.08.27.03.19-.21l.15-.16,5.15-5.5s3.11-3.78,2.94-3.66c.95-1.29,1.51-2.31.39-1.54-.12-.27-.43-.71-1.01-1.39-.6-.74-1.42-1.55-2.09-2.18-.67-.62-1.2-1.05-1.2-1.05-.24-.17-.47-.34-.71-.5l-.81-.55c-1.1-.72-2.23-1.4-3.38-2.05-2.29-1.3-4.66-2.42-6.99-3.54-2.39-1.14-4.89-2.04-7.41-2.77Zm-7.91,46.19l-1.2,1.21c.15-1.74.21-3.69.21-3.69l-.17-5.03c.83,1.49,1.73,2.89,1.73,2.89,0,0,.35.41.71.8.36.39.73.75.72.7.25.2.48.34.66.4-.89.91-1.77,1.82-2.66,2.72Zm2.97-3.04c-.02-.15-.07-.35-.18-.63-.26-.78-.71-1.81-.71-1.81,0,0-.93-1.43-1.76-2.94-.42-.75-.82-1.52-1.11-2.1-.14-.29-.26-.53-.34-.71-.08-.17-.12-.27-.13-.29,0,0-.02,0-.04-.01l-.15-4.42c.82,1.14,1.67,2.26,2.55,3.35l.89,1.08s.85.9,1.71,1.75c.86.85,1.73,1.65,1.67,1.56.68.58,1.29,1.02,1.57,1.1-1.32,1.36-2.65,2.72-3.98,4.07Zm4.14-4.24c-.06-.24-.35-.72-.99-1.56-1.27-1.74-2.65-3.64-2.65-3.64l-1.02-1.23c-.92-1.14-1.8-2.3-2.65-3.5-.47-.66-.92-1.33-1.36-2l-.15-4.38c.04.05.08.1.12.15,1.68,2.08,3.43,4.07,5.15,6.06l.9,1.05s.83.88,1.66,1.75c.81.87,1.59,1.74,1.54,1.65,1.33,1.41,2.41,2.22.8-.54-.93-1.65-2.52-3.8-2.52-3.8l-1.05-1.23c-1.73-2.01-3.47-3.99-5.11-6.02-.53-.67-1.06-1.34-1.57-2.03l-.21-6.19,1.23,1.64c2.88,3.9,5.66,7.91,8.72,11.75l.88,1.08s.84.91,1.69,1.76c.85.86,1.73,1.66,1.67,1.57.53.45,1.01.81,1.34.99-2.13,2.23-4.27,4.45-6.41,6.67Zm7.71-8.03c-.33.35-.67.7-1.01,1.05-.14-.28-.43-.7-.89-1.3-1.17-1.63-2.62-3.65-2.62-3.65l-1.01-1.24c-3.01-3.78-5.78-7.77-8.67-11.7l-1.74-2.33s-.12-.06-.14-.07c-.36-.09-.61-.06-.8.03l-.27-8c.33.36.66.72.98,1.09,2.72,3.15,5.2,6.53,7.68,9.92,1.24,1.7,2.49,3.4,3.77,5.08.64.84,1.3,1.67,1.95,2.5l1.24,1.51s.21.23.53.56c.32.33.75.76,1.17,1.2.88.84,1.73,1.65,1.68,1.56.38.31.73.58,1.02.77l-2.88,3.04Zm3.29-3.48c-.16-.25-.39-.56-.69-.96-1.15-1.57-2.65-3.63-2.65-3.63l-1.12-1.36c-.66-.83-1.33-1.66-1.97-2.51-1.3-1.68-2.55-3.41-3.82-5.13-2.53-3.45-5.07-6.93-7.9-10.2-.63-.74-1.29-1.47-1.95-2.18-.03-.03-.12-.05-.15-.05-.1-.01-.18-.01-.27-.01l-.05-1.54c.81.23,1.61.35,2.4.46.93.11,1.85.19,2.74.3h0c.49.84,1.01,1.67,1.53,2.49,2.11,3.28,4.4,6.44,6.8,9.49,1.2,1.53,2.43,3.03,3.68,4.52l1.89,2.21,1.25,1.43s.87.86,1.72,1.71c.86.84,1.71,1.65,1.66,1.56.03.02.05.05.08.07l-3.17,3.35Zm4.03-4.26l-.2.21c-1.06-1.55-2.67-3.63-2.67-3.63l-1.16-1.33-1.91-2.23c-1.26-1.49-2.5-3.01-3.71-4.54-2.42-3.07-4.72-6.23-6.82-9.5-.23-.37-.45-.74-.68-1.11l.49.12c.61.16,1.22.32,1.82.5,1.64.47,3.25,1.01,4.82,1.64-.09.16-.13.35-.14.51,0,.07,0,.08.02.12.47.88.99,1.72,1.52,2.54,1.81,2.77,3.89,5.31,5.96,7.81l.89,1.07s.83.89,1.65,1.76c.82.87,1.61,1.73,1.56,1.64.66.68,1.26,1.22,1.51,1.27l-2.95,3.15Zm-1.85-15.38c.47.93,1.03,1.77,1.61,2.57l.12.16c.28.38.57.76.86,1.13,0,0,.83.93,1.66,1.8.83.87,1.66,1.7,1.6,1.61,1.41,1.35,2.52,2.09.77-.58-.5-.8-1.15-1.73-1.66-2.46-.53-.76-.88-1.27-.88-1.27-.33-.41-.65-.83-.96-1.25l-.11-.15c-.16-.22-.31-.45-.46-.68.51.31,1.02.62,1.52.94.24.15.6.39.65.43l.34.23c.23.15.45.31.67.47,0,0,1.02.63,1.98,1.31.97.67,1.87,1.39,1.81,1.31.58.41,1.08.78,1.41.94-.21.16-.46.36-.75.62-1.45,1.19-3.39,3.01-3.39,3.01l-1.86,1.99c-.01-.22-.25-.74-.83-1.7-.95-1.63-2.53-3.79-2.53-3.79l-1.03-1.24c-2.06-2.49-4.1-4.99-5.84-7.65-.29-.45-.57-.9-.84-1.35.07.03.13.06.2.09,2.03.98,4.06,1.94,6.03,3-.06.13-.09.27-.1.4-.01.07,0,.09.01.13Z"/>
    <path class="uuid-06103670-99c2-4aa4-883f-3c1c349d6140" d="m118.87,45.64c-.06-.09-.13-.18-.19-.26-.27-.89-.54-1.78-.83-2.66-1.17-3.56-2.56-7.06-4.17-10.45-1.61-3.39-3.51-6.69-5.8-9.7-.59-.79-1.2-1.55-1.82-2.3-.03-.03-.12-.06-.14-.06-.2-.04-.36-.04-.51-.02,0-.25-.45-.05-1.68,1-.02.01-.03.03-.05.04-.06-.04-.12-.08-.19-.1-.28-.09-.62.07-.82.26-.06.05-.07.07-.09.12-.09.28-.15.55-.19.81-1.09.96-2.06,1.88-2.06,1.88l-5.07,5.51c-2.51,2.74-5.03,5.48-7.58,8.17-2.55,2.7-5.13,5.37-7.74,8.01-2.61,2.64-5.26,5.25-7.85,7.95-.67.7-1.34,1.4-2,2.12-.02.03-.04.13-.04.15-.07,1.19.78,1.2,1.22,1.09.07-.01.08-.02.11-.05.09-.1.19-.2.28-.29l1.56,2.43c1.29,2.02,2.58,4.04,3.88,6.06.07.4.14.7.23.8.05.07.13.04.21-.11,3.08,4.81,6.18,9.62,9.32,14.4,2.14,3.25,4.32,6.48,6.53,9.69.09.47.21.69.35.51.06.08.11.16.17.25,1.19,1.73,2.41,3.45,3.63,5.15l1.46,2.01s.39.46.89,1.06c.09.97.27,1.45.55.65.04.05.09.1.13.15.77.92,1.57,1.79,1.52,1.7.46.48.89.88,1.19,1.1.11,1.75.4,2.75.94-.22.02-.09.04-.19.05-.29.27-.17.64-.44,1.16-.86.77-.56,1.58-1.38,2.23-2.02.32-.32.6-.61.8-.81.19-.21.3-.34.3-.34l1.35-1.78c2.2-3.06,4.1-6.33,5.72-9.73.38-.86.81-1.7,1.16-2.58l1.05-2.62.91-2.67c.31-.89.53-1.81.79-2.71.98-3.64,1.63-7.38,1.86-11.16.26-3.77-.09-7.63-.85-11.31-.51-2.51-1.12-4.99-1.84-7.45.02-.12.03-.25.02-.36,0-.08-.02-.1-.05-.15Zm-44.2,12.7l-1.56-2.44s-.11-.07-.13-.08c-.11-.04-.21-.05-.3-.07.22-.23.44-.47.66-.7.92-.95,1.85-1.89,2.78-2.83-.07.49-.1.97-.14,1.44-.07,1.55.02,3.05.13,4.54l.11,1.39s.1.67.22,1.51c-.59-.92-1.18-1.84-1.77-2.77Zm5.24,8.19c.21-1.81.55-4.13.55-4.13l.13-1.6c.12-1.45.26-2.91.34-4.39.09-1.55-.07-3.02-.07-4.42,0-.92.07-1.82.31-2.61,0-.04-.03-.12-.03-.14-.22-.49-.49-.74-.78-.78-.28-.04-.58.12-.78.29-.06.05-.06.06-.08.11-.32,1.06-.38,2.11-.39,3.12,0,1.52.15,2.96.07,4.32-.08,1.44-.21,2.88-.33,4.34l-.11,1.39s-.03,1.24,0,2.45c0,.08,0,.16,0,.24-.28-.44-.56-.87-.84-1.31.04-.74.05-1.52.05-2.18,0-.92-.01-1.57-.01-1.57l-.13-1.6c-.1-1.46-.18-2.92-.12-4.34.05-.9.15-1.85.45-2.5,0-.03-.01-.1-.02-.11-.11-.26-.2-.48-.32-.64,1.07-1.07,2.14-2.15,3.21-3.23.53-.54,1.06-1.08,1.59-1.63-.1.64-.19,1.28-.27,1.92-.34,3.25-.39,6.52-.27,9.75.05,1.62.16,3.23.27,4.84l.34,4.21s.71,4.85.73,4.64c.13.69.27,1.28.41,1.62-1.31-2.02-2.63-4.05-3.93-6.08Zm10.33-27.14v1.27c0,.41-.04.81-.05,1.26l-.03,2.56c-.04,1.69-.1,3.38-.18,5.08-.16,3.39-.39,6.78-.6,10.18l-.14,2.56-.08,2.56c-.05,1.7-.09,3.41-.11,5.11-.02,1.71-.03,3.41,0,5.12l.04,2.28s.11,1.22.23,2.43c.06.53.11,1.04.16,1.45-.31-.47-.63-.94-.94-1.41-1.52-2.3-3.01-4.61-4.5-6.92.17.07.3-.44.36-1.94.11-1.88.05-4.54.05-4.54l-.14-1.61c-.47-5.72-.82-11.45-.22-17.08.12-.94.24-1.88.42-2.8,0-.04-.03-.13-.05-.14-.16-.28-.32-.45-.49-.55.81-.83,1.61-1.67,2.41-2.5-.04.53-.08,1.07-.11,1.6-.29,4.84-.36,9.68-.34,14.52.01,2.42.05,4.83.1,7.25l.14,5.63s.42,4.88.45,4.68c.26,1.95.68,3.21.96.04.22-1.87.32-4.53.32-4.53l-.13-5.48c-.05-2.45-.09-4.9-.11-7.34-.02-4.89.05-9.78.34-14.65.05-.96.12-1.92.19-2.87,0-.04-.05-.12-.06-.14-.08-.11-.16-.2-.24-.28.25-.27.51-.53.77-.8.54-.57,1.08-1.15,1.62-1.73-.05.6-.06,1.18-.06,1.75Zm3.47,22.04l-.69,22.59s.04,1.37.08,2.62c-.87-1.28-1.73-2.56-2.59-3.85.02-.21.04-.45.05-.73.15-1.87.26-4.51.26-4.51l-.04-1.88c-.03-1.72-.03-3.44,0-5.17.02-1.72.06-3.45.1-5.17.05-1.73.1-3.43.22-5.16.21-3.45.44-6.9.61-10.37.08-1.73.15-3.47.19-5.21l.04-2.59c0-.41.04-.86.04-1.31v-1.31c0-.95.03-1.87.2-2.71,0-.04-.03-.12-.04-.13-.12-.21-.24-.36-.37-.47.97-1.04,1.93-2.08,2.89-3.12-.1.56-.16,1.11-.2,1.67l-.74,26.81Zm2.37,25.79s-.05,1.23-.1,2.43c-.02.4-.03.8-.03,1.14-.09-.12-.18-.25-.26-.37-.48-.7-.96-1.4-1.44-2.1.28-1.8.5-4.02.5-4.02l.69-22.39.75-27.16c.07-.92.2-1.82.44-2.68,0-.04-.03-.12-.03-.14-.13-.3-.28-.48-.45-.6,0,0,0-.01.01-.02l1.6-1.74c.01.58.09,1.12.15,1.66l.13.95.06.46v.09s.01.07.01.07v.24c.02.63.03,1.25.02,1.88,0,1.26-.05,2.52-.11,3.79-.11,2.54-.25,5.1-.23,7.7.12,5.07-.22,10.14-.36,15.26-.08,2.55-.07,5.16,0,7.69.02,2.51-.09,5.04-.3,7.56-.2,2.53-.48,5.05-.76,7.59l-.3,2.7Zm4.47-6.14c-.14,3.12-.33,6.25-.54,9.38l-.2,3.01s-.01,1.46-.02,2.75l-.42-.58c-.84-1.16-1.66-2.33-2.48-3.5,0-.02,0-.03.01-.05.42-1.83.88-4.44.88-4.44l.22-2.01c.28-2.58.58-5.16.8-7.76.22-2.6.38-5.22.37-7.85,0-1.33-.06-2.61-.06-3.89,0-1.29,0-2.57.04-3.86.12-5.16.49-10.36.38-15.59-.04-2.55.11-5.13.22-7.73.06-1.3.1-2.61.11-3.92,0-.66,0-1.31-.01-1.97-.01-.17,0-.3-.03-.57l-.06-.5-.13-.96c-.12-.92-.21-1.88-.03-2.53,0-.03-.04-.1-.04-.11-.1-.16-.2-.3-.29-.43l2.19-2.38s.36-.44.83-1.02c0,.05,0,.1,0,.14,0,.39.01.77,0,1.13l-.05,1.18-.1,2.35-.19,4.7-.38,9.4c-.19,6.25-.67,12.51-.83,18.81-.04,1.58-.06,3.15-.05,4.74l.06,4.7c.01,3.12-.08,6.24-.21,9.37Zm2.96,3.7c-.06.82-.11,1.64-.15,2.46-.06.81-.11,1.64-.15,2.46-.07,1.65-.1,3.29-.12,4.93l-.04,3.08s.05,1.22.1,2.41c.02.55.04,1.1.05,1.51-.1-.17-.2-.36-.33-.57-.47-.81-1.05-1.78-1.53-2.54-.18-.28-.34-.54-.47-.74.35-1.78.65-3.97.65-3.97l.15-2.12c.22-3.19.42-6.38.57-9.57.15-3.2.25-6.4.26-9.61,0-1.6-.02-3.21-.06-4.8-.02-1.57,0-3.17.02-4.75.14-6.35.63-12.71.83-19.12l.38-9.57.2-4.78.1-2.39.05-1.2c.01-.43,0-.84,0-1.24-.01-.93-.02-1.85.2-2.52.13-.16.2-.26.17-.24.12-.17.24-.33.35-.48.3.37.59.75.89,1.12-.14.07-.27.18-.35.28-.06.06-.06.08-.08.14-.23,1.21-.05,2.18-.05,3.12l.08,9.77.04,4.89-.09,4.91-.37,19.63c-.02.82-.03,1.63-.02,2.44-.01.81-.03,1.61-.07,2.42-.07,1.62-.18,3.24-.32,4.86-.27,3.24-.64,6.5-.88,9.78Zm4.34,3.38l-.11,1.5-.04.41-.08.82s-.04,1.21-.13,2.39c-.07,1.18-.21,2.34-.17,2.24-.06.73-.08,1.37-.04,1.73-.06.08-.12.18-.2.28-.27.36-.62.84-.98,1.31-.68.97-1.45,1.84-1.36,1.78-.11.14-.22.28-.32.42.22-1.55.34-3.08.34-3.08l.03-2.14c.02-1.66.04-3.32.09-4.97.04-1.64.19-3.29.27-4.95.43-6.57,1.44-13.22,1.35-19.96l.38-19.94.09-4.98-.03-5-.08-10.01c0-.49-.05-.99-.06-1.43,0-.16,0-.31,0-.46,1.1,1.49,2.1,3.04,3.03,4.64-.1.05-.2.11-.27.18-.06.04-.06.06-.08.1-.33.98-.51,1.98-.66,2.97-.72,5.52.17,10.87-.03,16.12-.03,5.38,0,10.7-.11,16.04-.05,2.66-.15,5.33-.29,7.98-.15,2.69-.2,5.37-.26,8.04-.06,2.67-.13,5.33-.3,7.97Zm11.07-34.75c.19.89.36,1.77.51,2.66l.33,2.65c.12,1.78.21,3.57.11,5.36-.15,3.58-.7,7.15-1.57,10.64-.89,3.49-2.12,6.89-3.59,10.18-1.47,3.29-3.23,6.45-5.29,9.4-.25.38-.5.75-.78,1.1l-.39.51-.09.12c.03-.1.06-.19.1-.3.3-.9.58-2.02.77-2.91.18-.89.3-1.56.3-1.56l.08-.86.04-.43.06-.77c.21-2.74.29-5.47.35-8.19.06-2.72.11-5.43.25-8.13.15-2.71.25-5.45.31-8.17.12-5.45.09-10.9.12-16.31.22-5.51-.68-10.97.02-16.19.09-.56.19-1.11.31-1.66.4.75.78,1.51,1.15,2.28.69,1.44,1.33,2.91,1.93,4.39-.13.03-.26.09-.37.16-.07.04-.08.06-.11.1-.51,1.05-.67,2.1-.77,3.11-.16,1.86-.07,3.67.04,5.45l.17,2.65c.06.87.05,1.69.03,2.59-.08,3.53-.27,7.06-.43,10.61-.08,1.77-.15,3.55-.2,5.33-.05,1.8-.05,3.55-.13,5.31l-.22,5.32-.05,2.32s.06,1.24.17,2.45c.1,1.21.28,2.39.29,2.28.17.98.43,1.77.61,1.92.2.14.3-.35.36-1.93.1-1.86.31-4.48.31-4.48l.04-1.88c.05-1.79.14-3.59.21-5.4.09-1.8.1-3.65.14-5.42.04-1.79.12-3.59.2-5.39.16-3.6.36-7.21.45-10.83l.03-1.37c0-.48-.02-.95-.04-1.4l-.17-2.71c-.11-1.78-.2-3.56-.05-5.27.05-.56.14-1.1.28-1.6.47,1.24.93,2.48,1.35,3.74.31.91.59,1.82.87,2.74h-.03c0,.76-.03,1.51-.08,2.26-.28,4.02-1.22,8.05-1.62,12.23-.11,1.06-.13,2.13-.15,3.15l-.04,3.11.02,3.11.04,1.93s.1,1.23.23,2.43c.13,1.2.28,2.37.3,2.27.34,1.96.82,3.17.96,0,.14-1.87.25-4.51.25-4.51l-.04-1.77-.02-3.13.03-3.13c.03-1.05.03-2.08.13-3.08.29-3.24.96-6.5,1.37-9.84.22.9.42,1.8.61,2.71Z"/>
    <path class="uuid-06103670-99c2-4aa4-883f-3c1c349d6140" d="m14.09,22.77c-2.02,2.26-3.89,4.63-5.59,7.15-1.68,2.52-3.24,5.17-4.2,8.17-.28.98-.54,1.98-.57,3.06,0,.05.05.13.06.15.35.51.7.57.98.49.03,0,.06-.03.09-.04.07.21.22.38.35.5.05.05.06.05.1.06l2.85.45c9.12,1.45,18.25,2.86,27.4,4.15,4.57.65,9.15,1.27,13.74,1.84l6.88.84,2.57.3s4.88.26,4.69.19c.23,0,.45,0,.66,0,.02.08.02.15.04.23.02.04.08.12.11.14.14.13.26.2.38.26.14.07.25.09.35.08.18-.02.3-.14.39-.25.1-.11.19-.22.27-.28.08-.1.14-.2.18-.27.03-.05.03-.07.02-.1-.18-.79-.23-1.79-.3-2.72-.12-1.8-.15-3.63-.32-5.49-.16-1.81-.31-3.63-.45-5.44-.27-3.63-.49-7.26-.68-10.9l-.49-10.93-.37-7.81s-.57-4.87-.6-4.67c-.33-1.95-.8-3.18-.96,0-.14,1.87-.18,4.53-.18,4.53l.11,2.27c-.47-1.36-.97-2.6-.97-2.6l-.69-1.46-.82-1.77c-.24-.51-.47-1.03-.7-1.54.61-.11,1.04-.18.98-.19,1.89-.33,3.18-.78-.02-.97-.5-.03-1.05-.04-1.6-.03-.55-.27-.91-.18-1.13.03-.09,0-.19,0-.27.01-.91.07-1.58.12-1.58.12-.28.04-.57.1-.85.15l-1.23.23c-2.96.6-5.87,1.37-8.74,2.3-2.87.93-5.69,2.01-8.43,3.29-1.37.63-2.72,1.33-4.04,2.08-1.32.76-2.58,1.6-3.83,2.45-4.96,3.48-9.43,7.51-13.59,11.91Zm-5.64,18.27l-2.85-.45s-.05,0-.08.02c.08-.66.25-1.33.44-2,.83-2.6,2.24-5.08,3.8-7.43.18.77.44,1.48.72,2.17.46,1.09,1,2.13,1.57,3.13.23.41.47.81.71,1.22,0,0,.71,1.02,1.43,1.99.72.97,1.45,1.89,1.41,1.8.26.3.5.58.72.8-2.62-.41-5.25-.82-7.87-1.24Zm8.62,1.35c-.1-.3-.3-.75-.64-1.41-.41-.84-.94-1.84-1.35-2.63-.42-.81-.72-1.37-.72-1.37-.28-.45-.55-.91-.81-1.37-.55-.96-1.06-1.95-1.47-2.94-.35-.84-.65-1.71-.75-2.53,0-.03-.06-.09-.08-.11-.17-.15-.34-.26-.49-.33,1.21-1.71,2.51-3.35,3.88-4.94.04.76.17,1.49.34,2.19.56,2.17,1.47,4.14,2.45,6.05.99,1.91,2.07,3.75,3.19,5.55l.74,1.18s.72.99,1.43,1.96c.59.8,1.15,1.56,1.32,1.76-2.35-.36-4.7-.72-7.04-1.08Zm8.21,1.25c-.08-.18-.16-.37-.27-.59-.78-1.72-2.05-4.05-2.05-4.05l-.85-1.36c-1.1-1.79-2.17-3.59-3.12-5.44-.94-1.85-1.81-3.74-2.3-5.68-.22-.88-.34-1.77-.29-2.59,0-.04-.05-.11-.06-.12-.15-.2-.3-.34-.45-.44.74-.79,1.54-1.55,2.32-2.33.65-.63,1.31-1.26,1.98-1.87l.23,1.12c.92,3.86,2.49,7.45,4.22,10.91.86,1.73,1.78,3.43,2.69,5.12l2.28,4.18s.64,1.04,1.26,2.06c.62,1.02,1.2,2.03,1.18,1.93.04.06.07.11.11.17-2.29-.33-4.59-.67-6.88-1.02Zm10.34-35.43c2.23-1.07,4.54-2,6.88-2.83-.05.09-.09.18-.11.26-.03.06-.02.08-.01.12.27.94.48,1.9.8,2.83.94,3.11,2.12,6.12,3.39,9.08,1.27,2.96,2.65,5.87,4.05,8.75l4.2,8.63c.69,1.44,1.36,2.89,2.01,4.34l.88,2.02s.55,1.08,1.06,2.16c.53,1.07,1,2.13.98,2.03.86,1.75,1.67,2.83.92-.28-.18-.93-.52-2.02-.78-2.89-.26-.87-.49-1.5-.49-1.5l-.75-1.73c-.67-1.49-1.35-2.98-2.05-4.46-1.4-2.95-2.85-5.87-4.28-8.79-2.83-5.85-5.61-11.72-7.48-17.88-.31-.9-.51-1.83-.77-2.75-.02-.04-.09-.1-.1-.11-.14-.1-.26-.16-.38-.21.03-.01.06-.02.09-.03,1.77-.59,3.56-1.12,5.36-1.58.56.73,1.06,1.53,1.55,2.33,1.6,2.68,2.91,5.57,4.13,8.5.61,1.46,1.18,2.95,1.75,4.43l1.45,3.93s1.94,4.5,1.91,4.29c.87,1.77,1.67,2.81.93-.27-.39-1.84-1.12-4.4-1.12-4.4l-.55-1.52c-2-5.38-4.03-10.8-6.99-15.86-.39-.64-.79-1.26-1.23-1.88.4-.09.8-.19,1.2-.28l1.06-.23.53-.1.41-.08.81-.15s.29-.07.73-.16c.3-.07.67-.15,1.06-.23.29.65.58,1.3.88,1.94l.83,1.78.59,1.25s.58,1.06,1.17,2.12c.58,1.05,1.13,2.08,1.11,1.97.17.29.34.56.49.8l.11,2.35.49,11.13c.18,3.71.41,7.42.68,11.13.14,1.85.29,3.71.45,5.56.17,1.81.21,3.66.33,5.53.05.65.08,1.28.17,1.94-.12-.03-.23-.06-.36-.09-1.82-.46-4.43-.94-4.43-.94l-1.97-.23-6.21-.75c-.06-.28-.14-.63-.26-1.08-.46-1.83-1.34-4.35-1.34-4.35l-.74-1.7-1.82-4.09c-1.23-2.72-2.5-5.42-3.77-8.12l-7.72-16.12-1.23-2.61s-.1-.08-.12-.09l1.64-.83Zm-3.81,2.03c.23-.14.47-.27.71-.4,0,0,0,.02.01.03l1.24,2.62,7.6,15.85c1.25,2.64,2.49,5.29,3.71,7.95l1.79,4,.85,1.96s.55,1.09,1.08,2.16c.54,1.07,1.05,2.12,1.03,2.02.13.24.26.47.38.67-4.64-.58-9.28-1.21-13.92-1.86-1.04-.15-2.08-.3-3.12-.45-.06-.2-.13-.43-.22-.69-.59-1.8-1.7-4.24-1.7-4.24l-2.25-4.13c-.93-1.71-1.85-3.42-2.72-5.15-1.74-3.45-3.29-7-4.17-10.69l-.28-1.37c-.05-.25-.08-.5-.11-.75,1.74-1.54,3.54-3.01,5.4-4.38-.07.11-.12.22-.16.33-.03.07-.02.08-.01.12.24.97.56,1.92.89,2.85,1.62,4.33,3.89,8.27,5.81,12.3.24.5.48,1.01.7,1.51l.17.38.11.33.26.8,1.01,3.22c.34,1.08.69,2.16,1.08,3.24.23.66.29.79.4,1.08.1.27.21.53.31.8,0,0,.53,1.14,1.14,2.2.61,1.07,1.31,2.05,1.27,1.95.61.8,1.23,1.37,1.45,1.41.25.03.07-.45-.6-1.86-.36-.85-.79-1.87-1.08-2.7-.3-.83-.5-1.44-.5-1.44l-.31-.77-.33-.87c-.38-1.06-.74-2.14-1.08-3.23l-1.03-3.28-.27-.82-.13-.41-.08-.23-.11-.24c-.24-.53-.48-1.06-.73-1.59-1.98-4.18-4.28-8.16-5.84-12.37-.32-.89-.62-1.78-.84-2.68-.02-.04-.08-.1-.1-.11-.38-.28-.68-.33-.92-.28.19-.14.37-.28.56-.41,1.18-.83,2.39-1.64,3.62-2.39Z"/>
    <path class="uuid-06103670-99c2-4aa4-883f-3c1c349d6140" d="m2.61,46.67c-.06.04-.07.05-.08.09,0,.06-.48,1.04-.93,2.56-.07.23-.15.47-.23.71-.3,1.15-.6,2.31-.8,3.52C.16,55.97-.03,58.49,0,61.07c.1,5.16,1.07,10.54,2.76,15.85,1.41,4.37,3.3,8.71,5.64,12.88h0c3.33,5.94,7.57,11.53,12.67,16.28,2.16,2,4.48,3.79,6.92,5.38l.04.14.05.19c-.52.08-.38.06,0,0l.02.09.02.07v.04c-.11.02.19-.02.59-.08,1.61,1.01,3.26,1.94,4.95,2.78-.22.05-.16.05.02.01,1.11.55,2.23,1.05,3.37,1.52-.09.02-.14.03,0,0,4.93,2.05,10.05,3.41,15.09,4.06,1.69.22,3.37.35,5.03.43l.43.53c.59.61,1.76,2.57,1.13.51l-.19-.99c.57.02,1.14.03,1.71.03,2.66,0,5.25-.2,7.76-.5,2.51-.3,4.93-.76,7.24-1.3,2.31-.53,4.52-1.19,6.6-1.9,4.17-1.41,7.85-3.11,10.99-4.81.2-.11.39-.21.59-.31.15-.08.29-.17.44-.25l.1-.06c.06-.04.12-.07.18-.1.12-.07.22-.13.32-.18.39-.22.61-.35.61-.35,0,0,.26-.17.64-.44.38-.27.88-.62,1.37-.97.97-.73,1.9-1.45,1.8-1.41,1.5-1.32,2.27-2.34-.5-.83-.15.07-.3.15-.46.23,1.23-.77-.16.06.38-.29l-.1-.22-.21-.45-.42-.9c-.26-.61-.6-1.18-.9-1.76-.3-.59-.62-1.16-.96-1.72-.34-.56-.65-1.14-1.02-1.68-2.84-4.49-6.12-8.6-9.46-12.63-.03-.04-.05-.08-.08-.12h0c-1.83-3.01-3.71-6.01-5.71-8.94-.54-.8-1.1-1.59-1.67-2.37-1.47-2.61-2.96-5.21-4.51-7.78-.92-1.57-1.92-3.04-2.74-4.61-.86-1.57-1.74-3.18-2.78-4.72-.52-.76-1.07-1.52-1.7-2.23-.15-.18-.32-.35-.48-.52l-.29-.3-.49-.43c-.32-.27-.66-.61-.97-.81l-.94-.66-.23-.16c.65.02,1.11.04,1.05.02.36,0,.69,0,.99-.02l1.25,2.03c5.15,8.3,10.56,16.42,16,24.52l13.75,20.37s2.95,3.9,2.86,3.71c1.25,1.52,2.27,2.36.84-.48-.8-1.71-2.13-4.01-2.13-4.01l-13.6-20.16c-5.53-8.22-11.02-16.47-16.24-24.88l-1.51-2.46s-.11-.07-.13-.08c-.94-.33-1.27.19-1.35.63-.17-.04-.35-.09-.55-.14-1.82-.47-4.44-.94-4.44-.94l-9.23-.97c-4.83-.5-9.64-1.03-14.45-1.63-4.76-.58-9.5-1.27-14.25-1.99l-.11-.39-.07-.27c.54-.09.39-.07,0,0v-.03s-.05-.15-.05-.15v-.04s-.02-.02-.02-.02c.37-.07-3.21.5-1.7.27v.08s0,.25,0,.25c-4.2-.65-8.39-1.33-12.6-1.98l-2.85-.45s-.13.04-.15.05c-.75.45-.69.95-.47,1.31-.33-.13-.68.01-.9.18Zm-.84,14.96c-.03-1.21-.02-2.4.05-3.57.17.04.37.1.6.15-.22,1.38-.42,2.76-.61,4.14-.01-.24-.03-.48-.03-.72Zm24.47,46.48c.41-.07.69-.13.87-.16.07.32.15.64.23.96-.37-.26-.74-.53-1.1-.8Zm3.97,2.69c-.14-.09-.28-.18-.42-.27-.05-1.15-.11-2.29-.19-3.44.24,1.08.48,2.17.74,3.25v.03s.1.42.1.42v.04s.01.02.01.02c0,0,0,0,0,0h0s-.08.03-.11.04c-.05-.03-.09-.05-.14-.08Zm.15.09s.06-.01.11-.02v.02c3.12-.74,1.27-.31,1.57-.39.04-.01.08-.02.12-.03l-.02-.08-.04-.15-.06-.25-.04-.19-.27-1.22-.52-2.45c-.68-3.27-1.29-6.55-1.84-9.84-.5-3.06-.97-6.15-1.36-9.22.31,1.71.63,3.42.96,5.13h0c1.15,5.82,2.46,11.6,3.77,17.37l.69,3.04c-1.04-.54-2.07-1.12-3.08-1.73Zm5.1,2.73l-.15-.68-.46-2.16c-.6-2.89-1.16-5.78-1.67-8.69-.52-2.91-1-5.82-1.47-8.74-.48-2.91-.89-5.84-1.46-8.78-.79-4.12-1.73-8.18-2.55-12.25-.07-.7-.14-1.4-.2-2.11-.32-3.63-.44-7.27-.45-10.91l.07-2.73c0-.23.01-.45.02-.68,1.85,6.45,2.56,13.24,3.24,20.01.37,3.65.71,7.31,1.23,10.97.25,1.83.57,3.67.93,5.46l1.04,5.4h0s2.14,11.13,2.14,11.13l1.03,5.34c-.43-.19-.86-.38-1.28-.58Zm18.68,5.16c-2.71-.27-5.44-.72-8.16-1.4-1.2-.3-2.39-.65-3.58-1.03l-.04-.2-.14-.68-.27-1.35-.96-4.81c.27.32.52.51.65.52.12.01.13-.11.04-.39-.06-.2-.17-.5-.29-.92.64.05.87-.24.97-.5.09-.28.06-.57.03-.76,0-.06-.01-.06-.04-.09-.54-.51-.95-1.28-1.25-2.11l-.11-.33c-.13-.41-.25-.83-.34-1.26,0,0,0-.02-.02-.05v-.03s-.01,0-.01,0h0s0,0,0,0h0c.2-.05.4-.09-.77.17l-.05-.24-1.08-5.4c-.07-.35-.14-.69-.21-1.04-.58-3.27-1.13-6.54-1.64-9.82h0c-.16-1-.3-1.99-.45-2.99-.11-.8-.21-1.61-.32-2.41-.03-.21-.05-.43-.08-.64,1.07,5.66,2.23,11.33,3.94,16.9,1.17,3.6,2.47,7.12,3.57,10.68.13.42.25.84.37,1.27.16.66.33,1.32.49,1.97-.16-.07-.32-.14-.48-.21-.05-.08-.1-.15-.16-.2-.11-.1-.21-.17-.28-.26,0,0,0,0,0-.01.07-.13.06-.11,0,0-.07-.08-.07-.17-.11-.22-.02-.04-.04-.04-.07-.04-.07,0-.14,0-.32.02-.17.02-.45.13-.62.32-.09.09-.14.17-.2.26-.04.07-.07.14-.1.21l-.05.17v.02c-.31-.82.41,1.12.33.92h0s0,0,0,0h0s0,0,0,0h0c-.2.37-.28.53,0,0h0s.01.01.01.01l.04.03s.07.05.1.07c0,0,0,0,0,0,.17.12.35.25.52.36.06.04.12.07.18.11-.25.59-.53,1.25-.46,1.09l.03.02.06.04.12.08h.02c-.14.35-.19.48,0,.02l.2.12c-.03.28-.08.68-.15,1.26h0s0,0,0,0l.12.03.08.02c-.03.23-.01.13,0,0l.15.04,1.76.44h0c1.44.36,2.91.7,4.42.93.76.11,1.53.19,2.31.21h.15c-.02.06-.02.05,0,0h.35s.06,0,.06,0h.02s0,.03,0,0h.04s0,0,0,0h0c0,.81,0,.19,0-.53.07.02.14.04.22.06.7.17,1.41.32,2.13.47.27.4.53.81.81,1.19l.05.06c-.53-.04-1.06-.08-1.59-.13Zm-12.5-28.77c-.26-1.21-.51-2.43-.75-3.65,1.49,5.9,3.06,11.77,4.75,17.61.68,2.36,1.38,4.72,2.09,7.08l-.69-1.8c-2.25-6.26-3.98-12.71-5.39-19.23Zm4.91,22.85s-.04-.02-.06-.03c-.03-.11-.06-.23-.09-.34l.14.37Zm.75-9.37c-1.85-6.43-3.58-12.9-5.2-19.39h0c-1.76-7.08-3.36-14.21-4.81-21.37,1.82,6.55,3.18,13.25,4.66,19.93.81,3.65,1.67,7.31,2.66,10.94.98,3.64,2.18,7.2,3.34,10.75h0c1.16,3.54,2.36,7.07,3.64,10.58l.02.05c-.33-.1-.66-.2-.99-.31,0-.1,0-.2,0-.3-.04-.32-.14-.6-.24-.83-.09-.19-.17-.36-.25-.52-.97-3.17-1.91-6.35-2.83-9.54Zm8.46,12.38l-.05-.08-.15-.26c-.28-.51-.58-1.01-.83-1.54-.54-1.03-.99-2.12-1.43-3.21-.21-.53-.41-1.07-.59-1.62-.21-1.07-.43-2.13-.67-3.19-.95-4.17-2.1-8.26-3.27-12.34-.65-2.99-1.28-5.98-1.89-8.97,1.26,3.54,2.54,7.07,3.84,10.6.61,2.13,1.24,4.22,1.79,6.35,1.23,4.62,2.3,9.28,3.26,13.97l.09.44-.09-.14Zm2.46,3.18l-.15-.76-.61-3.07c-.33-1.61-.68-3.22-1.03-4.83.08.17.15.34.23.53.55,1.22,1.16,2.6,1.14,2.49.87,1.76,1.67,2.82.92-.28-.3-1.42-.82-3.26-1.04-4-.08-.26-.12-.39-.12-.39l-.39-1.06-2.12-5.7c-.9-2.4-1.79-4.81-2.68-7.21-.05-.19-.11-.37-.16-.56-.66-2.3-1.29-4.61-1.91-6.93-.18-.68-.36-1.35-.55-2.03,1.87,5.51,3.83,10.99,5.83,16.45h0c.65,1.8,1.35,3.62,1.96,5.4.22.69.43,1.39.65,2.08.37,1.24.71,2.49,1.08,3.75.56,1.92,1.18,3.85,2.08,5.71l.17.35.03.05c-1.1.03-2.22.03-3.34,0Zm11.56-.73c-2.45.37-4.99.63-7.59.72.59-.26,1.23-.55,1.07-.48v-.02s-.02-.04-.02-.04v-.04c.36-.17.51-.24-.02,0l-.23-.65-.5-1.39c-.33-.93-.67-1.85-.98-2.79-.57-1.64-1.1-3.29-1.63-4.94-.19-.65-.39-1.3-.61-1.96-.02-.05-.04-.1-.06-.16-.44-1.41-.87-2.83-1.29-4.24-.13-.45-.25-.9-.38-1.35.12.23.23.45.35.68.56,1.09,1.13,2.17,1.59,3.24.45,1.08.84,2.24,1.22,3.39l.41,1.31s.43,1.14.86,2.27c.43,1.13.89,2.22.87,2.12.41.9.84,1.61,1.06,1.7.22.09.21-.41-.12-1.96-.17-.92-.4-2.02-.59-2.9-.2-.89-.34-1.53-.34-1.53l-.49-1.55c-.38-1.18-.77-2.35-1.27-3.53-.51-1.18-1.09-2.27-1.65-3.36-1.11-2.17-2.24-4.34-2.86-6.56-.23-.86-.38-1.75-.26-2.49,0-.03-.03-.1-.04-.11-.29-.42-.58-.68-.86-.69-.18-.02-.36.07-.52.19-.03-.1-.05-.2-.08-.3-1.23-4.82-2.36-9.66-3.46-14.52.73,2.07,1.49,4.14,2.26,6.2l4.2,11.08c.7,1.85,1.42,3.67,2.03,5.52.62,1.85,1.19,3.74,1.75,5.63,1.13,3.78,2.25,7.6,3.79,11.31.19.46.39.93.6,1.38l.22.49c-.11.04-.2.07,0,0l.09.19v.02c3.3-1.03.92-.3,1.65-.53v-.05s-.03-.09-.03-.09l-.03-.18-.07-.37-.54-2.93c-.4-1.94-.77-3.89-1.23-5.82-.35-1.57-.73-3.13-1.12-4.7,1.2,3.39,2.42,6.77,3.77,10.1.34.9.72,1.78,1.09,2.67l.55,1.33.24.57c-.26.04-.53.09-.79.13Zm1.62-.28c2.06-.75.2-.09.86-.33v-.02s-.03-.09-.03-.09l-.05-.17-.1-.34c-.55-1.84-1.1-3.68-1.69-5.5h0c-2.92-9.18-6.26-18.19-9.65-27.18-.38-1.34-.77-2.68-1.14-4.02-.43-1.53-.84-3.05-1.25-4.58,2.41,7.39,5.01,14.7,7.74,21.97.84,2.24,1.69,4.48,2.55,6.71,1.61,4.39,3.29,8.76,5.09,13.09-.76.16-1.53.32-2.31.46Zm-13.5-62.14s.11-.06.33-.16v.02s.02.04.02.04l.06.15.19.53.28.76c-.28-.45-.58-.9-.87-1.34Zm.94,11.05c.8,1.81,1.59,3.63,2.36,5.45l1.54,4.28c1.28,3.59,2.5,7.21,3.73,10.83.62,1.82,1.24,3.63,1.87,5.44-.4-.93-.81-1.87-1.2-2.8-3.06-7.07-5.81-14.24-7.87-21.64-.15-.52-.29-1.04-.44-1.56Zm9.63,30.69c1.2,2.82,2.38,5.64,3.47,8.49-.2-.43-.39-.86-.58-1.29-.72-1.73-1.47-3.45-2.13-5.21-.26-.66-.51-1.32-.75-1.99Zm6.61,18.64l-.27-.68.08.15.35.62.1.17c-.05.02-.1.04-.14.06l-.13-.32Zm-.36-11.32c.56,1.28,1.11,2.57,1.64,3.85-.08-.16-.15-.33-.22-.49-.49-1.11-.96-2.23-1.42-3.36Zm.72,12.22l-.23-.58s.09-.04.14-.06l.08.14.04.08c-.34.16,3.01-1.29,1.59-.69v-.02s-.02-.04-.02-.04l-.05-.17-.39-1.38c-.25-.92-.55-1.83-.84-2.74h0s0,0,0,0c.39.87.83,1.75,1.39,2.6.28.43.61.85.99,1.25.19.2.4.39.63.56.05.04.1.07.16.11-1.13.34-2.3.66-3.49.95Zm16.58-15.27c1.45,2.13,3.03,4.17,4.67,6.16-.42.27-.3.21.02.02.02.02.03.04.05.06l.05.06c-.4.2-.79.4-1.13.58l-.04-.06c-.45-.77-.9-1.53-1.36-2.28h0c-1.88-3.09-3.81-6.09-5.41-9.26l-.2-.37c1.09,1.71,2.19,3.42,3.35,5.09Zm-11.69-17.15c.66,1.23,1.32,2.46,1.98,3.69l3.23,6.14c-.09-.14-.18-.27-.27-.4-3.13-4.8-6.12-9.71-9.11-14.62,1.37,1.76,2.76,3.49,4.18,5.2Zm-7.55-5.21h0c1.73,3.26,3.11,6.71,4.55,10.17,1.43,3.46,2.86,6.94,4.55,10.33,1.69,3.38,3.59,6.71,6.14,9.63l.47.55.51.52.52.51.19.19c-.08.06-.14.11,0,0l.07.07.13.13.03.03.02.02c2.74-2.01.75-.57,1.36-1.02l-.04-.08-1.21-2.54c-.81-1.69-1.64-3.38-2.47-5.06-1.65-3.31-3.34-6.59-5.07-9.85.43.67.85,1.34,1.28,2,1.93,2.96,3.9,5.89,5.98,8.76,1.03,1.44,2.09,2.86,3.17,4.26l.81,1.05.32.42c-.08.05-.18.1-.29.17-.19.11-.42.24-.69.4l-.19.11c-.39.23-.81.44-1.22.66-.82.45-1.69.88-2.58,1.32-.96.45-1.95.91-2.98,1.35l-.34-.88-1.06-2.71c-1.99-5.03-4.07-10.01-6.17-14.98-2.22-5.87-4.43-11.75-6.88-17.56.37.68.75,1.36,1.11,2.05Zm8.17,14.32c1.73,3.28,3.43,6.58,5.09,9.9.18.37.36.74.54,1.11-1.16-1.78-2.19-3.67-3.15-5.6-.88-1.77-1.69-3.58-2.48-5.41Zm-16.19-35.51c.57.63,1.08,1.34,1.57,2.05.98,1.44,1.83,3,2.7,4.57.67,1.27,1.44,2.48,2.18,3.69-.04-.04-.09-.09-.13-.13-.65-.62-1.26-1.28-1.94-1.86l-.61-.52c-.65-.83-1.36-1.75-1.62-2.07-.14-.26-.28-.52-.41-.78h0s-1.49-2.87-1.49-2.87c-.1-.28-.2-.56-.29-.84-.13-.42-.28-.83-.39-1.25l-.17-.65.61.65Zm-.25,7.88c.89,1.72,1.75,3.46,2.58,5.21.82,2.35,1.66,4.7,2.62,7-.42-.92-.85-1.84-1.27-2.76-1.6-3.48-3.17-6.96-4.67-10.47-.19-.45-.37-.9-.56-1.35.44.78.87,1.57,1.3,2.37Zm5.81,19.78c2.66,6.98,5.15,14.05,8.04,21,.71,1.74,1.47,3.46,2.24,5.18l.21.48h0s.07.16.07.16c-1.46.51,2-.66,1.64-.56v-.02s-.02-.04-.02-.04l-.02-.09v-.02c.37-.13.52-.18,0,0l-.04-.14-.09-.34-.34-1.38c-.23-.92-.45-1.84-.72-2.74-.22-.8-.46-1.6-.7-2.4.49,1.22.97,2.44,1.48,3.65l1.13,2.69,1.19,2.67.08.19c-.37.14-.73.29-1.11.43-.98.37-1.98.72-3.01,1.06.1-.08.2-.16.31-.26v-.02s-.02-.04-.02-.04c-.28-.93-.58-1.85-.9-2.77-1.28-3.65-2.87-7.17-4.4-10.65-3.05-6.99-5.87-14.09-8.74-21.17h0c-1.23-3.04-2.49-6.08-3.78-9.11l-2.32-6.45h0c-.48-1.37-.95-2.75-1.39-4.13.82,1.42,1.62,2.86,2.38,4.31,3.39,6.62,6.19,13.53,8.83,20.52Zm-10.16-30.46s.12-.06.32-.17l.16.32.33.65,1.02,2.01c-.59-.95-1.2-1.89-1.83-2.81Zm-1.12-1.4s1.44.07,2.72.13l.04.23s0,.06.01.09c-.62.33-1.55.83-1.36.73l.02.04h0c-.17.09-.28.16-.32.17-.02-.02-.03-.05-.05-.08l-.2-.3-.02-.02c.49-.25.35-.18,0,0l-.08-.12-.05-.08c.26-.14-1.72.87-1.86.95-.21-.32-.41-.64-.62-.96l-.1-.15-.05-.07v-.02c1.37-.64-1.91.85-1.57.71v.04s.08.24.08.24c-.04.02-.08.04-.12.06-.23-.46-.46-.93-.69-1.39l-.33-.65v-.02s4.53.48,4.53.48Zm-3.21,2.2c-.1-.2-.2-.4-.3-.6.03-.02.07-.03.12-.05l.02.09.16.57Zm-6.51-3.22l4.03.42c-.2.09-.41.2-.69.33l.02.05c-.24.12-.12.06,0,0h0s0,0,0,0h0s.33.8.33.8c-.02,0-.06.02-.11.03l-.02-.06-.02-.04c-3.3,1.06-.91.31-1.65.55v.02s.03.09.03.09l.04.17.09.35.7,2.78c.72,2.83,1.44,5.66,2.17,8.5-.04-.11-.08-.21-.12-.32-1.36-3.72-2.7-7.44-3.97-11.19l-.48-1.4-.18-.54v-.03s-.04-.09-.04-.09v-.04c.56-.19.38-.14-.02,0h0c.35-.14-3.12,1.02-1.65.54v.02s.06.16.06.16l.04.13.11.35.92,2.83,1.86,5.65c2.5,7.53,5.01,15.05,7.36,22.61h0c2,6.5,3.87,13.05,5.45,19.65-.12-.4-.24-.79-.36-1.19-.57-1.89-1.14-3.79-1.77-5.68-.62-1.9-1.36-3.76-2.05-5.59l-4.19-11.06c-2.75-7.38-5.33-14.82-7.4-22.41h0c-.52-1.9-1.01-3.81-1.46-5.73l-.24-1.01c1.06.11,2.12.23,3.17.34Zm3.91,2.12s-.08.03-.13.04l-.19-.5s.08-.03.11-.04l.21.49Zm-8.92-2.66v.06s.06.23.06.23l.16.72.65,2.9,2.55,11.61c1.27,5.77,2.55,11.55,3.94,17.3-.77-2.26-1.53-4.53-2.26-6.8-1.26-3.76-2.26-7.55-3.21-11.42-.95-3.85-1.93-7.76-3.3-11.54l-.52-1.41-.28-.7-.14-.35-.07-.18-.03-.09-.02-.04c-.75.17,1.66-.41-1.68.37v.02s.02.26.02.26c-.19.05-.11.03,0,0l.07.95-.5-1.15s-.1-.09-.12-.1c-.36-.18-.63-.21-.85-.15l-.17-.65-.14-.52c1.94.23,3.88.45,5.82.67Zm-1.18,9.64c-.17-.52-.35-1.04-.53-1.56-.02-.17-.04-.33-.06-.5.2.68.41,1.37.59,2.06Zm-6-10.47c-.14.03-.28.07-.45.11v.02s0,0,0,0c-.27.07-.14.04,0,0h0s0,0,0,0v.04s.03.08.03.08l.03.1.02.1,2.56,10.87,2.56,10.87,1.28,5.43c.42,1.81.85,3.63,1.33,5.44.81,3.07,1.69,6.11,2.56,9.14.25,1.15.5,2.29.75,3.44.22.99.45,1.98.67,2.97-.78-2.42-1.55-4.83-2.21-7.26-.98-3.58-1.83-7.21-2.64-10.85-1.62-7.28-3.09-14.64-5.2-21.87-.26-.9-.53-1.81-.83-2.7-.29-.9-.57-1.8-.9-2.68-.32-.89-.62-1.78-.98-2.66l-.32-.8c.57.07,1.14.13,1.71.2Zm-1.18,41.03c.24,1.48.54,2.93.83,4.39.7,3.96,1.45,7.91,2.26,11.85l1.14,5.4.27,1.23c-.59-.21-1.17-.43-1.75-.66v-.05s-.42-2.81-.42-2.81c-1.14-7.48-2.44-14.92-3.63-22.37-1.19-7.45-2.28-14.91-2.98-22.4-.22-2.25-.39-4.5-.52-6.76.49,2.3.9,4.61,1.27,6.94.67,5.58,1.42,11.14,2.25,16.7.38,2.84.78,5.69,1.27,8.53Zm-2.58-41.5l.04.25c.02.14.05.28.08.43-3.23.59-.85.17-1.6.31v.04s.01.08.01.08l.13,1.26c.17,1.81.38,3.61.61,5.41-.02,0-.03,0-.05,0-.37-1.62-.76-3.24-1.22-4.84l-.4-1.37-.1-.33c.52-.09.38-.07,0,0h0s-.05-.17-.05-.17v-.04s-.02-.02-.02-.02c.37-.07-3.22.51-1.7.27v.09s.02.71.02.71l.07,2.85c0,.23.02.46.03.7-.26-1.01-.54-2.02-.86-3.02-.26-.9-.62-1.76-.93-2.64l-.06-.16-.03-.08c1.05-.16-.38.04-1.2.17-.57-.85-1.22-.49-1.51-.15-.05.05-.05.06-.06.11-.1.7-.27,1.4-.31,2.1l-.04.5c-.04-.46-.07-.92-.08-1.32-.02-.67-.03-1.15-.05-1.09-.01-.5-.02-.96-.05-1.31,3.11.46,6.22.9,9.34,1.3Zm-9.91-1.39c-.11.29-.23.7-.34,1.26-.07.32-.13.68-.18,1.03l-.17-.46-.21-.57-.07-.19c.48-.1.35-.07,0,0l-.03-.09-.05-.14-.03-.07c.06-.01,0,0-.13.02-.07-.33-.15-.66-.23-.99.48.07.97.14,1.45.21Zm-.21,26.81c-.08-.71-.15-1.43-.23-2.14.06.35.12.69.17,1.04.02.37.04.73.05,1.1Zm-1.98,2.42h0c.2,2.81.43,5.63.71,8.45.15,1.41.31,2.82.5,4.22.18,1.4.35,2.81.58,4.21.45,2.81,1.02,5.58,1.62,8.34l.46,2.07.23,1.01c-.74-.58-1.46-1.17-2.17-1.8-.01-.01-.03-.03-.04-.04.45-.11.8-.19.67-.16v-.02c.41-.1.58-.14,0,0h0s-.03-.13-.03-.13l-.03-.13-.06-.27-.19-.93c-.25-1.24-.47-2.49-.67-3.74-.39-2.51-.69-5.04-.97-7.58l-.22-1.92-.25-1.91-.45-3.8c-.28-2.54-.53-5.08-.75-7.62-.09-1.08-.18-2.17-.26-3.25-.04-.9-.08-1.8-.12-2.7l-.15-4.19-.07-2.1c-.04-.72-.09-1.43-.15-2.13-.09-1.06-.21-2.12-.31-3.16-.01-.61-.02-1.22-.02-1.84.26,1.48.49,2.96.68,4.45.72,5.51,1.07,11.08,1.47,16.67Zm-1.66-29.81l.02,1.06c.02.66.05,1.32.07,1.99-.05-.18-.09-.36-.14-.54l-.28-1.03-.09-.35c.42-.02.32-.02,0,0l-.04-.16-.03-.13-.02-.06v-.03s-.01-.02-.01-.02c.13,0-.22,0-.67.03-.09-.33-.2-.66-.33-.99.51.08,1.01.16,1.52.24Zm-2.17,40.28c-.03-.3-.05-.59-.07-.89l-.07-1.67c-.06-1.58-.07-3.17-.06-4.75.14,2.44.22,4.88.2,7.31Zm-.56,8.16h0c-.1.02-.17.02,0,.01l.04.2.02.11h0c3.42-.18.95-.05,1.71-.1v-.03s0-.05,0-.05l.09-.85.17-1.71h0c.2-2.45.27-4.89.24-7.32,0,.1.02.2.03.29h0c.53,5.12,1.3,10.22,2.42,15.26l.18.77c-3.77-3.56-7.07-7.63-9.83-11.96-.55-.87-1.08-1.75-1.59-2.63.12,0,.17,0,.11,0h0s.02-.2.02-.2c.4,0,.56-.01,0,0v-.14s.07-.66.07-.66h0c.55-6.31.43-12.61.3-18.88,0,0,0,0,0-.01.27-2.32.58-4.63.9-6.95.03,5.89.01,11.8.29,17.72.1,2.3.27,4.6.48,6.89l.18,1.72.04.43v.03s0,.01,0,.01c.77-.03-1.73.08,1.74-.06v-.05s0-.08,0-.08c.09,0,.13,0,.14,0,.15.84.32,1.68.53,2.52.12.55.31,1.09.46,1.64l.12.41v.03c-.75.12-.24.04.42-.06.13,1.11.39,2.2.61,3.29l.09.42Zm-2.37-8.25v-.02s0-.22,0-.22v-.43c.05.22.09.45.13.67-.02,0-.07,0-.14,0Zm1.69-40.72v.06s-.05.47-.05.47l-.1.95c-.03.27-.05.54-.07.81-.12-.43-.24-.87-.36-1.3l-.07-.26c.44-.04.33-.03,0,0l-.04-.15-.06-.21v-.03c.36-.04-3.2.26-1.69.14h0s0,.07,0,.07v.11s-.11.72-.11.72c-.57-.01-.92-.02-.24,0l-.02.1-.13.73c-3.43-.1-.94-.02-1.71-.04h0s0,.03,0,.03l-.02.16-.03.32c-.09.86-.18,1.73-.29,2.59-.11.93-.24,1.86-.36,2.79.02-.69.05-1.39.08-2.08.02-.24.05-.48.07-.72.08-.8.13-1.61.19-2.41l.06-1.21.03-.56c.59.04.42.02,0,0v-.04s0-.02,0-.02c.38.01-3.29-.22-1.74-.11v.04s0,0,0,0c-.02,0-.02,0,0,0v.07s-.02.15-.02.15l-.03.3c-.13,1.45-.23,2.89-.3,4.34-.07.76-.15,1.52-.24,2.28,0-.32.02-.64.02-.95,0-.71,0-1.42-.01-2.13l-.02-1.06-.02-.53-.03-.64-.05-1.06-.07-1.01s0-.08-.01-.12c.01-.14.03-.28.04-.42l.03-.49.02-.25v-.12s0-.02,0-.02h0c-.6-.12.79.14-.26-.06-.01-.09-.02-.19-.04-.28l-.02-.15c2.55.4,5.11.8,7.66,1.21Zm-7.86,31.27v-.02s0-.15,0-.15v-.3s.01-.59.01-.59c0-.39,0-.79.02-1.18.1-2.98.38-5.96.75-8.94,0,.31.01.61.02.92-.39,3.4-.7,6.82-.8,10.26-.14,0-.28,0,0,0Zm-1.62-32.77c.28.04.56.09.84.13l-.22.35c-.06-.01-.11-.02-.18-.03v.03s-.03.06-.03.06l-.04.13s-.03,0-.04,0v-.08s-.01-.22-.01-.22v-.11s0-.03,0-.03h0c-.75-.12,1.68.23-1.68-.25h0s-.02.07-.02.07c-.03.1-.07.19-.1.29-.01,0-.02,0-.03,0-.49-.45-.92-.84-.37-.34h0s0,0,0,0h-.01c-.25.11-.51.23-.76.38.06-.13.09-.22.09-.23,0-.04,0-.13-.02-.15-.05-.17-.12-.3-.19-.41l2.8.44Zm.37.67l-.04.12v-.13s.02,0,.04,0Zm-1.87-.35s0,.01,0,.02c0,0-.01-.01-.02-.02,0,0,.02,0,.03,0Zm-1.58,15.65c-.01.67-.02,1.35-.01,2.02.02,1.29.05,2.58.13,3.87.03.64.08,1.29.13,1.93l.08.96.02.24v.02c-.13,0-.26.01,0,0v.1c3.48-.12.97-.04,1.74-.07h0s0-.02,0-.02v-.03s0-.06,0-.06l.02-.47c.02-.55.05-1.11.09-1.66.15,0,.09,0,0,0,.22-3.11.72-6.21,1.26-9.33-.15,3.98-.39,7.97-.5,11.98h0c-.05,1.61-.07,3.21-.05,4.83,0,.81.03,1.61.05,2.42v.08s0,0,0,0c-.14,0-.26.01,0,0v.03c1.02-.02,1.52-.03,1.74-.03,0,.03,0,.07,0,.1,0,.88-.03,1.77-.02,2.65.03.88.02,1.77.08,2.65.02.22.03.45.04.67-1.49-2.95-2.77-5.97-3.77-9.02-1.08-3.28-1.9-6.59-2.39-9.84,1.6.29-.08-.06.58.05l.13-.59c.25-1.16.46-2.33.66-3.49Zm-.24-12.76c-.15.38-.3.75-.45,1.14-.19.5-.37,1.02-.54,1.53.04-.2.07-.39.11-.59.14-.56.28-1.12.41-1.67.03-.15.07-.29.12-.44.02,0,.05.02.07.03.1.03.2.02.28,0Z"/>
  </g>
</svg>