<?xml version="1.0" encoding="UTF-8"?>
<svg id="uuid-f1efbe67-6a2c-4557-8a02-bbb7ac32ffe5" data-name="Camada 2" xmlns="http://www.w3.org/2000/svg" viewBox="0 0 239.45 110.1">
  <defs>
    <style>
      .uuid-94523e73-a0ef-4bb1-88da-71af4646b394 {
        fill: #202020;
        stroke-width: 0px;
      }
    </style>
  </defs>
  <g id="uuid-f933cbee-2c9c-4c74-9419-74368e35fba0" data-name="Object">
    <path class="uuid-94523e73-a0ef-4bb1-88da-71af4646b394" d="m118.41,2.29c-17.03,3.08-33.97,9.04-49.9,17.72-3.97,2.19-7.88,4.55-11.68,7.11-1.91,1.26-3.79,2.62-5.64,3.98-1.83,1.38-3.65,2.78-5.46,4.23-1.17.94-2.33,1.91-3.48,2.88-4.19,1.71-8.29,3.61-12.26,5.75-4.07,2.18-7.94,4.7-11.61,7.48-3.7,2.74-6.97,6.05-9.97,9.49-1.49,1.73-2.88,3.57-4.12,5.53-1.25,1.95-2.35,4.03-3.13,6.29-.78,2.24-1.25,4.67-1.15,7.14.1,2.47.84,4.92,2.01,7.04,1.17,2.13,2.75,3.95,4.47,5.49,1.73,1.54,3.61,2.83,5.53,3.96,3.87,2.25,7.94,3.9,12.02,5.25,8.19,2.7,16.49,4.29,24.69,5.46,8.2,1.15,16.32,1.81,24.31,2.13,4,.15,7.97.22,11.91.17,1.97-.03,3.93-.08,5.89-.18.98-.05,1.95-.11,2.92-.18,1.78.17,3.57.3,5.35.46,2.44.13,4.89.33,7.34.4,19.61.81,39.4-.89,58.86-4.47,4.87-.88,9.71-1.96,14.52-2.94,4.83-1,9.67-2.05,14.5-3.24,4.82-1.2,9.63-2.52,14.36-4.13,4.74-1.6,9.43-3.45,13.92-5.82,2.24-1.19,4.44-2.51,6.52-4.04,2.08-1.54,4.04-3.29,5.73-5.37.87-1.02,1.59-2.2,2.24-3.38.62-1.21,1.14-2.47,1.53-3.78.75-2.62.97-5.38.7-8.03-.54-5.35-2.7-10.22-5.37-14.56-2.71-4.36-5.98-8.23-9.69-11.74-3.74-3.45-7.97-6.35-12.44-8.69-4.47-2.34-9.18-4.13-13.97-5.53-4.79-1.4-9.67-2.34-14.54-3.07-4.88-.72-9.77-1.19-14.64-1.51-19.44-1.43-38.93-.69-57.85,1.83-9.47,1.24-18.83,2.89-28.03,4.95l-3.44.78-3.41.83c-2.27.55-4.54,1.1-6.81,1.65-4.54,1.12-9.04,2.4-13.48,3.78-.82.26-1.63.52-2.44.79.54-.4,1.08-.81,1.62-1.21,3.66-2.65,7.45-5.13,11.32-7.4,7.75-4.54,15.79-8.41,24.01-11.55,8.2-3.17,16.57-5.61,24.95-7.37,16.76-3.48,33.72-4.06,49.53-1.04,3.94.78,7.81,1.73,11.57,2.93,3.77,1.19,7.42,2.59,10.8,4.33,1.69.87,3.31,1.83,4.76,2.93l.28.21.03.02.06.05.22.18c1.22.94,2.04,1.87,2.63,2.52.51.7.84,1.1.85,1.15.05.05.21.12.25.13,1.11.31,1.88.19,2.34-.23.45-.41.59-1.11.57-1.65,0-.16-.01-.2-.06-.28-.02-.07-.42-.59-1.08-1.47-.71-.81-1.74-1.94-3.12-3.01l-.26-.21-.13-.11-.31-.23-1.26-.9-1.3-.83c-3.5-2.13-7.24-3.73-11.05-5.09-3.81-1.35-7.74-2.45-11.74-3.37-16.04-3.61-33.26-3.5-50.28-.43Zm-55.32,102.66c-8.23-.66-16.57-1.69-24.86-3.4-4.14-.85-8.28-1.89-12.33-3.19-4.05-1.3-8.02-2.9-11.7-4.97-1.82-1.05-3.56-2.23-5.11-3.59-1.55-1.35-2.88-2.9-3.83-4.62-.94-1.72-1.53-3.6-1.57-5.56-.06-1.96.34-3.96,1.05-5.91,1.43-3.91,4-7.52,6.89-10.86,2.91-3.33,6.16-6.36,9.74-9.06,3.61-2.66,7.47-5.03,11.5-7.18.3-.16.62-.31.92-.47-2.76,2.9-5.37,6.02-7.61,9.46-2.61,4.04-4.77,8.65-5.37,13.74-.29,2.53-.16,5.14.45,7.66l.25.95.13.47c.05.16.12.31.18.46.26.6.47,1.24.77,1.8.3.56.57,1.16.91,1.7.35.54.67,1.09,1.04,1.61,1.47,2.09,3.24,3.91,5.15,5.51,1.91,1.6,3.96,3,6.07,4.25,2.11,1.26,4.31,2.35,6.53,3.34,2.23,1,4.49,1.89,6.78,2.7,6.84,2.41,13.86,4.17,20.95,5.61-2.31-.12-4.63-.27-6.96-.45Zm9.12-72.25c2.3-.56,4.61-1.11,6.92-1.67,2.31-.56,4.63-1.06,6.95-1.58,4.66-.97,9.34-1.91,14.07-2.68,18.89-3.17,38.32-4.71,57.83-4.02,4.87.23,9.8.46,14.67.86,4.87.42,9.73,1.02,14.53,1.9,4.8.88,9.54,2.05,14.12,3.65,4.57,1.62,8.98,3.68,13.04,6.27,1.05.6,2,1.34,2.98,2.05.48.36.98.7,1.45,1.07l1.37,1.17,1.37,1.17c.45.4.86.85,1.29,1.27.85.86,1.72,1.68,2.52,2.6,3.21,3.62,6.03,7.63,8,11.97,1.96,4.31,3,9.06,2.12,13.51-.42,2.21-1.32,4.33-2.59,6.2-1.28,1.85-2.95,3.54-4.8,5.01-3.72,2.97-8.09,5.23-12.58,7.17-4.51,1.93-9.2,3.5-13.95,4.89-9.51,2.78-19.27,4.71-29.05,6.76-4.86,1.05-9.73,1.91-14.61,2.72-4.89.75-9.78,1.45-14.69,1.95-4.9.55-9.82.89-14.72,1.18-2.82.12-5.64.21-8.46.27,7.05-.94,13.95-2.06,20.65-3.44,6.95-1.45,13.7-3.15,20.17-5.2,6.46-2.07,12.65-4.47,18.48-7.25,5.82-2.79,11.25-6.01,16.2-9.6,1.26-.87,2.43-1.84,3.61-2.76.6-.46,1.16-.95,1.73-1.44.29-.25.58-.5.87-.75l.18-.15c.12-.1.23-.2.34-.29.22-.19.42-.36.6-.52.69-.66,1.08-1.03,1.08-1.03,0,0,1.84-1.91,3.47-3.93.85-.97,1.59-2.03,2.15-2.77.55-.75.88-1.22.8-1.15,2.27-3.62,3.18-6.14-1.49-1.4-.74.65-1.54,1.38-2.32,2.11-.77.74-1.61,1.4-2.3,2.02-.35.31-.67.6-.97.86-.3.25-.57.47-.8.65-.45.37-.71.58-.71.58,0,0-.38.36-1.05,1-.33.33-.76.68-1.25,1.11-.25.22-.5.43-.76.66-2.31,2.02-4.81,3.87-7.4,5.69-5.23,3.55-10.97,6.7-17.11,9.41-12.3,5.41-26.08,9.15-40.68,11.76-7.3,1.32-14.82,2.34-22.52,3.2-3.85.41-7.74.8-11.67,1.13-1.78.15-3.57.29-5.36.44-3.12-.3-6.24-.65-9.32-1.12-2.4-.31-4.78-.73-7.18-1.16-2.39-.43-4.77-.88-7.14-1.37-4.73-.98-9.41-2.09-13.99-3.45-4.58-1.35-9.07-2.94-13.34-4.9-4.24-1.99-8.32-4.32-11.67-7.36-1.67-1.51-3.16-3.19-4.33-5.04-1.18-1.87-2.01-3.8-2.34-5.93-.76-4.26.19-8.7,2.07-12.74,1.88-4.06,4.59-7.77,7.59-11.2,3.01-3.43,6.34-6.59,9.81-9.57.03-.02.05-.04.08-.07.41-.17.82-.34,1.24-.51,8.62-3.36,17.61-6,26.8-8.23Z"/>
    <path class="uuid-94523e73-a0ef-4bb1-88da-71af4646b394" d="m47.42,59.38c.36.15.7.12.99.03.3-.09.57-.22.79-.34.25-.11.42-.2.58-.24.1-.02.1-.03.11-.07.11-.34.49-.74,1.17-1.07.66-.33,1.51-.56,2.39-.69,1.42-.22,2.94-.24,4.4-.07.73.08,1.45.21,2.04.4l.19.07.24.11.5.22c.32.15.64.31.94.48.6.33,1.09.73,1.35,1.06.09.08.09.15.15.22.02.06.04.11.06.15.02.08,0,.14-.02.27-.08.26-.41.73-.88,1.14-.47.42-1.06.81-1.69,1.17-.89.5-1.86.91-2.86,1.25-1.32.08-2.65.26-4.02.63l-.39-4.04c-.02-.08-.14-.24-.18-.27-1.77-1.78-2.99-.48-3.43.39-.08.13-.07.16-.07.25l.6,6.11.05.47.29,2.92s1.08,6.84,1.5,9.11c-.47.16-.8.31-.92.46-.2.22.11.46,1.16.62.8,3.75,1.78,5.97,1.95.15.3.01.63.02.98.02,2.01.05,4.45-.08,6.4-.34,1.95-.24,3.4-.6,3.4-.6.95-.29,1.9-.61,2.84-1.02l.35-.15.48-.23c.26-.13.53-.26.79-.42.26-.15.52-.29.78-.48,1.02-.69,2.1-1.6,2.77-3.06.15-.36.28-.76.36-1.15.04-.4.13-.82.07-1.21l-.05-.59c-.02-.19-.08-.37-.12-.55l-.15-.54-.2-.48-.21-.48c-.08-.15-.16-.27-.24-.41-.17-.27-.3-.52-.52-.82-.4-.58-.93-1.12-1.46-1.51-1.07-.82-2.2-1.33-3.31-1.71-.85-.29-1.71-.51-2.56-.67.02-.02.04-.04.07-.06.74-.68,1.51-1.5,1.95-2.81.2-.66.26-1.43.09-2.16-.08-.35-.21-.69-.36-1-.16-.28-.32-.6-.52-.81-.76-.96-1.61-1.55-2.43-2.02-.42-.24-.83-.44-1.25-.64l-.63-.27-.32-.14-.38-.14c-.97-.3-1.87-.45-2.77-.56-1.79-.2-3.57-.18-5.39.09-1.13.18-2.29.46-3.46,1.03-.58.29-1.17.66-1.72,1.18-.54.51-1.03,1.21-1.3,2-.03.14,0,.43.02.49.22.83.65,1.18,1,1.34Zm16.03,7.97c1.8.28,3.61.81,4.83,1.67.29.22.56.44.74.68.19.23.4.61.61.95.33.65.42,1.17.29,1.58-.11.42-.48.93-1.09,1.4-.3.23-.64.46-1.02.67-.18.11-.38.21-.58.3l-.36.18c-.73.33-1.51.62-2.31.87,0,0-.56.22-1.44.52-.87.3-2.06.65-3.25.96-2.39.62-4.81,1.05-4.59,1.07-.28.06-.55.13-.82.19.1-3.82-.04-8.38-.04-8.38l-.19-1.99c.23-.02.46-.05.69-.08.9-.12,1.78-.3,2.64-.54.34-.09.67-.2,1.01-.3.11,0,.22-.01.32-.02,1.52-.05,3.06.03,4.55.27h0Z"/>
    <path class="uuid-94523e73-a0ef-4bb1-88da-71af4646b394" d="m74.43,69.11c.2.63.39,1.26.65,1.88.12.31.24.63.37.94l.44.93c.14.31.32.62.5.93.2.31.34.62.58.92l.69.9c.29.29.6.58.9.85.31.27.6.43.9.64.29.21.62.39.96.56l.51.26c.17.08.38.14.57.21l.58.19c.2.06.43.08.64.12.22.03.43.07.66.08.23,0,.47-.01.7-.03l.35-.02.35-.08c.23-.06.47-.12.7-.19.87-.37,1.66-.91,2.2-1.53,1.13-1.24,1.71-2.59,2.17-3.89.45-1.31.74-2.61.96-3.91.16-1.02.29-2.04.37-3.06,0,0,.08-2.71-.16-5.31-.2-2.61-.71-5.13-.72-4.9-.25-1.05-.55-2-.87-2.71-.32-.71-.68-1.18-.91-1.28-.49-.17-.3.84-.26,4.11-.03,1.95-.14,4.29-.33,6.13-.18,1.84-.38,3.18-.38,3.18-.08,1.09-.21,2.17-.38,3.23-.2,1.15-.45,2.27-.81,3.31-.35,1.03-.83,1.99-1.38,2.58-.27.33-.55.46-.8.6-.07,0-.14.02-.2.05l-.1.03h-.11c-.08,0-.15,0-.23.01-.08,0-.17-.03-.26-.04-.7-.1-1.66-.63-2.43-1.23-.14-.15-.29-.28-.45-.42l-.44-.58c-.16-.18-.27-.44-.41-.65-.13-.22-.27-.45-.38-.71l-.35-.75c-.11-.26-.21-.53-.31-.79-.22-.52-.38-1.08-.56-1.63-.68-2.22-1.1-4.59-1.33-6.93-.19-1.93-.24-3.91-.02-5.69,0-.08-.1-.24-.12-.28-.62-.92-1.27-1.38-1.89-1.37-.61,0-1.18.45-1.53.88-.1.12-.11.15-.12.25-.28,2.28-.19,4.42,0,6.56.26,2.58.71,5.13,1.48,7.65Z"/>
    <path class="uuid-94523e73-a0ef-4bb1-88da-71af4646b394" d="m93.81,58.95l.23.6.34.61c.23.37.48.7.76,1.01,1.1,1.23,2.39,2.01,3.61,2.64,1.22.63,2.42,1.12,3.54,1.63,1.12.5,2.17,1.02,3.02,1.63.85.61,1.42,1.28,1.7,2.03.09.31.19.58.18.88.02.15-.01.29-.01.43-.03.12-.04.24-.08.33,0,0,0,.07-.04.16-.03.1-.07.21-.22.36-.14.15-.42.34-.83.49-.41.15-.93.26-1.48.33-2.24.24-4.73-.09-4.51,0-2.03-.12-3.8-.16-4.21.15-.2.15-.06.36.51.66.58.29,1.59.71,3.23,1.19,1.93.59,4.36,1.18,6.66.93,1.13-.11,2.28-.56,3.02-1.16.37-.31.63-.6.78-.82.17-.21.23-.34.23-.34.46-.84.62-1.74.62-2.51,0-.79-.14-1.61-.4-2.32-.59-1.65-1.81-2.93-3.01-3.78-1.22-.87-2.46-1.45-3.65-1.99-1.19-.53-2.33-1.01-3.37-1.54-1.03-.53-1.94-1.12-2.53-1.79-.15-.17-.27-.34-.38-.51-.04-.08-.08-.15-.13-.22l-.1-.29c-.09-.18-.11-.42-.17-.62-.01-.21-.06-.42-.05-.62-.02-.81.32-1.57.9-2.24,1.19-1.36,3.39-2.12,5.33-1.92,1.59.14,2.99.91,3.93,2.15.05.04.21.08.25.09,1.08.19,1.85.1,2.3-.34.44-.41.57-1.16.48-1.72-.01-.17-.04-.2-.1-.29-.76-1-1.76-1.87-2.88-2.48-1.12-.62-2.37-.97-3.61-1.09-1.55-.15-3.09.06-4.54.57-1.44.52-2.81,1.35-3.91,2.58-1.08,1.22-1.86,2.93-1.83,4.68-.02.44.05.86.1,1.28.1.41.17.81.33,1.22Z"/>
    <path class="uuid-94523e73-a0ef-4bb1-88da-71af4646b394" d="m112.55,52.06s.72.06,1.62-.06c.32-.04.67-.1,1.02-.17.11,1.45.23,2.89.37,4.34l.2,1.95.33,2.94s.46,2.58.99,5.08c.52,2.51,1.11,4.94,1.12,4.72.1.34.19.67.29.99-.62.1-1.21.17-1.59.18-.23.01-.34,0-.41,0-.01.07-.03.15-.05.22l.07-.21h0s0,0,0,0h0s.04.14.04.17c-.02.43-.25.77-.48,1.04-.24.27-.47.51-.66.75-.38.46-.41,1.02-.24,1.39.04.12.07.13.13.15.04.01.25.08.63.15.3.04.69.06,1.06.04.76-.02,1.61-.14,2.44-.28,1.66-.29,3.22-.68,3.22-.68,0,0,.44-.27.87-.55.42-.28.83-.57.78-.6.65-.64.87-1.55-.51-1.98-.84-.35-1.92-.48-1.92-.48,0,0-.69.17-1.6.36,0-.27-.02-.56-.04-.87-.05-1.98-.17-4.37-.27-6.26-.09-1.91-.16-3.29-.16-3.29l-.38-3.37-.18-1.92c-.16-1.69-.29-3.39-.42-5.09.38-.14.73-.28,1.04-.39.69-.27,1.15-.45,1.15-.45,0,0,.49-.35.98-.71.48-.35.95-.69.89-.71.72-.69,1.17-1.68-.6-1.95-1.08-.24-2.47-.11-2.47-.11,0,0-.47.18-1.18.45-.7.27-1.61.62-2.51.91-.89.29-1.76.5-2.37.56-.31.05-.54.04-.72.05-.17,0-.26-.01-.27-.01-.01.01-.05.12-.06.15-.22.79-.37,1.51-.39,2.11-.03.6.07,1.07.18,1.34.03.09.04.09.07.09Z"/>
    <path class="uuid-94523e73-a0ef-4bb1-88da-71af4646b394" d="m116.24,72.79h0s0-.02,0-.02c0-.02.02-.05.03-.08.03-.06.06-.16.1-.27.02-.05.04-.12.05-.19l-.19.56h0Z"/>
    <path class="uuid-94523e73-a0ef-4bb1-88da-71af4646b394" d="m116.46,72.01s.01,0,.02,0c0,0,0,0,0,0,0,0-.01,0-.02,0Z"/>
    <path class="uuid-94523e73-a0ef-4bb1-88da-71af4646b394" d="m127.58,60.5c.39,2.54.84,5.04,1.27,7.53l.5,2.99c.08.49.15.99.21,1.47l.08.7.03.33v.04s0,.01,0,.01h0s0,0,0,0h0c-1.28.08-.89.06.02,0,.19-.01.73-.05,1.37-.09,1.04-.07,2.09-.13,2.31-.14.88-.06,1.24-.08-.02,0h0s0-.01,0-.01h0s0-.11,0-.11v-.19s-.02-.01-.02-.02l-.02-.19-.09-.82c-.07-.53-.14-1.05-.22-1.57l-.51-3.06c-.43-2.46-.87-4.91-1.25-7.34-.37-2.42-.72-4.88-.78-7.18v-.6s.22.32.22.32c.62.91,1.29,2,1.92,3.04l1.92,3.2c1.29,2.14,2.6,4.3,4.07,6.42.75,1.06,1.53,2.11,2.49,3.13.48.51,1.02,1.02,1.76,1.51.17.1.45.29.74.39.29.11.58.23.88.26.3.05.6.08.91.03.15-.02.31-.02.45-.08l.42-.18c.29-.1.54-.27.79-.46l.36-.29.27-.29c.33-.34.56-.72.79-1.09.42-.75.66-1.5.85-2.23.33-1.45.4-2.83.39-4.17,0-.34-.02-.67-.03-1v-.25s-.02-.19-.02-.19l-.02-.23c-.02-.31-.04-.62-.07-.93-.05-.62-.13-1.23-.21-1.84,0,0-.12-.66-.34-1.63-.22-.97-.54-2.25-.89-3.49-.7-2.49-1.51-4.86-1.49-4.64-1.51-3.93-3-6.25-2.01.39.23,1.97.54,4.33.73,6.19.2,1.86.29,3.22.29,3.22.08.58.15,1.15.21,1.72l.08.86.03.43v.21s.03.41.03.41c.05,1.18.03,2.36-.14,3.42-.09.52-.2,1.04-.38,1.45-.16.4-.38.8-.56.95-.02.03-.01.01-.02.02,0,0,0,0,0,0,0,0-.11-.07-.18-.11-.17-.14-.35-.27-.54-.45-.75-.7-1.5-1.66-2.21-2.63-1.42-1.97-2.72-4.11-4.02-6.26-1.31-2.16-2.56-4.35-4.02-6.56l-.14-.21-.18-.25-.36-.51c-.39-.49-.76-1.01-1.2-1.38-.11-.09-.21-.22-.32-.29l-.33-.21c-.22-.16-.44-.23-.67-.32-.46-.16-.94-.22-1.43-.13-1.04.22-1.7.89-2.1,1.89-.2.51-.3,1.11-.37,1.73-.02.31-.05.64-.05.89v.37s0,.26,0,.26c.05,2.75.43,5.28.8,7.83Z"/>
    <path class="uuid-94523e73-a0ef-4bb1-88da-71af4646b394" d="m153.77,64.11c.19,1.01.4,2.01.7,3.04,0,0,.06.17.17.46.12.29.28.74.53,1.23.12.24.26.51.4.79.18.28.37.58.56.89.24.31.48.62.78.92.33.3.65.59,1.08.81.39.25.85.38,1.28.51.43.08.85.14,1.21.12.75,0,1.34-.12,1.82-.22.95-.21,1.47-.37,1.37-.37.95-.28,1.83-.55,2.55-.76.68-.22,1.18-.38,1.35-.58.17-.18.01-.37-.63-.54-.64-.17-1.79-.27-3.49-.16-.99.03-2.09.1-2.89-.07-.82-.16-1.13-.54-1.49-1.11-.18-.26-.31-.62-.44-.9-.12-.31-.21-.62-.29-.86-.15-.48-.21-.78-.21-.78-.3-.96-.54-2.03-.74-3.1-.06-.36-.12-.72-.18-1.09.49-.05,1.01-.1,1.53-.15,1.94-.21,3.86-.42,3.86-.42,0,0,2.27-.9,2.17-.98.9-.58,1.33-1.47-.25-2.03-.95-.44-2.24-.67-2.24-.67,0,0-1.92.21-3.86.42-.57.06-1.13.11-1.65.16-.15-1.79-.19-3.58-.09-5.32.05-.82.14-1.63.29-2.38.15-.75.36-1.47.64-1.95.21-.39.76-.95,1.19-1.22.47-.3,1.02-.49,1.74-.58.81-.11,1.79-.09,2.86-.12,1.07-.03,2.29-.1,3.54-.51.1-.05.27-.22.3-.26.85-1.22.51-1.95.1-2.39-.21-.23-.47-.4-.71-.53-.23-.13-.45-.23-.64-.31-.11-.06-.13-.05-.19-.03-.7.23-1.54.31-2.5.33-.96.03-2.04,0-3.25.15-1.03.12-2.21.46-3.22,1.12-.27.14-.48.35-.72.53-.24.18-.44.38-.63.59-.37.37-.8.89-1.09,1.43-.58,1.06-.83,2.06-1.03,3.04-.19.98-.29,1.93-.35,2.87-.12,1.88-.06,3.72.08,5.54.14,1.82.37,3.63.7,5.44Z"/>
    <path class="uuid-94523e73-a0ef-4bb1-88da-71af4646b394" d="m170.34,52.22c.72,1.1,1.64,1.95,2.56,2.62,1.85,1.34,3.71,2.17,5.32,3.15,1.62.95,2.97,2.02,3.63,3.33.33.64.52,1.34.58,2.11,0,0,.03.13.04.34,0,.21.07.53.02.86-.03.69-.27,1.52-.88,2.2-.59.7-1.55,1.2-2.29,1.46-.75.27-1.25.37-1.15.38-1.83.5-3.51.5-3.9.81-.2.15-.08.36.53.64.61.26,1.72.62,3.52.59,1.06,0,2.28-.15,3.47-.62,1.19-.46,2.33-1.3,3.06-2.33.72-1.04,1.03-2.12,1.16-2.86.09-.38.08-.66.1-.87.01-.2.02-.31.02-.31,0-1.39-.34-2.81-1.01-4.1-.58-1.14-1.41-2.08-2.29-2.86-.88-.78-1.81-1.38-2.72-1.93-1.82-1.08-3.63-1.93-5.02-2.96-.7-.51-1.26-1.06-1.64-1.64-.17-.28-.34-.63-.47-.98-.11-.33-.18-.61-.18-.87,0-.52.17-.98.61-1.46.43-.48,1.08-.91,1.82-1.22,1.5-.64,3.36-.87,4.89-.55.06,0,.21-.07.25-.1.91-.58,1.46-1.1,1.54-1.73.09-.61-.32-1.27-.76-1.64-.12-.12-.16-.13-.27-.15-1.24-.26-2.45-.27-3.64-.14-1.18.14-2.34.43-3.47.91-1.1.48-2.18,1.13-3.1,2.15-.93.98-1.59,2.5-1.55,4,0,.74.18,1.45.4,2.07.22.59.48,1.16.84,1.73Z"/>
    <path class="uuid-94523e73-a0ef-4bb1-88da-71af4646b394" d="m187.28,47.46c.24.41.52.82.82,1.23,1.23,1.64,2.77,2.74,4.16,3.73,1.4.98,2.76,1.87,3.84,2.86,1.09.99,1.86,2.06,2.18,3.25.04.18.12.34.13.53l.05.56c.08.36-.01.77-.02,1.16,0,0,0,.13,0,.36-.04.21-.04.54-.13.89-.13.73-.5,1.57-1.18,2.23-.66.68-1.63,1.15-2.39,1.39-.76.26-1.28.36-1.17.36-1.85.46-3.56.54-3.94.87-.19.16-.06.37.56.62.62.23,1.71.55,3.5.55,1.06.02,2.27-.11,3.46-.53,1.19-.41,2.35-1.18,3.13-2.11.82-.92,1.2-1.92,1.46-2.61.2-.69.29-1.12.29-1.12.05-.68.13-1.35.1-2.04-.07-.7-.1-1.4-.33-2.09l-.22-.76-.32-.72c-.12-.23-.21-.49-.35-.7l-.42-.64c-.57-.85-1.25-1.56-1.95-2.2-1.4-1.26-2.87-2.21-4.2-3.15-1.34-.94-2.55-1.86-3.32-2.92-.19-.26-.39-.54-.58-.86-.15-.28-.29-.55-.36-.78-.07-.22-.08-.39-.07-.45.02-.06-.01-.03.04-.08.06-.06.25-.21.56-.3.3-.1.68-.18,1.08-.22.81-.08,1.7-.04,2.58.09.08,0,.24-.08.27-.11.98-.63,1.39-1.26,1.38-1.89,0-.62-.44-1.2-.85-1.53-.12-.11-.15-.12-.25-.13-1.14-.17-2.3-.23-3.52-.11-.61.07-1.24.18-1.91.41-.65.23-1.38.59-2.03,1.27-.54.55-.93,1.38-1.01,2.16-.09.78.04,1.46.22,2.03.18.58.43,1.05.68,1.51Z"/>
  </g>
</svg>