<?xml version="1.0" encoding="UTF-8"?>
<svg id="uuid-73b95515-fcfc-422e-a742-f950769ee6ea" data-name="Camada 2" xmlns="http://www.w3.org/2000/svg" viewBox="0 0 271.67 173.03">
  <defs>
    <style>
      .uuid-3915d800-a3f9-449b-95b8-dd558d23efee {
        fill: #202020;
        stroke-width: 0px;
      }
    </style>
  </defs>
  <g id="uuid-cd85667f-10d3-44f0-b893-9fa0fe191db0" data-name="Object">
    <path class="uuid-3915d800-a3f9-449b-95b8-dd558d23efee" d="m267.23,172.29c4.38-.47,7.21-1.33.14-2.17-4.17-.6-10.11-1-10.11-1h-18.89c.24-.59.48-1.81.72-3.87.6-4.18,1-10.14,1-10.14V8.26s.02-6.5.02-6.5c-.02-.09-.13-.27-.16-.31-1.68-2.06-3.1-.81-3.66.05-.09.12-.09.16-.1.25v.12c-.41-.28-1.67-.57-4.14-.87-.67-.1-1.38-.19-2.1-.27-.01-.02-.03-.05-.04-.06-.02,0-.13.02-.17.03-3.76-.43-7.81-.71-7.81-.71h-3.61s-13.98-.01-13.98-.01h-6.48c-.09.01-.27.13-.31.16-2.05,1.69-.81,3.11.05,3.67.12.09.16.09.25.1h.04s0,.03.01.04c.05.15.08.17.15.22,0,0,0,0,.01,0-.02.14-.04.29-.05.44-.6,4.18-1,10.14-1,10.14v146.86s-.02,6.5-.02,6.5c.02.09.13.27.16.31.25.3.49.53.72.7h-13.62c.24-.59.48-1.81.72-3.87.6-4.18,1-10.14,1-10.14v-57.58c2.16,1.5,3.08,1.52,0-2.49v-40.76s0-6.5,0-6.5c-.02-.09-.13-.27-.16-.31-1.68-2.06-3.1-.81-3.66.05-.09.12-.09.16-.1.25v.12c-.41-.28-1.67-.57-4.14-.87-4.17-.6-10.11-1-10.11-1h-3.61s-4.94,0-4.94,0c-.15-.08-.29-.16-.44-.24-.09-.03-.31-.01-.36,0-.31.06-.57.14-.79.24h-7.46s-6.48,0-6.48,0c-.09.02-.27.13-.31.16-2.05,1.69-.81,3.11.05,3.67.12.09.16.09.25.1h.26c-.03.22-.06.46-.09.7-.6,4.18-1,10.14-1,10.14v100.82s-.02,6.5-.02,6.5c.02.09.13.27.16.31.25.3.48.52.72.69h-13.62c.24-.59.48-1.81.72-3.86.6-4.18,1-10.14,1-10.14v-59.51s.02-6.5.02-6.5c-.02-.09-.13-.27-.16-.31-1.68-2.06-3.1-.81-3.66.05-.09.12-.09.16-.1.25v.12c-.41-.28-1.67-.57-4.14-.87-4.17-.6-10.11-1-10.11-1h-3.61s-13.98-.01-13.98-.01h-6.48c-.09.01-.27.12-.31.16-2.05,1.69-.81,3.11.05,3.67.12.09.16.09.25.1h.26c-.03.22-.06.46-.09.7-.6,4.18-1,10.14-1,10.14v59.51s-.02,6.5-.02,6.5c.02.09.13.27.16.31.24.3.48.52.71.69h-13.61c.24-.59.48-1.81.72-3.86.6-4.18,1-10.14,1-10.14v-3.62s.01-22.05.01-22.05v-6.5c-.01-.09-.12-.27-.16-.31-1.68-2.06-3.1-.81-3.66.05-.09.12-.09.16-.1.25v.12c-.41-.28-1.67-.57-4.14-.86-4.17-.6-10.11-1-10.11-1h-3.61s-13.98-.01-13.98-.01h-6.48c-.09.01-.27.13-.31.16-2.05,1.69-.81,3.11.05,3.67.12.09.16.09.25.1h.26c-.03.22-.06.46-.09.7-.6,4.18-1,10.14-1,10.14v3.62s0,15.29,0,15.29l-.66-.36.66,1.71v5.41s0,3.68,0,3.68c-.1.1-.18.19-.24.26-.06.08-.06.08-.05.1.01.03.13.18.29.4v2.06c.02.09.13.27.16.31.24.3.48.52.71.69H7.9s-6.48,0-6.48,0c-.09.02-.27.13-.31.16-2.05,1.69-.81,3.11.05,3.67.12.09.16.09.25.1h255.32s10.94-.65,10.49-.74Zm-197.57-47.93c2.05-.22,3.76-.52,4.28-.87v8.48c-.31-.95-.69-1.79-.69-1.79,0,0-1.58-2.06-3.28-4.11-.45-.54-.91-1.08-1.34-1.58.71-.06,1.13-.1,1.03-.12Zm-10.49.74s2.13-.13,4.47-.28c.17.17.54.56,1.02,1.08.64.7,1.47,1.64,2.27,2.61,1.61,1.94,3.16,3.95,3.16,3.95,0,0,2.42,2.05,2.41,1.9.53.33,1.07.52,1.43.42v11.4c-.05-.09-.09-.18-.14-.28-.92-1.9-2.15-4.14-3.18-5.9-.51-.88-.97-1.64-1.31-2.18-.34-.54-.54-.86-.54-.86-.73-.98-1.47-1.96-2.24-2.92-1.38-1.73-2.81-3.43-4.35-5.05-1.31-1.36-2.7-2.67-4.18-3.9h1.18Zm-4.32,0c-.1.13-.18.27-.24.41-.24.61-.13,1.32.02,1.79.04.15.06.17.13.22,1.61,1.27,3.13,2.68,4.58,4.18,1.44,1.51,2.81,3.12,4.13,4.77.63.79,1.25,1.6,1.86,2.41,0,0,.44.51,1.08,1.29.65.77,1.49,1.82,2.32,2.87,1.67,2.09,3.28,4.16,3.19,3.95.73.87,1.43,1.64,2.01,2.19v5.41s.06,1.06.15,2.51c-.98-1.85-2.23-4.02-3.25-5.74-1.03-1.74-1.83-3.01-1.83-3.01l-2.14-2.94c-2.34-3.19-4.76-6.36-7.29-9.44-1.29-1.54-2.53-3.04-3.96-4.57-1.41-1.48-2.85-2.84-4.2-4.21-.68-.7-1.34-1.4-1.97-2.11h5.41Zm-13.41,44.01c.01-.85-.28-1.73-.28-1.73,0,0-.92-1-1.84-2.01-.23-.25-.45-.5-.65-.73v-2.94c.1.08.21.15.31.23.65.57,1.3,1.19,1.92,1.86,1.24,1.34,2.41,2.83,3.61,4.35,0,0,.5.44,1.08.96h-4.14Zm7.58,0c-.45-1.44-1.35-3.23-1.35-3.23-1.21-1.55-2.45-3.14-3.86-4.68-.7-.77-1.46-1.51-2.28-2.22-.84-.7-1.74-1.36-2.76-1.92l-.1-.05v-4.38c1.04.89,2.05,1.86,3.02,2.88.37.38.72.78,1.08,1.17.67.75,1.33,1.51,1.98,2.3,0,0,.46.49,1.15,1.23.69.75,1.6,1.75,2.5,2.74,1.81,2,3.66,3.92,3.55,3.71,1.2,1.16,2.36,2.07,3.09,2.45h-6.02Zm6.79,0c0-.14-.06-.37-.22-.69-.31-.62-.93-1.59-1.9-3.06-1.11-1.76-2.48-3.89-3.61-5.57-1.12-1.68-2.01-2.91-2.01-2.91-.78-.94-1.58-1.88-2.4-2.81-.38-.42-.74-.85-1.14-1.26-1.54-1.63-3.2-3.2-5.09-4.57-.09-.04-.31-.06-.37-.06-.14,0-.27.02-.39.04v-6.21c.23.16.46.32.68.5.79.66,1.6,1.27,2.36,2,1.77,1.58,3.42,3.36,5.03,5.18,1.61,1.82,3.13,3.74,4.65,5.67l1.87,2.45s1.76,2.09,3.5,4.14c1.73,2.06,3.45,4.06,3.35,3.85,1.5,1.63,2.9,2.85,3.42,2.91.53.05.18-1.03-1.61-4.1-1.01-1.84-2.31-4.03-3.36-5.75-1.05-1.73-1.88-2.98-1.88-2.98l-2.21-2.9c-1.55-1.98-3.11-3.95-4.79-5.86-1.67-1.91-3.41-3.78-5.34-5.51-.81-.78-1.72-1.47-2.59-2.2-.45-.35-.93-.67-1.4-1.01l-.7-.5-.75-.45s-.13-.03-.21-.03v-.95s-.21-3.54-.41-6.51c.66.76,1.34,1.49,2.03,2.2,1.75,1.78,3.56,3.43,5.08,5.12,1.54,1.77,3.09,3.66,4.55,5.55,2.96,3.81,5.77,7.76,8.58,11.74l1.79,2.54s1.74,2.14,3.44,4.23c1.72,2.09,3.45,4.09,3.35,3.87,1.51,1.63,2.9,2.84,3.42,2.9.53.05.18-1.03-1.61-4.1-2.03-3.67-5.12-8.76-5.12-8.76l-2.09-2.95c-2.82-3.99-5.66-7.99-8.68-11.88-1.52-1.96-3.06-3.85-4.72-5.76-1.74-1.93-3.55-3.57-5.21-5.27-1.35-1.39-2.63-2.8-3.58-4.3h4.97c1.26,1.8,2.71,3.38,4.16,4.86,1.42,1.44,2.84,2.78,4.15,4.16,1.26,1.35,2.54,2.88,3.78,4.36,2.47,3,4.84,6.11,7.16,9.27l1.83,2.5s1.74,2.12,3.44,4.2c1.71,2.08,3.4,4.1,3.3,3.89.73.81,1.42,1.52,2,2.05.17,2.56.34,4.95.38,4.73.19,1.77.44,3.28.73,4h-19.58Zm57.44-77.85s2.28-.14,4.71-.29c-.15.23-.26.42-.33.57-.05.09-.04.09-.03.11.02.02.4.39.95.96.55.57,1.25,1.33,1.94,2.12,1.38,1.57,2.69,3.22,2.69,3.22,0,0,.53.39,1.06.78.53.38,1.06.76,1.06.69,1.01.52,2.1.51,1.71-1.32-.15-1.15-.73-2.51-.73-2.51,0,0-1.36-1.71-2.83-3.39-.46-.52-.92-1.03-1.35-1.5,1.06-.08,1.74-.14,1.62-.16,2.05-.22,3.76-.52,4.28-.87v20.96c-.11-.16-.22-.34-.33-.51-1.1-1.79-2.48-3.92-3.6-5.6-1.12-1.68-2-2.91-2-2.91-.77-.94-1.55-1.88-2.35-2.81-1.78-2.08-3.64-4.11-5.66-6.03-.53-.51-1.09-1.01-1.65-1.49h.83Zm-3.52,0h.09l-.17.21c0-.08.02-.11.08-.21Zm-3.22,0c0,.08.03.11.08.15.25.21.54.48.83.75l.46.42.28.24.19.16c.07.05.08.06.19.13,0,0,.01,0,.02.01.97.79,1.92,1.6,2.84,2.48,1.88,1.78,3.66,3.72,5.39,5.73.67.77,1.32,1.56,1.97,2.35,0,0,1.85,2.01,3.66,3.98,1.81,1.99,3.64,3.91,3.52,3.71.75.74,1.47,1.38,2.08,1.86v10.27c-2.38-3.43-5.81-7.92-5.81-7.92l-2.37-2.72-8.53-9.83c-1.46-1.63-2.82-3.26-4.45-4.91-1.6-1.6-3.28-3.05-4.91-4.47-.92-.8-1.81-1.59-2.68-2.39h7.24Zm-12.18,0c0,.2.02.4.06.57.02.16.05.18.12.26,1.58,1.63,3.25,3.09,4.89,4.51,1.64,1.42,3.24,2.81,4.71,4.28,1.42,1.43,2.85,3.13,4.28,4.73l8.52,9.81,2.04,2.35s1.93,1.96,3.85,3.86c1.92,1.89,3.85,3.71,3.72,3.51.53.46,1.03.87,1.5,1.24v5.48c-1.14-1.26-2.35-2.6-3.34-3.73-1.31-1.51-2.27-2.62-2.27-2.62-.84-.84-1.67-1.7-2.5-2.56-3.58-3.76-7.05-7.66-10.64-11.51-.91-.97-1.82-1.96-2.81-2.89-.96-.92-1.92-1.82-2.9-2.71-1.95-1.78-3.91-3.52-5.87-5.25-1.62-1.43-3.23-2.86-4.82-4.3-.08-.05-.28-.08-.33-.09-.06,0-.12,0-.18,0-.15-2.3-.3-4.29-.34-4.09-.03-.29-.06-.57-.1-.84h2.41Zm-1.65,10.1c.81.72,1.61,1.45,2.42,2.16,1.96,1.73,3.91,3.45,5.82,5.2.95.88,1.9,1.76,2.83,2.65.92.86,1.78,1.79,2.66,2.73,3.55,3.8,7.03,7.72,10.67,11.54.73.75,1.44,1.51,2.19,2.25,0,0,2.05,1.87,4.17,3.59,2.11,1.74,4.28,3.29,4.13,3.12.15.1.29.19.44.28v8.92c-.39-.59-.99-1.4-1.88-2.49-2.56-3.32-6.36-7.89-6.36-7.89l-2.48-2.62-9.14-9.74-2.33-2.43-1.2-1.23c-.41-.41-.94-.85-1.36-1.2-1.77-1.47-3.51-2.79-5.11-4.2-1.54-1.37-2.99-2.81-3.91-4.36-.05-.06-.23-.13-.27-.14-.46-.14-.86-.2-1.22-.21v-4.67s-.03-.49-.08-1.26Zm-.69,67.75c.28-.22.51-.5.67-.74.09-.12.09-.16.1-.25v-1.31c.84.95,1.64,1.85,2.05,2.31h-2.82Zm6.78,0c-.18-1.04-.68-2.16-.68-2.16,0,0-1.33-1.5-2.67-3.02-.69-.75-1.37-1.5-1.9-2.07-.36-.38-.63-.66-.78-.82v-5.18c.42.63.84,1.27,1.28,1.89.37.54.76,1.07,1.15,1.59.63.85,1.28,1.69,1.93,2.51,0,0,1.87,2.08,3.78,4.01,1.36,1.38,2.73,2.69,3.36,3.26h-5.49Zm8.29,0c-.23-.33-.48-.68-.77-1.08-1.19-1.73-2.68-3.77-3.83-5.4-1.15-1.64-1.99-2.83-1.99-2.83-.74-.92-1.47-1.86-2.17-2.8-.37-.5-.74-1.01-1.09-1.52-1.22-1.72-2.36-3.49-3.38-5.3-.06-.07-.24-.16-.28-.18-.29-.11-.56-.19-.8-.23v-6.69c1.01,1.1,2.01,2.22,3,3.35,2.46,2.81,4.87,5.68,7.26,8.58l1.97,2.39s1.86,2.01,3.69,3.98c1.83,1.97,3.65,3.88,3.53,3.68,3.17,3.09,5.64,4.7,1.75-1.27-2.19-3.59-5.64-8.47-5.64-8.47l-2.3-2.8c-2.4-2.92-4.83-5.82-7.33-8.68-1.44-1.64-2.9-3.26-4.39-4.86-.07-.06-.28-.11-.33-.12-.49-.07-.89-.05-1.22.02v-5.82c.43.5.87,1,1.3,1.5,6.12,7.31,12,14.92,17.9,22.48l1.9,2.45s7.23,8.26,7.03,7.85c.66.69,1.3,1.3,1.85,1.78h-15.68Zm17.26,0c-.28-.65-.81-1.62-1.65-3.01-2.1-3.65-5.43-8.61-5.43-8.61l-2.22-2.86c-5.91-7.59-11.78-15.19-18-22.62-.7-.84-1.42-1.67-2.15-2.49-.68-.75-1.34-1.5-2.13-2.26v-4.45c.58.65,1.17,1.29,1.76,1.92,3.55,3.78,7.23,7.3,10.43,11.13l9.81,11.81,2,2.39s1.89,2,3.79,3.93c1.89,1.93,3.79,3.77,3.67,3.57,1.65,1.49,3.12,2.59,3.65,2.6.53,0,.1-1.05-1.95-3.95-1.17-1.75-2.64-3.81-3.81-5.45-1.18-1.63-2.05-2.83-2.05-2.83l-2.32-2.76-9.82-11.83c-3.38-4.03-7.11-7.6-10.56-11.28-1.46-1.56-2.88-3.13-4.22-4.76-.07-.06-.26-.12-.31-.13-.03,0-.05,0-.08-.01v-4.98c.9,1.02,1.87,1.92,2.83,2.78,1.74,1.53,3.54,2.89,5.2,4.27.43.37.77.63,1.14,1l1.12,1.16,2.29,2.39,9.13,9.72,2.14,2.26s2.01,1.89,4.02,3.69c2.01,1.81,4.03,3.52,3.89,3.33,1.46,1.16,2.79,2.04,3.49,2.28v9.55s.65,10.97.74,10.52c.19,1.77.44,3.28.73,4h-5.15Zm43-119.16s1.34-.08,3.07-.19c-.2.36-.32.67-.38.88-.03.1-.03.1,0,.12.03.02.57.48,1.32,1.2.76.72,1.72,1.71,2.64,2.76,1.85,2.09,3.55,4.36,3.55,4.36,0,0,.65.58,1.3,1.16.65.57,1.29,1.14,1.28,1.05,1.2.84,2.44,1.05,1.76-1.26-.31-1.43-1.15-3.2-1.15-3.2,0,0-1.76-2.36-3.76-4.64-.86-.99-1.77-1.94-2.55-2.7,2-.14,3.59-.26,3.41-.29,2.05-.22,3.76-.52,4.28-.87v20.05c-.04-.07-.09-.13-.13-.2-1.14-1.78-2.61-3.86-3.84-5.49-1.22-1.63-2.17-2.8-2.17-2.8-.84-.89-1.67-1.79-2.54-2.66-2.53-2.58-5.2-5.06-8.13-7.3h2.04Zm-20.99,0c.01.09.02.18.04.26.02.16.04.18.11.25,1.5,1.58,3.03,3.13,4.57,4.67,5.42,5.43,10.99,10.67,16.54,15.91l2.26,2.13s2.1,1.76,4.16,3.48c2.06,1.72,4.06,3.41,3.93,3.22,3.46,2.72,6.09,4.1,1.6-1.46-2.58-3.34-6.64-7.73-6.64-7.73l-2.63-2.49c-5.55-5.24-11.09-10.46-16.45-15.84-.79-.8-1.57-1.61-2.35-2.41h6.82c1.38.78,2.72,1.65,4.01,2.62,2.97,2.18,5.72,4.73,8.35,7.41.72.72,1.42,1.46,2.11,2.21,0,0,.49.47,1.22,1.17.72.71,1.68,1.65,2.64,2.58,1.89,1.89,3.74,3.76,3.62,3.56.67.63,1.3,1.19,1.86,1.64v19.14c-.24-.28-.49-.56-.72-.82-1.35-1.51-2.39-2.6-2.39-2.6l-2.68-2.45c-3.98-3.61-8.03-7.14-12.06-10.66l-6.06-5.3c-.26-.22-.5-.44-.78-.67l-.85-.67-1.62-1.23c-1.07-.8-2.1-1.59-3.08-2.41-1.57-1.32-3.02-2.73-3.99-4.29-.05-.06-.23-.13-.27-.14-.33-.1-.63-.15-.91-.18-.2-3.2-.53-8.4-.59-8.08-.03-.29-.06-.57-.1-.84h.34Zm30.06,71.79c-2.41-3.43-5.99-8.17-5.99-8.17l-2.36-2.73c-5.09-5.9-10.19-11.89-15.94-17.36-.8-.76-1.6-1.51-2.44-2.24l-1.24-1.1-1.28-1.06c-.07-.04-.23-.07-.31-.07v-6.8c.12.09.24.17.36.26.84.65,1.7,1.27,2.51,1.95,7.93,6.4,15.01,13.9,22.03,21.5l2.1,2.28s1.98,1.9,3.92,3.76c1.95,1.86,3.89,3.65,3.76,3.45.2.17.39.33.58.49v23.92c-.36-.6-.92-1.42-1.71-2.48-2.46-3.44-6.37-7.96-6.37-7.96l-2.53-2.58c-6.75-6.88-13.41-13.81-19.27-21.32-1.31-1.68-2.59-3.39-3.8-5.14-.06-.06-.26-.14-.3-.16-.5-.14-.91-.18-1.27-.15v-6.1l.25.22c.8.69,1.57,1.42,2.34,2.15,5.55,5.27,10.59,11.17,15.68,17.07l2.03,2.35s1.92,1.97,3.85,3.87c1.93,1.9,3.87,3.7,3.74,3.5,1.67,1.46,3.2,2.51,3.72,2.51.53,0,.07-1.05-2.05-3.9Zm.64-15.8l-2.45-2.67c-7.04-7.62-14.23-15.26-22.45-21.9-.84-.71-1.73-1.36-2.61-2.03-.87-.68-1.78-1.31-2.68-1.95,0,0-.01,0-.02,0v-4.46c1.21,1.33,2.54,2.49,3.84,3.58,1.49,1.24,2.98,2.38,4.34,3.56l4.2,3.75c2.79,2.52,5.55,5.08,8.3,7.66l2.25,2.13s8.39,7.07,8.12,6.69c3.51,2.68,6.16,3.99,1.58-1.48-2.62-3.3-6.66-7.7-6.66-7.7l-2.63-2.49c-2.76-2.6-5.53-5.18-8.35-7.72l-4.25-3.8c-1.49-1.3-3-2.45-4.41-3.63-1.62-1.34-3.14-2.71-4.34-4.24-.06-.05-.25-.11-.3-.12-.71-.14-1.27-.11-1.69.02v-5.01c.81.84,1.66,1.61,2.52,2.33,2.13,1.81,4.42,3.3,6.29,4.94l6.03,5.27c4.03,3.52,8.06,7.03,12.01,10.6l2.28,2.08s2.1,1.74,4.17,3.44c.69.57,1.36,1.14,1.95,1.64v18.07c-2.31-3.15-5.05-6.59-5.05-6.59Zm-30.98,63.18c.29-.22.52-.5.67-.75.09-.12.09-.16.1-.25v-3.25c.18.19.36.38.54.58,1.38,1.5,2.8,2.98,2.8,2.98,0,0,.55.34,1.11.65.03.01.05.03.08.04h-5.29Zm7.98,0c.05-.26.02-.59-.13-1.04-.25-1.07-.86-2.29-.86-2.29,0,0-1.39-1.45-2.78-2.97-1.41-1.52-2.82-3.05-2.86-3.09-.03,0-.13.04-.16.06-.15.08-.28.16-.41.25v-3.07c.77,1.03,1.63,2.12,2.53,3.18,1.45,1.71,2.96,3.34,4.1,4.53,1.15,1.18,1.92,1.97,1.92,1.97,0,0,1.06.82,2.1,1.62.41.31.81.61,1.15.86h-4.6Zm7.55,0c-.13-.27-.3-.57-.52-.92-1.02-1.84-2.75-4.13-2.75-4.13,0,0-.76-.78-1.9-1.95-1.13-1.17-2.61-2.76-4-4.41-1.4-1.65-2.7-3.36-3.6-4.7-.91-1.33-1.45-2.28-1.48-2.33-.04-.03-.17-.04-.21-.04-.1,0-.19.02-.29.03v-9.46c1.02,1.45,2.13,2.72,3.16,3.97l.49.59c.15.19.3.37.46.58l.95,1.25,1.94,2.51c1.3,1.67,2.61,3.34,3.94,4.99l1.98,2.43s1.88,2.03,3.8,3.95c1.91,1.93,3.86,3.74,3.73,3.54,1.68,1.46,3.2,2.52,3.72,2.51.54-.01.05-1.04-2.05-3.89-2.52-3.52-5.88-8.21-5.88-8.21l-2.27-2.78c-1.31-1.63-2.6-3.28-3.89-4.94l-1.92-2.5-.96-1.27c-.15-.21-.34-.43-.52-.66l-.52-.63c-1.4-1.68-2.77-3.26-3.73-4.9-.05-.06-.23-.14-.27-.15-.95-.31-1.65-.31-2.16-.07v-9.06c1.11.94,2.18,2.01,3.24,3.12l2.33,2.44c.4.41.81.83,1.19,1.21.38.39.75.8,1.12,1.2,1.49,1.61,3.01,3.29,4.49,4.95,2.98,3.34,5.93,6.72,8.9,10.09l2.06,2.33s1.96,1.93,3.88,3.83c1.93,1.88,3.87,3.69,3.74,3.49,3.37,2.9,5.92,4.33,1.67-1.38-2.41-3.44-6.04-8.15-6.04-8.15l-2.39-2.71c-2.96-3.37-5.91-6.76-8.91-10.12-1.51-1.69-3-3.34-4.56-5.03-.39-.42-.78-.85-1.18-1.26-.42-.41-.79-.79-1.17-1.19l-2.32-2.43c-1.52-1.58-3.12-3.2-5.07-4.6-.09-.04-.32-.07-.37-.06-.23.01-.43.04-.62.08v-8.18c.16.14.31.27.47.4l.62.51.52.41,2.31,2.37c5.43,5.6,10.72,11.37,16.03,17.14l2.11,2.28s1.99,1.89,3.94,3.75c1.96,1.85,3.9,3.63,3.78,3.43,3.38,2.87,5.95,4.3,1.66-1.39-2.44-3.43-6.18-8.07-6.18-8.07l-2.45-2.66c-5.31-5.76-10.61-11.56-16.09-17.22l-2.51-2.57-.67-.53-.56-.46c-.36-.3-.73-.62-1-.9-.06-.04-.22-.05-.26-.04-.05.02-.13.02-.17.04l-.07.03c-.14.11-.3.23-.46.32-.16.09-.25.15-.35.21.03-.1.05-.2.05-.3,0-.17-.03-.33-.12-.5-.07-.08-.09-.16-.24-.24-.08-.04-.15-.07-.26-.1-.03,0-.06,0-.09,0v-7.2c.75,1.02,1.51,2.03,2.29,3.03,6.04,7.73,12.8,14.75,19.57,21.65l2.18,2.22s2.04,1.83,4.03,3.63c2,1.79,3.94,3.55,3.81,3.36,1.41,1.2,2.68,2.15,3.37,2.43v13.42s.65,10.97.74,10.52c.19,1.77.44,3.29.73,4h-21.97ZM236.19,2.31v4.79c-.12-.11-.25-.23-.39-.37-.71-.66-1.66-1.54-2.58-2.42-.4-.39-.79-.77-1.16-1.14,1.98-.22,3.63-.52,4.13-.86Zm-14.76,1.61s2.96-.18,5.74-.36c.19.24.43.54.71.85.7.8,1.64,1.76,2.59,2.67.95.91,1.9,1.78,2.6,2.44.7.65,1.16,1.08,1.16,1.08,0,0,.67.4,1.33.79.22.13.43.26.63.37v8.91c-.18-.24-.35-.49-.56-.76-1.22-1.72-2.8-3.73-4.09-5.3-1.3-1.57-2.32-2.69-2.32-2.69-.88-.85-1.76-1.7-2.68-2.52-1.89-1.72-3.86-3.37-5.96-4.89-.27-.2-.55-.39-.83-.58h1.68Zm-8.71,0c.05.12.1.23.15.32.06.14.09.15.17.19,1.82.94,3.57,2.03,5.26,3.25,1.95,1.41,3.81,2.97,5.63,4.61.76.67,1.49,1.38,2.23,2.08,0,0,2.05,1.76,4.03,3.56,1.98,1.79,3.92,3.57,3.79,3.38.82.69,1.58,1.3,2.22,1.74v8.98c-1.31-1.39-2.78-2.91-4-4.16-1.41-1.44-2.44-2.49-2.44-2.49l-2.7-2.39c-6.95-6.19-13.85-12.58-21.43-18.27-.35-.27-.71-.53-1.07-.8h8.16Zm-12.01,2.06c.87.62,1.73,1.23,2.58,1.88,7.36,5.52,14.19,11.84,21.18,18.05l2.33,2.06s2.17,1.7,4.34,3.32c2.16,1.62,4.34,3.14,4.18,2.96.3.19.59.37.88.55v9.34c-.15-.14-.31-.29-.48-.45-3-2.94-7.42-6.91-7.42-6.91l-2.83-2.23-9.28-7.43-2.33-1.87-.59-.47-.66-.49c-.44-.31-.87-.6-1.3-.88-1.71-1.12-3.36-2.12-4.88-3.24-1.63-1.2-3.14-2.52-4.01-4-.05-.05-.22-.12-.27-.13-.45-.13-.85-.2-1.21-.22v-.54s-.42-6.99-.63-9.58c.13.09.26.18.39.28Zm31.11,118.9c3.76,2.38,6.49,3.41,1.46-1.61-1.44-1.53-3.23-3.32-4.64-4.75-1.42-1.42-2.47-2.46-2.47-2.46l-2.71-2.36c-6.03-5.3-11.92-10.79-17.85-16.26l-4.66-4.28v-4.74c.8.62,1.61,1.22,2.41,1.78,1.53,1.08,3.04,2.08,4.48,3.13.72.53,1.4,1.05,2.09,1.63.7.57,1.43,1.15,2.12,1.73,2.79,2.31,5.49,4.73,8.19,7.2l2.28,2.1s2.13,1.73,4.21,3.43c2.09,1.7,4.18,3.32,4.04,3.13,1.8,1.3,3.39,2.23,3.92,2.18.53-.05-.02-1.05-2.38-3.71-1.35-1.61-3.04-3.5-4.4-4.99-1.37-1.49-2.38-2.58-2.38-2.58l-2.66-2.46c-2.71-2.49-5.47-4.96-8.33-7.33-.71-.6-1.42-1.16-2.14-1.75-.72-.6-1.49-1.19-2.25-1.75-1.53-1.12-3.07-2.14-4.53-3.18-1.68-1.18-3.27-2.39-4.66-3.75v-6.62c.69.58,1.38,1.14,2.07,1.69,6.33,5.04,12.48,10.47,18.84,15.67l2.42,1.97s2.25,1.6,4.5,3.11c2.25,1.51,4.51,2.9,4.34,2.73,1.19.68,2.29,1.22,3.07,1.51v35.35c-.22-.28-.46-.58-.73-.9-2.6-3.33-6.62-7.74-6.62-7.74l-2.61-2.5-10.05-9.65-5.02-4.83c-1.7-1.64-3.43-3.21-5.08-4.79-1.53-1.47-3.05-2.97-4.33-4.52-.06-.05-.25-.11-.3-.12-.19-.03-.36-.05-.52-.06v-5.08l2.02,1.85c5.93,5.46,11.84,10.97,17.93,16.31l2.35,2.05s2.19,1.68,4.37,3.27c2.18,1.59,4.36,3.1,4.21,2.92Zm2.67-24.76c-3.03-2.89-7.39-6.89-7.39-6.89l-2.79-2.26c-6.31-5.15-12.42-10.56-18.88-15.71-1.63-1.29-3.19-2.57-4.49-3.97v-5.88c1.23,1.14,2.51,2.16,3.79,3.13l2.39,1.78c.73.53,1.47,1.19,2.21,1.79,1.49,1.26,2.98,2.52,4.46,3.81l8.86,7.81,2.35,2.05s2.19,1.68,4.39,3.27c2.2,1.59,4.4,3.06,4.25,2.88.95.59,1.84,1.08,2.56,1.41v8.4c-.44-.44-1-.97-1.7-1.62Zm.57-9.83c-2.93-2.98-7.14-7.15-7.14-7.15l-2.71-2.36-8.86-7.82c-1.49-1.3-3-2.59-4.52-3.87-.8-.64-1.52-1.3-2.38-1.92l-2.35-1.75c-1.68-1.28-3.31-2.6-4.65-4.02-.07-.05-.25-.09-.3-.1-.47-.05-.86-.04-1.2.02v-7.26c1.19.89,2.37,1.8,3.54,2.71,6.14,4.81,12.11,9.9,18.1,14.98l2.37,2.01s2.21,1.64,4.37,3.24c2.17,1.59,4.32,3.12,4.17,2.94,1.03.67,1.98,1.24,2.71,1.61v9.86c-.33-.34-.7-.71-1.13-1.13Zm-.1-11.93c-2.84-3.1-7.11-7.25-7.11-7.25l-2.76-2.34c-5.99-5.08-11.99-10.2-18.21-15.09-1.71-1.34-3.44-2.67-5.2-3.97-.08-.04-.29-.06-.34-.06-.14,0-.27.02-.4.04v-6.61c.53.41,1.06.78,1.57,1.12.95.61,1.77,1.16,2.67,1.78,5.56,3.73,10.75,7.95,15.94,12.28l2.38,1.99s2.21,1.63,4.38,3.23c2.18,1.59,4.34,3.11,4.19,2.93,1.86,1.21,3.5,2.05,4.02,1.99.05,0,.09-.03.12-.05v11.32c-.34-.38-.75-.82-1.23-1.32Zm-1.44-13.54c-2.86-3.07-7.14-7.22-7.14-7.22l-2.77-2.33c-5.2-4.35-10.53-8.7-16.23-12.52-.88-.6-1.85-1.26-2.72-1.82-.87-.57-1.63-1.13-2.26-1.75-.06-.04-.25-.07-.29-.07-.46-.02-.84.02-1.17.08v-4.35c.53.33,1.06.65,1.58.95.96.56,1.81,1.06,2.72,1.65,5.8,3.63,11.39,7.61,16.92,11.71l2.48,1.85s2.28,1.51,4.52,3c2.24,1.48,4.43,2.93,4.28,2.76,1.05.64,2.02,1.17,2.76,1.51v9.71c-.21-.5-1.02-1.49-2.67-3.17Zm1.33-9.69c-2.95-3.01-7.46-6.93-7.46-6.93l-2.9-2.18c-5.56-4.14-11.25-8.19-17.16-11.89-.91-.58-1.91-1.18-2.83-1.71-.92-.54-1.82-1.08-2.64-1.64-.08-.03-.27-.04-.32-.03-.22.03-.41.06-.6.11v-10.24c.16.16.31.33.48.48.87.83,1.78,1.58,2.7,2.24,1.69,1.24,3.43,2.29,5.04,3.34.4.26.8.53,1.16.79l.54.39.57.46,2.31,1.85,9.31,7.44,2.45,1.93s2.26,1.57,4.51,3.06c2.24,1.5,4.48,2.91,4.32,2.74.67.39,1.31.74,1.87,1.02v10.11c-.37-.39-.81-.84-1.34-1.35Zm-34.68,113.99c.29-.22.52-.5.68-.75.09-.12.09-.16.1-.25v-1.31c.18.18.36.34.52.49.61.56,1.03.91,1.03.91,0,0,.61.3,1.21.56.34.15.66.28.89.36h-4.41Zm5.94,0c.4-.22.55-.71.11-1.63-.39-1.05-1.13-2.19-1.13-2.19,0,0-.38-.32-.92-.81-.53-.49-1.23-1.17-1.79-1.88-.29-.35-.54-.72-.75-1.05-.12-.19-.12-.24-.42-.7-.09-.12-.17-.24-.26-.36h0v-4.69c.6.8,1.24,1.64,1.9,2.46,1.32,1.64,2.69,3.22,3.73,4.39,1.04,1.16,1.73,1.93,1.73,1.93,0,0,.97.81,1.92,1.6.96.78,1.9,1.53,1.86,1.43,1.69,1.15,3.2,1.52,1.63-1.42-.86-1.8-2.38-4.06-2.38-4.06,0,0-.69-.77-1.73-1.92-1.03-1.15-2.38-2.71-3.66-4.3-1.29-1.59-2.5-3.24-3.36-4.51-.86-1.27-1.39-2.17-1.41-2.21-.03-.03-.17-.03-.21-.03-.01,0-.02,0-.03,0v-5.08c.7.99,1.42,1.95,2.16,2.9,1.82,2.32,3.73,4.55,5.7,6.71.7.78,1.42,1.54,2.13,2.31,0,0,2.01,1.9,4.02,3.7,2,1.81,3.98,3.54,3.85,3.35,3.4,2.8,6,4.23,1.63-1.42-1.25-1.7-2.85-3.67-4.12-5.23-1.27-1.56-2.2-2.7-2.2-2.7-.82-.87-1.63-1.74-2.43-2.63-1.91-2.11-3.77-4.27-5.5-6.5-1.31-1.66-2.54-3.38-3.68-5.13-.06-.06-.25-.15-.29-.16-.49-.16-.91-.21-1.26-.19v-9.09c1.36,1.58,2.89,2.7,4.2,3.83l.59.51.26.24.29.29,1.16,1.16c.77.77,1.53,1.59,2.29,2.39,1.5,1.63,2.98,3.27,4.42,4.96,2.89,3.37,5.69,6.85,8.51,10.34l1.96,2.42s1.85,2.03,3.72,3.99c1.86,1.96,3.74,3.83,3.62,3.63,1.62,1.52,3.11,2.62,3.63,2.64.54.01.1-1.05-1.91-3.97-2.3-3.51-5.71-8.37-5.71-8.37l-2.27-2.81c-2.81-3.49-5.63-7-8.58-10.43-1.46-1.72-2.98-3.41-4.52-5.08-.79-.82-1.55-1.66-2.36-2.47l-1.21-1.22-.3-.3-.35-.33-.68-.59c-.87-.73-1.68-1.38-2.44-2.06-.74-.67-1.42-1.35-1.89-2.04-.05-.05-.23-.1-.27-.11-.92-.17-1.62-.19-2.13.05v-7.48c.64.62,1.28,1.22,1.92,1.79l2.34,2.08,2.27,2.11c1.51,1.43,3,2.88,4.48,4.35,2.96,2.93,5.86,5.93,8.74,8.96l2.13,2.25s1.99,1.88,3.95,3.72c1.95,1.84,3.88,3.64,3.75,3.44,3.33,2.9,5.89,4.37,1.67-1.38-2.4-3.46-6.19-8.09-6.19-8.09l-2.49-2.64c-2.9-3.05-5.82-6.08-8.82-9.05-1.49-1.49-3.01-2.96-4.54-4.41l-2.33-2.18-2.36-2.09c-1.58-1.41-3.06-2.83-4.17-4.37-.06-.06-.24-.12-.28-.13-.02,0-.04,0-.06,0v-4.86c.81.84,1.63,1.64,2.46,2.43,1.7,1.64,3.42,3.19,5.06,4.78l5.03,4.83,10.07,9.66,2.24,2.15s8.36,7.12,8.09,6.74c.85.66,1.65,1.23,2.3,1.65v13.71s.65,10.97.74,10.52c.19,1.77.44,3.29.73,4.01h-31.56Z"/>
  </g>
</svg>