<?xml version="1.0" encoding="UTF-8"?>
<svg id="uuid-20ecff92-bf6b-4b54-a1a4-daee2b279f3b" data-name="Camada 2" xmlns="http://www.w3.org/2000/svg" viewBox="0 0 159.61 143.36">
  <defs>
    <style>
      .uuid-ce337d13-6105-4f3f-8624-144147326617 {
        fill: #202020;
        stroke-width: 0px;
      }
    </style>
  </defs>
  <g id="uuid-e0f0c4c3-d13d-4505-ab40-00dfbea2f2bd" data-name="Object">
    <path class="uuid-ce337d13-6105-4f3f-8624-144147326617" d="m56.12,112.28c.17.22.39.4.6.58.23.18.51.33.82.42.62.16,1.17.07,1.66,0,.95-.14,1.92-.2,2.9-.29,1.95-.17,3.91-.32,5.86-.57.49-.06.98-.13,1.47-.21l.63-.1.18-.03c.06,0,.03-.11.05-.16l.04-.37.1-.84c.13-.96.3-1.94.4-2.93.06-.51.09-.98.13-1.5.02-.53,0-1.03-.03-1.52-.02-.49-.05-.97-.05-1.44v-.21c.01-.16.02-.33.04-.49.04-.32.1-.63.22-.89,0-.02,0-.07-.01-.07-.03-.08-.06-.15-.09-.21.13.04.46.03,1.06-.11.53-.12,1.15-.32,1.64-.48.48-.16.84-.29.84-.29,0,0,.13-.06.36-.15.12-.05.25-.1.42-.17l.12-.04c.24-.09.49-.18.74-.25.49-.15,1.02-.26,1.45-.19.96.18,1.99.89,2.98,1.62,1.01.75,1.98,1.62,3.12,2.49.29.2.58.4.87.6.31.19.61.44,1.13.54.26.05.54,0,.75-.06.21-.07.4-.15.57-.24.35-.18.65-.34.99-.55.66-.41,1.25-.89,1.84-1.35.58-.46,1.2-.89,1.82-1.35,1.24-.93,2.5-1.94,3.59-3.19.14-.15.27-.32.4-.48l.26-.33c.11-.16.33-.31.15-.5-.21-.43-.42-.86-.62-1.29-.35-.73-.71-1.46-1.07-2.2-.37-.75-.68-1.47-1.11-2.24-.26-.48-.55-.95-.76-1.41v-1.99c.12-.22.27-.45.45-.7.45-.73.88-1.45,1.34-2.16.46-.69.94-1.41,1.48-1.94.43-.48,1.23-.48,2.03-.41,1.62.16,3.24.75,4.98,1.03l1.26.21c.43.06.87.14,1.4.09.26-.03.56-.12.8-.28.25-.15.42-.36.58-.55.3-.39.51-.78.71-1.16.42-.78.72-1.55,1.08-2.31.35-.76.69-1.54,1-2.32.31-.78.58-1.59.79-2.4.2-.8.43-1.67.25-2.63-.09-.48-.34-.95-.67-1.29-.33-.35-.7-.59-1.05-.8-.72-.42-1.39-.75-2.03-1.16-.66-.42-1.36-.79-1.98-1.18-.63-.38-1.18-.8-1.52-1.32-.69-1.05-.37-2.49-.07-3.83.15-.68.31-1.37.38-2.09.02-.18.03-.36.04-.54v-.07s0-.09,0-.09c0-.22,0-.42-.02-.61.02-.01.04-.03.05-.04,0,0,0,0,0,0,0,0,0,0,0,0,.02-.02.03-.05.04-.08.16.01.47-.02.99-.11,1.05-.15,2.54-.51,2.54-.51l.84-.28.26-.09c.27-.1.53-.19.79-.3.53-.2,1.05-.44,1.56-.7.51-.27,1.02-.56,1.49-.96.24-.19.45-.43.66-.68.17-.28.36-.58.44-.92.16-.66.12-1.25.07-1.83-.05-.58-.15-1.14-.26-1.7-.1-.55-.26-1.11-.32-1.61l-.21-1.65c-.14-1.11-.29-2.22-.56-3.34-.07-.28-.14-.56-.25-.85-.1-.28-.23-.59-.5-.9-.57-.53-1.19-.67-1.76-.8-1.16-.22-2.29-.24-3.4-.26l-1.65-.03c-.54-.02-1.09-.04-1.54-.16-.48-.12-.89-.34-1.22-.66-.33-.33-.58-.76-.79-1.24-.21-.48-.38-1-.56-1.53-.18-.54-.38-1.04-.48-1.53-.1-.5-.07-.87.15-1.3.22-.43.56-.9.86-1.35.63-.89,1.28-1.82,1.89-2.75.62-.93,1.22-1.88,1.79-2.85l.49-.86.1-.18s.04-.06.04-.09l-.05-.09-.21-.34-.25-.4c-.31-.47-.63-.93-.95-1.39-.65-.91-1.32-1.81-2.03-2.69-.65-.8-1.22-1.81-1.89-2.71-.34-.46-.69-.91-1.11-1.34-.43-.41-.84-.85-1.58-1.07-.4-.1-.71-.05-1.02-.02-.3.05-.59.12-.87.2-.56.17-1.09.37-1.61.59-.52.22-1.03.45-1.54.68-.51.24-.98.42-1.53.67-.52.23-1.03.5-1.5.73-.49.23-.88.37-1.27.25-.42-.11-.87-.38-1.32-.68l-1.38-.92c-.72-.5-1.41-1.06-1.88-1.7v-5.72c.07-.33.13-.65.19-.98.12-.59.14-1.14.2-1.71.02-.29.04-.58.02-.89-.02-.31-.05-.67-.26-1.03-.21-.35-.52-.57-.8-.73-.28-.16-.56-.27-.82-.37-.54-.21-1.07-.37-1.56-.57-2.02-.81-4-1.85-6.1-2.67-.71-.28-1.44-.53-2.19-.72-.09-.03-.19-.05-.28-.07l-.51-.11c-.47-.28-.46.35-.64.64-.16.34-.32.65-.5.98-.71,1.3-1.47,2.6-2.22,3.89l-1.23,2.11c-.2.35-.4.69-.59,1.05,0,.02,0,.08,0,.09.02.09.04.16.06.22-.15-.06-.35-.13-.61-.18-.53-.13-1.19-.2-1.7-.24-.51-.04-.89-.07-.89-.07h-.64s-.16,0-.16,0h-.08s-.37-.02-.37-.02c-.22,0-.42-.04-.63-.05-.83-.11-1.6-.33-2.08-.9-.51-.55-.8-1.36-1.03-2.19-.23-.83-.39-1.71-.59-2.59-.21-.88-.43-1.79-.93-2.66-.45-.9-1.58-1.59-2.62-1.51-.99.02-1.87.28-2.73.47-1.63.42-3.42.22-5.24.39-.46.04-.92.1-1.39.21-.23.05-.47.13-.71.21-.23.13-.49.24-.69.41-.85.69-1.2,1.7-1.39,2.61-.36,1.86-.23,3.68-.23,5.44,0,.44,0,.88-.04,1.3,0,.1-.02.22-.03.3,0,0,0,0,0,0l-.39.16c-.84.35-1.65.74-2.46,1.13l-1.2.59c-.4.21-.79.33-1.26.65-.41.3-.7.58-.92.59-.13.02-.25,0-.46-.06-.13-.04-.31-.13-.47-.23-.68-.44-1.34-1.04-1.97-1.64l-.97-.93-.13-.12s-.14-.12-.17-.14l-.26-.2-.53-.4c-.72-.52-1.38-1.15-2.41-1.5-.51-.17-1.15-.13-1.64.09-.5.21-.88.53-1.23.85l-.49.46c-.15.14-.31.27-.48.4-.33.25-.69.48-1.07.71-.75.45-1.55.92-2.28,1.47-.73.53-1.45,1.07-2.14,1.69-.17.15-.34.32-.51.49-.16.19-.34.34-.49.7-.03.09-.06.2-.07.29v.23c0,.16.03.27.04.41.05.25.12.49.19.71.31.89.71,1.7,1.11,2.51l.59,1.19c.16.36.32.81.5,1.22.27.66.57,1.31.74,1.92.16.61.08,1.16-.18,1.76-.26.59-.66,1.16-1.05,1.74-.39.57-.81,1.12-1.26,1.65-.45.52-.93,1.02-1.44,1.49-.11.1-.32.28-.26.23h0l-.21-.04-1.02-.23c-1.36-.32-2.72-.72-4.08-1.11l-2.05-.58-.53-.14c-.33-.05-.75-.34-.87.13l-.67,1.06c-.76,1.21-1.5,2.44-2.17,3.71-.68,1.27-1.29,2.58-1.77,3.95-.25.68-.45,1.38-.63,2.09-.07.36-.17.71-.22,1.07l-.15.88v.07s.03.02.05.03l.12.05.24.1.39.16c1.23.55,2.36,1.38,3.5,2.21.58.42,1.16.84,1.77,1.23.16.1.31.2.47.29l.21.12.06.03c.15.09.32.17.48.25.32.16.66.32,1.01.44.02,0,.05,0,.07,0-.02.1-.05.21-.07.33-.15.76-.14,1.73-.18,2.2h0c-.02.24-.03.38-.03.38v.41s-.04.24-.04.24v.12s-.04.38-.04.38v.03c-.07,1.01.05,2.02-.33,2.68-.18.34-.5.64-.85.9-.36.23-.78.44-1.21.62-1.75.71-3.66,1.11-5.57,1.43l-1.77.27-.17.02s0,.12-.02.17v.37S0,58.3,0,58.3c0,.25,0,.5.02.76.04,1,.16,1.99.27,2.97.12.98.23,1.94.31,2.9.05.96.07,1.95.16,2.96.05.5.11,1.01.28,1.55.11.27.16.55.52.87.08.09.2.13.31.17.09.02.18.05.25.05.16.03.29.03.43.03.54,0,1.04-.05,1.52-.1l.35-.03c.06,0,.23,0,.34,0,.25,0,.5-.01.75-.03.99-.06,1.96-.13,2.92-.16.96-.03,1.93-.02,2.8.16.41.09.86.29.93.45.17.32.3.82.42,1.27.25.94.41,1.88.71,2.89.28.94.72,1.89.75,2.69.01.4-.09.84-.24,1.25-.16.4-.39.82-.63,1.22-1.01,1.61-2.32,3.06-3.55,4.61-.3.38-.64.79-.89,1.29-.26.48-.43,1.13-.3,1.75.13.61.45,1.07.75,1.49.31.42.63.79.93,1.17l1.86,2.28c.64.76,1.28,1.52,2.12,2.19.21.16.47.32.69.43.24.12.51.25.84.31.33.06.68,0,.94-.08.27-.08.51-.18.74-.27.93-.36,1.82-.84,2.69-1.26.87-.43,1.75-.85,2.64-1.19.44-.17.89-.32,1.32-.42.22-.05.43-.08.61-.07.09,0,.17,0,.23.03.05,0,.18.08.26.11.79.42,1.58,1.02,2.34,1.61.76.59,1.51,1.22,2.17,1.88.16.16.32.35.4.46,0-.03.04.1.07.21.02.11.07.21.07.32.05.41.03.85-.06,1.3-.17.9-.52,1.81-.84,2.73-.33.93-.67,1.88-.81,2.93-.08.52-.08,1.07.02,1.63.09.55.41,1.13.79,1.53.79.79,1.73,1.25,2.66,1.64.93.39,1.88.69,2.83.97.95.28,1.89.52,2.8.83.5.14.99.3,1.55.34.54.05,1.19-.02,1.71-.36.52-.33.84-.78,1.14-1.18.29-.41.57-.8.86-1.17.29-.38.62-.71.94-1.13l.9-1.16c.59-.76,1.21-1.38,2.02-1.53.41-.09.84-.08,1.3-.03.51.06,1.01.09,1.51.11.99.03,1.97-.02,2.67.34.7.35,1.15,1.19,1.53,2.04.37.87.67,1.81,1.02,2.74.37.93.74,1.88,1.45,2.74Zm38.75-15.64h0c0,.24,0,.47,0,.7h0v-.7Zm8.79-38.07s.07-.03.08-.04c-.02,0-.04.02-.08.04h0Zm-38.1-19.5c2.29.96,4.46,2.35,6.3,4.12,1.84,1.77,3.35,3.94,4.4,6.34.3.58.47,1.22.7,1.84.24.61.37,1.26.53,1.9.34,1.28.5,2.6.58,3.93.13,2.65-.2,5.34-1.04,7.87-.84,2.52-2.26,4.84-4.12,6.71-.92.95-1.97,1.77-3.06,2.53-1.08.76-2.23,1.43-3.42,2-1.18.59-2.4,1.08-3.65,1.46-1.24.39-2.51.69-3.78.82-1.28.14-2.53.12-3.8-.05-1.27-.15-2.51-.42-3.71-.78-2.4-.71-4.63-1.84-6.57-3.29-.97-.72-1.89-1.5-2.71-2.35-.22-.2-.41-.43-.61-.64-.2-.21-.4-.43-.57-.66-.36-.45-.69-.93-1.01-1.41-1.26-1.94-2.3-3.98-2.96-6.05-.32-1.03-.58-2.07-.63-3.09,0-.31,0-.62,0-.92.04-.41.08-.75.13-.99.07-.23.11-.37.11-.38,0-.02-.01-.07-.02-.08-.18-.41-.42-.48-.63-.43.02-.16.04-.37.08-.64.05-.26.1-.55.16-.84.06-.29.06-.62.11-.85.08-.49.14-.85.14-.85,0,0,.01-.14.03-.38,0-.12.02-.27.06-.43.09-.45.19-.91.28-1.39.27-.81.51-1.65.91-2.46.76-1.63,1.78-3.26,3.11-4.75,1.32-1.49,2.88-2.88,4.67-4.08,1.78-1.19,3.79-2.21,5.97-2.83,4.35-1.15,9.46-.83,14.04,1.09Zm-.23,38.83v.31l-.13-.18s-.03-.02-.03-.02c-.04,0-.06,0-.09,0,.09-.04.17-.07.26-.11Zm-11.51,27.13c-.3-.45-.72-.88-1.25-1.14-.52-.27-1.09-.36-1.6-.4-.52-.04-1.01-.04-1.49-.05-.48-.01-.95-.04-1.42-.1-.52-.06-1.07-.08-1.63.04-.56.11-1.09.39-1.51.74-.43.35-.77.75-1.08,1.15l-.9,1.16c-.27.36-.63.73-.94,1.13-.63.77-1.14,1.72-1.76,2.13-.59.4-1.55.19-2.42-.08-.95-.32-1.9-.57-2.83-.84-.93-.27-1.85-.56-2.73-.93-.87-.36-1.72-.81-2.32-1.41-.28-.32-.46-.62-.54-1.04-.07-.41-.08-.85-.01-1.3.12-.9.44-1.81.76-2.73.32-.92.69-1.85.88-2.89.1-.51.14-1.06.07-1.63-.01-.14-.06-.26-.09-.4-.03-.13-.05-.24-.18-.48-.19-.31-.37-.47-.55-.66-.73-.72-1.48-1.35-2.27-1.97-.79-.61-1.57-1.2-2.5-1.71-.14-.06-.23-.12-.41-.18-.18-.06-.33-.07-.49-.08-.31,0-.58.04-.85.09-.52.12-1.01.28-1.47.46-.94.36-1.83.79-2.72,1.23-.89.43-1.73.89-2.63,1.23-.45.18-.87.35-1.15.29-.3-.05-.76-.31-1.09-.55-.7-.55-1.34-1.29-1.96-2.03l-1.86-2.27c-.6-.76-1.31-1.51-1.48-2.24-.16-.7.38-1.46.99-2.21,1.2-1.52,2.54-2.99,3.61-4.71.53-.85,1.04-1.85,1.02-3.02-.02-.58-.18-1.1-.34-1.58l-.47-1.39c-.26-.88-.44-1.87-.7-2.83-.14-.49-.23-.96-.52-1.51-.03-.06-.09-.15-.16-.24-.07-.1-.14-.13-.2-.18-.13-.1-.27-.2-.41-.24-.27-.14-.54-.2-.8-.27-1.05-.21-2.05-.21-3.05-.18-.99.03-1.98.11-2.94.16-.24.01-.48.02-.72.03-.13,0-.21,0-.39,0l-.38.04c-.48.05-.96.1-1.4.1-.11,0-.22,0-.3-.02-.05,0-.08-.02-.11-.02,0,0,0,0,0,0-.02,0-.13-.21-.19-.39-.12-.4-.19-.88-.23-1.35-.09-.95-.11-1.92-.16-2.92-.09-1-.2-1.98-.32-2.95-.12-.97-.23-1.94-.27-2.89,0-.24-.02-.48-.02-.72v-.2s0,0,0,0l1.13-.18c1.95-.34,3.9-.73,5.78-1.5.47-.2.93-.43,1.39-.72.44-.32.86-.7,1.15-1.23.3-.53.37-1.12.4-1.63l.05-1.47v-.03s.03-.34.03-.34v-.1s.03-.19.03-.19c.02-.17.02-.31.02-.44,0,0-.01-.22-.03-.54h0c-.03-.41-.1-.97-.14-1.41-.04-.43-.05-.75-.06-.72-.02-.28-.02-.54-.03-.74.07-.2-.04-.42-.12-.54-.02-.03-.03-.04-.05-.04-.31-.11-.61-.24-.9-.39-.15-.08-.3-.15-.44-.23l-.05-.03-.2-.11c-.15-.08-.29-.18-.44-.27-.58-.37-1.15-.78-1.72-1.2-1.15-.83-2.32-1.7-3.69-2.31l-.1-.04.03-.17c.05-.34.14-.68.21-1.01.17-.67.36-1.34.6-1.99.46-1.31,1.06-2.58,1.72-3.82.66-1.24,1.38-2.45,2.13-3.65l.47-.75h0s.5.13.5.13l2.04.57c1.36.39,2.73.79,4.13,1.12l1.05.23.31.06.26.05s.09.02.13.02l.1-.09c.33-.28.39-.33.54-.47.54-.49,1.05-1.02,1.52-1.57.47-.55.92-1.13,1.33-1.73.4-.6.82-1.19,1.14-1.9.15-.36.29-.74.33-1.17.05-.42,0-.85-.09-1.23-.21-.76-.52-1.41-.78-2.06-.17-.4-.31-.79-.5-1.22-.2-.42-.39-.8-.59-1.19-.38-.77-.76-1.55-1.04-2.32-.13-.37-.25-.8-.23-1.05.02-.03-.01-.03.04-.1.03-.05.09-.13.15-.2.12-.14.27-.29.42-.43.61-.56,1.3-1.09,1.99-1.6.69-.52,1.38-.96,2.14-1.41.74-.44,1.54-.93,2.2-1.6.58-.58,1.24-1.09,1.85-1.05.63.03,1.33.58,2.01,1.08l1.04.79.24.18.22.2.47.45c.63.6,1.26,1.21,1.98,1.77.37.27.73.56,1.27.74l.22.06.16.03c.14.02.29.03.45.01.31-.03.62-.17.83-.32.43-.31.65-.54,1.02-.69l1.18-.57c.78-.38,1.56-.77,2.33-1.12l.59-.26.64-.26.29-.11c.08-.05.23-.03.21-.18l.07-.58c.03-.23.03-.45.05-.68.06-1.79-.08-3.51.08-5.19.08-.83.24-1.65.6-2.32.36-.69.92-1.02,1.73-1.18,1.6-.32,3.35-.17,5.14-.33.93-.07,1.79-.37,2.6-.52.82-.16,1.64-.3,2.23.04.6.28.99,1,1.25,1.77.27.78.44,1.62.62,2.47.19.85.37,1.72.7,2.59.32.85.86,1.78,1.79,2.27.06.03.12.05.17.07l-.07.58-2.81,23.75s-.07,1.24-.06,1.19c0,.2,0,.36.03.44-1.1.02-2.19.1-3.25.26-2.34.4-4.49,1.26-6.41,2.33-1.93,1.08-3.64,2.37-5.12,3.78-1.47,1.43-2.7,2.98-3.68,4.57-1,1.59-1.64,3.28-2.06,4.91-.09.45-.18.87-.26,1.26-.02.08-.03.15-.03.21-.02.26-.03.41-.03.41,0,0,0,.18,0,.45,0,.27-.03.64,0,.97.03.63,0,1.34.03,1.27.01.36.09.67.18.88,0,0,0,.02-.01.03,0,.02-.05.18-.13.46-.06.28-.11.67-.16,1.14,0,.2,0,.41,0,.62.02,1.12.23,2.24.54,3.32.65,2.17,1.65,4.26,2.92,6.27.31.5.65,1,1.01,1.48.35.5.76.97,1.18,1.4.84.88,1.74,1.73,2.72,2.49,1.97,1.53,4.22,2.8,6.67,3.61,1.23.41,2.49.72,3.79.93,1.28.21,2.62.33,3.96.24,2.29-.14,4.53-.73,6.67-1.57-.04.06-.05.13-.04.18,0,.02,0,.02,0,.03l.44.59.05.07,1.41,1.89.44.59,1.41,1.89.44.59,1.41,1.89.44.59,1.41,1.89.44.59,1.41,1.89.44.59,1.41,1.89.44.59,1.41,1.89.44.59,1.41,1.89.44.59,1.41,1.89v.14c-.74-.57-1.49-1.09-2.29-1.52-.54-.27-1.13-.51-1.81-.53-.65,0-1.19.16-1.7.32-.29.11-.57.21-.82.3-.07.03-.14.06-.2.08-.23.1-.37.15-.37.15,0,0-2.26,1.14-2.37,1.2-.48.25-.88.43-.96.55-.07-.1-.15-.16-.24-.19-.16-.05-.34.03-.46.12-.04.02-.04.03-.05.06-.17.39-.24.78-.29,1.16-.03.19-.03.38-.04.57v.23c-.01.51.02,1.01.04,1.5.02.49.05.97.03,1.42-.03.46-.06.97-.12,1.44-.1.96-.27,1.92-.4,2.9l-.08.62h0s0,0,0,0h-.09c-.48.09-.96.15-1.44.22-1.93.24-3.87.4-5.82.56-.98.09-1.95.15-2.94.3-.48.07-.92.12-1.26.02-.17-.05-.33-.13-.48-.25-.16-.14-.32-.27-.45-.44-.55-.66-.93-1.56-1.28-2.45-.35-.9-.64-1.83-1.04-2.77-.21-.47-.43-.93-.74-1.38Z"/>
    <path class="uuid-ce337d13-6105-4f3f-8624-144147326617" d="m152.01,121.05c.16-.46.34-.95.56-1.29.12-.22.54-.34,1-.4.47-.06.96-.06,1.47-.06h.78c.13-.01.27-.02.41-.03l.38-.03c.25-.02.51-.04.79-.07.27-.04.63-.08.98-.37.32-.3.41-.63.5-.89.08-.27.14-.53.2-.79l.28-1.52c.18-1.02.32-2.07.24-3.19-.03-.3-.09-.61-.25-.92-.15-.32-.45-.59-.74-.74-.59-.29-1.08-.35-1.56-.5-.92-.34-2.1-.49-2.61-1-.52-.5-.45-1.55-.5-2.6-.02-.29-.05-.59-.11-.89-.03-.15-.07-.3-.12-.45,0-.02-.01-.03-.02-.05.17-.04.44-.15.83-.32.49-.2,1.08-.49,1.54-.74.46-.25.79-.48.79-.48.25-.19.49-.39.72-.62l.03-.03c.06-.06.12-.12.18-.19.12-.12.23-.27.33-.42.2-.31.38-.73.34-1.17-.08-.78-.37-1.35-.63-1.93-.13-.29-.29-.57-.38-.81l-.33-.86c-.23-.58-.46-1.16-.75-1.75-.16-.3-.28-.58-.61-.91-.43-.36-.86-.35-1.21-.37-.71,0-1.32.16-1.93.29-.6.13-1.22.3-1.75.37-.52.06-.91-.07-1.25-.45-.34-.37-.67-.95-1-1.44-.15-.24-.26-.47-.28-.64-.02-.16.05-.4.15-.69.41-1.13.89-2.31,1.26-3.5l.14-.45.15-.52.12-.45-.33-.32-.4-.37c-.47-.42-.95-.82-1.44-1.22-.24-.19-.5-.39-.75-.57l-.65-.59c-.47-.42-.94-.85-1.54-1.2-.15-.09-.31-.17-.5-.23-.18-.06-.39-.13-.68-.1-.46.08-.75.26-1.04.42-.57.35-1.06.75-1.55,1.13l-.73.56c-.26.2-.5.41-.72.6-.23.2-.4.3-.54.31-.16.02-.44-.05-.69-.14-.59-.21-1.17-.4-1.67-.64-.25-.12-.48-.27-.65-.43-.18-.17-.26-.31-.35-.57-.16-.5-.21-1.11-.25-1.7-.05-.6-.03-1.22-.13-1.89-.05-.31-.09-.62-.2-1-.07-.19-.18-.42-.38-.6-.21-.19-.44-.26-.62-.3-.74-.15-1.28-.13-1.88-.25-1.19-.19-2.4-.48-3.67-.61-.22-.02-.44-.04-.67-.05h-.34c-.2-.01-.42,0-.63,0h-.16s-.06,0-.07.01v.08s-.05.33-.05.33c-.02.11-.03.21-.05.32l-.04.16-.15.61c-.22.82-.46,1.63-.7,2.45l-.46,1.6s.01.08.02.09c.05.11.1.18.15.25-.18-.02-.43-.03-.77,0-.54.04-1.18.16-1.66.21-.49.05-.8.03-.8.03-.14,0-.26,0-.38-.03-.05-.02-.12-.02-.16-.05l-.08-.03s-.03,0-.04-.02l-.12-.07c-.06-.03-.11-.07-.16-.12-.42-.37-.74-1.04-1.06-1.67-.33-.65-.61-1.35-1.22-1.99-.16-.15-.34-.31-.57-.41-.11-.06-.23-.11-.35-.12-.12-.02-.25-.06-.37-.06-.52,0-.9.17-1.26.32-.35.16-.68.34-.99.5-.29.14-.6.25-.94.35-.68.2-1.4.36-2.13.65-.36.16-.74.32-1.1.72-.32.39-.44.86-.48,1.28-.07.85.1,1.6.27,2.32.17.72.39,1.42.51,2.08,0,.04,0,.01,0,.02l-.38.28c-.3.23-.58.47-.86.7l-.83.7-.21.17c-.06.05-.19.17-.25.24-.15.17-.25.32-.31.37-.07.05-.02.04-.21.05-.03,0-.19-.02-.33-.08-.29-.1-.61-.26-.91-.43l-.94-.53-.13-.07s-.05-.03-.1-.05l-.07-.03-.25-.1-.5-.22c-.34-.14-.68-.3-1.14-.38-.22-.04-.5-.04-.76.04-.27.07-.48.23-.66.39-.17.16-.3.33-.42.5l-.29.46c-.18.26-.4.5-.66.76-.51.49-1.05,1.08-1.49,1.66-.23.29-.46.59-.67.93-.05.09-.11.17-.16.28-.03.05-.05.11-.08.17-.03.07-.06.17-.07.26-.02.18.02.38.07.49.04.12.09.22.15.32.42.72.92,1.25,1.39,1.81.12.14.23.26.32.39l.32.44c.22.29.45.58.61.85.17.27.23.48.22.75,0,.27-.1.59-.22.92-.23.67-.5,1.31-.84,1.91-.08.15-.17.3-.27.44l-.14.21s0,0,0,0h-.31s-.53.02-.53.02c-.71,0-1.43-.02-2.16-.05l-1.09-.03h-.78c-.08,0-.19-.03-.26,0l-.08.23-.15.46-.35,1.09c-.11.35-.21.7-.31,1.06-.39,1.43-.68,2.91-.65,4.44v.29s.01.07.01.07v.13s.03.25.03.25l.04.5c.17.03.36.06.53.08l.13.02h.07s.03.02.03.02l.12.03c.08.02.16.04.24.06.16.04.33.09.49.15.66.22,1.31.52,2.01.78.53.2,1.09.37,1.69.46.03,0,.08-.02.09-.03.04-.03.07-.05.1-.08,0,.16.02.35.05.58.05.34.12.71.16,1.04,0,.08.02.18.02.23,0,.09.01.18.02.26.01.17.03.32.05.45h0c.05.35.08.55.08.55.04.24.06.43.02.59h0s-.01.05-.01.05h0s-.03.08-.03.08c-.04.11-.11.22-.19.33-.33.42-.92.81-1.48,1.13-.57.33-1.18.63-1.8.9l-1.22.52-.12.05s-.11.02-.07.07l.06.25.11.47c.04.18.05.21.08.31l.08.26c.42,1.37,1.02,2.59,1.35,3.9.1.34.21.67.34,1.02.07.17.14.35.24.53.05.09.11.18.19.29.11.11.24.24.39.31.15.08.33.07.49.06.14-.02.22-.04.32-.07.19-.05.36-.11.53-.17.16-.06.35-.13.45-.16.17-.04.35-.09.51-.14.67-.21,1.31-.43,1.95-.59.32-.08.64-.16.94-.19.15-.02.3-.03.43-.02.13,0,.26.05.27.05-.03-.03.1.11.17.23.08.13.16.27.24.42l.47.91c.31.65.81,1.26,1.03,1.75.1.23.12.48.09.77-.03.27-.12.59-.22.89-.21.62-.49,1.23-.79,1.85l-.44.94c-.13.31-.31.64-.4,1.07-.12.4-.02,1.02.28,1.37.28.36.58.58.86.79.8.59,1.55,1.19,2.41,1.76.22.14.45.28.7.4.13.06.27.12.42.16.14.04.26.07.43.1.17.02.38.02.57-.05.19-.06.33-.15.45-.23.24-.16.41-.29.63-.46.8-.65,1.5-1.3,2.28-1.85.19-.14.38-.26.57-.36.18-.1.38-.16.43-.15.12.01.38.09.59.16.22.08.44.16.66.26.44.19.88.39,1.3.61.21.11.42.22.6.34.08.05.19.13.16.11.02.05.08.13.11.21.26.7.07,1.72,0,2.71-.04.51-.07,1.04.03,1.6.05.28.13.57.29.85.06.14.17.28.3.4.12.13.25.2.38.3.52.31,1.06.44,1.57.53.52.09,1.02.13,1.53.16l1.48.06.73.04c.28,0,.54.01.85-.04.29-.05.64-.17.91-.41.27-.25.41-.54.53-.78.21-.5.36-.91.58-1.33.48-.92.71-1.94,1.35-2.2.16-.07.35-.13.56-.16.23-.03.51-.07.76-.13.5-.1.99-.25,1.36-.25.68-.06,1.24.75,1.77,1.56.27.41.55.83.88,1.24.32.4.72.85,1.31,1.09.31.14.73.16,1.03.07.31-.08.53-.19.76-.27.43-.16.91-.32,1.37-.48.93-.32,1.87-.64,2.8-.99l.76-.3.45-.19.37-.16c.06-.03.13-.05.18-.08l-.03-.2c-.03-.23-.05-.4-.07-.52v-5.92c.43-.25.9-.54,1.27-.75.43-.24.72-.33.72-.33.12-.05.22-.07.32-.08h.18s.1.01.1.01h.05s.07.01.12.02l.16.03c.9.23,1.8.69,2.74,1.13.23.11.5.23.74.31.25.09.46.19.8.27.17.04.43.05.64-.04.21-.08.35-.19.46-.28.23-.19.4-.35.61-.56.39-.41.69-.84,1-1.22.31-.38.66-.78.98-1.19.32-.41.63-.84.91-1.3.14-.23.27-.47.39-.71l.1-.2.15-.35.08-.18c.02-.06-.07-.1-.09-.15l-.25-.3-1.99-2.38c-.36-.41-.76-.77-.95-1.09-.1-.16-.12-.28-.12-.45,0-.17.06-.37.15-.57l.48-1.49Zm-12.89-8.4c-.18,1.43-.64,2.82-1.41,4.02-.76,1.22-1.76,2.3-2.86,3.22-.55.46-1.13.89-1.74,1.25-.6.37-1.23.7-1.88.94-1.27.51-2.68.63-4.04.63-2.72-.06-5.33-1.08-7.26-2.62-.95-.81-1.8-1.73-2.49-2.7-.35-.48-.64-.98-.88-1.48-.05-.13-.12-.25-.16-.38l-.02-.06-.03-.07c-.07-.19-.13-.37-.16-.53-.05-.16-.07-.3-.07-.41-.03-.23-.03-.36-.02-.38,0-.02-.03-.06-.04-.07-.21-.23-.4-.33-.56-.3,0,0-.01,0-.02,0-.02-.17-.04-.42-.04-.8,0-.13-.02-.29-.04-.44,0-.14-.01-.28-.02-.42-.02-.28-.04-.54-.02-.79,0-.24.02-.45.02-.6.02-.15.03-.24.03-.24,0,0,0-.14.03-.38.01-.12,0-.27.04-.43.05-.25.09-.52.14-.79.13-.45.22-.91.42-1.37.33-.93.82-1.85,1.43-2.75,1.21-1.78,2.99-3.51,5.26-4.42,2.31-.87,5.04-1.2,7.67-.53,2.63.63,5.08,2.28,6.66,4.65,1.6,2.34,2.4,5.34,2.07,8.2Zm-.82-24.58l-6.11,9.97-.64,1.05s0,0,0,0c-1.37-.45-2.79-.65-4.17-.65-1.39,0-2.73.25-3.99.61-1.27.34-2.46.96-3.46,1.69-1,.74-1.85,1.6-2.57,2.49-.73.89-1.31,1.83-1.76,2.78-.47.94-.77,1.9-.97,2.82-.04.23-.08.46-.12.68,0,.04-.02.08-.02.12,0,.08-.01.15-.02.22-.02.26-.03.41-.03.41,0,0-.01.18,0,.46.03.27.06.64.11.99.08.35.17.7.23.95.08.21.11.35.11.33.08.26.15.52.25.71.03.07.07.11.1.16-.05.05-.09.09-.11.14-.03.04-.03.05-.03.07-.01.04-.02.74.31,1.64l.03.08.02.04v.04c.04.08.07.15.1.22.24.58.57,1.12.92,1.65.72,1.04,1.57,2.01,2.57,2.89.25.22.51.43.8.64.28.18.57.38.86.55.59.35,1.21.66,1.86.92,1.29.53,2.71.85,4.16.93.72.05,1.46.02,2.19-.06.72-.08,1.48-.19,2.2-.45.16-.05.32-.13.48-.19.11.52.26.99.41,1.45.7,2.31,1.35,4.69,2.03,7.04l1.01,3.53c.16.59.34,1.18.52,1.76l.32,1.05s.97,2.61.96,2.49c.03.06.05.12.08.18-.28.1-.56.2-.86.31-.24.09-.46.19-.63.23-.18.04-.27.04-.41-.02-.33-.13-.63-.44-.92-.8-.29-.36-.55-.76-.83-1.17-.27-.41-.56-.85-.95-1.25-.19-.2-.42-.4-.72-.54-.29-.15-.63-.22-.94-.21-.62.02-1.08.19-1.54.27-.24.05-.44.08-.7.12-.28.04-.57.11-.85.24-.59.26-.98.84-1.2,1.31-.23.48-.39.93-.61,1.34-.24.45-.43.97-.6,1.38-.2.43-.31.55-.7.62-.18.03-.41.03-.63.03l-.74-.04-1.47-.05c-.94-.06-1.95-.15-2.62-.54-.57-.31-.62-1.31-.54-2.24.04-.48.1-.97.13-1.49.02-.52.03-1.08-.2-1.67-.06-.15-.13-.28-.24-.43l-.12-.14-.1-.08c-.07-.06-.12-.09-.18-.13-.23-.15-.46-.27-.68-.39-.45-.23-.91-.45-1.38-.64-.23-.1-.47-.19-.72-.28-.26-.08-.47-.17-.84-.21-.45-.01-.71.15-.97.26-.24.13-.47.28-.68.43-.84.59-1.58,1.28-2.31,1.88-.17.13-.4.3-.56.41-.2.12-.22.13-.36.12-.07,0-.18-.04-.28-.07-.09-.02-.18-.06-.27-.1-.19-.09-.39-.2-.58-.33-.77-.52-1.57-1.15-2.36-1.72-.27-.2-.52-.4-.66-.59-.13-.19-.16-.32-.11-.58.05-.25.19-.53.33-.86l.44-.93c.3-.63.59-1.27.83-1.95.22-.66.46-1.52.1-2.37-.36-.76-.78-1.21-1.06-1.82l-.48-.93c-.08-.16-.17-.32-.27-.48-.12-.16-.18-.33-.49-.56-.3-.15-.51-.17-.73-.18-.21-.01-.41,0-.6.02-.38.04-.73.13-1.08.21-.69.18-1.35.41-2,.6-.16.05-.32.09-.48.13-.24.07-.36.13-.53.18-.16.06-.31.11-.45.14-.07.02-.15.03-.18.04h0s-.06-.09-.09-.15c-.07-.12-.13-.26-.19-.41-.12-.3-.22-.62-.31-.94-.35-1.37-.97-2.65-1.36-3.91l-.13-.45.67-.29c.64-.29,1.27-.59,1.89-.95.62-.38,1.22-.73,1.77-1.39.13-.17.24-.35.33-.56l.05-.13v-.03s.04-.11.04-.11h0c.07-.3.06-.61.01-.86,0,0-.08-.34-.19-.7h0c-.05-.19-.11-.4-.15-.61-.06-.28-.13-.48-.2-.68-.14-.39-.24-.65-.24-.61-.17-.4-.27-.74-.35-.91-.02-.17-.15-.32-.24-.4-.03-.03-.03-.03-.05-.03-.49-.07-.98-.22-1.48-.41-.65-.24-1.3-.53-2.01-.78-.18-.06-.36-.12-.54-.16-.09-.02-.18-.05-.28-.07l-.23-.05v-.03s0-.04,0-.04v-.25c-.05-1.36.21-2.74.57-4.09.18-.68.39-1.35.61-2.03l.07-.21h0s.1-.01.1-.01l1.06.03c.71.02,1.43.05,2.15.06.37,0,.72,0,1.1-.02l.48-.02h.06s.03-.04.04-.05l.08-.11.15-.22c.13-.18.21-.32.31-.49.39-.64.7-1.32.96-2.02.12-.34.26-.69.33-1.1.09-.4.07-.91-.11-1.34-.18-.42-.42-.72-.64-1.01l-.64-.87c-.49-.59-.95-1.09-1.34-1.64-.09-.13-.18-.27-.24-.39-.03-.06-.06-.12-.06-.15h0s.11-.23.19-.35c.09-.14.19-.27.29-.41.42-.55.86-1.1,1.34-1.58.24-.25.51-.5.76-.79.13-.14.25-.3.37-.47l.29-.45c.4-.56.61-.63,1.26-.4.3.11.63.26.96.4.15.07.37.15.45.2l.46.26c.31.18.63.36.97.52.35.16.66.34,1.18.4.22.01.54,0,.82-.18.27-.18.38-.38.48-.5.1-.13.15-.17.31-.3l.42-.35c.55-.46,1.08-.92,1.63-1.33l.35-.25c.06-.06.17-.09.2-.16l-.03-.26c-.05-.43-.08-.52-.12-.73-.08-.36-.17-.72-.26-1.06-.18-.69-.36-1.37-.42-2.02-.08-.65.01-1.28.36-1.55.41-.33,1.12-.53,1.78-.72.67-.19,1.42-.35,2.11-.73.32-.17.63-.33.92-.46.31-.13.57-.21.78-.17.41.02.81.56,1.13,1.15.33.6.6,1.26,1,1.92.21.33.42.66.77.95.08.08.18.14.27.2l.17.1.07.03c.1.04.19.09.29.11.2.06.4.08.59.09,0,0,.05,0,.14,0,.09,0,.21-.01.35-.04.29-.04.64-.13.98-.23.67-.21,1.28-.41,1.22-.41.51-.19.92-.27,1.02-.36.03-.02.03-.05,0-.07.01,0,.03,0,.06,0h0s0,0,0,0h-.06s-.05-.04-.1-.05c0-.01,0-.03,0-.05.01-.02.08-.03.13.03.01.01.02.03.02.04v.02s0,0,0,0h0s0,0,0,0c.05,0,.05,0,.07,0,.04,0,.07-.02.11-.03.07-.03.13-.07.18-.12.03-.02.03-.03.04-.05l.45-1.57c.24-.82.48-1.64.71-2.48l.16-.64.03-.15h.3c.2.02.4.03.61.05,1.16.12,2.34.4,3.55.6.6.12,1.29.14,1.78.22.11.03.22.06.26.09.04.03.06.05.09.13.07.17.13.47.17.76.18,1.1.05,2.37.38,3.67.04.16.1.33.17.5.07.18.19.36.32.51.26.3.55.5.85.67.59.33,1.19.52,1.76.72.27.1.6.22.97.27.13.01.27.01.42,0-.57.73-1.12,1.51-1.12,1.51Zm10.67,37.17c0-10.79,0-21.28,0-29.64,0,0,0,0,0,0,0,8.36,0,18.85,0,29.64Zm1.56-2.85c0-4.44,0-8.8,0-12.94,0,4.15,0,8.51,0,12.94h0Z"/>
  </g>
</svg>