<?xml version="1.0" encoding="UTF-8"?>
<svg id="uuid-378e269d-576f-4ffb-a93e-7fe14f44b760" data-name="Camada 2" xmlns="http://www.w3.org/2000/svg" viewBox="0 0 93.1 79.58">
  <defs>
    <style>
      .uuid-d21dc701-2b2c-4737-9f8c-4091a86ed4de {
        fill: #202020;
        stroke-width: 0px;
      }
    </style>
  </defs>
  <g id="uuid-f878ba62-7fef-435e-93c4-5e9b82d7d4da" data-name="Object">
    <path class="uuid-d21dc701-2b2c-4737-9f8c-4091a86ed4de" d="m1.73,78.31s.06.12.07.14c0,0,.01.01.02.02-.18.51.2.89.49,1.07.06.04.07.04.11.04l2.9-.07,81.1-1.98s4.9-.41,4.69-.45c1.96-.26,3.22-.68.04-.97-1.87-.22-4.54-.34-4.54-.34l-81.33,1.97-1.82.04-.06-2.44-.38-15.55c.39,0,.76-.02.76-.02,0,0,.49-.3.47-.34.19-.21.31-.6-.02-.97-.2-.26-.47-.44-.47-.44,0,0-.38,0-.78.02l-.39-16.12c.39,0,.76-.02.76-.02,0,0,.49-.3.47-.34.11-.12.18-.29.18-.48.23.07.48.15.74.25l.13.05.07.03.08.03.47.19s.09.05.13.07c0,.03.01.08.02.11,0,.04,0,.04.01.04,0,0,.1,0,.24,0,.98.52,1.88,1.33,2.58,2.3.81,1.11,1.43,2.44,2.01,3.85.14.35.29.71.43,1.06.15.35.24.67.38,1.06.25.76.54,1.54.93,2.32.4.76.91,1.6,1.92,2.17.53.26,1.16.35,1.73.25.27-.06.53-.14.77-.24.23-.12.48-.24.69-.39.88-.64,1.36-1.54,1.68-2.39.32-.86.52-1.73.64-2.59.25-1.72.29-3.44.34-5.13.06-1.63.24-3.36.42-5.05.37-3.42.9-6.83,1.49-10.37.12-.89.23-1.74.42-2.55.2-.79.46-1.58.89-2.1.41-.54,1-.8,1.51-.72.06.01.12.04.18.06,0,.02,0,.05,0,.07,0,.04,0,.04.01.04,0,0,.1,0,.23,0,.11.06.22.14.33.23.25.23.49.51.7.85.85,1.35,1.34,3.1,1.75,4.81.4,1.73.69,3.51.95,5.3.24,1.6.4,3.19.66,4.84-.16,0-.28,0-.28,0,0,0-.01.06-.01.07-.07.76,0,1.4.04,1.64,0,.04,0,.04.01.04,0,0,.22,0,.49-.01l.22,1.58c.14.93.3,1.86.57,2.8.07.24.14.47.23.71.08.24.18.47.29.71.22.47.51.97,1.01,1.4.14.1.26.21.41.3.16.07.33.14.5.21.32.09.62.13.97.12.7-.03,1.27-.36,1.68-.62.42-.27.75-.51,1.01-.6.25-.09.46-.08.73.02.51.18,1.04.81,1.42,1.51.78,1.44,1.18,3.21,1.72,4.98.07.22.15.45.22.68.08.22.18.49.27.68l.54,1.25s.03.08.05.11c-.07,0-.13,0-.13,0,0,0-.01.06-.01.07-.07.76,0,1.39.04,1.64,0,.04,0,.04.01.04.01,0,.48-.01.92-.02.12.22.23.45.36.67.48.83,1.09,1.64,1.87,2.31.4.32.84.64,1.3.85.45.22.94.43,1.5.52.56.1,1.15.06,1.66-.06.51-.12.96-.29,1.35-.42.4-.13.75-.23,1.09-.27.17,0,.34-.02.51,0,.07,0,.26.05.42.1.65.22,1.32.71,1.98,1.23.67.52,1.33,1.11,2.12,1.64.38.27.85.52,1.29.7.22.09.44.18.67.26l.71.2c.97.23,2.08.18,3.05-.24.97-.41,1.73-1.12,2.31-1.87.58-.76,1-1.56,1.36-2.38.64-1.49,1.08-2.99,1.45-4.48.01-.04.03-.09.03-.13.02-.1.05-.2.07-.29.39-1.63.7-3.24,1.04-4.79.09-.39.18-.77.27-1.14.09-.37.2-.71.33-1.09.25-.74.5-1.48.77-2.2.53-1.44,1.14-2.82,1.86-4.08.71-1.25,1.6-2.39,2.63-3,.99-.57,2.24-.49,3.15.19.94.68,1.63,1.82,2.17,2.98,1.09,2.38,1.62,4.91,2.39,7.36.2.62.45,1.26.77,1.84.32.59.68,1.16,1.22,1.68.28.25.59.5,1.02.66.41.15.92.22,1.36.09.1-.01.25-.07.38-.13.13-.06.22-.13.32-.2.18-.14.32-.28.44-.42.24-.28.41-.55.57-.82.16-.27.29-.53.42-.79.09-.2.18-.4.27-.59l.05-.1c.03-.07.06-.13.08-.19.05-.12.1-.23.14-.33.19-.44.28-.69.28-.69,0,0,.1-.31.22-.78.12-.46.25-1.08.37-1.68.22-1.2.45-2.32.41-2.23.16-.95.33-1.73.24-1.95-.07-.22-.5.12-1.16,1.62-.4.88-.77,1.97-1.08,2.8-.3.83-.56,1.4-.56,1.4,0,0-.08.23-.24.61-.09.2-.19.45-.32.73-.03.07-.07.15-.1.23-.23.5-.47,1.01-.75,1.41-.13.19-.3.36-.36.4-.02.03-.02-.05.03.13-.08-.24-.04-.06-.06-.12h-.02s-.04.01-.04.01c-.06,0-.11.01-.17,0-.23-.02-.62-.34-.93-.77-.32-.42-.59-.95-.82-1.49-.22-.54-.41-1.14-.59-1.77-.36-1.26-.71-2.59-1.15-3.94-.44-1.35-.96-2.73-1.75-4.07-.4-.67-.89-1.32-1.52-1.9-.13-.12-.27-.23-.42-.34.18-.22.28-.59-.03-.94-.19-.26-.47-.44-.47-.44,0,0-1.65.03-1.67.03,0,0-.01.06-.01.07-.01.13-.02.25-.02.37-.36-.05-.73-.07-1.09-.03l-.65.12s0-.02-.02-.03c-.2-.26-.47-.44-.47-.44,0,0-1.65.03-1.67.03,0,0-.01.06-.01.07-.07.69-.01,1.26.03,1.55-.24.21-.46.42-.66.65-1.15,1.26-1.92,2.72-2.62,4.2-.69,1.49-1.24,3.04-1.76,4.61-.55,1.63-.83,3.29-1.19,4.91-.15.69-.3,1.38-.46,2.06-.39,0-.77.02-.78.02,0,0-.01.06-.01.07-.07.76,0,1.4.04,1.64,0,.04,0,.04.01.04,0,0,.12,0,.29,0-.09.34-.19.67-.29,1.01-.5,1.56-1.12,3.13-2.09,4.31-.48.57-1.05,1.04-1.69,1.22-.64.2-1.35.17-2.08-.05-.18-.04-.36-.11-.55-.19-.18-.07-.37-.15-.53-.23-.33-.17-.66-.38-1-.63-.67-.49-1.34-1.08-2.09-1.65-.38-.28-.77-.56-1.23-.8-.23-.12-.46-.24-.72-.33-.13-.05-.25-.1-.39-.13-.14-.03-.25-.08-.47-.1-1.14-.13-2.21.28-2.99.55-.81.28-1.39.33-2.08.07-.73-.28-1.37-.68-1.9-1.28-1.09-1.18-1.78-2.84-2.51-4.52l-.27-.64c-.07-.19-.15-.37-.22-.58-.14-.41-.27-.84-.39-1.28-.25-.88-.51-1.79-.83-2.7-.33-.91-.72-1.84-1.38-2.71-.35-.42-.72-.84-1.28-1.16-.53-.31-1.22-.48-1.91-.36-.69.12-1.19.47-1.58.72-.39.26-.7.45-.95.51-.12.02-.23.03-.37,0-.16-.02-.23-.08-.33-.1-.18-.12-.4-.38-.58-.71-.36-.68-.59-1.54-.77-2.41-.18-.87-.31-1.77-.43-2.68l-.09-.65c.14-.22.19-.54-.09-.85,0-.01-.02-.02-.03-.04l-.1-.56-.1-.67-.36-2.75c-.24-1.84-.5-3.69-.87-5.54-.38-1.84-.81-3.68-1.6-5.47-.31-.67-.66-1.35-1.19-1.97.11-.22.12-.51-.13-.8-.2-.26-.47-.44-.47-.44,0,0-.59.01-1.07.02-.18-.07-.37-.12-.57-.15-.64-.09-1.29.06-1.83.33-.07.04-.13.08-.19.12-.15-.14-.28-.22-.28-.22,0,0-1.65.03-1.67.03,0,0-.01.06-.01.07-.07.76,0,1.39.04,1.64,0,.04,0,.04.01.04,0,0,.2,0,.45-.01-.17.29-.31.58-.42.87-.37.95-.54,1.9-.68,2.81l-.19,1.34c-.06.43-.14.85-.21,1.31-.14.89-.28,1.77-.42,2.65-.27,1.76-.51,3.52-.72,5.27-.08.65-.14,1.3-.21,1.96-.49,0-1.14.02-1.15.02,0,0-.01.06-.01.07-.07.76,0,1.39.04,1.64,0,.04,0,.04.01.04.01,0,.5-.01.95-.02-.04.5-.09,1.01-.12,1.51-.1,1.78-.09,3.44-.26,5.07-.08.81-.22,1.6-.41,2.34-.19.74-.49,1.42-.88,1.91-.09.14-.21.23-.31.32-.1.11-.23.17-.35.23-.24.16-.53.2-.73.21-.2-.02-.4-.1-.61-.25-.21-.18-.42-.41-.6-.7-.38-.56-.67-1.27-.93-1.98-.13-.36-.25-.72-.38-1.11-.12-.41-.3-.78-.44-1.15-.59-1.45-1.21-2.94-2.1-4.3-.63-.98-1.41-1.85-2.33-2.57.03-.18,0-.39-.19-.59-.2-.26-.47-.44-.47-.44,0,0-.51.01-.96.02-.22-.1-.44-.19-.65-.28l-.13-.05-.15-.06c-1.53-.57-2.68-.76-2.79-.75-.02,0-.05,0-.07.02l-.36-14.91c.39,0,.76-.02.76-.02,0,0,.49-.3.47-.34.19-.21.31-.6-.02-.97-.2-.26-.47-.44-.47-.44,0,0-.38,0-.78.02l-.38-15.61s-.41-4.91-.44-4.7C1.05.02.63-1.24.34,1.94c-.22,1.88-.34,4.56-.34,4.56l1.66,68.9.07,2.91Z"/>
    <path class="uuid-d21dc701-2b2c-4737-9f8c-4091a86ed4de" d="m5.22,23.98s1.65-.04,1.65-.04c0,0,.49-.3.47-.34.19-.21.31-.6-.02-.97-.2-.26-.47-.44-.47-.44,0,0-1.65.03-1.67.03,0,0-.01.06-.01.07-.07.76,0,1.39.04,1.64,0,.04,0,.04.01.04Z"/>
    <path class="uuid-d21dc701-2b2c-4737-9f8c-4091a86ed4de" d="m9.16,23.88s1.65-.04,1.65-.04c0,0,.49-.31.47-.34.19-.21.31-.6-.02-.97-.19-.26-.47-.44-.47-.44,0,0-1.65.03-1.67.03,0,0-.01.06-.01.07-.07.76,0,1.39.04,1.64,0,.04,0,.04.01.04Z"/>
    <path class="uuid-d21dc701-2b2c-4737-9f8c-4091a86ed4de" d="m13.1,23.79s1.65-.04,1.65-.04c0,0,.49-.3.47-.34.19-.21.31-.6-.02-.97-.19-.26-.47-.44-.47-.44,0,0-1.65.03-1.67.03,0,0-.01.06-.01.07-.07.76,0,1.39.04,1.64,0,.04,0,.04.01.04Z"/>
    <path class="uuid-d21dc701-2b2c-4737-9f8c-4091a86ed4de" d="m17.04,23.69s1.65-.04,1.65-.04c0,0,.49-.3.47-.34.19-.21.31-.6-.02-.97-.19-.26-.47-.44-.47-.44,0,0-1.65.03-1.67.03,0,0-.01.06-.01.07-.07.76,0,1.39.04,1.64,0,.04,0,.04.01.04Z"/>
    <path class="uuid-d21dc701-2b2c-4737-9f8c-4091a86ed4de" d="m28.85,23.4s1.65-.04,1.65-.04c0,0,.49-.3.47-.34.19-.21.31-.6-.02-.97-.19-.26-.47-.44-.47-.44,0,0-1.65.03-1.67.03,0,0-.01.06-.01.07-.07.76,0,1.4.04,1.64,0,.04,0,.04.01.04Z"/>
    <path class="uuid-d21dc701-2b2c-4737-9f8c-4091a86ed4de" d="m32.79,23.31s1.65-.04,1.65-.04c0,0,.49-.3.47-.34.19-.21.31-.6-.02-.97-.2-.26-.47-.44-.47-.44,0,0-1.65.03-1.67.03,0,0-.01.06-.01.07-.07.76,0,1.39.04,1.64,0,.04,0,.04.01.04Z"/>
    <path class="uuid-d21dc701-2b2c-4737-9f8c-4091a86ed4de" d="m36.73,23.21s1.65-.04,1.65-.04c0,0,.49-.3.47-.34.19-.21.31-.6-.02-.97-.2-.26-.47-.44-.47-.44,0,0-1.65.03-1.67.03,0,0-.01.06-.01.07-.07.76,0,1.39.04,1.64,0,.04,0,.04.01.04Z"/>
    <path class="uuid-d21dc701-2b2c-4737-9f8c-4091a86ed4de" d="m40.67,23.11s1.65-.04,1.65-.04c0,0,.49-.3.47-.34.19-.21.31-.6-.02-.97-.2-.26-.47-.44-.47-.44,0,0-1.65.03-1.67.03,0,0-.01.06-.01.07-.07.76,0,1.39.04,1.64,0,.04,0,.04.01.04Z"/>
    <path class="uuid-d21dc701-2b2c-4737-9f8c-4091a86ed4de" d="m44.61,23.02s1.65-.04,1.65-.04c0,0,.49-.31.47-.34.19-.21.31-.6-.02-.97-.2-.26-.47-.44-.47-.44,0,0-1.65.03-1.67.03,0,0-.01.06-.01.07-.07.76,0,1.39.04,1.64,0,.04,0,.04.01.04Z"/>
    <path class="uuid-d21dc701-2b2c-4737-9f8c-4091a86ed4de" d="m48.55,22.92s1.65-.04,1.65-.04c0,0,.49-.3.47-.34.19-.21.31-.6-.02-.97-.2-.26-.47-.44-.47-.44,0,0-1.65.03-1.67.03,0,0-.01.06-.01.07-.07.76,0,1.4.04,1.64,0,.04,0,.04.01.04Z"/>
    <path class="uuid-d21dc701-2b2c-4737-9f8c-4091a86ed4de" d="m52.49,22.83s1.65-.04,1.65-.04c0,0,.49-.3.47-.34.19-.21.31-.6-.02-.97-.19-.26-.47-.44-.47-.44,0,0-1.65.03-1.67.03,0,0-.01.06-.01.07-.07.76,0,1.39.04,1.64,0,.04,0,.04.01.04Z"/>
    <path class="uuid-d21dc701-2b2c-4737-9f8c-4091a86ed4de" d="m56.43,22.73s1.65-.04,1.65-.04c0,0,.49-.3.47-.34.19-.21.31-.6-.02-.97-.2-.26-.47-.44-.47-.44,0,0-1.65.03-1.67.03,0,0-.01.06-.01.07-.07.76,0,1.39.04,1.64,0,.04,0,.04.01.04Z"/>
    <path class="uuid-d21dc701-2b2c-4737-9f8c-4091a86ed4de" d="m60.37,22.63s1.65-.04,1.65-.04c0,0,.49-.31.47-.34.19-.21.31-.6-.02-.97-.2-.26-.47-.44-.47-.44,0,0-1.65.03-1.67.03,0,0-.01.06-.01.07-.07.76,0,1.4.04,1.64,0,.04,0,.04.01.04Z"/>
    <path class="uuid-d21dc701-2b2c-4737-9f8c-4091a86ed4de" d="m64.31,22.54s1.65-.04,1.65-.04c0,0,.49-.3.47-.34.19-.21.31-.6-.02-.97-.2-.26-.47-.44-.47-.44,0,0-1.65.03-1.67.03,0,0-.01.06-.01.07-.07.76,0,1.4.04,1.64,0,.04,0,.04.01.04Z"/>
    <path class="uuid-d21dc701-2b2c-4737-9f8c-4091a86ed4de" d="m68.24,22.44s1.65-.04,1.65-.04c0,0,.49-.3.47-.34.19-.21.31-.6-.02-.97-.2-.26-.47-.44-.47-.44,0,0-1.65.03-1.67.03,0,0-.01.06-.01.07-.07.76,0,1.39.04,1.64,0,.04,0,.04.01.04Z"/>
    <path class="uuid-d21dc701-2b2c-4737-9f8c-4091a86ed4de" d="m72.18,22.35s1.65-.04,1.65-.04c0,0,.49-.31.47-.34.19-.21.31-.6-.02-.97-.2-.26-.47-.44-.47-.44,0,0-1.65.03-1.67.03,0,0-.01.06-.01.07-.07.76,0,1.39.04,1.64,0,.04,0,.04.01.04Z"/>
    <path class="uuid-d21dc701-2b2c-4737-9f8c-4091a86ed4de" d="m76.12,22.25s1.65-.04,1.65-.04c0,0,.49-.3.47-.34.19-.21.31-.6-.02-.97-.19-.26-.47-.44-.47-.44,0,0-1.65.03-1.67.03,0,0-.01.06-.01.07-.07.76,0,1.4.04,1.64,0,.04,0,.04.01.04Z"/>
    <path class="uuid-d21dc701-2b2c-4737-9f8c-4091a86ed4de" d="m80.06,22.16s1.65-.04,1.65-.04c0,0,.49-.3.47-.34.19-.21.31-.6-.02-.97-.2-.26-.47-.44-.47-.44,0,0-1.65.03-1.67.03,0,0-.01.06-.01.07-.07.76,0,1.4.04,1.64,0,.04,0,.04.01.04Z"/>
    <path class="uuid-d21dc701-2b2c-4737-9f8c-4091a86ed4de" d="m84,22.06s1.65-.04,1.65-.04c0,0,.49-.3.47-.34.19-.21.31-.6-.02-.97-.2-.26-.47-.44-.47-.44,0,0-1.65.03-1.67.03,0,0-.01.06-.01.07-.07.76,0,1.4.04,1.64,0,.04,0,.04.01.04Z"/>
    <path class="uuid-d21dc701-2b2c-4737-9f8c-4091a86ed4de" d="m87.94,21.96s1.65-.04,1.65-.04c0,0,.49-.3.47-.34.19-.21.31-.6-.02-.97-.19-.26-.47-.44-.47-.44,0,0-1.65.03-1.67.03,0,0-.01.06-.01.07-.07.76,0,1.4.04,1.64,0,.04,0,.04.01.04Z"/>
    <path class="uuid-d21dc701-2b2c-4737-9f8c-4091a86ed4de" d="m9.55,40s-.01.06-.01.07c-.07.76,0,1.39.04,1.64,0,.04,0,.04.01.04.02,0,1.65-.04,1.65-.04,0,0,.49-.3.47-.34.19-.21.31-.6-.02-.97-.19-.26-.47-.44-.47-.44,0,0-1.65.03-1.67.03Z"/>
    <path class="uuid-d21dc701-2b2c-4737-9f8c-4091a86ed4de" d="m13.49,39.91s-.01.06-.01.07c-.07.76,0,1.4.04,1.64,0,.04,0,.04.01.04.02,0,1.65-.04,1.65-.04,0,0,.49-.3.47-.34.19-.21.31-.6-.02-.97-.2-.26-.47-.44-.47-.44,0,0-1.65.03-1.67.03Z"/>
    <path class="uuid-d21dc701-2b2c-4737-9f8c-4091a86ed4de" d="m23.52,41.09c.19-.21.31-.6-.02-.97-.19-.26-.47-.44-.47-.44,0,0-1.65.03-1.67.03,0,0-.01.06-.01.07-.07.76,0,1.39.04,1.64,0,.04,0,.04.01.04.02,0,1.65-.04,1.65-.04,0,0,.49-.3.47-.34Z"/>
    <path class="uuid-d21dc701-2b2c-4737-9f8c-4091a86ed4de" d="m27.46,40.99c.19-.21.31-.6-.02-.97-.2-.26-.47-.44-.47-.44,0,0-1.65.03-1.67.03,0,0-.01.06-.01.07-.07.76,0,1.39.04,1.64,0,.04,0,.04.01.04.02,0,1.65-.04,1.65-.04,0,0,.49-.3.47-.34Z"/>
    <path class="uuid-d21dc701-2b2c-4737-9f8c-4091a86ed4de" d="m33.18,39.43s-.01.06-.01.07c-.07.76,0,1.39.04,1.64,0,.04,0,.04.01.04.02,0,1.65-.04,1.65-.04,0,0,.49-.3.47-.34.19-.21.31-.6-.02-.97-.2-.26-.47-.44-.47-.44,0,0-1.65.03-1.67.03Z"/>
    <path class="uuid-d21dc701-2b2c-4737-9f8c-4091a86ed4de" d="m37.12,39.33s-.01.06-.01.07c-.07.76,0,1.4.04,1.64,0,.04,0,.04.01.04.02,0,1.65-.04,1.65-.04,0,0,.49-.31.47-.34.19-.21.31-.6-.02-.97-.19-.26-.47-.44-.47-.44,0,0-1.65.03-1.67.03Z"/>
    <path class="uuid-d21dc701-2b2c-4737-9f8c-4091a86ed4de" d="m41.06,39.24s-.01.06-.01.07c-.07.76,0,1.39.04,1.64,0,.04,0,.04.01.04.02,0,1.65-.04,1.65-.04,0,0,.49-.3.47-.34.19-.21.31-.6-.02-.97-.2-.26-.47-.44-.47-.44,0,0-1.65.03-1.67.03Z"/>
    <path class="uuid-d21dc701-2b2c-4737-9f8c-4091a86ed4de" d="m45,39.14s-.01.06-.01.07c-.07.76,0,1.39.04,1.64,0,.04,0,.04.01.04.02,0,1.65-.04,1.65-.04,0,0,.49-.3.47-.34.19-.21.31-.6-.02-.97-.2-.26-.47-.44-.47-.44,0,0-1.65.03-1.67.03Z"/>
    <path class="uuid-d21dc701-2b2c-4737-9f8c-4091a86ed4de" d="m48.94,39.04s-.01.06-.01.07c-.07.76,0,1.39.04,1.64,0,.04,0,.04.01.04.02,0,1.65-.04,1.65-.04,0,0,.49-.3.47-.34.19-.21.31-.6-.02-.97-.2-.26-.47-.44-.47-.44,0,0-1.65.03-1.67.03Z"/>
    <path class="uuid-d21dc701-2b2c-4737-9f8c-4091a86ed4de" d="m52.88,38.95s-.01.06-.01.07c-.07.76,0,1.39.04,1.64,0,.04,0,.04.01.04.02,0,1.65-.04,1.65-.04,0,0,.49-.3.47-.34.19-.21.31-.6-.02-.97-.2-.26-.47-.44-.47-.44,0,0-1.65.03-1.67.03Z"/>
    <path class="uuid-d21dc701-2b2c-4737-9f8c-4091a86ed4de" d="m56.82,38.85s-.01.06-.01.07c-.07.76,0,1.4.04,1.64,0,.04,0,.04.01.04.02,0,1.65-.04,1.65-.04,0,0,.49-.3.47-.34.19-.21.31-.6-.02-.97-.19-.26-.47-.44-.47-.44,0,0-1.65.03-1.67.03Z"/>
    <path class="uuid-d21dc701-2b2c-4737-9f8c-4091a86ed4de" d="m60.76,38.76s-.01.06-.01.07c-.07.76,0,1.39.04,1.64,0,.04,0,.04.01.04.02,0,1.65-.04,1.65-.04,0,0,.49-.3.47-.34.19-.21.31-.6-.02-.97-.19-.26-.47-.44-.47-.44,0,0-1.65.03-1.67.03Z"/>
    <path class="uuid-d21dc701-2b2c-4737-9f8c-4091a86ed4de" d="m64.7,38.66s-.01.06-.01.07c-.07.76,0,1.4.04,1.64,0,.04,0,.04.01.04.02,0,1.65-.04,1.65-.04,0,0,.49-.3.47-.34.19-.21.31-.6-.02-.97-.19-.26-.47-.44-.47-.44,0,0-1.65.03-1.67.03Z"/>
    <path class="uuid-d21dc701-2b2c-4737-9f8c-4091a86ed4de" d="m68.63,38.56s-.01.06-.01.07c-.07.76,0,1.39.04,1.64,0,.04,0,.04.01.04.02,0,1.65-.04,1.65-.04,0,0,.49-.3.47-.34.19-.21.31-.6-.02-.97-.19-.26-.47-.44-.47-.44,0,0-1.65.03-1.67.03Z"/>
    <path class="uuid-d21dc701-2b2c-4737-9f8c-4091a86ed4de" d="m80.45,38.28s-.01.06-.01.07c-.07.76,0,1.39.04,1.64,0,.04,0,.04.01.04.02,0,1.65-.04,1.65-.04,0,0,.49-.3.47-.34.19-.21.31-.6-.02-.97-.19-.26-.47-.44-.47-.44,0,0-1.65.03-1.67.03Z"/>
    <path class="uuid-d21dc701-2b2c-4737-9f8c-4091a86ed4de" d="m84.39,38.18s-.01.06-.01.07c-.07.76,0,1.39.04,1.64,0,.04,0,.04.01.04.02,0,1.65-.04,1.65-.04,0,0,.49-.3.47-.34.19-.21.31-.6-.02-.97-.2-.26-.47-.44-.47-.44,0,0-1.65.03-1.67.03Z"/>
    <path class="uuid-d21dc701-2b2c-4737-9f8c-4091a86ed4de" d="m88.33,38.08s-.01.06-.01.07c-.07.76,0,1.39.04,1.64,0,.04,0,.04.01.04.02,0,1.65-.04,1.65-.04,0,0,.49-.3.47-.34.19-.21.31-.6-.02-.97-.19-.26-.47-.44-.47-.44,0,0-1.65.03-1.67.03Z"/>
    <path class="uuid-d21dc701-2b2c-4737-9f8c-4091a86ed4de" d="m7.72,57.94s-1.65.03-1.67.03c0,0-.01.06-.01.07-.07.76,0,1.39.04,1.64,0,.04,0,.04.01.04.02,0,1.65-.04,1.65-.04,0,0,.49-.31.47-.34.19-.21.31-.61-.02-.97-.19-.26-.47-.44-.47-.44Z"/>
    <path class="uuid-d21dc701-2b2c-4737-9f8c-4091a86ed4de" d="m11.65,57.85s-1.65.03-1.67.03c0,0-.01.06-.01.07-.07.76,0,1.39.04,1.64,0,.04,0,.04.01.04.02,0,1.65-.04,1.65-.04,0,0,.49-.3.47-.34.19-.21.31-.6-.02-.97-.2-.26-.47-.44-.47-.44Z"/>
    <path class="uuid-d21dc701-2b2c-4737-9f8c-4091a86ed4de" d="m15.59,57.75s-1.65.03-1.67.03c0,0-.01.06-.01.07-.07.76,0,1.4.04,1.64,0,.04,0,.04.01.04.02,0,1.65-.04,1.65-.04,0,0,.49-.31.47-.34.19-.21.31-.6-.02-.97-.2-.26-.47-.44-.47-.44Z"/>
    <path class="uuid-d21dc701-2b2c-4737-9f8c-4091a86ed4de" d="m19.53,57.65s-1.65.03-1.67.03c0,0-.01.06-.01.07-.07.76,0,1.39.04,1.64,0,.04,0,.04.01.04.02,0,1.65-.04,1.65-.04,0,0,.49-.3.47-.34.19-.21.31-.6-.02-.97-.19-.26-.47-.44-.47-.44Z"/>
    <path class="uuid-d21dc701-2b2c-4737-9f8c-4091a86ed4de" d="m21.84,59.35s1.65-.04,1.65-.04c0,0,.49-.3.47-.34.19-.21.31-.6-.02-.97-.2-.26-.47-.44-.47-.44,0,0-1.65.03-1.67.03,0,0-.01.06-.01.07-.07.76,0,1.39.04,1.64,0,.04,0,.04.01.04Z"/>
    <path class="uuid-d21dc701-2b2c-4737-9f8c-4091a86ed4de" d="m25.78,59.25s1.65-.04,1.65-.04c0,0,.49-.31.47-.34.19-.21.31-.6-.02-.97-.19-.26-.47-.44-.47-.44,0,0-1.65.03-1.67.03,0,0-.01.06-.01.07-.07.76,0,1.39.04,1.64,0,.04,0,.04.01.04Z"/>
    <path class="uuid-d21dc701-2b2c-4737-9f8c-4091a86ed4de" d="m31.35,57.37s-1.65.03-1.67.03c0,0-.01.06-.01.07-.07.76,0,1.39.04,1.64,0,.04,0,.04.01.04.02,0,1.65-.04,1.65-.04,0,0,.49-.3.47-.34.19-.21.31-.6-.02-.97-.2-.26-.47-.44-.47-.44Z"/>
    <path class="uuid-d21dc701-2b2c-4737-9f8c-4091a86ed4de" d="m35.29,57.27s-1.65.03-1.67.03c0,0-.01.06-.01.07-.07.76,0,1.4.04,1.64,0,.04,0,.04.01.04.02,0,1.65-.04,1.65-.04,0,0,.49-.3.47-.34.19-.21.31-.6-.02-.97-.2-.26-.47-.44-.47-.44Z"/>
    <path class="uuid-d21dc701-2b2c-4737-9f8c-4091a86ed4de" d="m39.23,57.17s-1.65.03-1.67.03c0,0-.01.06-.01.07-.07.76,0,1.39.04,1.64,0,.04,0,.04.01.04.02,0,1.65-.04,1.65-.04,0,0,.49-.3.47-.34.19-.21.31-.6-.02-.97-.2-.26-.47-.44-.47-.44Z"/>
    <path class="uuid-d21dc701-2b2c-4737-9f8c-4091a86ed4de" d="m45.43,57.02s-.01.06-.01.07c-.07.76,0,1.4.04,1.64,0,.04,0,.04.01.04.02,0,1.65-.04,1.65-.04,0,0,.49-.3.47-.34.19-.21.31-.6-.02-.97-.2-.26-.47-.44-.47-.44,0,0-1.65.03-1.67.03Z"/>
    <path class="uuid-d21dc701-2b2c-4737-9f8c-4091a86ed4de" d="m49.37,56.92s-.01.06-.01.07c-.07.76,0,1.39.04,1.64,0,.04,0,.04.01.04.02,0,1.65-.04,1.65-.04,0,0,.49-.3.47-.34.19-.21.31-.6-.02-.97-.2-.26-.47-.44-.47-.44,0,0-1.65.03-1.67.03Z"/>
    <path class="uuid-d21dc701-2b2c-4737-9f8c-4091a86ed4de" d="m53.31,56.82s-.01.06-.01.07c-.07.76,0,1.39.04,1.64,0,.04,0,.04.01.04.02,0,1.65-.04,1.65-.04,0,0,.49-.3.47-.34.19-.21.31-.6-.02-.97-.2-.26-.47-.44-.47-.44,0,0-1.65.03-1.67.03Z"/>
    <path class="uuid-d21dc701-2b2c-4737-9f8c-4091a86ed4de" d="m57.25,56.73s-.01.06-.01.07c-.07.76,0,1.39.04,1.64,0,.04,0,.04.01.04.02,0,1.65-.04,1.65-.04,0,0,.49-.31.47-.34.19-.21.31-.6-.02-.97-.2-.26-.47-.44-.47-.44,0,0-1.65.03-1.67.03Z"/>
    <path class="uuid-d21dc701-2b2c-4737-9f8c-4091a86ed4de" d="m61.19,56.63s-.01.06-.01.07c-.07.76,0,1.39.04,1.64,0,.04,0,.04.01.04.02,0,1.65-.04,1.65-.04,0,0,.49-.3.47-.34.19-.21.31-.6-.02-.97-.2-.26-.47-.44-.47-.44,0,0-1.65.03-1.67.03Z"/>
    <path class="uuid-d21dc701-2b2c-4737-9f8c-4091a86ed4de" d="m70.74,56.41s-1.65.03-1.67.03c0,0-.01.06-.01.07-.07.76,0,1.39.04,1.64,0,.04,0,.04.01.04.02,0,1.65-.04,1.65-.04,0,0,.49-.3.47-.34.19-.21.31-.61-.02-.97-.19-.26-.47-.44-.47-.44Z"/>
    <path class="uuid-d21dc701-2b2c-4737-9f8c-4091a86ed4de" d="m74.68,56.31s-1.65.03-1.67.03c0,0-.01.06-.01.07-.07.76,0,1.39.04,1.64,0,.04,0,.04.01.04.02,0,1.65-.04,1.65-.04,0,0,.49-.3.47-.34.19-.21.31-.6-.02-.97-.19-.26-.47-.44-.47-.44Z"/>
    <path class="uuid-d21dc701-2b2c-4737-9f8c-4091a86ed4de" d="m78.62,56.22s-1.65.03-1.67.03c0,0-.01.06-.01.07-.07.76,0,1.4.04,1.64,0,.04,0,.04.01.04.02,0,1.65-.04,1.65-.04,0,0,.49-.3.47-.34.19-.21.31-.6-.02-.97-.2-.26-.47-.44-.47-.44Z"/>
    <path class="uuid-d21dc701-2b2c-4737-9f8c-4091a86ed4de" d="m82.56,56.12s-1.65.03-1.67.03c0,0-.01.06-.01.07-.07.76,0,1.39.04,1.64,0,.04,0,.04.01.04.02,0,1.65-.04,1.65-.04,0,0,.49-.3.47-.34.19-.21.31-.6-.02-.97-.19-.26-.47-.44-.47-.44Z"/>
    <path class="uuid-d21dc701-2b2c-4737-9f8c-4091a86ed4de" d="m86.5,56.02s-1.65.03-1.67.03c0,0-.01.06-.01.07-.07.76,0,1.39.04,1.64,0,.04,0,.04.01.04.02,0,1.65-.04,1.65-.04,0,0,.49-.3.47-.34.19-.21.31-.6-.02-.97-.2-.26-.47-.44-.47-.44Z"/>
    <path class="uuid-d21dc701-2b2c-4737-9f8c-4091a86ed4de" d="m88.76,55.96s-.01.06-.01.07c-.07.76,0,1.39.04,1.64,0,.04,0,.04.01.04.02,0,1.65-.04,1.65-.04,0,0,.49-.3.47-.34.19-.21.31-.6-.02-.97-.19-.26-.47-.44-.47-.44,0,0-1.65.03-1.67.03Z"/>
  </g>
</svg>