<?xml version="1.0" encoding="UTF-8"?>
<svg id="uuid-05b06ae5-4988-4afd-9386-9733cc87bb19" data-name="Camada 2" xmlns="http://www.w3.org/2000/svg" viewBox="0 0 86.76 102.86">
  <defs>
    <style>
      .uuid-062805f8-2ac4-4413-8723-e4a47ee9a4a7 {
        fill: #202020;
        stroke-width: 0px;
      }
    </style>
  </defs>
  <g id="uuid-f0fb921e-7e0a-4718-b63e-9ab68c6191ed" data-name="Object">
    <path class="uuid-062805f8-2ac4-4413-8723-e4a47ee9a4a7" d="m11.09,3.27c-.76-.21-1.54-.46-2.28-.72-.37-.13-.73-.27-1.03-.4l-.12-.06c-.06-.02-.17-.11-.26-.16-.18-.11-.36-.25-.54-.38-.36-.27-.71-.51-1.06-.73-.7-.43-1.32-.66-1.85-.76-.54-.1-1-.08-1.47.02-.45.13-1.01.32-1.46.69-.22.17-.43.42-.59.64-.13.23-.23.43-.29.62C.01,2.42-.03,2.8.02,3.29c.06.5.29,1.13.73,1.87.22.37.48.75.74,1.13l.36.53.13.21s.02.09.04.13c.1.35.16.69.22,1.04.2,1.43.19,3.05.17,4.73-.02,1.68-.07,3.44.13,5.33l.18,1.33.19,1.26.41,2.54c.58,3.38,1.28,6.74,2.25,10.09,1.05,3.4,2.37,6.57,3.95,9.69.79,1.55,1.64,3.07,2.55,4.55.45.74.92,1.47,1.41,2.19l.41.6c.51.75,1.04,1.48,1.58,2.21,0,0,.12.14.33.39.21.25.51.6.89,1.02.36.41.83.92,1.33,1.41.5.5,1.04,1,1.59,1.49,2.2,1.95,4.43,3.6,4.27,3.42,1.67,1.19,3.11,2.11,3.82,2.31-.55.28-.97.71-1.23,1.08-.1.12-.1.15-.1.24.02,1.03-.05,2.18-.06,3.38,0,.6,0,1.22.04,1.87l.04.49.06.54c.05.33.12.66.18.96.34,1.61.83,3.2,1.47,4.73.32.76.68,1.51,1.07,2.25.2.36.4.73.62,1.08l.62,1c.58.96,1.25,1.93,1.92,2.84,0,0,1.92,2.34,4.06,4.35,2.11,2.04,4.45,3.73,4.28,3.54,1.99,1.38,3.9,2.1,4.43,1.94,0,0,0,0,.01-.01.13.04.25.08.38.09.35.01.73-.22,1-.55.28-.33.45-.7.56-1.02.08-.18.07-.23.05-.36-.11-.7-.27-1.28-.37-1.79-.06-.25-.1-.49-.11-.59-.01-.19-.03-.48-.03-.72-.03-1.03.03-2.1.13-3.18.1-1.13.27-2.29.4-3.52.12-1.1.31-2.2.56-3.31l.04-.17.6.46c.26.19.54.39.83.57l.25.16c.12.07.25.14.38.21.26.13.51.28.77.38l.78.34c.26.08.53.35.76.06l.72-.5.66-.44.31-.21.16-.1.32-.2.67-.39,1.4-.78s.62-.4,1.55-.99c.94-.61,2.22-1.5,3.37-2.58,2.21-2.07,3.86-4.44,3.67-4.26,1.35-1.96,2.15-3.72,2.08-4.29.37-.08.74-.34,1-.91.44-.73.6-1.67.6-1.67,0,0-.36-1.25-.84-2.55-.08-.22-.17-.45-.26-.66.35.08.7.16,1,.22.79.15,1.37.24,1.37.24,2.38-.1,4.68-.18,6.89.02,2.21.18,4.32.67,6.3,1.5l.25-1.63s.09.02.14.02c-.01.11-.02.23-.03.34,0,.34-.09.63.02.9.07.13.15.29.56.35.18.03.6,0,1.01-.3.21-.14.42-.38.53-.56.06-.1.12-.2.16-.31.04-.11.06-.15.09-.24.06-.18.08-.33.09-.39.01-.08.02-.15.02-.22,0-.13,0-.17-.03-.29v-.06s-.23-1.01-.23-1.01l-.94-.39s0-.01,0-.02c0-.19-.03-.22-.1-.32-.78-1.08-1.55-1.94-2.29-2.81-.37-.43-.74-.85-1.04-1.24l-.99-1.33c-1.82-2.46-3.75-4.97-6.03-7.24.09-.3.05-.43-.2-.21-.02-.02-.03-.04-.05-.05-.84-.81-1.67-1.57-2.59-2.31,0,0-.62-.47-1.61-1.08-.99-.61-2.36-1.36-3.81-1.91-1.43-.56-2.99-.9-4.05-1.02-1.14-.15-1.84-.09-1.71-.07-1.26.04-2.29.23-3.08.36-.18.03-.34.06-.5.09.16-.37.23-.78.24-1.11.02-.17,0-.2-.05-.29-.73-1.27-1.51-2.52-2.31-3.76.13-.32.12-.46-.17-.26-.41-.64-.82-1.27-1.24-1.9-3.88-5.72-8.49-11.05-13.93-15.44-.57-.46-1.15-.9-1.73-1.35,0-.02-.02-.03-.05-.04-2.19-1.65-4.48-3.16-6.87-4.51-1.53-.84-3.06-1.66-4.64-2.38-1.55-.77-3.25-1.44-4.93-1.98-1.69-.55-3.4-.99-5.12-1.34-.86-.17-1.69-.33-2.64-.47-.64-.07-1.41-.27-2.18-.48Zm-4.79,4.32c-.08-.49-.17-.98-.3-1.44l-.04-.17-.03-.08-.02-.04h0s0-.01,0-.01c0-.01.01,0,.02,0h0s.19.09.19.09c.47.21.9.36,1.32.52.66.23,1.32.44,1.98.64-.24.33-.46.68-.66.98-.31.5-.53.88-.53.88l-.45.95c-.47,1.02-.88,2.05-1.28,3.1h0c.02-1.7.06-3.48-.21-5.4Zm7.33,34.59c-.75-1.42-1.45-2.88-2.08-4.36.23-.39.45-.78.66-1.17,1.48-2.97,2.9-5.95,4.31-8.93.24.94.75,1.84,1.38,2.57.4.45.85.84,1.33,1.18-.08.11-.17.24-.27.39-.7.98-1.6,2.45-1.6,2.45l-.48.93c-.94,1.86-1.84,3.77-2.49,5.79-.18.55-.34,1.11-.47,1.68-.1-.18-.2-.35-.29-.53Zm5.33-19.6c.11-.24.23-.47.34-.71.13.16.28.28.44.38.3.18.62.3.9.4.28.09.51.13.7.22.11.05.13.05.17.02.49-.26,1.03-.3,1.67-.09.63.21,1.27.72,1.71,1.32.3.4.49.85.61,1.28.03.11.02.21.04.32.02.11.04.21.02.31,0,.1,0,.2,0,.3-.03.1-.06.2-.08.3,0,.13-.11.34-.18.53-.06.21-.17.34-.24.51-.08.17-.19.28-.28.43-.11.1-.2.25-.31.32,0,0-.06.07-.18.19-.12.1-.29.25-.56.35-.49.26-1.49.3-2.48-.1-.98-.38-1.83-1.13-2.17-1.73-.38-.6-.4-1-.43-.92-.21-.72.02-1.49.34-2.12.33-.62.68-1.08.71-1.37.04-.25-.17-.34-.74-.14Zm23.29,66.85c-.08-.09-.16-.19-.24-.27.03-.07.11-.31.25-.64.06-.15.14-.33.22-.51,0,.06,0,.12,0,.18,0,.32.02.61.05.99.03.25.06.46.09.65-.12-.13-.24-.25-.37-.39Zm23.85-23.93c-.59.43-1.48,1.28-2.82,2.54-.81.72-1.72,1.49-2.63,2.19-.39.29-.77.57-1.15.84.01-.03.02-.06.03-.09,1.28-3.09,2.83-6.07,4.5-8.99.35.98.63,1.91.63,1.91,0,0,.27.3.55.6.28.3.57.6.6.55.17.12.36.21.55.26-.09.05-.17.1-.28.18Zm9.82-12.46c.36.47.72.95,1.07,1.43l1.05,1.42s.07.09.11.14c-.31-.04-.62-.09-.93-.11-1.04-.1-2.07-.13-3.09-.13.09-.11.18-.22.26-.34l.54-.73s.43-.68.81-1.36c.06-.11.12-.22.18-.32Zm-.53-.69c-.73.9-1.29,1.6-1.29,1.6l-.6.83c-.25.33-.51.66-.77.98-.01.01-.02.03-.03.04-.94.02-1.87.05-2.78.08,0,0-1.04.22-2.07.44-.15.03-.3.07-.45.1.79-1.26,1.59-2.52,2.39-3.77l2.53-3.97c1.07,1.16,2.09,2.39,3.08,3.68Zm-6.46-6.87c.76.62,1.52,1.29,2.23,1.98.12.12.24.25.36.37l-2.48,3.89c-1.08,1.69-2.16,3.38-3.22,5.09-1.2.38-2.1.99-1.26,1.63-.72.42-1.24.82-1.51,1.03-.08.06-.08.06-.07.07,0,0,.04.07.1.17.05.11.14.26.22.45.07.14.14.3.21.47-1.86,3.19-3.6,6.46-5.01,9.89-.21.5-.4,1.02-.6,1.53-.82.46-1.57.82-2.13,1.08-.58.27-.93.43-.93.43l-1.69.93-.87.5-.72.44-.07.05h0s0,0,0,0h0s-.12-.07-.12-.07c-.2-.13-.4-.26-.6-.41l-.02-.02c.11-.53.27-1.06.46-1.58,1.02-2.69,2.82-5.07,4.44-7.6,1.61-2.49,3.28-4.96,4.95-7.43,1.67-2.47,3.34-4.94,4.97-7.44.81-1.25,1.62-2.51,2.4-3.79l.87-1.43s.05-.1.13-.25Zm-12.2-5.56s.04-.08.06-.12c.26.08.56.15.9.21.63.13,1.41.22,2.28.38.52.11,1,.24,1.52.43.54.19,1.06.37,1.56.61,1.01.45,1.96,1.01,2.76,1.56.8.55,1.47,1.08,1.93,1.47.14.12.26.22.36.31-.11.16-.18.26-.18.26l-.66,1.09c-.79,1.29-1.59,2.56-2.42,3.83-1.64,2.54-3.34,5.04-5.03,7.55-1.7,2.51-3.39,5.02-5.05,7.57-1.6,2.53-3.49,4.98-4.62,7.94-.15.4-.27.8-.38,1.21-.41-.32-.81-.65-1.22-.95-.87-.63-1.69-1.12-2.55-1.68,1.7-3.02,3.46-6.01,5.26-8.97,1.96-3.21,3.97-6.39,6.04-9.54,1.03-1.57,2.08-3.14,3.13-4.7l1.05-1.54s1.63-2.7,1.53-2.6c.61-1.11.87-1.93-.49-.39-.83.89-1.89,2.24-1.89,2.24l-.76,1.11c-1.08,1.59-2.14,3.18-3.2,4.79-2.11,3.21-4.17,6.45-6.17,9.72-4.01,6.55-7.78,13.25-11.27,20.09l-.84,1.67s0,.09,0,.1c.17.74.69.61.95.46.04-.02.04-.03.06-.05l.84-1.66c1.31-2.57,2.67-5.12,4.06-7.65l-.25.92-.21.86-.16.7c-.27,1.22-.49,2.48-.63,3.75-.11,1.14-.3,2.35-.41,3.6-.02.23-.03.47-.05.71-.2.38-.44.87-.68,1.37-.25.53-.49,1.07-.66,1.49-.02.05-.03.08-.05.12-1.14-1.34-2.3-2.81-3.21-4.08-1.21-1.67-2.02-2.94-2.02-2.94-.44-.58-.85-1.17-1.25-1.76.04-.02.08-.03.12-.05.04-.02.05-.03.06-.05l.91-1.63c3.54-6.4,6.92-12.88,10.42-19.29,1.75-3.2,3.52-6.39,5.35-9.55.92-1.58,1.84-3.14,2.79-4.7l.96-1.56s.37-.69.74-1.37c.37-.67.73-1.34.69-1.29Zm-3.41-.66c.06.07.26.17.3.19,1.07.39,1.81.31,2.32.01.07.04.16.08.26.13-.79.91-1.76,2.27-1.76,2.27l-.7,1.14c-.97,1.59-1.93,3.19-2.86,4.8-1.87,3.22-3.68,6.47-5.47,9.73-3.56,6.53-7,13.12-10.59,19.61l-.73,1.31c-.06-.09-.12-.18-.18-.28l-.58-.94c-.18-.3-.35-.6-.51-.9-.33-.61-.63-1.24-.89-1.88-.22-.52-.41-1.05-.58-1.59.09-.04.18-.09.24-.14.04-.03.04-.03.05-.06.17-.58.39-1.15.6-1.71,1.34-3.29,3.32-6.32,5.27-9.36.98-1.52,1.97-3.05,2.89-4.63l2.64-4.76c1.76-3.16,3.59-6.28,5.51-9.33.96-1.53,1.95-3.04,2.97-4.52l.68-.99c.39.64.79,1.27,1.16,1.93Zm-4.45-6.96c.3.42.6.84.89,1.27.6.9,1.19,1.8,1.77,2.72l-.6.86c-1.06,1.52-2.07,3.06-3.06,4.63-1.98,3.12-3.85,6.31-5.65,9.53l-2.68,4.83c-.9,1.58-1.9,3.12-2.89,4.67-1.98,3.1-4.04,6.21-5.47,9.71-.1.26-.2.52-.29.79-.07-.28-.14-.57-.2-.86-.06-.26-.1-.49-.14-.72l-.04-.32-.03-.36c-.03-.5-.04-1.02-.03-1.56,0-1.09.07-2.22.06-3.48-.02-.11-.14-.31-.18-.36-.16-.2-.32-.36-.47-.51,1.11-2.54,2.74-4.88,4.29-7.28.85-1.27,1.62-2.63,2.41-3.91l2.41-3.89c1.62-2.58,3.25-5.15,4.91-7.71l3.42-5.24s1.58-2.73,1.49-2.63c.03-.06.07-.13.1-.19Zm-3.17-4.18c.98,1.2,1.93,2.44,2.84,3.7-.08.09-.16.18-.25.29-.81.9-1.84,2.27-1.84,2.27l-3.25,4.97c-1.69,2.61-3.36,5.22-5.01,7.86l-2.46,3.96c-.83,1.34-1.58,2.67-2.43,3.95-1.55,2.39-3.22,4.77-4.42,7.46-.25-.06-.49-.06-.71-.01,0-.45-.75-1.61-2.65-3.74-.06-.07-.12-.14-.17-.2.22.07.37.12.3.1h0s0,0,0,0h0s.02-.03.02-.03l.07-.09.12-.17.02-.02.55-.76c3.64-5.01,7-10.2,10.31-15.4l4.96-7.81,3.43-5.3s.28-.48.59-1.03Zm-10.01-9.85c.32.25.65.49.96.75,1.15.93,2.26,1.91,3.34,2.93-.1.12-.22.25-.35.42-.79.92-1.77,2.33-1.77,2.33l-.65,1.08-2.16,3.67-4.24,7.38c-2.82,4.91-5.67,9.8-8.8,14.5l-1.05,1.53s-.01.08-.01.1c.07.76.6.7.87.59.04-.01.05-.02.06-.05l1.05-1.55c3.1-4.66,5.92-9.48,8.7-14.32l4.16-7.25,2.11-3.6.83-1.38s.37-.7.73-1.38c.36-.68.72-1.35.67-1.3.08-.16.15-.31.21-.44,1.66,1.6,3.23,3.3,4.72,5.07-.46.57-.82,1.04-.82,1.04l-.71,1.08-2.56,3.96-5.04,7.95c-3.36,5.29-6.76,10.55-10.44,15.61l-.35.48s-.02,0-.03,0c-.05,0-.06.02-.09.04-.1.09-.22.23-.31.41-1.26-1.46-2.64-3.04-3.65-4.38-.63-.81-1.1-1.5-1.46-2.05-.35-.53-.56-.85-.56-.85-.54-.71-1.07-1.44-1.58-2.17l-.38-.55-.19-.28-.69-1.05c-.68-1.06-1.31-2.14-1.92-3.23.25.09.5-.07.64-.19.03-.03.04-.04.04-.06.13-.59.3-1.17.49-1.75.63-1.93,1.5-3.79,2.42-5.63l.4-.79s1.29-2.88,1.2-2.78c.06-.15.11-.29.15-.42.59.37,1.22.66,1.87.85,1.34.4,2.71.33,3.64.03.46-.16.83-.3,1.06-.44.12-.07.21-.12.27-.16-.36.68-.73,1.36-1.08,2.05-.67,1.32-1.34,2.58-2.1,3.83-1.5,2.51-3.14,5-4.27,7.8-.24.59-.45,1.2-.62,1.82,0,.03.01.09.02.1.3.71.8.44,1.02.26.04-.03.04-.04.05-.06.15-.58.36-1.15.58-1.71,1.05-2.62,2.62-5.03,4.11-7.51.75-1.23,1.47-2.54,2.11-3.82.67-1.28,1.33-2.56,2.02-3.82,1.37-2.54,2.78-5.05,4.24-7.53.73-1.24,1.47-2.48,2.22-3.71l.86-1.4s.02-.03.04-.07Zm-7.11-4.75c2.17,1.22,4.24,2.58,6.23,4.07-.01.02-.03.04-.03.04l-.67,1.09c-.77,1.25-1.53,2.52-2.27,3.79-.73,1.23-1.44,2.48-2.15,3.72,0-.05,0-.09,0-.14.02-.28,0-.55-.04-.82-.04-.27-.06-.54-.13-.8-.26-1.03-.71-1.98-1.3-2.79-.75-1.01-1.72-1.84-2.89-2.42.09-.26.2-.51.31-.77.08-.19.18-.37.27-.56.13-.25.27-.51.42-.76,0,0,.35-.69.73-1.35.38-.66.77-1.3.73-1.26.33-.57.56-1.07.5-1.19.09.05.18.1.28.15Zm-8.82-4.04c1.53.5,2.98,1.07,4.45,1.8,1.37.63,2.7,1.34,4.03,2.06-.12.02-.41.26-.93.83-.42.44-.89,1-1.25,1.47-.36.47-.61.83-.61.83-.18.31-.35.62-.52.94-.1.2-.21.4-.3.61-.12.26-.23.54-.33.81-.3-.09-.6-.18-.92-.22l-.63-.06c-.21-.03-.42-.03-.64,0-.42.04-.84.06-1.25.2.33-.65.65-1.3.98-1.94l.67-1.27s.33-.71.65-1.41c.33-.7.65-1.38.61-1.33.51-1.16.7-1.99-.52-.34-.75.96-1.66,2.42-1.66,2.42l-.57,1.07c-.5.95-.98,1.9-1.46,2.86-.96,1.92-1.88,3.85-2.79,5.78-1.81,3.87-3.65,7.73-5.54,11.52-.07.13-.14.26-.21.39-.5-1.24-.97-2.48-1.37-3.73-.1-.35-.19-.7-.29-1.05.09-.27.17-.55.26-.82.97-2.94,2.1-5.83,3.32-8.68.61-1.42,1.25-2.84,1.9-4.25l1.56-3.27s1.21-2.91,1.14-2.8c.44-1.19.58-2.03-.54-.31-.69,1-1.54,2.49-1.54,2.49l-1.53,3.2c-.67,1.44-1.32,2.89-1.96,4.35-1.15,2.66-2.21,5.36-3.14,8.11-.56-2.24-1.02-4.53-1.42-6.82.12-.59.28-1.17.45-1.75.37-1.1.78-2.19,1.28-3.25.48-1.07,1.01-2.12,1.56-3.16l1.41-2.61s.33-.71.66-1.42c.33-.7.63-1.4.59-1.35.46-1.2.59-2.02-.53-.32-.7.98-1.63,2.42-1.63,2.42l-1.41,2.6c-.57,1.07-1.12,2.16-1.63,3.27-.43.96-.84,1.94-1.19,2.95v-.07s-.19-1.24-.19-1.24l-.16-1.18c-.05-.43-.07-.88-.09-1.34.11-.37.22-.75.34-1.12.56-1.69,1.2-3.36,1.94-4.98l.37-.8s.29-.72.61-1.42c.14-.31.27-.6.39-.84.8.22,1.61.43,2.57.55.72.11,1.55.26,2.34.42,1.59.32,3.15.73,4.67,1.22Z"/>
    <path class="uuid-062805f8-2ac4-4413-8723-e4a47ee9a4a7" d="m66.17,72.38c-2.03,1-4.39,2.51-6.09,4.08-1.72,1.54-2.72,3.1-2.72,3.1-.71,1.21-1.28,2.59-1.54,4.07l-.04.19-.06.56c-.06.41-.05.82-.05,1.22,0,.41.05.81.09,1.22.07.4.13.8.23,1.19.39,1.56,1.08,2.96,1.89,4.21,1.31,1.99,2.9,3.62,4.58,5.07-.16.09-.15.08,0,0,.42.37.85.73,1.28,1.08l.1.08.03.02c-.72.38,6.28-3.27,3.32-1.73h0s0-.02,0-.02v-.07s-.02-.26-.02-.26l-.04-.52-.1-1.04-.05-.43v-.02s0,0,0,.01h0s.88.63.88.63c2.31,1.55,4.73,2.86,7.21,3.98,1.24.57,2.5,1.07,3.76,1.57l1.3.48,1.84.62c1.21.4,2.47.83,3.67,1.19-.12-1.27-.23-2.56-.37-3.81-.07-.63-.12-1.25-.22-1.9-.04-.32-.11-.65-.17-.97l-.09-.52c-.28-1.36-.6-2.71-1-4.03-.78-2.64-1.8-5.18-2.94-7.66h0c-.2-.43-.42-.84-.63-1.27l.27.26.48.46.24.23.12.11.03.03.06.06.11.13,1.78,2.04,2.16,2.47.67.77.34.39.17.19.08.1s0-.02,0-.02l-.15-.69-.41-1.85-.32-1.45-.22-.99-.72-3.24c-.24-1.03-.67-2.21-1.32-3.51-.65-1.28-1.55-2.69-2.58-3.98-.59-.73-1.19-1.4-1.87-2.05-.92-.88-1.92-1.7-3.1-2.38-1.16-.68-2.53-1.25-4.15-1.35-.14.01-.41.13-.46.17-.75.46-1.06,1-1.14,1.43-.05.29-.02.55.06.78-.15-.01-.34,0-.63.07-.71.17-1.88.6-3.58,1.48Zm-6.19,14.65c-.06-.25-.1-.5-.15-.75-.01-.25-.06-.5-.05-.74,0-.25,0-.5.03-.74l.03-.34.03-.12c.03-.17.07-.34.11-.51l.72,2.28-.69,1.03s-.03-.08-.04-.11Zm1.34,2.94c-.32-.49-.6-1-.84-1.51l.34-.51.31-.47.65,2.06c.17.59.32,1.14.45,1.67-.33-.41-.64-.82-.91-1.25Zm17.48-.3c.39,1.04.76,2.09,1.07,3.15.37,1.2.66,2.42.91,3.64l.08.45-.55-.2c-1.19-.46-2.37-.93-3.52-1.47-.21-.09-.41-.2-.62-.29.18-.44.36-.88.56-1.31.29-.61.6-1.21.92-1.81l.43-.77s.35-.68.7-1.38c0,0,.01-.02.02-.03Zm-1.03-.12c-.34.47-.58.83-.58.83l-.52.92c-.33.61-.65,1.23-.95,1.86-.2.43-.38.87-.56,1.31-1.26-.62-2.48-1.3-3.66-2.03.12-.03.24-.09.32-.15.04-.02.04-.03.05-.06.2-.58.42-1.16.65-1.73.7-1.77,1.49-3.51,2.34-5.22l.4-.79s.3-.67.61-1.35c.45.85.89,1.72,1.29,2.59h0c.45.98.87,1.97,1.27,2.97-.23.29-.46.59-.65.86Zm-6.29-17.17s.07.08.1.11c.08.1.09.1.15.1.67.04,1.48.31,2.28.79.8.46,1.58,1.09,2.31,1.79l1.51,1.66-.2-.05c-.49-.11-.97-.2-1.46-.25l-.37-.04h0c-3.86,6.3-1.07,1.75-1.93,3.15h0s0,.02,0,.02l.02.03.04.06.08.13.31.52c.36.6.69,1.22,1.03,1.83-.55.81-1.03,1.6-1.03,1.6l-.47.93c-.87,1.73-1.67,3.5-2.39,5.31-.23.58-.45,1.17-.66,1.76,0,.03,0,.09.01.1.01.03.03.05.04.08-.22-.14-.44-.28-.66-.42l-.75-.54c-.49-.32-1.04-.8-1.56-1.27l-.94-.83c.06-.17.11-.35.18-.52.64-1.64,1.5-3.21,2.42-4.76.92-1.54,1.9-3.06,2.9-4.57l.49-.74s1.58-2.73,1.49-2.64c.57-1.14.79-1.95-.5-.37-.79.91-1.84,2.27-1.84,2.27l-.57.87c-1,1.52-1.99,3.04-2.93,4.61-.93,1.57-1.82,3.18-2.51,4.93-.01.03-.02.06-.03.08l-1.53-1.68-1.54-1.72,3.07-4.6c.88-1.29,1.76-2.58,2.67-3.86l1.37-1.9.77-1.04s.29-.44.63-.96Zm-.89-1.13c.08.14.17.26.26.38-.46.51-.82.92-.82.92l-.69.94-1.4,1.94c-.92,1.3-1.83,2.62-2.73,3.94l-3.01,4.5-1.39-1.55-.17-.19s.03-.07.05-.1c0,0,.05-.14.18-.37.06-.12.13-.26.21-.43.1-.16.2-.35.32-.55.49-.8,1.27-1.84,2.18-2.81,1.8-1.95,3.99-3.6,3.75-3.51,1.58-1.37,2.94-2.5,3.25-3.11Z"/>
  </g>
</svg>