<?xml version="1.0" encoding="UTF-8"?>
<svg id="uuid-2c9c2cff-7464-4d71-a18e-933efe722c98" data-name="Camada 2" xmlns="http://www.w3.org/2000/svg" viewBox="0 0 114.64 83.05">
  <defs>
    <style>
      .uuid-a8daa7fd-d2cf-49cb-8461-3b014389be51 {
        fill: #202020;
        stroke-width: 0px;
      }
    </style>
  </defs>
  <g id="uuid-517e0866-3daa-47d8-bfc3-88936cd9a62b" data-name="Object">
    <path class="uuid-a8daa7fd-d2cf-49cb-8461-3b014389be51" d="m37.3,24.61c-.98.8-.39,1.48.02,1.74.06.05.08.05.12.05h3.08c1.49.02,2.98.06,4.47.08.17.12.32.21.39.21.08,0,.1-.06.06-.21,1.66.03,3.32.05,4.97.09.7.54,1.14.73.75.02,1.05.03,2.1.05,3.15.08l.04,1.44c.13,3.62.31,7.23.5,10.83l.11,2.19c-11.83-.25-23.72-.6-35.61.37l-3.09.28s-.12.07-.14.09c-.32.32-.44.61-.44.85l-.46.13.2,2.41c.09,1.2.16,2.4.2,3.6l.04,1.46s.11,1.29.17,2.55c.07,1.26.08,2.5.11,2.4.06,1.04.13,1.9.3,2.1.16.19.43-.29.73-1.97.2-.99.35-2.21.44-3.18.09-.97.12-1.69.12-1.69l-.05-1.74c-.05-1.22-.12-2.44-.2-3.66l-.12-1.5s.02-.04.03-.06l2.32-.21c11.76-.96,23.62-.62,35.48-.36.02,0,.05,0,.07,0l.3,5.99s.13,1.3.26,2.57c.13,1.27.25,2.52.27,2.41.27,2.08.72,3.43,1.03.04.23-2,.3-4.85.3-4.85l-.22-4.62-.08-1.49c5.29.11,10.58.18,15.89.09l4.46-.12,4.46-.21,3.02-.22s1.3-.17,2.57-.37c1.27-.22,2.5-.44,2.39-.45,2.06-.44,3.34-1-.05-1.03-1-.04-2.2-.01-3.15-.02-.96,0-1.66,0-1.66,0l-2.18.16c-3,.18-6,.31-9,.37-5.61.11-11.23.04-16.86-.07l-.11-2.14c-.19-3.67-.38-7.33-.5-10.98l-.04-1.33c.62.02,1.24.03,1.87.05l6.19.21c.14.09.23.1.25,0l8.95.3s5.22-.14,5-.19c2.09-.16,3.45-.52.1-1.03-1.97-.35-4.79-.64-4.79-.64l-5.27-.18c-.08-.25-.27-.67-.6-1.3-.74-1.46-1.94-3.44-1.94-3.44l-2.36-3.38-2.93-4.25c-1.94-2.84-3.84-5.7-5.64-8.62-.22-.36-.44-.73-.65-1.09,1.09-.06,2.18-.11,3.27-.16l1.28,2.03c1.76,2.75,3.59,5.45,5.41,8.15l2.71,4.05,1.34,2.03.88,1.36s.62.86,1.23,1.7c.6.85,1.19,1.68,1.16,1.59,1.02,1.36,1.88,2.14.74-.39-.64-1.51-1.76-3.55-1.76-3.55l-.83-1.3-1.36-2.08-2.76-4.13c-1.85-2.75-3.7-5.48-5.48-8.26l-.81-1.29c1.14-.05,2.27-.09,3.41-.13.17.21.34.41.5.62,2.32,2.91,4.52,5.92,6.64,8.99l.68.99s.64.84,1.27,1.67c.63.83,1.23,1.65,1.2,1.56.19.23.36.45.53.63.04.38.08.8.12,1.23.12,1.27.21,2.51.22,2.4.2,2.07.59,3.46,1.03.07.3-2,.36-4.87.36-4.87l-.08-1.73c-.17-3.32-.37-6.62-.38-9.9,0-.76.02-1.51.04-2.26,2.69-.2,4.22-.67-.35-1.45-2.86-.54-6.98-.77-6.98-.77l-2.49.05c-7.37.19-14.67.74-21.95.95-1.47.04-2.94.07-4.41.08-.06.01-.18.09-.21.11-.53.44-.73.85-.76,1.21,0,0-.01.01-.02.02l-.03.05h0s-.05.07-.07.1l-.05.05c-.06.07-.12.12-.16.17-.06.06-.06.08-.07.12l-.07.41c-.03.15-.04.29-.05.42l-.07.81c-.05.54-.06,1.05-.09,1.58-.15,3.64.05,7.23.18,10.79l.05,1.47s.12,1.3.21,2.56c.1,1.27.15,2.51.17,2.4.03.43.07.83.12,1.17h-.31s-.13.06-.15.07ZM70.93,2.44c.75-.05,1.49-.08,2.09-.11-.02.71-.04,1.43-.04,2.14,0,.72.02,1.43.03,2.15-.02-.05-.04-.08-.04-.08,0,0-.77-1.06-1.55-2.13-.56-.77-1.08-1.55-1.32-1.92.27-.02.55-.03.82-.05Zm-5.79.28l2.11-.04s.65-.05,1.55-.11c-.01.01-.03.02-.04.04-.03.05-.06.11-.07.18-.02.06-.04.07-.05.11-.02.04-.02.04-.01.06.04.13.77,1.25,1.55,2.31.78,1.06,1.55,2.12,1.55,2.12,0,0,1.15,1.12,1.14,1.05.08.06.15.11.22.15.08,1.97.19,3.93.29,5.89l.05,1.01c-.66-1.34-1.49-2.76-1.49-2.76l-.79-1.17c-2.07-3.01-4.22-5.95-6.49-8.82.16,0,.33-.01.49-.02Zm-20.75,21.88c-.38-.63-.73-1.21-1.01-1.68-.44-.69-.73-1.16-.73-1.16l-.87-1.13c-.3-.38-.61-.76-.92-1.13-.55-.64-1.14-1.26-1.76-1.85l-.03-.79c-.03-.8-.06-1.6-.09-2.4,2.07,2.97,4.53,5.49,6.95,8.03l.84.87s.71.64,1.44,1.31c-1.28-.03-2.55-.04-3.83-.06ZM52.61,3.28c.36.6.72,1.21,1.08,1.8,1.79,2.9,3.67,5.73,5.58,8.53l2.89,4.19,2.4,3.43s2.65,3.34,2.57,3.17c.29.33.57.63.79.84l-4.34-.15c-.79-1.38-1.88-3.01-1.88-3.01l-2.6-3.42c-1.11-1.46-2.19-2.94-3.24-4.43-2.1-2.98-4.1-6.05-5.65-9.3-.22-.5-.44-1-.64-1.51,1.01-.05,2.02-.1,3.03-.15Zm-4.63.22c.26.71.56,1.4.87,2.08,1.59,3.34,3.59,6.4,5.68,9.38,1.05,1.49,2.12,2.95,3.21,4.4l2.66,3.5s1.12,1.3,1.91,2.21l-3.15-.11c-.12-.24-.29-.54-.54-.94-.83-1.41-2.16-3.31-2.16-3.31l-2.6-3.28c-1.09-1.39-2.16-2.78-3.2-4.2-2.08-2.83-4.06-5.73-5.72-8.79-.14-.26-.28-.53-.42-.79,1.15-.04,2.31-.08,3.46-.13Zm-5.13.19c.24.49.5.98.76,1.46,1.69,3.1,3.66,6.01,5.73,8.82,1.03,1.41,2.1,2.79,3.17,4.17l2.66,3.34s2.86,3.16,2.77,3c.15.15.3.3.44.43-.77-.02-1.54-.04-2.3-.06,0-.01-.02-.03-.02-.03-.48-.55-.9-.58-1.22-.43-.07-.12-.15-.25-.24-.39-.84-1.41-2.21-3.29-2.21-3.29l-2.65-3.16c-1.11-1.32-2.2-2.64-3.29-3.97-2.16-2.66-4.25-5.37-6.1-8.23-.34-.53-.67-1.07-.98-1.61,1.16-.01,2.32-.03,3.48-.06Zm-3.95,2.52c0-.1.01-.2.02-.29.06.09.11.18.17.27,1.86,2.88,3.95,5.59,6.09,8.23,1.07,1.32,2.16,2.62,3.24,3.92l2.69,3.2s.73.77,1.44,1.53c.71.76,1.41,1.5,1.36,1.42.11.11.22.22.32.31-1.47-.04-2.94-.08-4.4-.12-.87-1.13-1.83-2.25-1.83-2.25l-.98-1.01c-2.44-2.54-4.91-5.1-6.86-7.92-.22-.34-.43-.68-.63-1.02l-.26-.52-.13-.26-.09-.26s-.08-.07-.09-.08c-.02-.01-.05-.02-.07-.03-.04-1.72-.05-3.43.02-5.14Zm-.23,17.24c.21-1.18.33-2.66.39-3.68.22.24.44.47.65.72.3.35.6.71.89,1.08l.73.94s.68.8,1.36,1.6c.13.16.27.31.39.46-.85-.01-1.69-.03-2.54-.04h-2.07c.06-.3.13-.65.2-1.09Z"/>
    <path class="uuid-a8daa7fd-d2cf-49cb-8461-3b014389be51" d="m.41,81.35c.08.63.24.82.51.14.95.01,1.91,0,2.86-.02,3.52-.09,7.01-.37,10.48-.69l5.2-.48,2.59-.22,1.91-.14s1.28-.16,2.55-.31c1.26-.15,2.5-.26,2.39-.28,2.06-.25,3.43-.68.04-1.03-2-.24-4.86-.25-4.86-.25l-1.72.12c-3.96.3-7.89.72-11.81,1.03-.12-.24-.3-.56-.56-.97-.83-1.41-2.13-3.32-2.13-3.32l-.86-1.11c-.77-1-1.54-2.01-2.29-3.03-.5-.67-.98-1.35-1.46-2.03-.03-.02-.1-.06-.12-.06-.11-.03-.21-.05-.3-.05.1-1.52.18-3.04.24-4.56.11.27.23.53.35.79.18.4.4.78.6,1.16,1.48,2.61,3.39,4.87,5.29,7.06l.8.91s.74.75,1.48,1.49c.73.74,1.43,1.47,1.38,1.39,1.19,1.19,2.15,1.89.68-.49-.86-1.41-2.28-3.25-2.28-3.25l-.92-1.05c-1.89-2.17-3.73-4.37-5.11-6.8-.19-.36-.4-.71-.55-1.07-.17-.36-.34-.73-.47-1.1-.02-.03-.08-.07-.1-.08-.57-.32-.92-.19-1.12.05.01-.35.03-.7.04-1.05.02-.83.03-1.67.04-2.5.3.05.61.09.91.13,0,0,0,.01,0,.02.39.77.82,1.51,1.26,2.24,2.45,4,5.41,7.6,8.37,11.13l.78.92s2.93,3.09,2.83,2.94c1.22,1.2,2.18,1.84.68-.5-.86-1.4-2.23-3.26-2.23-3.26l-.9-1.07c-2.95-3.52-5.87-7.08-8.23-10.95-.25-.42-.49-.84-.73-1.27.07,0,.13.01.2.02,1.47.11,2.93.17,4.38.19-.17.14-.26.36-.29.54-.02.06-.01.07,0,.11.15.42.32.82.5,1.21.17.4.38.78.57,1.17,1.67,3.15,3.82,5.91,5.94,8.64l.74.95s.7.79,1.4,1.57c.69.78,1.36,1.54,1.31,1.46,1.15,1.25,2.08,1.96.7-.46-.79-1.44-2.1-3.36-2.1-3.36l-.86-1.1c-2.11-2.72-4.22-5.45-5.79-8.42-.19-.36-.38-.72-.54-1.09-.17-.37-.33-.74-.46-1.11-.02-.03-.08-.08-.1-.09-.03-.01-.05-.02-.07-.03,1.09,0,2.19-.01,3.28-.04-.03.1-.05.19-.06.28,0,.06,0,.07.01.11.4.77.84,1.5,1.28,2.23,1.47,2.35,3.08,4.56,4.68,6.76l.71.97s2.71,3.28,2.62,3.12c1.12,1.28,2.04,2,.71-.44-.75-1.46-2-3.41-2-3.41l-.83-1.13c-1.6-2.2-3.19-4.39-4.61-6.67-.38-.61-.74-1.23-1.08-1.86.66-.02,1.32-.05,1.97-.08.4.66.81,1.31,1.23,1.96,1.68,2.59,3.47,5.09,5.27,7.56l.71.97s2.71,3.28,2.63,3.12c1.14,1.27,2.05,1.98.71-.45-.76-1.45-2-3.41-2-3.41l-.83-1.13c-1.8-2.47-3.57-4.95-5.22-7.5-.26-.4-.5-.8-.76-1.2.7-.03,1.4-.06,2.09-.09.39.57.78,1.14,1.19,1.71l1.35,1.85.72.97s.69.8,1.38,1.6c.69.79,1.37,1.55,1.33,1.47,1.19,1.24,2.12,1.9.7-.47-.81-1.42-2.08-3.35-2.08-3.35l-.84-1.12-1.33-1.83c-.21-.3-.41-.6-.62-.89l.58-.02s1.29-.13,2.56-.22c1.27-.11,2.5-.16,2.4-.19.23-.02.44-.04.65-.06-.09,1.03-.1,2.05-.11,3.07.03,2.94.3,5.84.59,8.72l.15,1.47s.2,1.28.41,2.55c.2,1.26.37,2.49.38,2.38.34,2.05.81,3.41,1.03,0,.15-2.02.05-4.87.05-4.87l-.17-1.72c-.28-2.87-.55-5.72-.57-8.55,0-1.01.02-2.02.11-3.01,0-.04-.05-.13-.06-.15-.33-.47-.66-.62-.95-.6-.32-.08-.79-.17-1.42-.27-1.99-.33-4.85-.43-4.85-.43l-1.73.06c-5.57.22-11.11.61-16.57.18-1-.09-2.01-.19-2.99-.36-.04,0-.13.04-.15.05-.32.19-.49.39-.59.59-.54-.22-.96.19-1.16.49-.05.06-.05.08-.05.12,0,1.02-.02,2.05-.05,3.07-.1,3.76-.33,7.52-.65,11.28l-.1,1.17c-.12.09-.21.18-.25.26-.03.04-.02.04-.02.06,0,.01.08.22.23.51-.02.5-.04,1.27-.07,2.05-.05,1.28-.09,2.53-.06,2.42,0,.04,0,.08,0,.12-.61.64-.28,1.18.07,1.46Zm1.9-6.17l.16-1.72c.08-.95.16-1.9.23-2.85.27.37.53.74.8,1.1.76,1.03,1.53,2.05,2.31,3.06l.74.95s.7.79,1.41,1.58c.7.78,1.39,1.53,1.35,1.45.2.2.38.38.56.54-1.34.1-2.68.19-4.03.25-.23-.32-.42-.56-.42-.56,0,0-.28-.27-.71-.68-.42-.41-.97-.95-1.46-1.53-.38-.44-.71-.91-.97-1.33.03-.16.04-.25.04-.25Zm-.42,2.33c.05.07.11.14.16.2.53.64,1.11,1.21,1.54,1.63.1.1.2.19.29.27-.05,0-.1,0-.15,0-.77.01-1.53.02-2.29.02.17-.68.32-1.43.46-2.12Z"/>
    <path class="uuid-a8daa7fd-d2cf-49cb-8461-3b014389be51" d="m39.01,58.87c-.32,1.34-.04,2.43-.02,3.37.25,4.08.31,8.12.24,12.2l-.03,1.47s.05,1.3.1,2.58c.05,1.28.09,2.53.12,2.42.15,2.03.49,3.35.97.42.11.12.24.22.36.28.06.04.08.04.12.04,1.01-.08,2.02-.12,3.04-.15,5.43-.16,10.91.04,16.41.02h1.48s1.31-.09,2.59-.21c1.28-.11,2.53-.27,2.42-.28,2.09-.34,3.38-.84.02-1.03-1.98-.17-4.8-.34-4.8-.34h-1.71c-5.46.03-10.94-.17-16.46-.01-1.04.03-2.08.08-3.12.16-.03,0-.08.04-.11.06.25-1.77.42-3.66.42-3.66l.03-1.73c.07-4.1,0-8.24-.24-12.32-.06-1.1-.23-2.09-.05-2.77.66.14,1.31.26,1.97.37,5.83.85,11.66.51,17.39.15l1.47-.1s1.29-.16,2.56-.32c1.26-.16,2.5-.3,2.39-.32.78-.11,1.45-.25,1.81-.39l.06,2.83.2,9.48.03,1.48s.42,5.21.45,5c.26,2.09.7,3.44,1.03.06.24-1.99.37-4.83.37-4.83l-.03-1.73-.19-9.51-.06-3.1s-.06-.13-.08-.14c-.82-.95-1.48-.34-1.74.08,0,0,0,0,0,0-.29-.1-.86-.19-1.83-.27-2-.2-4.85-.2-4.85-.2l-1.72.11c-5.71.36-11.43.68-16.99-.14-.99-.17-1.97-.34-2.94-.59-.04,0-.14.03-.16.04-.76.37-.84.85-.7,1.23-.06.05-.12.09-.17.15-.07.06-.07.08-.09.14Z"/>
    <path class="uuid-a8daa7fd-d2cf-49cb-8461-3b014389be51" d="m93.28,56.92c-3.91.1-7.81.17-11.72.2h-3.08s-.13.07-.15.09c-.04.03-.05.06-.09.09-.61-.36-1.09.07-1.3.41-.04.06-.04.08-.04.12l.04,3.11c.08,4.16.28,8.3.38,12.42l.03,1.47s.1,1.29.19,2.57c.09,1.27.16,2.52.18,2.41.16,1.74.45,2.98.81,1.35.02.01.04.03.06.04.06.04.08.04.12.04l3.08-.08,25.76-.63s5.2-.44,4.98-.47c2.08-.27,3.41-.72.03-1.03-1.99-.24-4.83-.36-4.83-.36l-25.98.63-2.94.07c.26-1.93.38-4.33.38-4.33l-.04-1.73c-.1-4.15-.3-8.29-.38-12.41l-.02-1.9h2.8c3.85-.04,7.7-.11,11.55-.21l10.63-.29s1.52-.13,2.88-.26c-.05.81-.08,1.62-.09,2.43-.03,3.15.2,6.27.39,9.35l.09,1.47s.14,1.29.28,2.56c.13,1.26.23,2.5.24,2.39.21,2.06.59,3.46,1.03.06.29-2.01.31-4.87.31-4.87l-.1-1.73c-.19-3.1-.41-6.17-.38-9.22.01-.88.04-1.76.11-2.64.16-.02.26-.03.22-.04,2.08-.27,3.42-.71.04-1.03-1.99-.24-4.83-.35-4.83-.35l-10.67.29Z"/>
    <path class="uuid-a8daa7fd-d2cf-49cb-8461-3b014389be51" d="m91.62,47.91s.17,1.28.33,2.55c.16,1.26.27,2.5.29,2.39.26,2.06.68,3.44,1.03.04.24-2.01.21-4.88.21-4.88l-.14-1.73-.1-1.21-.3-3.09s-.07-.12-.09-.14c-.89-.89-1.51-.24-1.73.2-.04.06-.04.08-.03.13l.3,3.07.11,1.2.12,1.47Z"/>
  </g>
</svg>