<svg xmlns="http://www.w3.org/2000/svg" xmlns:xlink="http://www.w3.org/1999/xlink" viewBox="0 0 451.66 105.21"><defs><style>.cls-1{fill:none;}.cls-2{clip-path:url(#clip-path);}.cls-3{fill:#037367;}.cls-4{fill:#00281f;}.cls-5{clip-path:url(#clip-path-2);}.cls-6{fill:url(#Gradiente_sem_nome);}.cls-7{fill:#fff;}</style><clipPath id="clip-path" transform="translate(-23.11 -22.22)"><rect class="cls-1" width="496.99" height="144.44"/></clipPath><clipPath id="clip-path-2" transform="translate(-23.11 -22.22)"><path class="cls-1" d="M123.52,83.33l-.08.15,0,0-.13.24-.33.56c-2.84,5-15.22,26.79-12.26,26.79h11.63a16.66,16.66,0,0,0,14.41-8.28l11.35-19.5Z"/></clipPath><linearGradient id="Gradiente_sem_nome" y1="144.47" x2="1" y2="144.47" gradientTransform="matrix(0, -24.83, -24.83, 0, 3715.57, 111.82)" gradientUnits="userSpaceOnUse"><stop offset="0" stop-color="#1081b3"/><stop offset="1" stop-color="#8ccbbe"/></linearGradient></defs><g id="Camada_2" data-name="Camada 2"><g id="Camada_1-2" data-name="Camada 1"><g class="cls-2"><path class="cls-3" d="M466.77,44.44H270.71a8,8,0,0,0-6.47,3.3L242.38,77.83l21.84,30a8,8,0,0,0,6.47,3.29H466.77a8,8,0,0,0,8-8V52.44a8,8,0,0,0-8-8" transform="translate(-23.11 -22.22)"/><path class="cls-4" d="M82.44,94.44H67.55A5.54,5.54,0,0,1,62,88.89V66.67A16.68,16.68,0,0,0,78.66,50V44.44H62V22.22H34.22V44.44h0A11.11,11.11,0,0,0,23.11,55.56V66.67H34.22V100a22.22,22.22,0,0,0,22.22,22.22H69.61l0-.06.06-.12.15-.25.46-.81.14-.23c3.28-5.74,14.85-26.31,12-26.31" transform="translate(-23.11 -22.22)"/></g><g class="cls-5"><rect class="cls-6" x="106.37" y="72.94" width="43.07" height="48.56" transform="translate(-39.89 144.83) rotate(-63)"/></g><g class="cls-2"><path class="cls-4" d="M174,121c-.11.17-.22.31-.31.44l-.05.06-.26.35-.09.14-.13.18,0,0a0,0,0,0,1,0,0h0L138.67,63.08v0c-1.42-2.6,10.54-23.74,13.37-28.69a1.19,1.19,0,0,0,.09-.15l.15-.26,0-.09c.13-.23.23-.38.28-.46l0-.08L188.8,95.44a.14.14,0,0,1,0,.06c1.25,2.69-11.35,20.62-14.82,25.49" transform="translate(-23.11 -22.22)"/><path class="cls-3" d="M152.64,33.33,105.7,113.94a16.65,16.65,0,0,1-14.4,8.28H69.61l46.92-80.61c2.65-4.55,9.14-8.28,14.41-8.28Z" transform="translate(-23.11 -22.22)"/><path class="cls-4" d="M220,52.36C221.68,54.73,209,72.69,206,76.9l-.15.2-.23.32-.09.13a1.5,1.5,0,0,0-.15.21l0,0L173.11,33.33h33Z" transform="translate(-23.11 -22.22)"/><path class="cls-4" d="M270.71,122.22h-33l-13.82-19v0c-1.66-2.44,10.93-20.32,13.93-24.52l.15-.21.23-.32.06-.09.15-.21,0,0Z" transform="translate(-23.11 -22.22)"/><path class="cls-3" d="M270.71,33.33l-59.59,82a16.63,16.63,0,0,1-13.48,6.87H173.11l59.59-82a16.68,16.68,0,0,1,13.48-6.87Z" transform="translate(-23.11 -22.22)"/><path class="cls-7" d="M205.89,77.1l-.23.32Z" transform="translate(-23.11 -22.22)"/><path class="cls-7" d="M238.17,78.13l-.23.32.23-.32" transform="translate(-23.11 -22.22)"/><path class="cls-7" d="M266.49,62.82c-3.88,0-6.28,2.64-6.28,6.88V85.85c0,4.25,2.4,6.89,6.28,6.89s6.4-2.58,6.4-6.89V81.78H271v4.11c0,3.13-1.68,5-4.48,5s-4.44-1.87-4.44-5V69.66c0-3.13,1.66-5,4.44-5s4.48,1.87,4.48,5V73h1.88V69.7c0-4.31-2.39-6.88-6.4-6.88" transform="translate(-23.11 -22.22)"/><path class="cls-7" d="M284.16,62.82c-4.19,0-6.49,2.54-6.49,7.17V85.57c0,4.62,2.3,7.17,6.49,7.17s6.48-2.55,6.48-7.17V70c0-4.63-2.3-7.17-6.48-7.17m0,1.84c3.14,0,4.6,1.68,4.6,5.29V85.61c0,3.6-1.46,5.28-4.6,5.28s-4.6-1.68-4.6-5.28V70c0-3.61,1.46-5.29,4.6-5.29" transform="translate(-23.11 -22.22)"/><polygon class="cls-7" points="284.12 64.82 275.13 41 272.96 41 272.96 70.11 274.8 70.11 274.8 45.49 284.08 70.11 285.97 70.11 285.97 41 284.12 41 284.12 64.82"/><polygon class="cls-7" points="290.31 42.84 295.93 42.84 295.93 70.11 297.81 70.11 297.81 42.84 303.44 42.84 303.44 41 290.31 41 290.31 42.84"/><path class="cls-7" d="M333.23,63.1l-6.49,29.23h1.87l1.52-6.82h8.28L340,92.33h1.91L335.23,63.1Zm-2.67,20.56,3.68-16.61L338,83.66Z" transform="translate(-23.11 -22.22)"/><path class="cls-7" d="M355.91,77.05c1.53-.78,2.88-2.43,2.88-5.78V70c0-4.71-2-6.81-6.49-6.81h-6.08V92.33h6.48c4.45,0,6.53-2.17,6.53-6.84V83.16c0-3.3-1-5.24-3.32-6.11m-4.05-.78H348.1V65.06h4.16c3.43,0,4.64,1.32,4.64,5v1.28c0,3.47-1.46,4.88-5,4.88m-3.76,1.81h3.8c4,0,5.44,1.36,5.44,5v2.37c0,3.6-1.3,5-4.64,5h-4.6Z" transform="translate(-23.11 -22.22)"/><rect class="cls-7" x="341.1" y="41" width="1.88" height="29.11"/><polygon class="cls-7" points="350.57 41 348.69 41 348.69 70.11 359.93 70.11 359.93 68.27 350.57 68.27 350.57 41"/><rect class="cls-7" x="364.27" y="41" width="1.88" height="29.11"/><path class="cls-7" d="M401.29,63.22H395V92.33h6.32c4.48,0,6.48-2.18,6.48-7.08V70.31c0-4.9-2-7.09-6.48-7.09m-4.44,1.84h4.44c3.35,0,4.6,1.43,4.6,5.25V85.25c0,3.82-1.25,5.24-4.6,5.24h-4.44Z" transform="translate(-23.11 -22.22)"/><path class="cls-7" d="M418.11,63.1l-6.48,29.23h1.86L415,85.51h8.28l1.56,6.82h1.91L420.12,63.1Zm-2.67,20.56,3.69-16.61,3.78,16.61Z" transform="translate(-23.11 -22.22)"/><path class="cls-7" d="M437.43,63.22h-6.32V92.33h6.32c4.48,0,6.48-2.18,6.48-7.08V70.31c0-4.9-2-7.09-6.48-7.09M433,65.06h4.44c3.35,0,4.6,1.43,4.6,5.25V85.25c0,3.82-1.25,5.24-4.6,5.24H433Z" transform="translate(-23.11 -22.22)"/><polygon class="cls-7" points="437.83 42.84 437.83 41 426.23 41 426.23 70.11 437.83 70.11 437.83 68.27 428.11 68.27 428.11 55.85 436.27 55.85 436.27 54.05 428.11 54.05 428.11 42.84 437.83 42.84"/></g></g></g></svg>