<svg xmlns="http://www.w3.org/2000/svg" xmlns:xlink="http://www.w3.org/1999/xlink" viewBox="0 0 247.6 105.21"><defs><style>.cls-1{fill:none;}.cls-2{fill:#fff;}.cls-3{clip-path:url(#clip-path);}.cls-4{clip-path:url(#clip-path-2);}</style><clipPath id="clip-path" transform="translate(-23.11 -22.22)"><rect class="cls-1" width="496.99" height="144.44"/></clipPath><clipPath id="clip-path-2" transform="translate(-23.11 -22.22)"><path class="cls-2" d="M123.52,83.33l-.08.15h0l-.13.24-.33.56c-2.84,5-15.22,26.79-12.26,26.79h11.63a16.67,16.67,0,0,0,14.41-8.28l11.35-19.5Z"/></clipPath></defs><g id="Layer_2" data-name="Layer 2"><g id="Layer_1-2" data-name="Layer 1"><g id="Camada_2" data-name="Camada 2"><g id="Camada_1-2" data-name="Camada 1-2"><g class="cls-3"><path class="cls-2" d="M82.44,94.44H67.55A5.54,5.54,0,0,1,62,88.91V66.67A16.68,16.68,0,0,0,78.66,50V44.44H62V22.22H34.22V44.44h0A11.1,11.1,0,0,0,23.11,55.55h0V66.67H34.22V100a22.22,22.22,0,0,0,22.22,22.22H69.61v-.06l.06-.12.15-.25.46-.81.14-.23c3.28-5.74,14.85-26.31,12-26.31" transform="translate(-23.11 -22.22)"/></g><path class="cls-2" d="M123.52,83.33l-.08.15h0l-.13.24-.33.56c-2.84,5-15.22,26.79-12.26,26.79h11.63a16.67,16.67,0,0,0,14.41-8.28l11.35-19.5Z" transform="translate(-23.11 -22.22)"/><g class="cls-4"><rect class="cls-2" x="106.38" y="72.94" width="43.07" height="48.56" transform="translate(-39.9 144.83) rotate(-63)"/></g><g class="cls-3"><path class="cls-2" d="M174,121c-.11.17-.22.31-.31.44l-.05.06-.26.35-.09.14-.13.18h0L138.67,63.08h0c-1.42-2.6,10.54-23.74,13.37-28.69l.09-.15.15-.26v-.09c.13-.23.23-.38.28-.46v-.08L188.8,95.44v.06c1.25,2.69-11.35,20.62-14.82,25.49" transform="translate(-23.11 -22.22)"/><path class="cls-2" d="M152.64,33.33,105.7,113.94a16.65,16.65,0,0,1-14.4,8.28H69.61l46.92-80.61c2.65-4.55,9.14-8.28,14.41-8.28Z" transform="translate(-23.11 -22.22)"/><path class="cls-2" d="M220,52.36c1.68,2.37-11,20.33-14,24.54l-.15.2-.23.32-.09.13a1.37,1.37,0,0,0-.15.21h0L173.11,33.33h33Z" transform="translate(-23.11 -22.22)"/><path class="cls-2" d="M270.71,122.22h-33l-13.82-19h0c-1.66-2.44,10.93-20.32,13.93-24.52l.15-.21.23-.32.06-.09.15-.21h0Z" transform="translate(-23.11 -22.22)"/><path class="cls-2" d="M270.71,33.33l-59.59,82a16.63,16.63,0,0,1-13.48,6.87H173.11l59.59-82a16.69,16.69,0,0,1,13.48-6.87Z" transform="translate(-23.11 -22.22)"/><path class="cls-2" d="M205.89,77.1l-.23.32Z" transform="translate(-23.11 -22.22)"/><path class="cls-2" d="M238.17,78.13l-.23.32.23-.32" transform="translate(-23.11 -22.22)"/></g></g></g></g></g></svg>